<?xml version="1.0" encoding="utf-8" standalone="no"?>
<!DOCTYPE svg PUBLIC "-//W3C//DTD SVG 1.1//EN"
  "http://www.w3.org/Graphics/SVG/1.1/DTD/svg11.dtd">
<svg xmlns:xlink="http://www.w3.org/1999/xlink" width="504.566929pt" height="170.07874pt" viewBox="0 0 504.566929 170.07874" xmlns="http://www.w3.org/2000/svg" version="1.1">
 <metadata>
  <rdf:RDF xmlns:dc="http://purl.org/dc/elements/1.1/" xmlns:cc="http://creativecommons.org/ns#" xmlns:rdf="http://www.w3.org/1999/02/22-rdf-syntax-ns#">
   <cc:Work>
    <dc:type rdf:resource="http://purl.org/dc/dcmitype/StillImage"/>
    <dc:date>2024-06-30T15:06:35.539613</dc:date>
    <dc:format>image/svg+xml</dc:format>
    <dc:creator>
     <cc:Agent>
      <dc:title>Matplotlib v3.9.0, https://matplotlib.org/</dc:title>
     </cc:Agent>
    </dc:creator>
   </cc:Work>
  </rdf:RDF>
 </metadata>
 <defs>
  <style type="text/css">*{stroke-linejoin: round; stroke-linecap: butt}</style>
 </defs>
 <g id="figure_1">
  <g id="patch_1">
   <path d="M 0 170.07874 
L 504.566929 170.07874 
L 504.566929 0 
L 0 0 
z
" style="fill: #ffffff"/>
  </g>
  <g id="axes_1">
   <g id="patch_2">
    <path d="M 35.548209 153.303813 
L 237.22123 153.303813 
L 237.22123 24.952923 
L 35.548209 24.952923 
z
" style="fill: #ffffff"/>
   </g>
   <g id="line2d_1">
    <path d="M 35.548209 130.315594 
L 237.22123 130.315594 
" clip-path="url(#p53f816cfec)" style="fill: none; stroke-dasharray: 5.55,2.4; stroke-dashoffset: 0; stroke: #808080; stroke-width: 1.5"/>
   </g>
   <g id="PolyCollection_1">
    <defs>
     <path id="m310370e61e" d="M 51.505502 -38.558429 
L 51.505502 -37.781165 
L 58.295839 -31.016167 
L 65.086176 -21.742644 
L 71.876514 -20.07384 
L 78.666851 -20.385724 
L 85.457189 -19.275731 
L 92.247526 -19.718395 
L 99.037863 -22.181577 
L 105.828201 -23.137949 
L 112.618538 -22.695416 
L 119.408876 -20.982877 
L 126.199213 -23.211737 
L 132.98955 -22.789952 
L 139.779888 -23.72166 
L 146.570225 -23.822356 
L 153.360563 -23.98901 
L 160.1509 -26.043774 
L 166.941237 -23.97527 
L 173.731575 -23.860492 
L 180.521912 -24.697827 
L 187.31225 -24.654642 
L 194.102587 -26.012355 
L 200.892925 -28.399861 
L 207.683262 -31.931395 
L 214.473599 -32.140861 
L 221.263937 -32.372214 
L 228.054274 -31.073588 
L 228.054274 -54.916225 
L 228.054274 -54.916225 
L 221.263937 -55.229812 
L 214.473599 -54.574419 
L 207.683262 -54.061626 
L 200.892925 -50.081723 
L 194.102587 -47.841541 
L 187.31225 -46.433579 
L 180.521912 -46.331265 
L 173.731575 -45.611931 
L 166.941237 -45.028504 
L 160.1509 -49.136246 
L 153.360563 -48.726306 
L 146.570225 -46.776403 
L 139.779888 -44.858951 
L 132.98955 -44.04575 
L 126.199213 -44.924478 
L 119.408876 -41.090378 
L 112.618538 -42.109562 
L 105.828201 -41.482591 
L 99.037863 -40.008878 
L 92.247526 -37.988248 
L 85.457189 -37.717053 
L 78.666851 -39.344807 
L 71.876514 -38.580586 
L 65.086176 -36.269903 
L 58.295839 -36.560008 
L 51.505502 -38.558429 
z
"/>
    </defs>
    <g clip-path="url(#p53f816cfec)">
     <use xlink:href="#m310370e61e" x="0" y="170.07874" style="fill: #228b22; fill-opacity: 0.2"/>
    </g>
   </g>
   <g id="PolyCollection_2">
    <defs>
     <path id="m78dcbfe48a" d="M 44.715164 -39.763147 
L 44.715164 -39.763147 
L 51.505502 -41.206749 
L 58.295839 -41.558798 
L 65.086176 -40.741412 
L 71.876514 -44.15274 
L 78.666851 -43.554955 
L 85.457189 -39.303609 
L 92.247526 -41.911029 
L 99.037863 -45.289753 
L 105.828201 -46.54037 
L 112.618538 -45.147364 
L 119.408876 -44.572269 
L 126.199213 -47.52012 
L 132.98955 -47.177118 
L 139.779888 -49.964862 
L 146.570225 -51.890986 
L 153.360563 -55.459655 
L 160.1509 -59.20798 
L 166.941237 -60.512817 
L 173.731575 -65.299111 
L 180.521912 -67.235914 
L 187.31225 -69.081889 
L 194.102587 -72.436268 
L 200.892925 -71.960628 
L 207.683262 -71.697511 
L 214.473599 -74.824245 
L 221.263937 -77.146668 
L 228.054274 -79.058669 
L 228.054274 -132.681142 
L 228.054274 -132.681142 
L 221.263937 -128.494812 
L 214.473599 -123.91081 
L 207.683262 -118.553577 
L 200.892925 -116.610199 
L 194.102587 -114.881341 
L 187.31225 -109.32475 
L 180.521912 -105.288298 
L 173.731575 -101.175341 
L 166.941237 -94.234907 
L 160.1509 -90.821362 
L 153.360563 -85.034075 
L 146.570225 -79.409182 
L 139.779888 -75.44981 
L 132.98955 -70.664347 
L 126.199213 -69.04892 
L 119.408876 -64.179828 
L 112.618538 -62.870245 
L 105.828201 -62.428864 
L 99.037863 -59.365375 
L 92.247526 -54.182129 
L 85.457189 -49.794889 
L 78.666851 -52.285855 
L 71.876514 -51.126697 
L 65.086176 -45.972791 
L 58.295839 -45.087493 
L 51.505502 -43.106873 
L 44.715164 -39.763147 
z
"/>
    </defs>
    <g clip-path="url(#p53f816cfec)">
     <use xlink:href="#m78dcbfe48a" x="0" y="170.07874" style="fill-opacity: 0.2"/>
    </g>
   </g>
   <g id="matplotlib.axis_1">
    <g id="xtick_1">
     <g id="line2d_2">
      <defs>
       <path id="m36466e29ec" d="M 0 0 
L 0 3.5 
" style="stroke: #000000; stroke-width: 0.8"/>
      </defs>
      <g>
       <use xlink:href="#m36466e29ec" x="65.086176" y="153.303813" style="stroke: #000000; stroke-width: 0.8"/>
      </g>
     </g>
     <g id="text_1">
      <!-- 1995 -->
      <g transform="translate(56.178676 165.622719) scale(0.07 -0.07)">
       <defs>
        <path id="DejaVuSans-31" d="M 794 531 
L 1825 531 
L 1825 4091 
L 703 3866 
L 703 4441 
L 1819 4666 
L 2450 4666 
L 2450 531 
L 3481 531 
L 3481 0 
L 794 0 
L 794 531 
z
" transform="scale(0.015625)"/>
        <path id="DejaVuSans-39" d="M 703 97 
L 703 672 
Q 941 559 1184 500 
Q 1428 441 1663 441 
Q 2288 441 2617 861 
Q 2947 1281 2994 2138 
Q 2813 1869 2534 1725 
Q 2256 1581 1919 1581 
Q 1219 1581 811 2004 
Q 403 2428 403 3163 
Q 403 3881 828 4315 
Q 1253 4750 1959 4750 
Q 2769 4750 3195 4129 
Q 3622 3509 3622 2328 
Q 3622 1225 3098 567 
Q 2575 -91 1691 -91 
Q 1453 -91 1209 -44 
Q 966 3 703 97 
z
M 1959 2075 
Q 2384 2075 2632 2365 
Q 2881 2656 2881 3163 
Q 2881 3666 2632 3958 
Q 2384 4250 1959 4250 
Q 1534 4250 1286 3958 
Q 1038 3666 1038 3163 
Q 1038 2656 1286 2365 
Q 1534 2075 1959 2075 
z
" transform="scale(0.015625)"/>
        <path id="DejaVuSans-35" d="M 691 4666 
L 3169 4666 
L 3169 4134 
L 1269 4134 
L 1269 2991 
Q 1406 3038 1543 3061 
Q 1681 3084 1819 3084 
Q 2600 3084 3056 2656 
Q 3513 2228 3513 1497 
Q 3513 744 3044 326 
Q 2575 -91 1722 -91 
Q 1428 -91 1123 -41 
Q 819 9 494 109 
L 494 744 
Q 775 591 1075 516 
Q 1375 441 1709 441 
Q 2250 441 2565 725 
Q 2881 1009 2881 1497 
Q 2881 1984 2565 2268 
Q 2250 2553 1709 2553 
Q 1456 2553 1204 2497 
Q 953 2441 691 2322 
L 691 4666 
z
" transform="scale(0.015625)"/>
       </defs>
       <use xlink:href="#DejaVuSans-31"/>
       <use xlink:href="#DejaVuSans-39" x="63.623047"/>
       <use xlink:href="#DejaVuSans-39" x="127.246094"/>
       <use xlink:href="#DejaVuSans-35" x="190.869141"/>
      </g>
     </g>
    </g>
    <g id="xtick_2">
     <g id="line2d_3">
      <g>
       <use xlink:href="#m36466e29ec" x="99.037863" y="153.303813" style="stroke: #000000; stroke-width: 0.8"/>
      </g>
     </g>
     <g id="text_2">
      <!-- 2000 -->
      <g transform="translate(90.130363 165.622719) scale(0.07 -0.07)">
       <defs>
        <path id="DejaVuSans-32" d="M 1228 531 
L 3431 531 
L 3431 0 
L 469 0 
L 469 531 
Q 828 903 1448 1529 
Q 2069 2156 2228 2338 
Q 2531 2678 2651 2914 
Q 2772 3150 2772 3378 
Q 2772 3750 2511 3984 
Q 2250 4219 1831 4219 
Q 1534 4219 1204 4116 
Q 875 4013 500 3803 
L 500 4441 
Q 881 4594 1212 4672 
Q 1544 4750 1819 4750 
Q 2544 4750 2975 4387 
Q 3406 4025 3406 3419 
Q 3406 3131 3298 2873 
Q 3191 2616 2906 2266 
Q 2828 2175 2409 1742 
Q 1991 1309 1228 531 
z
" transform="scale(0.015625)"/>
        <path id="DejaVuSans-30" d="M 2034 4250 
Q 1547 4250 1301 3770 
Q 1056 3291 1056 2328 
Q 1056 1369 1301 889 
Q 1547 409 2034 409 
Q 2525 409 2770 889 
Q 3016 1369 3016 2328 
Q 3016 3291 2770 3770 
Q 2525 4250 2034 4250 
z
M 2034 4750 
Q 2819 4750 3233 4129 
Q 3647 3509 3647 2328 
Q 3647 1150 3233 529 
Q 2819 -91 2034 -91 
Q 1250 -91 836 529 
Q 422 1150 422 2328 
Q 422 3509 836 4129 
Q 1250 4750 2034 4750 
z
" transform="scale(0.015625)"/>
       </defs>
       <use xlink:href="#DejaVuSans-32"/>
       <use xlink:href="#DejaVuSans-30" x="63.623047"/>
       <use xlink:href="#DejaVuSans-30" x="127.246094"/>
       <use xlink:href="#DejaVuSans-30" x="190.869141"/>
      </g>
     </g>
    </g>
    <g id="xtick_3">
     <g id="line2d_4">
      <g>
       <use xlink:href="#m36466e29ec" x="132.98955" y="153.303813" style="stroke: #000000; stroke-width: 0.8"/>
      </g>
     </g>
     <g id="text_3">
      <!-- 2005 -->
      <g transform="translate(124.08205 165.622719) scale(0.07 -0.07)">
       <use xlink:href="#DejaVuSans-32"/>
       <use xlink:href="#DejaVuSans-30" x="63.623047"/>
       <use xlink:href="#DejaVuSans-30" x="127.246094"/>
       <use xlink:href="#DejaVuSans-35" x="190.869141"/>
      </g>
     </g>
    </g>
    <g id="xtick_4">
     <g id="line2d_5">
      <g>
       <use xlink:href="#m36466e29ec" x="166.941237" y="153.303813" style="stroke: #000000; stroke-width: 0.8"/>
      </g>
     </g>
     <g id="text_4">
      <!-- 2010 -->
      <g transform="translate(158.033737 165.622719) scale(0.07 -0.07)">
       <use xlink:href="#DejaVuSans-32"/>
       <use xlink:href="#DejaVuSans-30" x="63.623047"/>
       <use xlink:href="#DejaVuSans-31" x="127.246094"/>
       <use xlink:href="#DejaVuSans-30" x="190.869141"/>
      </g>
     </g>
    </g>
    <g id="xtick_5">
     <g id="line2d_6">
      <g>
       <use xlink:href="#m36466e29ec" x="200.892925" y="153.303813" style="stroke: #000000; stroke-width: 0.8"/>
      </g>
     </g>
     <g id="text_5">
      <!-- 2015 -->
      <g transform="translate(191.985425 165.622719) scale(0.07 -0.07)">
       <use xlink:href="#DejaVuSans-32"/>
       <use xlink:href="#DejaVuSans-30" x="63.623047"/>
       <use xlink:href="#DejaVuSans-31" x="127.246094"/>
       <use xlink:href="#DejaVuSans-35" x="190.869141"/>
      </g>
     </g>
    </g>
    <g id="xtick_6">
     <g id="line2d_7">
      <g>
       <use xlink:href="#m36466e29ec" x="234.844612" y="153.303813" style="stroke: #000000; stroke-width: 0.8"/>
      </g>
     </g>
     <g id="text_6">
      <!-- 2020 -->
      <g transform="translate(225.937112 165.622719) scale(0.07 -0.07)">
       <use xlink:href="#DejaVuSans-32"/>
       <use xlink:href="#DejaVuSans-30" x="63.623047"/>
       <use xlink:href="#DejaVuSans-32" x="127.246094"/>
       <use xlink:href="#DejaVuSans-30" x="190.869141"/>
      </g>
     </g>
    </g>
   </g>
   <g id="matplotlib.axis_2">
    <g id="ytick_1">
     <g id="line2d_8">
      <defs>
       <path id="m890a740740" d="M 0 0 
L -3.5 0 
" style="stroke: #000000; stroke-width: 0.8"/>
      </defs>
      <g>
       <use xlink:href="#m890a740740" x="35.548209" y="149.472443" style="stroke: #000000; stroke-width: 0.8"/>
      </g>
     </g>
     <g id="text_7">
      <!-- −10 -->
      <g transform="translate(13.774928 152.131896) scale(0.07 -0.07)">
       <defs>
        <path id="DejaVuSans-2212" d="M 678 2272 
L 4684 2272 
L 4684 1741 
L 678 1741 
L 678 2272 
z
" transform="scale(0.015625)"/>
       </defs>
       <use xlink:href="#DejaVuSans-2212"/>
       <use xlink:href="#DejaVuSans-31" x="83.789062"/>
       <use xlink:href="#DejaVuSans-30" x="147.412109"/>
      </g>
     </g>
    </g>
    <g id="ytick_2">
     <g id="line2d_9">
      <g>
       <use xlink:href="#m890a740740" x="35.548209" y="130.315594" style="stroke: #000000; stroke-width: 0.8"/>
      </g>
     </g>
     <g id="text_8">
      <!-- 0 -->
      <g transform="translate(24.094459 132.975047) scale(0.07 -0.07)">
       <use xlink:href="#DejaVuSans-30"/>
      </g>
     </g>
    </g>
    <g id="ytick_3">
     <g id="line2d_10">
      <g>
       <use xlink:href="#m890a740740" x="35.548209" y="111.158744" style="stroke: #000000; stroke-width: 0.8"/>
      </g>
     </g>
     <g id="text_9">
      <!-- 10 -->
      <g transform="translate(19.640709 113.818198) scale(0.07 -0.07)">
       <use xlink:href="#DejaVuSans-31"/>
       <use xlink:href="#DejaVuSans-30" x="63.623047"/>
      </g>
     </g>
    </g>
    <g id="ytick_4">
     <g id="line2d_11">
      <g>
       <use xlink:href="#m890a740740" x="35.548209" y="92.001895" style="stroke: #000000; stroke-width: 0.8"/>
      </g>
     </g>
     <g id="text_10">
      <!-- 20 -->
      <g transform="translate(19.640709 94.661348) scale(0.07 -0.07)">
       <use xlink:href="#DejaVuSans-32"/>
       <use xlink:href="#DejaVuSans-30" x="63.623047"/>
      </g>
     </g>
    </g>
    <g id="ytick_5">
     <g id="line2d_12">
      <g>
       <use xlink:href="#m890a740740" x="35.548209" y="72.845046" style="stroke: #000000; stroke-width: 0.8"/>
      </g>
     </g>
     <g id="text_11">
      <!-- 30 -->
      <g transform="translate(19.640709 75.504499) scale(0.07 -0.07)">
       <defs>
        <path id="DejaVuSans-33" d="M 2597 2516 
Q 3050 2419 3304 2112 
Q 3559 1806 3559 1356 
Q 3559 666 3084 287 
Q 2609 -91 1734 -91 
Q 1441 -91 1130 -33 
Q 819 25 488 141 
L 488 750 
Q 750 597 1062 519 
Q 1375 441 1716 441 
Q 2309 441 2620 675 
Q 2931 909 2931 1356 
Q 2931 1769 2642 2001 
Q 2353 2234 1838 2234 
L 1294 2234 
L 1294 2753 
L 1863 2753 
Q 2328 2753 2575 2939 
Q 2822 3125 2822 3475 
Q 2822 3834 2567 4026 
Q 2313 4219 1838 4219 
Q 1578 4219 1281 4162 
Q 984 4106 628 3988 
L 628 4550 
Q 988 4650 1302 4700 
Q 1616 4750 1894 4750 
Q 2613 4750 3031 4423 
Q 3450 4097 3450 3541 
Q 3450 3153 3228 2886 
Q 3006 2619 2597 2516 
z
" transform="scale(0.015625)"/>
       </defs>
       <use xlink:href="#DejaVuSans-33"/>
       <use xlink:href="#DejaVuSans-30" x="63.623047"/>
      </g>
     </g>
    </g>
    <g id="ytick_6">
     <g id="line2d_13">
      <g>
       <use xlink:href="#m890a740740" x="35.548209" y="53.688197" style="stroke: #000000; stroke-width: 0.8"/>
      </g>
     </g>
     <g id="text_12">
      <!-- 40 -->
      <g transform="translate(19.640709 56.34765) scale(0.07 -0.07)">
       <defs>
        <path id="DejaVuSans-34" d="M 2419 4116 
L 825 1625 
L 2419 1625 
L 2419 4116 
z
M 2253 4666 
L 3047 4666 
L 3047 1625 
L 3713 1625 
L 3713 1100 
L 3047 1100 
L 3047 0 
L 2419 0 
L 2419 1100 
L 313 1100 
L 313 1709 
L 2253 4666 
z
" transform="scale(0.015625)"/>
       </defs>
       <use xlink:href="#DejaVuSans-34"/>
       <use xlink:href="#DejaVuSans-30" x="63.623047"/>
      </g>
     </g>
    </g>
    <g id="ytick_7">
     <g id="line2d_14">
      <g>
       <use xlink:href="#m890a740740" x="35.548209" y="34.531348" style="stroke: #000000; stroke-width: 0.8"/>
      </g>
     </g>
     <g id="text_13">
      <!-- 50 -->
      <g transform="translate(19.640709 37.190801) scale(0.07 -0.07)">
       <use xlink:href="#DejaVuSans-35"/>
       <use xlink:href="#DejaVuSans-30" x="63.623047"/>
      </g>
     </g>
    </g>
    <g id="text_14">
     <!-- cumulative change in carbon stocks (GtC) -->
     <g transform="translate(8.319146 162.67868) rotate(-90) scale(0.07 -0.07)">
      <defs>
       <path id="DejaVuSans-63" d="M 3122 3366 
L 3122 2828 
Q 2878 2963 2633 3030 
Q 2388 3097 2138 3097 
Q 1578 3097 1268 2742 
Q 959 2388 959 1747 
Q 959 1106 1268 751 
Q 1578 397 2138 397 
Q 2388 397 2633 464 
Q 2878 531 3122 666 
L 3122 134 
Q 2881 22 2623 -34 
Q 2366 -91 2075 -91 
Q 1284 -91 818 406 
Q 353 903 353 1747 
Q 353 2603 823 3093 
Q 1294 3584 2113 3584 
Q 2378 3584 2631 3529 
Q 2884 3475 3122 3366 
z
" transform="scale(0.015625)"/>
       <path id="DejaVuSans-75" d="M 544 1381 
L 544 3500 
L 1119 3500 
L 1119 1403 
Q 1119 906 1312 657 
Q 1506 409 1894 409 
Q 2359 409 2629 706 
Q 2900 1003 2900 1516 
L 2900 3500 
L 3475 3500 
L 3475 0 
L 2900 0 
L 2900 538 
Q 2691 219 2414 64 
Q 2138 -91 1772 -91 
Q 1169 -91 856 284 
Q 544 659 544 1381 
z
M 1991 3584 
L 1991 3584 
z
" transform="scale(0.015625)"/>
       <path id="DejaVuSans-6d" d="M 3328 2828 
Q 3544 3216 3844 3400 
Q 4144 3584 4550 3584 
Q 5097 3584 5394 3201 
Q 5691 2819 5691 2113 
L 5691 0 
L 5113 0 
L 5113 2094 
Q 5113 2597 4934 2840 
Q 4756 3084 4391 3084 
Q 3944 3084 3684 2787 
Q 3425 2491 3425 1978 
L 3425 0 
L 2847 0 
L 2847 2094 
Q 2847 2600 2669 2842 
Q 2491 3084 2119 3084 
Q 1678 3084 1418 2786 
Q 1159 2488 1159 1978 
L 1159 0 
L 581 0 
L 581 3500 
L 1159 3500 
L 1159 2956 
Q 1356 3278 1631 3431 
Q 1906 3584 2284 3584 
Q 2666 3584 2933 3390 
Q 3200 3197 3328 2828 
z
" transform="scale(0.015625)"/>
       <path id="DejaVuSans-6c" d="M 603 4863 
L 1178 4863 
L 1178 0 
L 603 0 
L 603 4863 
z
" transform="scale(0.015625)"/>
       <path id="DejaVuSans-61" d="M 2194 1759 
Q 1497 1759 1228 1600 
Q 959 1441 959 1056 
Q 959 750 1161 570 
Q 1363 391 1709 391 
Q 2188 391 2477 730 
Q 2766 1069 2766 1631 
L 2766 1759 
L 2194 1759 
z
M 3341 1997 
L 3341 0 
L 2766 0 
L 2766 531 
Q 2569 213 2275 61 
Q 1981 -91 1556 -91 
Q 1019 -91 701 211 
Q 384 513 384 1019 
Q 384 1609 779 1909 
Q 1175 2209 1959 2209 
L 2766 2209 
L 2766 2266 
Q 2766 2663 2505 2880 
Q 2244 3097 1772 3097 
Q 1472 3097 1187 3025 
Q 903 2953 641 2809 
L 641 3341 
Q 956 3463 1253 3523 
Q 1550 3584 1831 3584 
Q 2591 3584 2966 3190 
Q 3341 2797 3341 1997 
z
" transform="scale(0.015625)"/>
       <path id="DejaVuSans-74" d="M 1172 4494 
L 1172 3500 
L 2356 3500 
L 2356 3053 
L 1172 3053 
L 1172 1153 
Q 1172 725 1289 603 
Q 1406 481 1766 481 
L 2356 481 
L 2356 0 
L 1766 0 
Q 1100 0 847 248 
Q 594 497 594 1153 
L 594 3053 
L 172 3053 
L 172 3500 
L 594 3500 
L 594 4494 
L 1172 4494 
z
" transform="scale(0.015625)"/>
       <path id="DejaVuSans-69" d="M 603 3500 
L 1178 3500 
L 1178 0 
L 603 0 
L 603 3500 
z
M 603 4863 
L 1178 4863 
L 1178 4134 
L 603 4134 
L 603 4863 
z
" transform="scale(0.015625)"/>
       <path id="DejaVuSans-76" d="M 191 3500 
L 800 3500 
L 1894 563 
L 2988 3500 
L 3597 3500 
L 2284 0 
L 1503 0 
L 191 3500 
z
" transform="scale(0.015625)"/>
       <path id="DejaVuSans-65" d="M 3597 1894 
L 3597 1613 
L 953 1613 
Q 991 1019 1311 708 
Q 1631 397 2203 397 
Q 2534 397 2845 478 
Q 3156 559 3463 722 
L 3463 178 
Q 3153 47 2828 -22 
Q 2503 -91 2169 -91 
Q 1331 -91 842 396 
Q 353 884 353 1716 
Q 353 2575 817 3079 
Q 1281 3584 2069 3584 
Q 2775 3584 3186 3129 
Q 3597 2675 3597 1894 
z
M 3022 2063 
Q 3016 2534 2758 2815 
Q 2500 3097 2075 3097 
Q 1594 3097 1305 2825 
Q 1016 2553 972 2059 
L 3022 2063 
z
" transform="scale(0.015625)"/>
       <path id="DejaVuSans-20" transform="scale(0.015625)"/>
       <path id="DejaVuSans-68" d="M 3513 2113 
L 3513 0 
L 2938 0 
L 2938 2094 
Q 2938 2591 2744 2837 
Q 2550 3084 2163 3084 
Q 1697 3084 1428 2787 
Q 1159 2491 1159 1978 
L 1159 0 
L 581 0 
L 581 4863 
L 1159 4863 
L 1159 2956 
Q 1366 3272 1645 3428 
Q 1925 3584 2291 3584 
Q 2894 3584 3203 3211 
Q 3513 2838 3513 2113 
z
" transform="scale(0.015625)"/>
       <path id="DejaVuSans-6e" d="M 3513 2113 
L 3513 0 
L 2938 0 
L 2938 2094 
Q 2938 2591 2744 2837 
Q 2550 3084 2163 3084 
Q 1697 3084 1428 2787 
Q 1159 2491 1159 1978 
L 1159 0 
L 581 0 
L 581 3500 
L 1159 3500 
L 1159 2956 
Q 1366 3272 1645 3428 
Q 1925 3584 2291 3584 
Q 2894 3584 3203 3211 
Q 3513 2838 3513 2113 
z
" transform="scale(0.015625)"/>
       <path id="DejaVuSans-67" d="M 2906 1791 
Q 2906 2416 2648 2759 
Q 2391 3103 1925 3103 
Q 1463 3103 1205 2759 
Q 947 2416 947 1791 
Q 947 1169 1205 825 
Q 1463 481 1925 481 
Q 2391 481 2648 825 
Q 2906 1169 2906 1791 
z
M 3481 434 
Q 3481 -459 3084 -895 
Q 2688 -1331 1869 -1331 
Q 1566 -1331 1297 -1286 
Q 1028 -1241 775 -1147 
L 775 -588 
Q 1028 -725 1275 -790 
Q 1522 -856 1778 -856 
Q 2344 -856 2625 -561 
Q 2906 -266 2906 331 
L 2906 616 
Q 2728 306 2450 153 
Q 2172 0 1784 0 
Q 1141 0 747 490 
Q 353 981 353 1791 
Q 353 2603 747 3093 
Q 1141 3584 1784 3584 
Q 2172 3584 2450 3431 
Q 2728 3278 2906 2969 
L 2906 3500 
L 3481 3500 
L 3481 434 
z
" transform="scale(0.015625)"/>
       <path id="DejaVuSans-72" d="M 2631 2963 
Q 2534 3019 2420 3045 
Q 2306 3072 2169 3072 
Q 1681 3072 1420 2755 
Q 1159 2438 1159 1844 
L 1159 0 
L 581 0 
L 581 3500 
L 1159 3500 
L 1159 2956 
Q 1341 3275 1631 3429 
Q 1922 3584 2338 3584 
Q 2397 3584 2469 3576 
Q 2541 3569 2628 3553 
L 2631 2963 
z
" transform="scale(0.015625)"/>
       <path id="DejaVuSans-62" d="M 3116 1747 
Q 3116 2381 2855 2742 
Q 2594 3103 2138 3103 
Q 1681 3103 1420 2742 
Q 1159 2381 1159 1747 
Q 1159 1113 1420 752 
Q 1681 391 2138 391 
Q 2594 391 2855 752 
Q 3116 1113 3116 1747 
z
M 1159 2969 
Q 1341 3281 1617 3432 
Q 1894 3584 2278 3584 
Q 2916 3584 3314 3078 
Q 3713 2572 3713 1747 
Q 3713 922 3314 415 
Q 2916 -91 2278 -91 
Q 1894 -91 1617 61 
Q 1341 213 1159 525 
L 1159 0 
L 581 0 
L 581 4863 
L 1159 4863 
L 1159 2969 
z
" transform="scale(0.015625)"/>
       <path id="DejaVuSans-6f" d="M 1959 3097 
Q 1497 3097 1228 2736 
Q 959 2375 959 1747 
Q 959 1119 1226 758 
Q 1494 397 1959 397 
Q 2419 397 2687 759 
Q 2956 1122 2956 1747 
Q 2956 2369 2687 2733 
Q 2419 3097 1959 3097 
z
M 1959 3584 
Q 2709 3584 3137 3096 
Q 3566 2609 3566 1747 
Q 3566 888 3137 398 
Q 2709 -91 1959 -91 
Q 1206 -91 779 398 
Q 353 888 353 1747 
Q 353 2609 779 3096 
Q 1206 3584 1959 3584 
z
" transform="scale(0.015625)"/>
       <path id="DejaVuSans-73" d="M 2834 3397 
L 2834 2853 
Q 2591 2978 2328 3040 
Q 2066 3103 1784 3103 
Q 1356 3103 1142 2972 
Q 928 2841 928 2578 
Q 928 2378 1081 2264 
Q 1234 2150 1697 2047 
L 1894 2003 
Q 2506 1872 2764 1633 
Q 3022 1394 3022 966 
Q 3022 478 2636 193 
Q 2250 -91 1575 -91 
Q 1294 -91 989 -36 
Q 684 19 347 128 
L 347 722 
Q 666 556 975 473 
Q 1284 391 1588 391 
Q 1994 391 2212 530 
Q 2431 669 2431 922 
Q 2431 1156 2273 1281 
Q 2116 1406 1581 1522 
L 1381 1569 
Q 847 1681 609 1914 
Q 372 2147 372 2553 
Q 372 3047 722 3315 
Q 1072 3584 1716 3584 
Q 2034 3584 2315 3537 
Q 2597 3491 2834 3397 
z
" transform="scale(0.015625)"/>
       <path id="DejaVuSans-6b" d="M 581 4863 
L 1159 4863 
L 1159 1991 
L 2875 3500 
L 3609 3500 
L 1753 1863 
L 3688 0 
L 2938 0 
L 1159 1709 
L 1159 0 
L 581 0 
L 581 4863 
z
" transform="scale(0.015625)"/>
       <path id="DejaVuSans-28" d="M 1984 4856 
Q 1566 4138 1362 3434 
Q 1159 2731 1159 2009 
Q 1159 1288 1364 580 
Q 1569 -128 1984 -844 
L 1484 -844 
Q 1016 -109 783 600 
Q 550 1309 550 2009 
Q 550 2706 781 3412 
Q 1013 4119 1484 4856 
L 1984 4856 
z
" transform="scale(0.015625)"/>
       <path id="DejaVuSans-47" d="M 3809 666 
L 3809 1919 
L 2778 1919 
L 2778 2438 
L 4434 2438 
L 4434 434 
Q 4069 175 3628 42 
Q 3188 -91 2688 -91 
Q 1594 -91 976 548 
Q 359 1188 359 2328 
Q 359 3472 976 4111 
Q 1594 4750 2688 4750 
Q 3144 4750 3555 4637 
Q 3966 4525 4313 4306 
L 4313 3634 
Q 3963 3931 3569 4081 
Q 3175 4231 2741 4231 
Q 1884 4231 1454 3753 
Q 1025 3275 1025 2328 
Q 1025 1384 1454 906 
Q 1884 428 2741 428 
Q 3075 428 3337 486 
Q 3600 544 3809 666 
z
" transform="scale(0.015625)"/>
       <path id="DejaVuSans-43" d="M 4122 4306 
L 4122 3641 
Q 3803 3938 3442 4084 
Q 3081 4231 2675 4231 
Q 1875 4231 1450 3742 
Q 1025 3253 1025 2328 
Q 1025 1406 1450 917 
Q 1875 428 2675 428 
Q 3081 428 3442 575 
Q 3803 722 4122 1019 
L 4122 359 
Q 3791 134 3420 21 
Q 3050 -91 2638 -91 
Q 1578 -91 968 557 
Q 359 1206 359 2328 
Q 359 3453 968 4101 
Q 1578 4750 2638 4750 
Q 3056 4750 3426 4639 
Q 3797 4528 4122 4306 
z
" transform="scale(0.015625)"/>
       <path id="DejaVuSans-29" d="M 513 4856 
L 1013 4856 
Q 1481 4119 1714 3412 
Q 1947 2706 1947 2009 
Q 1947 1309 1714 600 
Q 1481 -109 1013 -844 
L 513 -844 
Q 928 -128 1133 580 
Q 1338 1288 1338 2009 
Q 1338 2731 1133 3434 
Q 928 4138 513 4856 
z
" transform="scale(0.015625)"/>
      </defs>
      <use xlink:href="#DejaVuSans-63"/>
      <use xlink:href="#DejaVuSans-75" x="54.980469"/>
      <use xlink:href="#DejaVuSans-6d" x="118.359375"/>
      <use xlink:href="#DejaVuSans-75" x="215.771484"/>
      <use xlink:href="#DejaVuSans-6c" x="279.150391"/>
      <use xlink:href="#DejaVuSans-61" x="306.933594"/>
      <use xlink:href="#DejaVuSans-74" x="368.212891"/>
      <use xlink:href="#DejaVuSans-69" x="407.421875"/>
      <use xlink:href="#DejaVuSans-76" x="435.205078"/>
      <use xlink:href="#DejaVuSans-65" x="494.384766"/>
      <use xlink:href="#DejaVuSans-20" x="555.908203"/>
      <use xlink:href="#DejaVuSans-63" x="587.695312"/>
      <use xlink:href="#DejaVuSans-68" x="642.675781"/>
      <use xlink:href="#DejaVuSans-61" x="706.054688"/>
      <use xlink:href="#DejaVuSans-6e" x="767.333984"/>
      <use xlink:href="#DejaVuSans-67" x="830.712891"/>
      <use xlink:href="#DejaVuSans-65" x="894.189453"/>
      <use xlink:href="#DejaVuSans-20" x="955.712891"/>
      <use xlink:href="#DejaVuSans-69" x="987.5"/>
      <use xlink:href="#DejaVuSans-6e" x="1015.283203"/>
      <use xlink:href="#DejaVuSans-20" x="1078.662109"/>
      <use xlink:href="#DejaVuSans-63" x="1110.449219"/>
      <use xlink:href="#DejaVuSans-61" x="1165.429688"/>
      <use xlink:href="#DejaVuSans-72" x="1226.708984"/>
      <use xlink:href="#DejaVuSans-62" x="1267.822266"/>
      <use xlink:href="#DejaVuSans-6f" x="1331.298828"/>
      <use xlink:href="#DejaVuSans-6e" x="1392.480469"/>
      <use xlink:href="#DejaVuSans-20" x="1455.859375"/>
      <use xlink:href="#DejaVuSans-73" x="1487.646484"/>
      <use xlink:href="#DejaVuSans-74" x="1539.746094"/>
      <use xlink:href="#DejaVuSans-6f" x="1578.955078"/>
      <use xlink:href="#DejaVuSans-63" x="1640.136719"/>
      <use xlink:href="#DejaVuSans-6b" x="1695.117188"/>
      <use xlink:href="#DejaVuSans-73" x="1753.027344"/>
      <use xlink:href="#DejaVuSans-20" x="1805.126953"/>
      <use xlink:href="#DejaVuSans-28" x="1836.914062"/>
      <use xlink:href="#DejaVuSans-47" x="1875.927734"/>
      <use xlink:href="#DejaVuSans-74" x="1953.417969"/>
      <use xlink:href="#DejaVuSans-43" x="1992.626953"/>
      <use xlink:href="#DejaVuSans-29" x="2062.451172"/>
     </g>
    </g>
   </g>
   <g id="line2d_15">
    <path d="M 44.715164 130.315594 
L 51.505502 131.908943 
L 58.295839 136.290653 
L 65.086176 141.072467 
L 71.876514 140.751527 
L 78.666851 140.213475 
L 85.457189 141.582348 
L 92.247526 141.225419 
L 99.037863 138.983513 
L 105.828201 137.76847 
L 112.618538 137.676251 
L 119.408876 139.042112 
L 126.199213 136.010632 
L 132.98955 136.660889 
L 139.779888 135.788435 
L 146.570225 134.779361 
L 153.360563 133.721082 
L 160.1509 132.48873 
L 166.941237 135.576853 
L 173.731575 135.342528 
L 180.521912 134.564194 
L 187.31225 134.534629 
L 194.102587 133.151792 
L 200.892925 130.837948 
L 207.683262 127.08223 
L 214.473599 126.7211 
L 221.263937 126.277727 
L 228.054274 127.083834 
" clip-path="url(#p53f816cfec)" style="fill: none; stroke: #228b22; stroke-width: 1.5; stroke-linecap: square"/>
   </g>
   <g id="line2d_16">
    <path d="M 44.715164 130.315594 
L 51.505502 127.921929 
L 58.295839 126.755595 
L 65.086176 126.721639 
L 71.876514 122.439022 
L 78.666851 122.158335 
L 85.457189 125.529491 
L 92.247526 122.032161 
L 99.037863 117.751176 
L 105.828201 115.594123 
L 112.618538 116.069936 
L 119.408876 115.702692 
L 126.199213 111.79422 
L 132.98955 111.158008 
L 139.779888 107.371404 
L 146.570225 104.428656 
L 153.360563 99.831875 
L 160.1509 95.064069 
L 166.941237 92.704878 
L 173.731575 86.841514 
L 180.521912 83.816634 
L 187.31225 80.87542 
L 194.102587 76.419936 
L 200.892925 75.793327 
L 207.683262 74.953196 
L 214.473599 70.711213 
L 221.263937 67.258 
L 228.054274 64.208835 
" clip-path="url(#p53f816cfec)" style="fill: none; stroke: #000000; stroke-width: 1.5; stroke-linecap: square"/>
   </g>
   <g id="patch_3">
    <path d="M 35.548209 153.303813 
L 35.548209 24.952923 
" style="fill: none; stroke: #000000; stroke-width: 0.8; stroke-linejoin: miter; stroke-linecap: square"/>
   </g>
   <g id="patch_4">
    <path d="M 35.548209 153.303813 
L 237.22123 153.303813 
" style="fill: none; stroke: #000000; stroke-width: 0.8; stroke-linejoin: miter; stroke-linecap: square"/>
   </g>
   <g id="text_15">
    <!-- change in land -->
    <g transform="translate(161.458734 36.271303) scale(0.07 -0.07)">
     <defs>
      <path id="DejaVuSans-64" d="M 2906 2969 
L 2906 4863 
L 3481 4863 
L 3481 0 
L 2906 0 
L 2906 525 
Q 2725 213 2448 61 
Q 2172 -91 1784 -91 
Q 1150 -91 751 415 
Q 353 922 353 1747 
Q 353 2572 751 3078 
Q 1150 3584 1784 3584 
Q 2172 3584 2448 3432 
Q 2725 3281 2906 2969 
z
M 947 1747 
Q 947 1113 1208 752 
Q 1469 391 1925 391 
Q 2381 391 2643 752 
Q 2906 1113 2906 1747 
Q 2906 2381 2643 2742 
Q 2381 3103 1925 3103 
Q 1469 3103 1208 2742 
Q 947 2381 947 1747 
z
" transform="scale(0.015625)"/>
     </defs>
     <use xlink:href="#DejaVuSans-63"/>
     <use xlink:href="#DejaVuSans-68" x="54.980469"/>
     <use xlink:href="#DejaVuSans-61" x="118.359375"/>
     <use xlink:href="#DejaVuSans-6e" x="179.638672"/>
     <use xlink:href="#DejaVuSans-67" x="243.017578"/>
     <use xlink:href="#DejaVuSans-65" x="306.494141"/>
     <use xlink:href="#DejaVuSans-20" x="368.017578"/>
     <use xlink:href="#DejaVuSans-69" x="399.804688"/>
     <use xlink:href="#DejaVuSans-6e" x="427.587891"/>
     <use xlink:href="#DejaVuSans-20" x="490.966797"/>
     <use xlink:href="#DejaVuSans-6c" x="522.753906"/>
     <use xlink:href="#DejaVuSans-61" x="550.537109"/>
     <use xlink:href="#DejaVuSans-6e" x="611.816406"/>
     <use xlink:href="#DejaVuSans-64" x="675.195312"/>
    </g>
    <!-- carbon stocks -->
    <g transform="translate(162.998734 44.109772) scale(0.07 -0.07)">
     <use xlink:href="#DejaVuSans-63"/>
     <use xlink:href="#DejaVuSans-61" x="54.980469"/>
     <use xlink:href="#DejaVuSans-72" x="116.259766"/>
     <use xlink:href="#DejaVuSans-62" x="157.373047"/>
     <use xlink:href="#DejaVuSans-6f" x="220.849609"/>
     <use xlink:href="#DejaVuSans-6e" x="282.03125"/>
     <use xlink:href="#DejaVuSans-20" x="345.410156"/>
     <use xlink:href="#DejaVuSans-73" x="377.197266"/>
     <use xlink:href="#DejaVuSans-74" x="429.296875"/>
     <use xlink:href="#DejaVuSans-6f" x="468.505859"/>
     <use xlink:href="#DejaVuSans-63" x="529.6875"/>
     <use xlink:href="#DejaVuSans-6b" x="584.667969"/>
     <use xlink:href="#DejaVuSans-73" x="642.578125"/>
    </g>
   </g>
   <g id="text_16">
    <!-- change in -->
    <g style="fill: #228b22" transform="translate(190.499356 105.235961) scale(0.07 -0.07)">
     <use xlink:href="#DejaVuSans-63"/>
     <use xlink:href="#DejaVuSans-68" x="54.980469"/>
     <use xlink:href="#DejaVuSans-61" x="118.359375"/>
     <use xlink:href="#DejaVuSans-6e" x="179.638672"/>
     <use xlink:href="#DejaVuSans-67" x="243.017578"/>
     <use xlink:href="#DejaVuSans-65" x="306.494141"/>
     <use xlink:href="#DejaVuSans-20" x="368.017578"/>
     <use xlink:href="#DejaVuSans-69" x="399.804688"/>
     <use xlink:href="#DejaVuSans-6e" x="427.587891"/>
    </g>
    <!-- biomass stocks -->
    <g style="fill: #228b22" transform="translate(180.923028 113.074429) scale(0.07 -0.07)">
     <use xlink:href="#DejaVuSans-62"/>
     <use xlink:href="#DejaVuSans-69" x="63.476562"/>
     <use xlink:href="#DejaVuSans-6f" x="91.259766"/>
     <use xlink:href="#DejaVuSans-6d" x="152.441406"/>
     <use xlink:href="#DejaVuSans-61" x="249.853516"/>
     <use xlink:href="#DejaVuSans-73" x="311.132812"/>
     <use xlink:href="#DejaVuSans-73" x="363.232422"/>
     <use xlink:href="#DejaVuSans-20" x="415.332031"/>
     <use xlink:href="#DejaVuSans-73" x="447.119141"/>
     <use xlink:href="#DejaVuSans-74" x="499.21875"/>
     <use xlink:href="#DejaVuSans-6f" x="538.427734"/>
     <use xlink:href="#DejaVuSans-63" x="599.609375"/>
     <use xlink:href="#DejaVuSans-6b" x="654.589844"/>
     <use xlink:href="#DejaVuSans-73" x="712.5"/>
    </g>
   </g>
   <g id="patch_5">
    <path d="M 54.24471 96.975421 
Q 43.711958 109.811661 44.536151 127.20695 
" style="fill: none; stroke: #000000; stroke-linecap: round"/>
    <path d="M 45.802067 124.34383 
L 44.536151 127.20695 
L 43.005204 124.476346 
" style="fill: none; stroke: #000000; stroke-linecap: round"/>
   </g>
   <g id="text_17">
    <!-- start of -->
    <g transform="translate(44.715164 84.163426) scale(0.07 -0.07)">
     <defs>
      <path id="DejaVuSans-66" d="M 2375 4863 
L 2375 4384 
L 1825 4384 
Q 1516 4384 1395 4259 
Q 1275 4134 1275 3809 
L 1275 3500 
L 2222 3500 
L 2222 3053 
L 1275 3053 
L 1275 0 
L 697 0 
L 697 3053 
L 147 3053 
L 147 3500 
L 697 3500 
L 697 3744 
Q 697 4328 969 4595 
Q 1241 4863 1831 4863 
L 2375 4863 
z
" transform="scale(0.015625)"/>
     </defs>
     <use xlink:href="#DejaVuSans-73"/>
     <use xlink:href="#DejaVuSans-74" x="52.099609"/>
     <use xlink:href="#DejaVuSans-61" x="91.308594"/>
     <use xlink:href="#DejaVuSans-72" x="152.587891"/>
     <use xlink:href="#DejaVuSans-74" x="193.701172"/>
     <use xlink:href="#DejaVuSans-20" x="232.910156"/>
     <use xlink:href="#DejaVuSans-6f" x="264.697266"/>
     <use xlink:href="#DejaVuSans-66" x="325.878906"/>
    </g>
    <!-- study period -->
    <g transform="translate(44.715164 92.001895) scale(0.07 -0.07)">
     <defs>
      <path id="DejaVuSans-79" d="M 2059 -325 
Q 1816 -950 1584 -1140 
Q 1353 -1331 966 -1331 
L 506 -1331 
L 506 -850 
L 844 -850 
Q 1081 -850 1212 -737 
Q 1344 -625 1503 -206 
L 1606 56 
L 191 3500 
L 800 3500 
L 1894 763 
L 2988 3500 
L 3597 3500 
L 2059 -325 
z
" transform="scale(0.015625)"/>
      <path id="DejaVuSans-70" d="M 1159 525 
L 1159 -1331 
L 581 -1331 
L 581 3500 
L 1159 3500 
L 1159 2969 
Q 1341 3281 1617 3432 
Q 1894 3584 2278 3584 
Q 2916 3584 3314 3078 
Q 3713 2572 3713 1747 
Q 3713 922 3314 415 
Q 2916 -91 2278 -91 
Q 1894 -91 1617 61 
Q 1341 213 1159 525 
z
M 3116 1747 
Q 3116 2381 2855 2742 
Q 2594 3103 2138 3103 
Q 1681 3103 1420 2742 
Q 1159 2381 1159 1747 
Q 1159 1113 1420 752 
Q 1681 391 2138 391 
Q 2594 391 2855 752 
Q 3116 1113 3116 1747 
z
" transform="scale(0.015625)"/>
     </defs>
     <use xlink:href="#DejaVuSans-73"/>
     <use xlink:href="#DejaVuSans-74" x="52.099609"/>
     <use xlink:href="#DejaVuSans-75" x="91.308594"/>
     <use xlink:href="#DejaVuSans-64" x="154.6875"/>
     <use xlink:href="#DejaVuSans-79" x="218.164062"/>
     <use xlink:href="#DejaVuSans-20" x="277.34375"/>
     <use xlink:href="#DejaVuSans-70" x="309.130859"/>
     <use xlink:href="#DejaVuSans-65" x="372.607422"/>
     <use xlink:href="#DejaVuSans-72" x="434.130859"/>
     <use xlink:href="#DejaVuSans-69" x="475.244141"/>
     <use xlink:href="#DejaVuSans-6f" x="503.027344"/>
     <use xlink:href="#DejaVuSans-64" x="564.208984"/>
    </g>
   </g>
   <g id="text_18">
    <!-- A -->
    <g transform="translate(25.464558 12.117834) scale(0.12 -0.12)">
     <defs>
      <path id="DejaVuSans-41" d="M 2188 4044 
L 1331 1722 
L 3047 1722 
L 2188 4044 
z
M 1831 4666 
L 2547 4666 
L 4325 0 
L 3669 0 
L 3244 1197 
L 1141 1197 
L 716 0 
L 50 0 
L 1831 4666 
z
" transform="scale(0.015625)"/>
     </defs>
     <use xlink:href="#DejaVuSans-41"/>
    </g>
   </g>
   <g id="text_19">
    <!-- this study -->
    <g transform="translate(111.805813 18.952923) scale(0.1 -0.1)">
     <use xlink:href="#DejaVuSans-74"/>
     <use xlink:href="#DejaVuSans-68" x="39.208984"/>
     <use xlink:href="#DejaVuSans-69" x="102.587891"/>
     <use xlink:href="#DejaVuSans-73" x="130.371094"/>
     <use xlink:href="#DejaVuSans-20" x="182.470703"/>
     <use xlink:href="#DejaVuSans-73" x="214.257812"/>
     <use xlink:href="#DejaVuSans-74" x="266.357422"/>
     <use xlink:href="#DejaVuSans-75" x="305.566406"/>
     <use xlink:href="#DejaVuSans-64" x="368.945312"/>
     <use xlink:href="#DejaVuSans-79" x="432.421875"/>
    </g>
   </g>
  </g>
  <g id="axes_2">
   <g id="patch_6">
    <path d="M 282.300525 153.303813 
L 483.973546 153.303813 
L 483.973546 24.952923 
L 282.300525 24.952923 
z
" style="fill: #ffffff"/>
   </g>
   <g id="line2d_17">
    <path d="M 282.300525 130.315594 
L 483.973546 130.315594 
" clip-path="url(#pd52a0fd0c1)" style="fill: none; stroke-dasharray: 5.55,2.4; stroke-dashoffset: 0; stroke: #808080; stroke-width: 1.5"/>
   </g>
   <g id="PolyCollection_3">
    <defs>
     <path id="mf4b8e71e04" d="M 291.467481 -39.763147 
L 291.467481 -39.763147 
L 298.257818 -40.27786 
L 305.048155 -40.503903 
L 311.838493 -40.124855 
L 318.62883 -40.678217 
L 325.419168 -41.571143 
L 332.209505 -41.125786 
L 338.999842 -41.126114 
L 345.79018 -41.736207 
L 352.580517 -42.4901 
L 359.370855 -42.319406 
L 366.161192 -42.609331 
L 372.951529 -42.797748 
L 379.741867 -42.697084 
L 386.532204 -44.592168 
L 393.322542 -45.943654 
L 400.112879 -47.385071 
L 406.903216 -48.085951 
L 413.693554 -49.479461 
L 420.483891 -51.385443 
L 427.274229 -51.735486 
L 434.064566 -51.970482 
L 440.854903 -53.78306 
L 447.645241 -54.457968 
L 454.435578 -55.494669 
L 461.225916 -57.302778 
L 468.016253 -58.664757 
L 474.80659 -58.661878 
L 474.80659 -108.036207 
L 474.80659 -108.036207 
L 468.016253 -106.510826 
L 461.225916 -103.738835 
L 454.435578 -99.586103 
L 447.645241 -96.210121 
L 440.854903 -94.536943 
L 434.064566 -89.478537 
L 427.274229 -86.527382 
L 420.483891 -85.557716 
L 413.693554 -81.56115 
L 406.903216 -77.415112 
L 400.112879 -74.930486 
L 393.322542 -71.915168 
L 386.532204 -69.231194 
L 379.741867 -65.562687 
L 372.951529 -63.610274 
L 366.161192 -61.717742 
L 359.370855 -60.927104 
L 352.580517 -60.924692 
L 345.79018 -58.705789 
L 338.999842 -54.848389 
L 332.209505 -52.648044 
L 325.419168 -51.038641 
L 318.62883 -46.964841 
L 311.838493 -44.82022 
L 305.048155 -43.988412 
L 298.257818 -42.581495 
L 291.467481 -39.763147 
z
"/>
    </defs>
    <g clip-path="url(#pd52a0fd0c1)">
     <use xlink:href="#mf4b8e71e04" x="0" y="170.07874" style="fill: #a2b409; fill-opacity: 0.2"/>
    </g>
   </g>
   <g id="PolyCollection_4">
    <defs>
     <path id="m4ef1e1c404" d="M 291.467481 -39.763147 
L 291.467481 -39.763147 
L 298.257818 -41.541571 
L 305.048155 -41.986611 
L 311.838493 -41.34 
L 318.62883 -43.739837 
L 325.419168 -45.781744 
L 332.209505 -44.689808 
L 338.999842 -46.769016 
L 345.79018 -48.877665 
L 352.580517 -49.937686 
L 359.370855 -49.730389 
L 366.161192 -50.418382 
L 372.951529 -51.871416 
L 379.741867 -52.665474 
L 386.532204 -55.437109 
L 393.322542 -57.485935 
L 400.112879 -60.393641 
L 406.903216 -62.298058 
L 413.693554 -64.242492 
L 420.483891 -68.039168 
L 427.274229 -69.289084 
L 434.064566 -71.364152 
L 440.854903 -74.456385 
L 447.645241 -75.188273 
L 454.435578 -76.607516 
L 461.225916 -79.546526 
L 468.016253 -82.343491 
L 474.80659 -83.420741 
L 474.80659 -132.025131 
L 474.80659 -132.025131 
L 468.016253 -129.127953 
L 461.225916 -124.674754 
L 454.435578 -119.087364 
L 447.645241 -114.939492 
L 440.854903 -113.001149 
L 434.064566 -107.585565 
L 427.274229 -103.203926 
L 420.483891 -101.310983 
L 413.693554 -95.604033 
L 406.903216 -90.796826 
L 400.112879 -87.761434 
L 393.322542 -83.29181 
L 386.532204 -80.393049 
L 379.741867 -76.258434 
L 372.951529 -75.064072 
L 366.161192 -71.053669 
L 359.370855 -69.3627 
L 352.580517 -69.400755 
L 345.79018 -66.310995 
L 338.999842 -60.545532 
L 332.209505 -56.340599 
L 325.419168 -54.467928 
L 318.62883 -50.315249 
L 311.838493 -46.38756 
L 305.048155 -45.398625 
L 298.257818 -44.103413 
L 291.467481 -39.763147 
z
"/>
    </defs>
    <g clip-path="url(#pd52a0fd0c1)">
     <use xlink:href="#m4ef1e1c404" x="0" y="170.07874" style="fill: #817667; fill-opacity: 0.2"/>
    </g>
   </g>
   <g id="matplotlib.axis_3">
    <g id="xtick_7">
     <g id="line2d_18">
      <g>
       <use xlink:href="#m36466e29ec" x="311.838493" y="153.303813" style="stroke: #000000; stroke-width: 0.8"/>
      </g>
     </g>
     <g id="text_20">
      <!-- 1995 -->
      <g transform="translate(302.930993 165.622719) scale(0.07 -0.07)">
       <use xlink:href="#DejaVuSans-31"/>
       <use xlink:href="#DejaVuSans-39" x="63.623047"/>
       <use xlink:href="#DejaVuSans-39" x="127.246094"/>
       <use xlink:href="#DejaVuSans-35" x="190.869141"/>
      </g>
     </g>
    </g>
    <g id="xtick_8">
     <g id="line2d_19">
      <g>
       <use xlink:href="#m36466e29ec" x="345.79018" y="153.303813" style="stroke: #000000; stroke-width: 0.8"/>
      </g>
     </g>
     <g id="text_21">
      <!-- 2000 -->
      <g transform="translate(336.88268 165.622719) scale(0.07 -0.07)">
       <use xlink:href="#DejaVuSans-32"/>
       <use xlink:href="#DejaVuSans-30" x="63.623047"/>
       <use xlink:href="#DejaVuSans-30" x="127.246094"/>
       <use xlink:href="#DejaVuSans-30" x="190.869141"/>
      </g>
     </g>
    </g>
    <g id="xtick_9">
     <g id="line2d_20">
      <g>
       <use xlink:href="#m36466e29ec" x="379.741867" y="153.303813" style="stroke: #000000; stroke-width: 0.8"/>
      </g>
     </g>
     <g id="text_22">
      <!-- 2005 -->
      <g transform="translate(370.834367 165.622719) scale(0.07 -0.07)">
       <use xlink:href="#DejaVuSans-32"/>
       <use xlink:href="#DejaVuSans-30" x="63.623047"/>
       <use xlink:href="#DejaVuSans-30" x="127.246094"/>
       <use xlink:href="#DejaVuSans-35" x="190.869141"/>
      </g>
     </g>
    </g>
    <g id="xtick_10">
     <g id="line2d_21">
      <g>
       <use xlink:href="#m36466e29ec" x="413.693554" y="153.303813" style="stroke: #000000; stroke-width: 0.8"/>
      </g>
     </g>
     <g id="text_23">
      <!-- 2010 -->
      <g transform="translate(404.786054 165.622719) scale(0.07 -0.07)">
       <use xlink:href="#DejaVuSans-32"/>
       <use xlink:href="#DejaVuSans-30" x="63.623047"/>
       <use xlink:href="#DejaVuSans-31" x="127.246094"/>
       <use xlink:href="#DejaVuSans-30" x="190.869141"/>
      </g>
     </g>
    </g>
    <g id="xtick_11">
     <g id="line2d_22">
      <g>
       <use xlink:href="#m36466e29ec" x="447.645241" y="153.303813" style="stroke: #000000; stroke-width: 0.8"/>
      </g>
     </g>
     <g id="text_24">
      <!-- 2015 -->
      <g transform="translate(438.737741 165.622719) scale(0.07 -0.07)">
       <use xlink:href="#DejaVuSans-32"/>
       <use xlink:href="#DejaVuSans-30" x="63.623047"/>
       <use xlink:href="#DejaVuSans-31" x="127.246094"/>
       <use xlink:href="#DejaVuSans-35" x="190.869141"/>
      </g>
     </g>
    </g>
    <g id="xtick_12">
     <g id="line2d_23">
      <g>
       <use xlink:href="#m36466e29ec" x="481.596928" y="153.303813" style="stroke: #000000; stroke-width: 0.8"/>
      </g>
     </g>
     <g id="text_25">
      <!-- 2020 -->
      <g transform="translate(472.689428 165.622719) scale(0.07 -0.07)">
       <use xlink:href="#DejaVuSans-32"/>
       <use xlink:href="#DejaVuSans-30" x="63.623047"/>
       <use xlink:href="#DejaVuSans-32" x="127.246094"/>
       <use xlink:href="#DejaVuSans-30" x="190.869141"/>
      </g>
     </g>
    </g>
   </g>
   <g id="matplotlib.axis_4">
    <g id="ytick_8">
     <g id="line2d_24">
      <g>
       <use xlink:href="#m890a740740" x="282.300525" y="149.472443" style="stroke: #000000; stroke-width: 0.8"/>
      </g>
     </g>
     <g id="text_26">
      <!-- −10 -->
      <g transform="translate(260.527244 152.131896) scale(0.07 -0.07)">
       <use xlink:href="#DejaVuSans-2212"/>
       <use xlink:href="#DejaVuSans-31" x="83.789062"/>
       <use xlink:href="#DejaVuSans-30" x="147.412109"/>
      </g>
     </g>
    </g>
    <g id="ytick_9">
     <g id="line2d_25">
      <g>
       <use xlink:href="#m890a740740" x="282.300525" y="130.315594" style="stroke: #000000; stroke-width: 0.8"/>
      </g>
     </g>
     <g id="text_27">
      <!-- 0 -->
      <g transform="translate(270.846775 132.975047) scale(0.07 -0.07)">
       <use xlink:href="#DejaVuSans-30"/>
      </g>
     </g>
    </g>
    <g id="ytick_10">
     <g id="line2d_26">
      <g>
       <use xlink:href="#m890a740740" x="282.300525" y="111.158744" style="stroke: #000000; stroke-width: 0.8"/>
      </g>
     </g>
     <g id="text_28">
      <!-- 10 -->
      <g transform="translate(266.393025 113.818198) scale(0.07 -0.07)">
       <use xlink:href="#DejaVuSans-31"/>
       <use xlink:href="#DejaVuSans-30" x="63.623047"/>
      </g>
     </g>
    </g>
    <g id="ytick_11">
     <g id="line2d_27">
      <g>
       <use xlink:href="#m890a740740" x="282.300525" y="92.001895" style="stroke: #000000; stroke-width: 0.8"/>
      </g>
     </g>
     <g id="text_29">
      <!-- 20 -->
      <g transform="translate(266.393025 94.661348) scale(0.07 -0.07)">
       <use xlink:href="#DejaVuSans-32"/>
       <use xlink:href="#DejaVuSans-30" x="63.623047"/>
      </g>
     </g>
    </g>
    <g id="ytick_12">
     <g id="line2d_28">
      <g>
       <use xlink:href="#m890a740740" x="282.300525" y="72.845046" style="stroke: #000000; stroke-width: 0.8"/>
      </g>
     </g>
     <g id="text_30">
      <!-- 30 -->
      <g transform="translate(266.393025 75.504499) scale(0.07 -0.07)">
       <use xlink:href="#DejaVuSans-33"/>
       <use xlink:href="#DejaVuSans-30" x="63.623047"/>
      </g>
     </g>
    </g>
    <g id="ytick_13">
     <g id="line2d_29">
      <g>
       <use xlink:href="#m890a740740" x="282.300525" y="53.688197" style="stroke: #000000; stroke-width: 0.8"/>
      </g>
     </g>
     <g id="text_31">
      <!-- 40 -->
      <g transform="translate(266.393025 56.34765) scale(0.07 -0.07)">
       <use xlink:href="#DejaVuSans-34"/>
       <use xlink:href="#DejaVuSans-30" x="63.623047"/>
      </g>
     </g>
    </g>
    <g id="ytick_14">
     <g id="line2d_30">
      <g>
       <use xlink:href="#m890a740740" x="282.300525" y="34.531348" style="stroke: #000000; stroke-width: 0.8"/>
      </g>
     </g>
     <g id="text_32">
      <!-- 50 -->
      <g transform="translate(266.393025 37.190801) scale(0.07 -0.07)">
       <use xlink:href="#DejaVuSans-35"/>
       <use xlink:href="#DejaVuSans-30" x="63.623047"/>
      </g>
     </g>
    </g>
    <g id="text_33">
     <!-- cumulative change in carbon stocks (GtC) -->
     <g transform="translate(255.071463 162.67868) rotate(-90) scale(0.07 -0.07)">
      <use xlink:href="#DejaVuSans-63"/>
      <use xlink:href="#DejaVuSans-75" x="54.980469"/>
      <use xlink:href="#DejaVuSans-6d" x="118.359375"/>
      <use xlink:href="#DejaVuSans-75" x="215.771484"/>
      <use xlink:href="#DejaVuSans-6c" x="279.150391"/>
      <use xlink:href="#DejaVuSans-61" x="306.933594"/>
      <use xlink:href="#DejaVuSans-74" x="368.212891"/>
      <use xlink:href="#DejaVuSans-69" x="407.421875"/>
      <use xlink:href="#DejaVuSans-76" x="435.205078"/>
      <use xlink:href="#DejaVuSans-65" x="494.384766"/>
      <use xlink:href="#DejaVuSans-20" x="555.908203"/>
      <use xlink:href="#DejaVuSans-63" x="587.695312"/>
      <use xlink:href="#DejaVuSans-68" x="642.675781"/>
      <use xlink:href="#DejaVuSans-61" x="706.054688"/>
      <use xlink:href="#DejaVuSans-6e" x="767.333984"/>
      <use xlink:href="#DejaVuSans-67" x="830.712891"/>
      <use xlink:href="#DejaVuSans-65" x="894.189453"/>
      <use xlink:href="#DejaVuSans-20" x="955.712891"/>
      <use xlink:href="#DejaVuSans-69" x="987.5"/>
      <use xlink:href="#DejaVuSans-6e" x="1015.283203"/>
      <use xlink:href="#DejaVuSans-20" x="1078.662109"/>
      <use xlink:href="#DejaVuSans-63" x="1110.449219"/>
      <use xlink:href="#DejaVuSans-61" x="1165.429688"/>
      <use xlink:href="#DejaVuSans-72" x="1226.708984"/>
      <use xlink:href="#DejaVuSans-62" x="1267.822266"/>
      <use xlink:href="#DejaVuSans-6f" x="1331.298828"/>
      <use xlink:href="#DejaVuSans-6e" x="1392.480469"/>
      <use xlink:href="#DejaVuSans-20" x="1455.859375"/>
      <use xlink:href="#DejaVuSans-73" x="1487.646484"/>
      <use xlink:href="#DejaVuSans-74" x="1539.746094"/>
      <use xlink:href="#DejaVuSans-6f" x="1578.955078"/>
      <use xlink:href="#DejaVuSans-63" x="1640.136719"/>
      <use xlink:href="#DejaVuSans-6b" x="1695.117188"/>
      <use xlink:href="#DejaVuSans-73" x="1753.027344"/>
      <use xlink:href="#DejaVuSans-20" x="1805.126953"/>
      <use xlink:href="#DejaVuSans-28" x="1836.914062"/>
      <use xlink:href="#DejaVuSans-47" x="1875.927734"/>
      <use xlink:href="#DejaVuSans-74" x="1953.417969"/>
      <use xlink:href="#DejaVuSans-43" x="1992.626953"/>
      <use xlink:href="#DejaVuSans-29" x="2062.451172"/>
     </g>
    </g>
   </g>
   <g id="line2d_31">
    <path d="M 291.467481 130.315594 
L 298.257818 128.649063 
L 305.048155 127.832583 
L 311.838493 127.606202 
L 318.62883 126.257211 
L 325.419168 123.773848 
L 332.209505 123.191825 
L 338.999842 122.091489 
L 345.79018 119.857742 
L 352.580517 118.371344 
L 359.370855 118.455485 
L 366.161192 117.915204 
L 372.951529 116.874729 
L 379.741867 115.948855 
L 386.532204 113.167059 
L 393.322542 111.14933 
L 400.112879 108.920961 
L 406.903216 107.328209 
L 413.693554 104.558435 
L 420.483891 101.607161 
L 427.274229 100.947306 
L 434.064566 99.354231 
L 440.854903 95.918738 
L 447.645241 94.744696 
L 454.435578 92.538354 
L 461.225916 89.557934 
L 468.016253 87.490949 
L 474.80659 86.729698 
" clip-path="url(#pd52a0fd0c1)" style="fill: none; stroke: #a2b409; stroke-width: 1.5; stroke-linecap: square"/>
   </g>
   <g id="line2d_32">
    <path d="M 291.467481 130.315594 
L 298.257818 127.256249 
L 305.048155 126.386122 
L 311.838493 126.21496 
L 318.62883 123.051197 
L 325.419168 119.953904 
L 332.209505 119.563537 
L 338.999842 116.421466 
L 345.79018 112.484411 
L 352.580517 110.40952 
L 359.370855 110.532196 
L 366.161192 109.342715 
L 372.951529 106.610996 
L 379.741867 105.616786 
L 386.532204 102.163661 
L 393.322542 99.689868 
L 400.112879 96.001203 
L 406.903216 93.531299 
L 413.693554 90.155478 
L 420.483891 85.403665 
L 427.274229 83.832235 
L 434.064566 80.603882 
L 440.854903 76.349973 
L 447.645241 75.014858 
L 454.435578 72.2313 
L 461.225916 67.9681 
L 468.016253 64.343018 
L 474.80659 62.355804 
" clip-path="url(#pd52a0fd0c1)" style="fill: none; stroke: #817667; stroke-width: 1.5; stroke-linecap: square"/>
   </g>
   <g id="patch_7">
    <path d="M 282.300525 153.303813 
L 282.300525 24.952923 
" style="fill: none; stroke: #000000; stroke-width: 0.8; stroke-linejoin: miter; stroke-linecap: square"/>
   </g>
   <g id="patch_8">
    <path d="M 282.300525 153.303813 
L 483.973546 153.303813 
" style="fill: none; stroke: #000000; stroke-width: 0.8; stroke-linejoin: miter; stroke-linecap: square"/>
   </g>
   <g id="text_34">
    <!-- change in land -->
    <g style="fill: #817667" transform="translate(408.21105 45.849728) scale(0.07 -0.07)">
     <use xlink:href="#DejaVuSans-63"/>
     <use xlink:href="#DejaVuSans-68" x="54.980469"/>
     <use xlink:href="#DejaVuSans-61" x="118.359375"/>
     <use xlink:href="#DejaVuSans-6e" x="179.638672"/>
     <use xlink:href="#DejaVuSans-67" x="243.017578"/>
     <use xlink:href="#DejaVuSans-65" x="306.494141"/>
     <use xlink:href="#DejaVuSans-20" x="368.017578"/>
     <use xlink:href="#DejaVuSans-69" x="399.804688"/>
     <use xlink:href="#DejaVuSans-6e" x="427.587891"/>
     <use xlink:href="#DejaVuSans-20" x="490.966797"/>
     <use xlink:href="#DejaVuSans-6c" x="522.753906"/>
     <use xlink:href="#DejaVuSans-61" x="550.537109"/>
     <use xlink:href="#DejaVuSans-6e" x="611.816406"/>
     <use xlink:href="#DejaVuSans-64" x="675.195312"/>
    </g>
    <!-- carbon stocks -->
    <g style="fill: #817667" transform="translate(409.75105 53.688197) scale(0.07 -0.07)">
     <use xlink:href="#DejaVuSans-63"/>
     <use xlink:href="#DejaVuSans-61" x="54.980469"/>
     <use xlink:href="#DejaVuSans-72" x="116.259766"/>
     <use xlink:href="#DejaVuSans-62" x="157.373047"/>
     <use xlink:href="#DejaVuSans-6f" x="220.849609"/>
     <use xlink:href="#DejaVuSans-6e" x="282.03125"/>
     <use xlink:href="#DejaVuSans-20" x="345.410156"/>
     <use xlink:href="#DejaVuSans-73" x="377.197266"/>
     <use xlink:href="#DejaVuSans-74" x="429.296875"/>
     <use xlink:href="#DejaVuSans-6f" x="468.505859"/>
     <use xlink:href="#DejaVuSans-63" x="529.6875"/>
     <use xlink:href="#DejaVuSans-6b" x="584.667969"/>
     <use xlink:href="#DejaVuSans-73" x="642.578125"/>
    </g>
   </g>
   <g id="text_35">
    <!-- change in -->
    <g style="fill: #a2b409" transform="translate(457.622684 120.178303) scale(0.07 -0.07)">
     <use xlink:href="#DejaVuSans-63"/>
     <use xlink:href="#DejaVuSans-68" x="54.980469"/>
     <use xlink:href="#DejaVuSans-61" x="118.359375"/>
     <use xlink:href="#DejaVuSans-6e" x="179.638672"/>
     <use xlink:href="#DejaVuSans-67" x="243.017578"/>
     <use xlink:href="#DejaVuSans-65" x="306.494141"/>
     <use xlink:href="#DejaVuSans-20" x="368.017578"/>
     <use xlink:href="#DejaVuSans-69" x="399.804688"/>
     <use xlink:href="#DejaVuSans-6e" x="427.587891"/>
    </g>
    <!-- biomass stocks -->
    <g style="fill: #a2b409" transform="translate(448.046356 128.016772) scale(0.07 -0.07)">
     <use xlink:href="#DejaVuSans-62"/>
     <use xlink:href="#DejaVuSans-69" x="63.476562"/>
     <use xlink:href="#DejaVuSans-6f" x="91.259766"/>
     <use xlink:href="#DejaVuSans-6d" x="152.441406"/>
     <use xlink:href="#DejaVuSans-61" x="249.853516"/>
     <use xlink:href="#DejaVuSans-73" x="311.132812"/>
     <use xlink:href="#DejaVuSans-73" x="363.232422"/>
     <use xlink:href="#DejaVuSans-20" x="415.332031"/>
     <use xlink:href="#DejaVuSans-73" x="447.119141"/>
     <use xlink:href="#DejaVuSans-74" x="499.21875"/>
     <use xlink:href="#DejaVuSans-6f" x="538.427734"/>
     <use xlink:href="#DejaVuSans-63" x="599.609375"/>
     <use xlink:href="#DejaVuSans-6b" x="654.589844"/>
     <use xlink:href="#DejaVuSans-73" x="712.5"/>
    </g>
   </g>
   <g id="text_36">
    <!-- B -->
    <g transform="translate(272.216874 12.117834) scale(0.12 -0.12)">
     <defs>
      <path id="DejaVuSans-42" d="M 1259 2228 
L 1259 519 
L 2272 519 
Q 2781 519 3026 730 
Q 3272 941 3272 1375 
Q 3272 1813 3026 2020 
Q 2781 2228 2272 2228 
L 1259 2228 
z
M 1259 4147 
L 1259 2741 
L 2194 2741 
Q 2656 2741 2882 2914 
Q 3109 3088 3109 3444 
Q 3109 3797 2882 3972 
Q 2656 4147 2194 4147 
L 1259 4147 
z
M 628 4666 
L 2241 4666 
Q 2963 4666 3353 4366 
Q 3744 4066 3744 3513 
Q 3744 3084 3544 2831 
Q 3344 2578 2956 2516 
Q 3422 2416 3680 2098 
Q 3938 1781 3938 1306 
Q 3938 681 3513 340 
Q 3088 0 2303 0 
L 628 0 
L 628 4666 
z
" transform="scale(0.015625)"/>
     </defs>
     <use xlink:href="#DejaVuSans-42"/>
    </g>
   </g>
   <g id="patch_9">
    <path d="M 300.997027 96.975421 
Q 290.464274 109.811661 291.288468 127.20695 
" style="fill: none; stroke: #000000; stroke-linecap: round"/>
    <path d="M 292.554383 124.34383 
L 291.288468 127.20695 
L 289.757521 124.476346 
" style="fill: none; stroke: #000000; stroke-linecap: round"/>
   </g>
   <g id="text_37">
    <!-- start of -->
    <g transform="translate(291.467481 84.163426) scale(0.07 -0.07)">
     <use xlink:href="#DejaVuSans-73"/>
     <use xlink:href="#DejaVuSans-74" x="52.099609"/>
     <use xlink:href="#DejaVuSans-61" x="91.308594"/>
     <use xlink:href="#DejaVuSans-72" x="152.587891"/>
     <use xlink:href="#DejaVuSans-74" x="193.701172"/>
     <use xlink:href="#DejaVuSans-20" x="232.910156"/>
     <use xlink:href="#DejaVuSans-6f" x="264.697266"/>
     <use xlink:href="#DejaVuSans-66" x="325.878906"/>
    </g>
    <!-- study period -->
    <g transform="translate(291.467481 92.001895) scale(0.07 -0.07)">
     <use xlink:href="#DejaVuSans-73"/>
     <use xlink:href="#DejaVuSans-74" x="52.099609"/>
     <use xlink:href="#DejaVuSans-75" x="91.308594"/>
     <use xlink:href="#DejaVuSans-64" x="154.6875"/>
     <use xlink:href="#DejaVuSans-79" x="218.164062"/>
     <use xlink:href="#DejaVuSans-20" x="277.34375"/>
     <use xlink:href="#DejaVuSans-70" x="309.130859"/>
     <use xlink:href="#DejaVuSans-65" x="372.607422"/>
     <use xlink:href="#DejaVuSans-72" x="434.130859"/>
     <use xlink:href="#DejaVuSans-69" x="475.244141"/>
     <use xlink:href="#DejaVuSans-6f" x="503.027344"/>
     <use xlink:href="#DejaVuSans-64" x="564.208984"/>
    </g>
   </g>
   <g id="text_38">
    <!-- global vegetation models -->
    <g transform="translate(319.646411 18.952923) scale(0.1 -0.1)">
     <use xlink:href="#DejaVuSans-67"/>
     <use xlink:href="#DejaVuSans-6c" x="63.476562"/>
     <use xlink:href="#DejaVuSans-6f" x="91.259766"/>
     <use xlink:href="#DejaVuSans-62" x="152.441406"/>
     <use xlink:href="#DejaVuSans-61" x="215.917969"/>
     <use xlink:href="#DejaVuSans-6c" x="277.197266"/>
     <use xlink:href="#DejaVuSans-20" x="304.980469"/>
     <use xlink:href="#DejaVuSans-76" x="336.767578"/>
     <use xlink:href="#DejaVuSans-65" x="395.947266"/>
     <use xlink:href="#DejaVuSans-67" x="457.470703"/>
     <use xlink:href="#DejaVuSans-65" x="520.947266"/>
     <use xlink:href="#DejaVuSans-74" x="582.470703"/>
     <use xlink:href="#DejaVuSans-61" x="621.679688"/>
     <use xlink:href="#DejaVuSans-74" x="682.958984"/>
     <use xlink:href="#DejaVuSans-69" x="722.167969"/>
     <use xlink:href="#DejaVuSans-6f" x="749.951172"/>
     <use xlink:href="#DejaVuSans-6e" x="811.132812"/>
     <use xlink:href="#DejaVuSans-20" x="874.511719"/>
     <use xlink:href="#DejaVuSans-6d" x="906.298828"/>
     <use xlink:href="#DejaVuSans-6f" x="1003.710938"/>
     <use xlink:href="#DejaVuSans-64" x="1064.892578"/>
     <use xlink:href="#DejaVuSans-65" x="1128.369141"/>
     <use xlink:href="#DejaVuSans-6c" x="1189.892578"/>
     <use xlink:href="#DejaVuSans-73" x="1217.675781"/>
    </g>
   </g>
  </g>
 </g>
 <defs>
  <clipPath id="p53f816cfec">
   <rect x="35.548209" y="24.952923" width="201.673021" height="128.35089"/>
  </clipPath>
  <clipPath id="pd52a0fd0c1">
   <rect x="282.300525" y="24.952923" width="201.673021" height="128.35089"/>
  </clipPath>
 </defs>
</svg>
