<?xml version="1.0" encoding="utf-8" standalone="no"?>
<!DOCTYPE svg PUBLIC "-//W3C//DTD SVG 1.1//EN"
  "http://www.w3.org/Graphics/SVG/1.1/DTD/svg11.dtd">
<svg xmlns:xlink="http://www.w3.org/1999/xlink" width="240.944882pt" height="170.07874pt" viewBox="0 0 240.944882 170.07874" xmlns="http://www.w3.org/2000/svg" version="1.1">
 <metadata>
  <rdf:RDF xmlns:dc="http://purl.org/dc/elements/1.1/" xmlns:cc="http://creativecommons.org/ns#" xmlns:rdf="http://www.w3.org/1999/02/22-rdf-syntax-ns#">
   <cc:Work>
    <dc:type rdf:resource="http://purl.org/dc/dcmitype/StillImage"/>
    <dc:date>2024-06-28T21:48:12.771698</dc:date>
    <dc:format>image/svg+xml</dc:format>
    <dc:creator>
     <cc:Agent>
      <dc:title>Matplotlib v3.9.0, https://matplotlib.org/</dc:title>
     </cc:Agent>
    </dc:creator>
   </cc:Work>
  </rdf:RDF>
 </metadata>
 <defs>
  <style type="text/css">*{stroke-linejoin: round; stroke-linecap: butt}</style>
 </defs>
 <g id="figure_1">
  <g id="patch_1">
   <path d="M 0 170.07874 
L 240.944882 170.07874 
L 240.944882 0 
L 0 0 
z
" style="fill: #ffffff"/>
  </g>
  <g id="axes_1">
   <g id="patch_2">
    <path d="M 35.548209 153.303813 
L 231.344528 153.303813 
L 231.344528 3.00024 
L 35.548209 3.00024 
z
" style="fill: #ffffff"/>
   </g>
   <g id="line2d_1">
    <path d="M 35.548209 130.180186 
L 231.344528 130.180186 
" clip-path="url(#p1ab29ef6ee)" style="fill: none; stroke-dasharray: 5.55,2.4; stroke-dashoffset: 0; stroke: #808080; stroke-width: 1.5"/>
   </g>
   <g id="PolyCollection_1">
    <defs>
     <path id="m3c23f23d1f" d="M 51.04051 -38.44076 
L 51.04051 -37.509785 
L 57.632979 -29.489393 
L 64.225447 -18.498026 
L 70.817916 -16.20063 
L 77.410385 -16.390956 
L 84.002853 -15.055078 
L 90.595322 -15.494308 
L 97.187791 -18.287166 
L 103.780259 -19.417362 
L 110.372728 -18.984564 
L 116.965197 -16.789417 
L 123.557665 -19.665425 
L 130.150134 -19.010459 
L 136.742602 -20.166921 
L 143.335071 -20.322917 
L 149.92754 -21.211366 
L 156.520008 -23.519183 
L 163.112477 -20.715913 
L 169.704946 -20.560889 
L 176.297414 -21.62381 
L 182.889883 -21.451602 
L 189.482352 -23.170889 
L 196.07482 -26.007298 
L 202.667289 -30.157999 
L 209.259758 -30.402149 
L 215.852226 -30.642637 
L 222.444695 -29.423128 
L 222.444695 -58.175891 
L 222.444695 -58.175891 
L 215.852226 -58.902433 
L 209.259758 -58.072559 
L 202.667289 -57.444892 
L 196.07482 -52.528775 
L 189.482352 -49.779248 
L 182.889883 -48.160177 
L 176.297414 -47.916597 
L 169.704946 -47.100511 
L 163.112477 -46.379795 
L 156.520008 -51.031676 
L 149.92754 -50.364427 
L 143.335071 -48.698047 
L 136.742602 -46.418 
L 130.150134 -45.468239 
L 123.557665 -46.383081 
L 116.965197 -41.940681 
L 110.372728 -43.042911 
L 103.780259 -42.387483 
L 97.187791 -40.5844 
L 90.595322 -37.96499 
L 84.002853 -37.542546 
L 77.410385 -39.511314 
L 70.817916 -38.402708 
L 64.225447 -35.330519 
L 57.632979 -35.883106 
L 51.04051 -38.44076 
z
"/>
    </defs>
    <g clip-path="url(#p1ab29ef6ee)">
     <use xlink:href="#m3c23f23d1f" x="0" y="170.07874" style="fill: #228b22; fill-opacity: 0.2"/>
    </g>
   </g>
   <g id="PolyCollection_2">
    <defs>
     <path id="m8b2f04b883" d="M 44.448041 -39.898554 
L 44.448041 -39.898554 
L 51.04051 -41.641081 
L 57.632979 -42.066028 
L 64.225447 -41.079387 
L 70.817916 -45.197093 
L 77.410385 -44.475526 
L 84.002853 -39.34386 
L 90.595322 -42.491196 
L 97.187791 -46.569546 
L 103.780259 -48.079127 
L 110.372728 -46.397672 
L 116.965197 -45.703493 
L 123.557665 -49.261752 
L 130.150134 -48.847725 
L 136.742602 -52.212722 
L 143.335071 -54.537686 
L 149.92754 -58.845313 
L 156.520008 -63.369797 
L 163.112477 -64.944825 
L 169.704946 -70.722209 
L 176.297414 -73.060063 
L 182.889883 -75.288281 
L 189.482352 -79.337245 
L 196.07482 -78.763115 
L 202.667289 -78.445515 
L 209.259758 -82.219696 
L 215.852226 -85.02302 
L 222.444695 -87.330935 
L 222.444695 -152.056926 
L 222.444695 -152.056926 
L 215.852226 -147.00374 
L 209.259758 -141.470537 
L 202.667289 -135.00399 
L 196.07482 -132.658199 
L 189.482352 -130.57135 
L 182.889883 -123.864165 
L 176.297414 -118.991892 
L 169.704946 -114.027271 
L 163.112477 -105.649692 
L 156.520008 -101.529311 
L 149.92754 -94.54366 
L 143.335071 -87.75403 
L 136.742602 -82.974797 
L 130.150134 -77.198415 
L 123.557665 -75.248485 
L 116.965197 -69.371157 
L 110.372728 -67.790401 
L 103.780259 -67.257625 
L 97.187791 -63.559784 
L 90.595322 -57.303252 
L 84.002853 -52.007553 
L 77.410385 -55.014319 
L 70.817916 -53.615136 
L 64.225447 -47.394019 
L 57.632979 -46.325404 
L 51.04051 -43.934661 
L 44.448041 -39.898554 
z
"/>
    </defs>
    <g clip-path="url(#p1ab29ef6ee)">
     <use xlink:href="#m8b2f04b883" x="0" y="170.07874" style="fill-opacity: 0.2"/>
    </g>
   </g>
   <g id="matplotlib.axis_1">
    <g id="xtick_1">
     <g id="line2d_2">
      <defs>
       <path id="m4c4dbe04cf" d="M 0 0 
L 0 3.5 
" style="stroke: #000000; stroke-width: 0.8"/>
      </defs>
      <g>
       <use xlink:href="#m4c4dbe04cf" x="64.225447" y="153.303813" style="stroke: #000000; stroke-width: 0.8"/>
      </g>
     </g>
     <g id="text_1">
      <!-- 1995 -->
      <g transform="translate(55.317947 165.622719) scale(0.07 -0.07)">
       <defs>
        <path id="DejaVuSans-31" d="M 794 531 
L 1825 531 
L 1825 4091 
L 703 3866 
L 703 4441 
L 1819 4666 
L 2450 4666 
L 2450 531 
L 3481 531 
L 3481 0 
L 794 0 
L 794 531 
z
" transform="scale(0.015625)"/>
        <path id="DejaVuSans-39" d="M 703 97 
L 703 672 
Q 941 559 1184 500 
Q 1428 441 1663 441 
Q 2288 441 2617 861 
Q 2947 1281 2994 2138 
Q 2813 1869 2534 1725 
Q 2256 1581 1919 1581 
Q 1219 1581 811 2004 
Q 403 2428 403 3163 
Q 403 3881 828 4315 
Q 1253 4750 1959 4750 
Q 2769 4750 3195 4129 
Q 3622 3509 3622 2328 
Q 3622 1225 3098 567 
Q 2575 -91 1691 -91 
Q 1453 -91 1209 -44 
Q 966 3 703 97 
z
M 1959 2075 
Q 2384 2075 2632 2365 
Q 2881 2656 2881 3163 
Q 2881 3666 2632 3958 
Q 2384 4250 1959 4250 
Q 1534 4250 1286 3958 
Q 1038 3666 1038 3163 
Q 1038 2656 1286 2365 
Q 1534 2075 1959 2075 
z
" transform="scale(0.015625)"/>
        <path id="DejaVuSans-35" d="M 691 4666 
L 3169 4666 
L 3169 4134 
L 1269 4134 
L 1269 2991 
Q 1406 3038 1543 3061 
Q 1681 3084 1819 3084 
Q 2600 3084 3056 2656 
Q 3513 2228 3513 1497 
Q 3513 744 3044 326 
Q 2575 -91 1722 -91 
Q 1428 -91 1123 -41 
Q 819 9 494 109 
L 494 744 
Q 775 591 1075 516 
Q 1375 441 1709 441 
Q 2250 441 2565 725 
Q 2881 1009 2881 1497 
Q 2881 1984 2565 2268 
Q 2250 2553 1709 2553 
Q 1456 2553 1204 2497 
Q 953 2441 691 2322 
L 691 4666 
z
" transform="scale(0.015625)"/>
       </defs>
       <use xlink:href="#DejaVuSans-31"/>
       <use xlink:href="#DejaVuSans-39" x="63.623047"/>
       <use xlink:href="#DejaVuSans-39" x="127.246094"/>
       <use xlink:href="#DejaVuSans-35" x="190.869141"/>
      </g>
     </g>
    </g>
    <g id="xtick_2">
     <g id="line2d_3">
      <g>
       <use xlink:href="#m4c4dbe04cf" x="97.187791" y="153.303813" style="stroke: #000000; stroke-width: 0.8"/>
      </g>
     </g>
     <g id="text_2">
      <!-- 2000 -->
      <g transform="translate(88.280291 165.622719) scale(0.07 -0.07)">
       <defs>
        <path id="DejaVuSans-32" d="M 1228 531 
L 3431 531 
L 3431 0 
L 469 0 
L 469 531 
Q 828 903 1448 1529 
Q 2069 2156 2228 2338 
Q 2531 2678 2651 2914 
Q 2772 3150 2772 3378 
Q 2772 3750 2511 3984 
Q 2250 4219 1831 4219 
Q 1534 4219 1204 4116 
Q 875 4013 500 3803 
L 500 4441 
Q 881 4594 1212 4672 
Q 1544 4750 1819 4750 
Q 2544 4750 2975 4387 
Q 3406 4025 3406 3419 
Q 3406 3131 3298 2873 
Q 3191 2616 2906 2266 
Q 2828 2175 2409 1742 
Q 1991 1309 1228 531 
z
" transform="scale(0.015625)"/>
        <path id="DejaVuSans-30" d="M 2034 4250 
Q 1547 4250 1301 3770 
Q 1056 3291 1056 2328 
Q 1056 1369 1301 889 
Q 1547 409 2034 409 
Q 2525 409 2770 889 
Q 3016 1369 3016 2328 
Q 3016 3291 2770 3770 
Q 2525 4250 2034 4250 
z
M 2034 4750 
Q 2819 4750 3233 4129 
Q 3647 3509 3647 2328 
Q 3647 1150 3233 529 
Q 2819 -91 2034 -91 
Q 1250 -91 836 529 
Q 422 1150 422 2328 
Q 422 3509 836 4129 
Q 1250 4750 2034 4750 
z
" transform="scale(0.015625)"/>
       </defs>
       <use xlink:href="#DejaVuSans-32"/>
       <use xlink:href="#DejaVuSans-30" x="63.623047"/>
       <use xlink:href="#DejaVuSans-30" x="127.246094"/>
       <use xlink:href="#DejaVuSans-30" x="190.869141"/>
      </g>
     </g>
    </g>
    <g id="xtick_3">
     <g id="line2d_4">
      <g>
       <use xlink:href="#m4c4dbe04cf" x="130.150134" y="153.303813" style="stroke: #000000; stroke-width: 0.8"/>
      </g>
     </g>
     <g id="text_3">
      <!-- 2005 -->
      <g transform="translate(121.242634 165.622719) scale(0.07 -0.07)">
       <use xlink:href="#DejaVuSans-32"/>
       <use xlink:href="#DejaVuSans-30" x="63.623047"/>
       <use xlink:href="#DejaVuSans-30" x="127.246094"/>
       <use xlink:href="#DejaVuSans-35" x="190.869141"/>
      </g>
     </g>
    </g>
    <g id="xtick_4">
     <g id="line2d_5">
      <g>
       <use xlink:href="#m4c4dbe04cf" x="163.112477" y="153.303813" style="stroke: #000000; stroke-width: 0.8"/>
      </g>
     </g>
     <g id="text_4">
      <!-- 2010 -->
      <g transform="translate(154.204977 165.622719) scale(0.07 -0.07)">
       <use xlink:href="#DejaVuSans-32"/>
       <use xlink:href="#DejaVuSans-30" x="63.623047"/>
       <use xlink:href="#DejaVuSans-31" x="127.246094"/>
       <use xlink:href="#DejaVuSans-30" x="190.869141"/>
      </g>
     </g>
    </g>
    <g id="xtick_5">
     <g id="line2d_6">
      <g>
       <use xlink:href="#m4c4dbe04cf" x="196.07482" y="153.303813" style="stroke: #000000; stroke-width: 0.8"/>
      </g>
     </g>
     <g id="text_5">
      <!-- 2015 -->
      <g transform="translate(187.16732 165.622719) scale(0.07 -0.07)">
       <use xlink:href="#DejaVuSans-32"/>
       <use xlink:href="#DejaVuSans-30" x="63.623047"/>
       <use xlink:href="#DejaVuSans-31" x="127.246094"/>
       <use xlink:href="#DejaVuSans-35" x="190.869141"/>
      </g>
     </g>
    </g>
    <g id="xtick_6">
     <g id="line2d_7">
      <g>
       <use xlink:href="#m4c4dbe04cf" x="229.037163" y="153.303813" style="stroke: #000000; stroke-width: 0.8"/>
      </g>
     </g>
     <g id="text_6">
      <!-- 2020 -->
      <g transform="translate(220.129663 165.622719) scale(0.07 -0.07)">
       <use xlink:href="#DejaVuSans-32"/>
       <use xlink:href="#DejaVuSans-30" x="63.623047"/>
       <use xlink:href="#DejaVuSans-32" x="127.246094"/>
       <use xlink:href="#DejaVuSans-30" x="190.869141"/>
      </g>
     </g>
    </g>
   </g>
   <g id="matplotlib.axis_2">
    <g id="ytick_1">
     <g id="line2d_8">
      <defs>
       <path id="mb285e7143b" d="M 0 0 
L -3.5 0 
" style="stroke: #000000; stroke-width: 0.8"/>
      </defs>
      <g>
       <use xlink:href="#mb285e7143b" x="35.548209" y="153.303813" style="stroke: #000000; stroke-width: 0.8"/>
      </g>
     </g>
     <g id="text_7">
      <!-- −10 -->
      <g transform="translate(13.774928 155.963266) scale(0.07 -0.07)">
       <defs>
        <path id="DejaVuSans-2212" d="M 678 2272 
L 4684 2272 
L 4684 1741 
L 678 1741 
L 678 2272 
z
" transform="scale(0.015625)"/>
       </defs>
       <use xlink:href="#DejaVuSans-2212"/>
       <use xlink:href="#DejaVuSans-31" x="83.789062"/>
       <use xlink:href="#DejaVuSans-30" x="147.412109"/>
      </g>
     </g>
    </g>
    <g id="ytick_2">
     <g id="line2d_9">
      <g>
       <use xlink:href="#mb285e7143b" x="35.548209" y="130.180186" style="stroke: #000000; stroke-width: 0.8"/>
      </g>
     </g>
     <g id="text_8">
      <!-- 0 -->
      <g transform="translate(24.094459 132.839639) scale(0.07 -0.07)">
       <use xlink:href="#DejaVuSans-30"/>
      </g>
     </g>
    </g>
    <g id="ytick_3">
     <g id="line2d_10">
      <g>
       <use xlink:href="#mb285e7143b" x="35.548209" y="107.05656" style="stroke: #000000; stroke-width: 0.8"/>
      </g>
     </g>
     <g id="text_9">
      <!-- 10 -->
      <g transform="translate(19.640709 109.716013) scale(0.07 -0.07)">
       <use xlink:href="#DejaVuSans-31"/>
       <use xlink:href="#DejaVuSans-30" x="63.623047"/>
      </g>
     </g>
    </g>
    <g id="ytick_4">
     <g id="line2d_11">
      <g>
       <use xlink:href="#mb285e7143b" x="35.548209" y="83.932933" style="stroke: #000000; stroke-width: 0.8"/>
      </g>
     </g>
     <g id="text_10">
      <!-- 20 -->
      <g transform="translate(19.640709 86.592386) scale(0.07 -0.07)">
       <use xlink:href="#DejaVuSans-32"/>
       <use xlink:href="#DejaVuSans-30" x="63.623047"/>
      </g>
     </g>
    </g>
    <g id="ytick_5">
     <g id="line2d_12">
      <g>
       <use xlink:href="#mb285e7143b" x="35.548209" y="60.809306" style="stroke: #000000; stroke-width: 0.8"/>
      </g>
     </g>
     <g id="text_11">
      <!-- 30 -->
      <g transform="translate(19.640709 63.46876) scale(0.07 -0.07)">
       <defs>
        <path id="DejaVuSans-33" d="M 2597 2516 
Q 3050 2419 3304 2112 
Q 3559 1806 3559 1356 
Q 3559 666 3084 287 
Q 2609 -91 1734 -91 
Q 1441 -91 1130 -33 
Q 819 25 488 141 
L 488 750 
Q 750 597 1062 519 
Q 1375 441 1716 441 
Q 2309 441 2620 675 
Q 2931 909 2931 1356 
Q 2931 1769 2642 2001 
Q 2353 2234 1838 2234 
L 1294 2234 
L 1294 2753 
L 1863 2753 
Q 2328 2753 2575 2939 
Q 2822 3125 2822 3475 
Q 2822 3834 2567 4026 
Q 2313 4219 1838 4219 
Q 1578 4219 1281 4162 
Q 984 4106 628 3988 
L 628 4550 
Q 988 4650 1302 4700 
Q 1616 4750 1894 4750 
Q 2613 4750 3031 4423 
Q 3450 4097 3450 3541 
Q 3450 3153 3228 2886 
Q 3006 2619 2597 2516 
z
" transform="scale(0.015625)"/>
       </defs>
       <use xlink:href="#DejaVuSans-33"/>
       <use xlink:href="#DejaVuSans-30" x="63.623047"/>
      </g>
     </g>
    </g>
    <g id="ytick_6">
     <g id="line2d_13">
      <g>
       <use xlink:href="#mb285e7143b" x="35.548209" y="37.68568" style="stroke: #000000; stroke-width: 0.8"/>
      </g>
     </g>
     <g id="text_12">
      <!-- 40 -->
      <g transform="translate(19.640709 40.345133) scale(0.07 -0.07)">
       <defs>
        <path id="DejaVuSans-34" d="M 2419 4116 
L 825 1625 
L 2419 1625 
L 2419 4116 
z
M 2253 4666 
L 3047 4666 
L 3047 1625 
L 3713 1625 
L 3713 1100 
L 3047 1100 
L 3047 0 
L 2419 0 
L 2419 1100 
L 313 1100 
L 313 1709 
L 2253 4666 
z
" transform="scale(0.015625)"/>
       </defs>
       <use xlink:href="#DejaVuSans-34"/>
       <use xlink:href="#DejaVuSans-30" x="63.623047"/>
      </g>
     </g>
    </g>
    <g id="ytick_7">
     <g id="line2d_14">
      <g>
       <use xlink:href="#mb285e7143b" x="35.548209" y="14.562053" style="stroke: #000000; stroke-width: 0.8"/>
      </g>
     </g>
     <g id="text_13">
      <!-- 50 -->
      <g transform="translate(19.640709 17.221506) scale(0.07 -0.07)">
       <use xlink:href="#DejaVuSans-35"/>
       <use xlink:href="#DejaVuSans-30" x="63.623047"/>
      </g>
     </g>
    </g>
    <g id="text_14">
     <!-- cumulative change in carbon pool (GtC) -->
     <g transform="translate(8.319146 148.068354) rotate(-90) scale(0.07 -0.07)">
      <defs>
       <path id="DejaVuSans-63" d="M 3122 3366 
L 3122 2828 
Q 2878 2963 2633 3030 
Q 2388 3097 2138 3097 
Q 1578 3097 1268 2742 
Q 959 2388 959 1747 
Q 959 1106 1268 751 
Q 1578 397 2138 397 
Q 2388 397 2633 464 
Q 2878 531 3122 666 
L 3122 134 
Q 2881 22 2623 -34 
Q 2366 -91 2075 -91 
Q 1284 -91 818 406 
Q 353 903 353 1747 
Q 353 2603 823 3093 
Q 1294 3584 2113 3584 
Q 2378 3584 2631 3529 
Q 2884 3475 3122 3366 
z
" transform="scale(0.015625)"/>
       <path id="DejaVuSans-75" d="M 544 1381 
L 544 3500 
L 1119 3500 
L 1119 1403 
Q 1119 906 1312 657 
Q 1506 409 1894 409 
Q 2359 409 2629 706 
Q 2900 1003 2900 1516 
L 2900 3500 
L 3475 3500 
L 3475 0 
L 2900 0 
L 2900 538 
Q 2691 219 2414 64 
Q 2138 -91 1772 -91 
Q 1169 -91 856 284 
Q 544 659 544 1381 
z
M 1991 3584 
L 1991 3584 
z
" transform="scale(0.015625)"/>
       <path id="DejaVuSans-6d" d="M 3328 2828 
Q 3544 3216 3844 3400 
Q 4144 3584 4550 3584 
Q 5097 3584 5394 3201 
Q 5691 2819 5691 2113 
L 5691 0 
L 5113 0 
L 5113 2094 
Q 5113 2597 4934 2840 
Q 4756 3084 4391 3084 
Q 3944 3084 3684 2787 
Q 3425 2491 3425 1978 
L 3425 0 
L 2847 0 
L 2847 2094 
Q 2847 2600 2669 2842 
Q 2491 3084 2119 3084 
Q 1678 3084 1418 2786 
Q 1159 2488 1159 1978 
L 1159 0 
L 581 0 
L 581 3500 
L 1159 3500 
L 1159 2956 
Q 1356 3278 1631 3431 
Q 1906 3584 2284 3584 
Q 2666 3584 2933 3390 
Q 3200 3197 3328 2828 
z
" transform="scale(0.015625)"/>
       <path id="DejaVuSans-6c" d="M 603 4863 
L 1178 4863 
L 1178 0 
L 603 0 
L 603 4863 
z
" transform="scale(0.015625)"/>
       <path id="DejaVuSans-61" d="M 2194 1759 
Q 1497 1759 1228 1600 
Q 959 1441 959 1056 
Q 959 750 1161 570 
Q 1363 391 1709 391 
Q 2188 391 2477 730 
Q 2766 1069 2766 1631 
L 2766 1759 
L 2194 1759 
z
M 3341 1997 
L 3341 0 
L 2766 0 
L 2766 531 
Q 2569 213 2275 61 
Q 1981 -91 1556 -91 
Q 1019 -91 701 211 
Q 384 513 384 1019 
Q 384 1609 779 1909 
Q 1175 2209 1959 2209 
L 2766 2209 
L 2766 2266 
Q 2766 2663 2505 2880 
Q 2244 3097 1772 3097 
Q 1472 3097 1187 3025 
Q 903 2953 641 2809 
L 641 3341 
Q 956 3463 1253 3523 
Q 1550 3584 1831 3584 
Q 2591 3584 2966 3190 
Q 3341 2797 3341 1997 
z
" transform="scale(0.015625)"/>
       <path id="DejaVuSans-74" d="M 1172 4494 
L 1172 3500 
L 2356 3500 
L 2356 3053 
L 1172 3053 
L 1172 1153 
Q 1172 725 1289 603 
Q 1406 481 1766 481 
L 2356 481 
L 2356 0 
L 1766 0 
Q 1100 0 847 248 
Q 594 497 594 1153 
L 594 3053 
L 172 3053 
L 172 3500 
L 594 3500 
L 594 4494 
L 1172 4494 
z
" transform="scale(0.015625)"/>
       <path id="DejaVuSans-69" d="M 603 3500 
L 1178 3500 
L 1178 0 
L 603 0 
L 603 3500 
z
M 603 4863 
L 1178 4863 
L 1178 4134 
L 603 4134 
L 603 4863 
z
" transform="scale(0.015625)"/>
       <path id="DejaVuSans-76" d="M 191 3500 
L 800 3500 
L 1894 563 
L 2988 3500 
L 3597 3500 
L 2284 0 
L 1503 0 
L 191 3500 
z
" transform="scale(0.015625)"/>
       <path id="DejaVuSans-65" d="M 3597 1894 
L 3597 1613 
L 953 1613 
Q 991 1019 1311 708 
Q 1631 397 2203 397 
Q 2534 397 2845 478 
Q 3156 559 3463 722 
L 3463 178 
Q 3153 47 2828 -22 
Q 2503 -91 2169 -91 
Q 1331 -91 842 396 
Q 353 884 353 1716 
Q 353 2575 817 3079 
Q 1281 3584 2069 3584 
Q 2775 3584 3186 3129 
Q 3597 2675 3597 1894 
z
M 3022 2063 
Q 3016 2534 2758 2815 
Q 2500 3097 2075 3097 
Q 1594 3097 1305 2825 
Q 1016 2553 972 2059 
L 3022 2063 
z
" transform="scale(0.015625)"/>
       <path id="DejaVuSans-20" transform="scale(0.015625)"/>
       <path id="DejaVuSans-68" d="M 3513 2113 
L 3513 0 
L 2938 0 
L 2938 2094 
Q 2938 2591 2744 2837 
Q 2550 3084 2163 3084 
Q 1697 3084 1428 2787 
Q 1159 2491 1159 1978 
L 1159 0 
L 581 0 
L 581 4863 
L 1159 4863 
L 1159 2956 
Q 1366 3272 1645 3428 
Q 1925 3584 2291 3584 
Q 2894 3584 3203 3211 
Q 3513 2838 3513 2113 
z
" transform="scale(0.015625)"/>
       <path id="DejaVuSans-6e" d="M 3513 2113 
L 3513 0 
L 2938 0 
L 2938 2094 
Q 2938 2591 2744 2837 
Q 2550 3084 2163 3084 
Q 1697 3084 1428 2787 
Q 1159 2491 1159 1978 
L 1159 0 
L 581 0 
L 581 3500 
L 1159 3500 
L 1159 2956 
Q 1366 3272 1645 3428 
Q 1925 3584 2291 3584 
Q 2894 3584 3203 3211 
Q 3513 2838 3513 2113 
z
" transform="scale(0.015625)"/>
       <path id="DejaVuSans-67" d="M 2906 1791 
Q 2906 2416 2648 2759 
Q 2391 3103 1925 3103 
Q 1463 3103 1205 2759 
Q 947 2416 947 1791 
Q 947 1169 1205 825 
Q 1463 481 1925 481 
Q 2391 481 2648 825 
Q 2906 1169 2906 1791 
z
M 3481 434 
Q 3481 -459 3084 -895 
Q 2688 -1331 1869 -1331 
Q 1566 -1331 1297 -1286 
Q 1028 -1241 775 -1147 
L 775 -588 
Q 1028 -725 1275 -790 
Q 1522 -856 1778 -856 
Q 2344 -856 2625 -561 
Q 2906 -266 2906 331 
L 2906 616 
Q 2728 306 2450 153 
Q 2172 0 1784 0 
Q 1141 0 747 490 
Q 353 981 353 1791 
Q 353 2603 747 3093 
Q 1141 3584 1784 3584 
Q 2172 3584 2450 3431 
Q 2728 3278 2906 2969 
L 2906 3500 
L 3481 3500 
L 3481 434 
z
" transform="scale(0.015625)"/>
       <path id="DejaVuSans-72" d="M 2631 2963 
Q 2534 3019 2420 3045 
Q 2306 3072 2169 3072 
Q 1681 3072 1420 2755 
Q 1159 2438 1159 1844 
L 1159 0 
L 581 0 
L 581 3500 
L 1159 3500 
L 1159 2956 
Q 1341 3275 1631 3429 
Q 1922 3584 2338 3584 
Q 2397 3584 2469 3576 
Q 2541 3569 2628 3553 
L 2631 2963 
z
" transform="scale(0.015625)"/>
       <path id="DejaVuSans-62" d="M 3116 1747 
Q 3116 2381 2855 2742 
Q 2594 3103 2138 3103 
Q 1681 3103 1420 2742 
Q 1159 2381 1159 1747 
Q 1159 1113 1420 752 
Q 1681 391 2138 391 
Q 2594 391 2855 752 
Q 3116 1113 3116 1747 
z
M 1159 2969 
Q 1341 3281 1617 3432 
Q 1894 3584 2278 3584 
Q 2916 3584 3314 3078 
Q 3713 2572 3713 1747 
Q 3713 922 3314 415 
Q 2916 -91 2278 -91 
Q 1894 -91 1617 61 
Q 1341 213 1159 525 
L 1159 0 
L 581 0 
L 581 4863 
L 1159 4863 
L 1159 2969 
z
" transform="scale(0.015625)"/>
       <path id="DejaVuSans-6f" d="M 1959 3097 
Q 1497 3097 1228 2736 
Q 959 2375 959 1747 
Q 959 1119 1226 758 
Q 1494 397 1959 397 
Q 2419 397 2687 759 
Q 2956 1122 2956 1747 
Q 2956 2369 2687 2733 
Q 2419 3097 1959 3097 
z
M 1959 3584 
Q 2709 3584 3137 3096 
Q 3566 2609 3566 1747 
Q 3566 888 3137 398 
Q 2709 -91 1959 -91 
Q 1206 -91 779 398 
Q 353 888 353 1747 
Q 353 2609 779 3096 
Q 1206 3584 1959 3584 
z
" transform="scale(0.015625)"/>
       <path id="DejaVuSans-70" d="M 1159 525 
L 1159 -1331 
L 581 -1331 
L 581 3500 
L 1159 3500 
L 1159 2969 
Q 1341 3281 1617 3432 
Q 1894 3584 2278 3584 
Q 2916 3584 3314 3078 
Q 3713 2572 3713 1747 
Q 3713 922 3314 415 
Q 2916 -91 2278 -91 
Q 1894 -91 1617 61 
Q 1341 213 1159 525 
z
M 3116 1747 
Q 3116 2381 2855 2742 
Q 2594 3103 2138 3103 
Q 1681 3103 1420 2742 
Q 1159 2381 1159 1747 
Q 1159 1113 1420 752 
Q 1681 391 2138 391 
Q 2594 391 2855 752 
Q 3116 1113 3116 1747 
z
" transform="scale(0.015625)"/>
       <path id="DejaVuSans-28" d="M 1984 4856 
Q 1566 4138 1362 3434 
Q 1159 2731 1159 2009 
Q 1159 1288 1364 580 
Q 1569 -128 1984 -844 
L 1484 -844 
Q 1016 -109 783 600 
Q 550 1309 550 2009 
Q 550 2706 781 3412 
Q 1013 4119 1484 4856 
L 1984 4856 
z
" transform="scale(0.015625)"/>
       <path id="DejaVuSans-47" d="M 3809 666 
L 3809 1919 
L 2778 1919 
L 2778 2438 
L 4434 2438 
L 4434 434 
Q 4069 175 3628 42 
Q 3188 -91 2688 -91 
Q 1594 -91 976 548 
Q 359 1188 359 2328 
Q 359 3472 976 4111 
Q 1594 4750 2688 4750 
Q 3144 4750 3555 4637 
Q 3966 4525 4313 4306 
L 4313 3634 
Q 3963 3931 3569 4081 
Q 3175 4231 2741 4231 
Q 1884 4231 1454 3753 
Q 1025 3275 1025 2328 
Q 1025 1384 1454 906 
Q 1884 428 2741 428 
Q 3075 428 3337 486 
Q 3600 544 3809 666 
z
" transform="scale(0.015625)"/>
       <path id="DejaVuSans-43" d="M 4122 4306 
L 4122 3641 
Q 3803 3938 3442 4084 
Q 3081 4231 2675 4231 
Q 1875 4231 1450 3742 
Q 1025 3253 1025 2328 
Q 1025 1406 1450 917 
Q 1875 428 2675 428 
Q 3081 428 3442 575 
Q 3803 722 4122 1019 
L 4122 359 
Q 3791 134 3420 21 
Q 3050 -91 2638 -91 
Q 1578 -91 968 557 
Q 359 1206 359 2328 
Q 359 3453 968 4101 
Q 1578 4750 2638 4750 
Q 3056 4750 3426 4639 
Q 3797 4528 4122 4306 
z
" transform="scale(0.015625)"/>
       <path id="DejaVuSans-29" d="M 513 4856 
L 1013 4856 
Q 1481 4119 1714 3412 
Q 1947 2706 1947 2009 
Q 1947 1309 1714 600 
Q 1481 -109 1013 -844 
L 513 -844 
Q 928 -128 1133 580 
Q 1338 1288 1338 2009 
Q 1338 2731 1133 3434 
Q 928 4138 513 4856 
z
" transform="scale(0.015625)"/>
      </defs>
      <use xlink:href="#DejaVuSans-63"/>
      <use xlink:href="#DejaVuSans-75" x="54.980469"/>
      <use xlink:href="#DejaVuSans-6d" x="118.359375"/>
      <use xlink:href="#DejaVuSans-75" x="215.771484"/>
      <use xlink:href="#DejaVuSans-6c" x="279.150391"/>
      <use xlink:href="#DejaVuSans-61" x="306.933594"/>
      <use xlink:href="#DejaVuSans-74" x="368.212891"/>
      <use xlink:href="#DejaVuSans-69" x="407.421875"/>
      <use xlink:href="#DejaVuSans-76" x="435.205078"/>
      <use xlink:href="#DejaVuSans-65" x="494.384766"/>
      <use xlink:href="#DejaVuSans-20" x="555.908203"/>
      <use xlink:href="#DejaVuSans-63" x="587.695312"/>
      <use xlink:href="#DejaVuSans-68" x="642.675781"/>
      <use xlink:href="#DejaVuSans-61" x="706.054688"/>
      <use xlink:href="#DejaVuSans-6e" x="767.333984"/>
      <use xlink:href="#DejaVuSans-67" x="830.712891"/>
      <use xlink:href="#DejaVuSans-65" x="894.189453"/>
      <use xlink:href="#DejaVuSans-20" x="955.712891"/>
      <use xlink:href="#DejaVuSans-69" x="987.5"/>
      <use xlink:href="#DejaVuSans-6e" x="1015.283203"/>
      <use xlink:href="#DejaVuSans-20" x="1078.662109"/>
      <use xlink:href="#DejaVuSans-63" x="1110.449219"/>
      <use xlink:href="#DejaVuSans-61" x="1165.429688"/>
      <use xlink:href="#DejaVuSans-72" x="1226.708984"/>
      <use xlink:href="#DejaVuSans-62" x="1267.822266"/>
      <use xlink:href="#DejaVuSans-6f" x="1331.298828"/>
      <use xlink:href="#DejaVuSans-6e" x="1392.480469"/>
      <use xlink:href="#DejaVuSans-20" x="1455.859375"/>
      <use xlink:href="#DejaVuSans-70" x="1487.646484"/>
      <use xlink:href="#DejaVuSans-6f" x="1551.123047"/>
      <use xlink:href="#DejaVuSans-6f" x="1612.304688"/>
      <use xlink:href="#DejaVuSans-6c" x="1673.486328"/>
      <use xlink:href="#DejaVuSans-20" x="1701.269531"/>
      <use xlink:href="#DejaVuSans-28" x="1733.056641"/>
      <use xlink:href="#DejaVuSans-47" x="1772.070312"/>
      <use xlink:href="#DejaVuSans-74" x="1849.560547"/>
      <use xlink:href="#DejaVuSans-43" x="1888.769531"/>
      <use xlink:href="#DejaVuSans-29" x="1958.59375"/>
     </g>
    </g>
   </g>
   <g id="line2d_15">
    <path d="M 44.448041 130.180186 
L 51.04051 127.290869 
L 57.632979 125.883024 
L 64.225447 125.842037 
L 70.817916 120.672626 
L 77.410385 120.333817 
L 84.002853 124.403033 
L 90.595322 120.181517 
L 97.187791 115.014075 
L 103.780259 112.410364 
L 110.372728 112.984704 
L 116.965197 112.541415 
L 123.557665 107.823622 
L 130.150134 107.05567 
L 136.742602 102.484981 
L 143.335071 98.932883 
L 149.92754 93.384254 
L 156.520008 87.629186 
L 163.112477 84.781481 
L 169.704946 77.704 
L 176.297414 74.052763 
L 182.889883 70.502517 
L 189.482352 65.124443 
L 196.07482 64.368083 
L 202.667289 63.353988 
L 209.259758 58.233624 
L 215.852226 54.06536 
L 222.444695 50.384809 
" clip-path="url(#p1ab29ef6ee)" style="fill: none; stroke: #000000; stroke-width: 1.5; stroke-linecap: square"/>
   </g>
   <g id="line2d_16">
    <path d="M 44.448041 130.180186 
L 51.04051 132.103468 
L 57.632979 137.548231 
L 64.225447 143.473909 
L 70.817916 143.244617 
L 77.410385 142.751014 
L 84.002853 144.554693 
L 90.595322 144.27938 
L 97.187791 141.726787 
L 103.780259 140.446183 
L 110.372728 140.506003 
L 116.965197 142.332085 
L 123.557665 138.844226 
L 130.150134 139.828633 
L 136.742602 138.946194 
L 143.335071 137.888981 
L 149.92754 136.862161 
L 156.520008 135.619342 
L 163.112477 139.517571 
L 169.704946 139.525992 
L 176.297414 138.85303 
L 182.889883 138.99634 
L 189.482352 137.509985 
L 196.07482 134.912323 
L 202.667289 130.57067 
L 209.259758 130.32694 
L 215.852226 129.981342 
L 222.444695 131.185578 
" clip-path="url(#p1ab29ef6ee)" style="fill: none; stroke: #1f77b4; stroke-width: 1.5; stroke-linecap: square"/>
   </g>
   <g id="line2d_17">
    <path d="M 44.448041 130.180186 
L 51.04051 132.103468 
L 57.632979 137.081152 
L 64.225447 142.545843 
L 70.817916 141.842382 
L 77.410385 140.881247 
L 84.002853 142.231025 
L 90.595322 141.489265 
L 97.187791 138.476176 
L 103.780259 136.657326 
L 110.372728 136.225444 
L 116.965197 137.541247 
L 123.557665 133.561736 
L 130.150134 133.974539 
L 136.742602 132.595633 
L 143.335071 131.074736 
L 149.92754 129.3212 
L 156.520008 127.372622 
L 163.112477 130.795884 
L 169.704946 129.961572 
L 176.297414 128.531918 
L 182.889883 128.181462 
L 189.482352 126.193161 
L 196.07482 123.074864 
L 202.667289 118.215075 
L 209.259758 117.428662 
L 215.852226 116.566603 
L 222.444695 117.143468 
" clip-path="url(#p1ab29ef6ee)" style="fill: none; stroke: #ff7f0e; stroke-width: 1.5; stroke-linecap: square"/>
   </g>
   <g id="line2d_18">
    <path d="M 44.448041 130.180186 
L 51.04051 132.103468 
L 57.632979 137.548089 
L 64.225447 143.473651 
L 70.817916 143.244215 
L 77.410385 142.750555 
L 84.002853 144.554067 
L 90.595322 144.278628 
L 97.187791 141.725909 
L 103.780259 140.425444 
L 110.372728 140.463562 
L 116.965197 142.267741 
L 123.557665 138.757499 
L 130.150134 139.715001 
L 136.742602 138.817012 
L 143.335071 137.741057 
L 149.92754 136.689171 
L 156.520008 135.417968 
L 163.112477 139.279203 
L 169.704946 139.256555 
L 176.297414 138.540662 
L 182.889883 138.64075 
L 189.482352 137.107869 
L 196.07482 134.444924 
L 202.667289 130.046139 
L 209.259758 129.768557 
L 215.852226 129.370671 
L 222.444695 130.508646 
" clip-path="url(#p1ab29ef6ee)" style="fill: none; stroke: #2ca02c; stroke-width: 1.5; stroke-linecap: square"/>
   </g>
   <g id="patch_3">
    <path d="M 35.548209 153.303813 
L 35.548209 3.00024 
" style="fill: none; stroke: #000000; stroke-width: 0.8; stroke-linejoin: miter; stroke-linecap: square"/>
   </g>
   <g id="patch_4">
    <path d="M 35.548209 153.303813 
L 231.344528 153.303813 
" style="fill: none; stroke: #000000; stroke-width: 0.8; stroke-linejoin: miter; stroke-linecap: square"/>
   </g>
   <g id="text_15">
    <!-- change in land -->
    <g transform="translate(157.036367 18.285398) scale(0.07 -0.07)">
     <defs>
      <path id="DejaVuSans-64" d="M 2906 2969 
L 2906 4863 
L 3481 4863 
L 3481 0 
L 2906 0 
L 2906 525 
Q 2725 213 2448 61 
Q 2172 -91 1784 -91 
Q 1150 -91 751 415 
Q 353 922 353 1747 
Q 353 2572 751 3078 
Q 1150 3584 1784 3584 
Q 2172 3584 2448 3432 
Q 2725 3281 2906 2969 
z
M 947 1747 
Q 947 1113 1208 752 
Q 1469 391 1925 391 
Q 2381 391 2643 752 
Q 2906 1113 2906 1747 
Q 2906 2381 2643 2742 
Q 2381 3103 1925 3103 
Q 1469 3103 1208 2742 
Q 947 2381 947 1747 
z
" transform="scale(0.015625)"/>
     </defs>
     <use xlink:href="#DejaVuSans-63"/>
     <use xlink:href="#DejaVuSans-68" x="54.980469"/>
     <use xlink:href="#DejaVuSans-61" x="118.359375"/>
     <use xlink:href="#DejaVuSans-6e" x="179.638672"/>
     <use xlink:href="#DejaVuSans-67" x="243.017578"/>
     <use xlink:href="#DejaVuSans-65" x="306.494141"/>
     <use xlink:href="#DejaVuSans-20" x="368.017578"/>
     <use xlink:href="#DejaVuSans-69" x="399.804688"/>
     <use xlink:href="#DejaVuSans-6e" x="427.587891"/>
     <use xlink:href="#DejaVuSans-20" x="490.966797"/>
     <use xlink:href="#DejaVuSans-6c" x="522.753906"/>
     <use xlink:href="#DejaVuSans-61" x="550.537109"/>
     <use xlink:href="#DejaVuSans-6e" x="611.816406"/>
     <use xlink:href="#DejaVuSans-64" x="675.195312"/>
    </g>
    <!-- carbon stocks -->
    <g transform="translate(158.576367 26.123867) scale(0.07 -0.07)">
     <defs>
      <path id="DejaVuSans-73" d="M 2834 3397 
L 2834 2853 
Q 2591 2978 2328 3040 
Q 2066 3103 1784 3103 
Q 1356 3103 1142 2972 
Q 928 2841 928 2578 
Q 928 2378 1081 2264 
Q 1234 2150 1697 2047 
L 1894 2003 
Q 2506 1872 2764 1633 
Q 3022 1394 3022 966 
Q 3022 478 2636 193 
Q 2250 -91 1575 -91 
Q 1294 -91 989 -36 
Q 684 19 347 128 
L 347 722 
Q 666 556 975 473 
Q 1284 391 1588 391 
Q 1994 391 2212 530 
Q 2431 669 2431 922 
Q 2431 1156 2273 1281 
Q 2116 1406 1581 1522 
L 1381 1569 
Q 847 1681 609 1914 
Q 372 2147 372 2553 
Q 372 3047 722 3315 
Q 1072 3584 1716 3584 
Q 2034 3584 2315 3537 
Q 2597 3491 2834 3397 
z
" transform="scale(0.015625)"/>
      <path id="DejaVuSans-6b" d="M 581 4863 
L 1159 4863 
L 1159 1991 
L 2875 3500 
L 3609 3500 
L 1753 1863 
L 3688 0 
L 2938 0 
L 1159 1709 
L 1159 0 
L 581 0 
L 581 4863 
z
" transform="scale(0.015625)"/>
     </defs>
     <use xlink:href="#DejaVuSans-63"/>
     <use xlink:href="#DejaVuSans-61" x="54.980469"/>
     <use xlink:href="#DejaVuSans-72" x="116.259766"/>
     <use xlink:href="#DejaVuSans-62" x="157.373047"/>
     <use xlink:href="#DejaVuSans-6f" x="220.849609"/>
     <use xlink:href="#DejaVuSans-6e" x="282.03125"/>
     <use xlink:href="#DejaVuSans-20" x="345.410156"/>
     <use xlink:href="#DejaVuSans-73" x="377.197266"/>
     <use xlink:href="#DejaVuSans-74" x="429.296875"/>
     <use xlink:href="#DejaVuSans-6f" x="468.505859"/>
     <use xlink:href="#DejaVuSans-63" x="529.6875"/>
     <use xlink:href="#DejaVuSans-6b" x="584.667969"/>
     <use xlink:href="#DejaVuSans-73" x="642.578125"/>
    </g>
   </g>
   <g id="text_16">
    <!-- change in -->
    <g style="fill: #228b22" transform="translate(172.298445 104.998997) scale(0.07 -0.07)">
     <use xlink:href="#DejaVuSans-63"/>
     <use xlink:href="#DejaVuSans-68" x="54.980469"/>
     <use xlink:href="#DejaVuSans-61" x="118.359375"/>
     <use xlink:href="#DejaVuSans-6e" x="179.638672"/>
     <use xlink:href="#DejaVuSans-67" x="243.017578"/>
     <use xlink:href="#DejaVuSans-65" x="306.494141"/>
     <use xlink:href="#DejaVuSans-20" x="368.017578"/>
     <use xlink:href="#DejaVuSans-69" x="399.804688"/>
     <use xlink:href="#DejaVuSans-6e" x="427.587891"/>
    </g>
    <!-- biomass stocks -->
    <g style="fill: #228b22" transform="translate(162.722117 112.837466) scale(0.07 -0.07)">
     <use xlink:href="#DejaVuSans-62"/>
     <use xlink:href="#DejaVuSans-69" x="63.476562"/>
     <use xlink:href="#DejaVuSans-6f" x="91.259766"/>
     <use xlink:href="#DejaVuSans-6d" x="152.441406"/>
     <use xlink:href="#DejaVuSans-61" x="249.853516"/>
     <use xlink:href="#DejaVuSans-73" x="311.132812"/>
     <use xlink:href="#DejaVuSans-73" x="363.232422"/>
     <use xlink:href="#DejaVuSans-20" x="415.332031"/>
     <use xlink:href="#DejaVuSans-73" x="447.119141"/>
     <use xlink:href="#DejaVuSans-74" x="499.21875"/>
     <use xlink:href="#DejaVuSans-6f" x="538.427734"/>
     <use xlink:href="#DejaVuSans-63" x="599.609375"/>
     <use xlink:href="#DejaVuSans-6b" x="654.589844"/>
     <use xlink:href="#DejaVuSans-73" x="712.5"/>
    </g>
   </g>
   <g id="patch_5">
    <path d="M 53.490422 100.467991 
Q 44.231555 111.769802 44.382907 127.059729 
" style="fill: none; stroke: #000000; stroke-linecap: round"/>
    <path d="M 45.755123 124.246009 
L 44.382907 127.059729 
L 42.95526 124.273724 
" style="fill: none; stroke: #000000; stroke-linecap: round"/>
   </g>
   <g id="text_17">
    <!-- start of -->
    <g transform="translate(44.448041 87.656278) scale(0.07 -0.07)">
     <defs>
      <path id="DejaVuSans-66" d="M 2375 4863 
L 2375 4384 
L 1825 4384 
Q 1516 4384 1395 4259 
Q 1275 4134 1275 3809 
L 1275 3500 
L 2222 3500 
L 2222 3053 
L 1275 3053 
L 1275 0 
L 697 0 
L 697 3053 
L 147 3053 
L 147 3500 
L 697 3500 
L 697 3744 
Q 697 4328 969 4595 
Q 1241 4863 1831 4863 
L 2375 4863 
z
" transform="scale(0.015625)"/>
     </defs>
     <use xlink:href="#DejaVuSans-73"/>
     <use xlink:href="#DejaVuSans-74" x="52.099609"/>
     <use xlink:href="#DejaVuSans-61" x="91.308594"/>
     <use xlink:href="#DejaVuSans-72" x="152.587891"/>
     <use xlink:href="#DejaVuSans-74" x="193.701172"/>
     <use xlink:href="#DejaVuSans-20" x="232.910156"/>
     <use xlink:href="#DejaVuSans-6f" x="264.697266"/>
     <use xlink:href="#DejaVuSans-66" x="325.878906"/>
    </g>
    <!-- study period -->
    <g transform="translate(44.448041 95.494746) scale(0.07 -0.07)">
     <defs>
      <path id="DejaVuSans-79" d="M 2059 -325 
Q 1816 -950 1584 -1140 
Q 1353 -1331 966 -1331 
L 506 -1331 
L 506 -850 
L 844 -850 
Q 1081 -850 1212 -737 
Q 1344 -625 1503 -206 
L 1606 56 
L 191 3500 
L 800 3500 
L 1894 763 
L 2988 3500 
L 3597 3500 
L 2059 -325 
z
" transform="scale(0.015625)"/>
     </defs>
     <use xlink:href="#DejaVuSans-73"/>
     <use xlink:href="#DejaVuSans-74" x="52.099609"/>
     <use xlink:href="#DejaVuSans-75" x="91.308594"/>
     <use xlink:href="#DejaVuSans-64" x="154.6875"/>
     <use xlink:href="#DejaVuSans-79" x="218.164062"/>
     <use xlink:href="#DejaVuSans-20" x="277.34375"/>
     <use xlink:href="#DejaVuSans-70" x="309.130859"/>
     <use xlink:href="#DejaVuSans-65" x="372.607422"/>
     <use xlink:href="#DejaVuSans-72" x="434.130859"/>
     <use xlink:href="#DejaVuSans-69" x="475.244141"/>
     <use xlink:href="#DejaVuSans-6f" x="503.027344"/>
     <use xlink:href="#DejaVuSans-64" x="564.208984"/>
    </g>
   </g>
   <g id="legend_1">
    <g id="patch_6">
     <path d="M 39.748209 44.73399 
L 148.768209 44.73399 
Q 149.968209 44.73399 149.968209 43.53399 
L 149.968209 7.20024 
Q 149.968209 6.00024 148.768209 6.00024 
L 39.748209 6.00024 
Q 38.548209 6.00024 38.548209 7.20024 
L 38.548209 43.53399 
Q 38.548209 44.73399 39.748209 44.73399 
z
" style="fill: #ffffff; opacity: 0.8; stroke: #cccccc; stroke-linejoin: miter"/>
    </g>
    <g id="line2d_19">
     <path d="M 40.948209 10.859303 
L 46.948209 10.859303 
L 52.948209 10.859303 
" style="fill: none; stroke-dasharray: 5.55,2.4; stroke-dashoffset: 0; stroke: #228b22; stroke-width: 1.5"/>
    </g>
    <g id="text_18">
     <!-- all sources -->
     <g transform="translate(57.748209 12.959303) scale(0.06 -0.06)">
      <use xlink:href="#DejaVuSans-61"/>
      <use xlink:href="#DejaVuSans-6c" x="61.279297"/>
      <use xlink:href="#DejaVuSans-6c" x="89.0625"/>
      <use xlink:href="#DejaVuSans-20" x="116.845703"/>
      <use xlink:href="#DejaVuSans-73" x="148.632812"/>
      <use xlink:href="#DejaVuSans-6f" x="200.732422"/>
      <use xlink:href="#DejaVuSans-75" x="261.914062"/>
      <use xlink:href="#DejaVuSans-72" x="325.292969"/>
      <use xlink:href="#DejaVuSans-63" x="364.15625"/>
      <use xlink:href="#DejaVuSans-65" x="419.136719"/>
      <use xlink:href="#DejaVuSans-73" x="480.660156"/>
     </g>
    </g>
    <g id="line2d_20">
     <path d="M 40.948209 19.666177 
L 46.948209 19.666177 
L 52.948209 19.666177 
" style="fill: none; stroke: #1f77b4; stroke-width: 1.5; stroke-linecap: square"/>
    </g>
    <g id="text_19">
     <!-- no correction -->
     <g transform="translate(57.748209 21.766177) scale(0.06 -0.06)">
      <use xlink:href="#DejaVuSans-6e"/>
      <use xlink:href="#DejaVuSans-6f" x="63.378906"/>
      <use xlink:href="#DejaVuSans-20" x="124.560547"/>
      <use xlink:href="#DejaVuSans-63" x="156.347656"/>
      <use xlink:href="#DejaVuSans-6f" x="211.328125"/>
      <use xlink:href="#DejaVuSans-72" x="272.509766"/>
      <use xlink:href="#DejaVuSans-72" x="311.873047"/>
      <use xlink:href="#DejaVuSans-65" x="350.736328"/>
      <use xlink:href="#DejaVuSans-63" x="412.259766"/>
      <use xlink:href="#DejaVuSans-74" x="467.240234"/>
      <use xlink:href="#DejaVuSans-69" x="506.449219"/>
      <use xlink:href="#DejaVuSans-6f" x="534.232422"/>
      <use xlink:href="#DejaVuSans-6e" x="595.414062"/>
     </g>
    </g>
    <g id="line2d_21">
     <path d="M 40.948209 29.31399 
L 46.948209 29.31399 
L 52.948209 29.31399 
" style="fill: none; stroke: #ff7f0e; stroke-width: 1.5; stroke-linecap: square"/>
    </g>
    <g id="text_20">
     <!-- correction for &gt;100 MgC ha$^{-1}$ -->
     <g transform="translate(57.748209 31.41399) scale(0.06 -0.06)">
      <defs>
       <path id="DejaVuSans-3e" d="M 678 3150 
L 678 3719 
L 4684 2266 
L 4684 1747 
L 678 294 
L 678 863 
L 3897 2003 
L 678 3150 
z
" transform="scale(0.015625)"/>
       <path id="DejaVuSans-4d" d="M 628 4666 
L 1569 4666 
L 2759 1491 
L 3956 4666 
L 4897 4666 
L 4897 0 
L 4281 0 
L 4281 4097 
L 3078 897 
L 2444 897 
L 1241 4097 
L 1241 0 
L 628 0 
L 628 4666 
z
" transform="scale(0.015625)"/>
      </defs>
      <use xlink:href="#DejaVuSans-63" transform="translate(0 0.684375)"/>
      <use xlink:href="#DejaVuSans-6f" transform="translate(54.980469 0.684375)"/>
      <use xlink:href="#DejaVuSans-72" transform="translate(116.162109 0.684375)"/>
      <use xlink:href="#DejaVuSans-72" transform="translate(157.275391 0.684375)"/>
      <use xlink:href="#DejaVuSans-65" transform="translate(198.388672 0.684375)"/>
      <use xlink:href="#DejaVuSans-63" transform="translate(259.912109 0.684375)"/>
      <use xlink:href="#DejaVuSans-74" transform="translate(314.892578 0.684375)"/>
      <use xlink:href="#DejaVuSans-69" transform="translate(354.101562 0.684375)"/>
      <use xlink:href="#DejaVuSans-6f" transform="translate(381.884766 0.684375)"/>
      <use xlink:href="#DejaVuSans-6e" transform="translate(443.066406 0.684375)"/>
      <use xlink:href="#DejaVuSans-20" transform="translate(506.445312 0.684375)"/>
      <use xlink:href="#DejaVuSans-66" transform="translate(538.232422 0.684375)"/>
      <use xlink:href="#DejaVuSans-6f" transform="translate(573.4375 0.684375)"/>
      <use xlink:href="#DejaVuSans-72" transform="translate(634.619141 0.684375)"/>
      <use xlink:href="#DejaVuSans-20" transform="translate(675.732422 0.684375)"/>
      <use xlink:href="#DejaVuSans-3e" transform="translate(707.519531 0.684375)"/>
      <use xlink:href="#DejaVuSans-31" transform="translate(791.308594 0.684375)"/>
      <use xlink:href="#DejaVuSans-30" transform="translate(854.931641 0.684375)"/>
      <use xlink:href="#DejaVuSans-30" transform="translate(918.554688 0.684375)"/>
      <use xlink:href="#DejaVuSans-20" transform="translate(982.177734 0.684375)"/>
      <use xlink:href="#DejaVuSans-4d" transform="translate(1013.964844 0.684375)"/>
      <use xlink:href="#DejaVuSans-67" transform="translate(1100.244141 0.684375)"/>
      <use xlink:href="#DejaVuSans-43" transform="translate(1163.720703 0.684375)"/>
      <use xlink:href="#DejaVuSans-20" transform="translate(1233.544922 0.684375)"/>
      <use xlink:href="#DejaVuSans-68" transform="translate(1265.332031 0.684375)"/>
      <use xlink:href="#DejaVuSans-61" transform="translate(1328.710938 0.684375)"/>
      <use xlink:href="#DejaVuSans-2212" transform="translate(1390.947266 38.965625) scale(0.7)"/>
      <use xlink:href="#DejaVuSans-31" transform="translate(1449.599609 38.965625) scale(0.7)"/>
     </g>
    </g>
    <g id="line2d_22">
     <path d="M 40.948209 38.97399 
L 46.948209 38.97399 
L 52.948209 38.97399 
" style="fill: none; stroke: #2ca02c; stroke-width: 1.5; stroke-linecap: square"/>
    </g>
    <g id="text_21">
     <!-- correction for &gt;200 MgC ha$^{-1}$ -->
     <g transform="translate(57.748209 41.07399) scale(0.06 -0.06)">
      <use xlink:href="#DejaVuSans-63" transform="translate(0 0.684375)"/>
      <use xlink:href="#DejaVuSans-6f" transform="translate(54.980469 0.684375)"/>
      <use xlink:href="#DejaVuSans-72" transform="translate(116.162109 0.684375)"/>
      <use xlink:href="#DejaVuSans-72" transform="translate(157.275391 0.684375)"/>
      <use xlink:href="#DejaVuSans-65" transform="translate(198.388672 0.684375)"/>
      <use xlink:href="#DejaVuSans-63" transform="translate(259.912109 0.684375)"/>
      <use xlink:href="#DejaVuSans-74" transform="translate(314.892578 0.684375)"/>
      <use xlink:href="#DejaVuSans-69" transform="translate(354.101562 0.684375)"/>
      <use xlink:href="#DejaVuSans-6f" transform="translate(381.884766 0.684375)"/>
      <use xlink:href="#DejaVuSans-6e" transform="translate(443.066406 0.684375)"/>
      <use xlink:href="#DejaVuSans-20" transform="translate(506.445312 0.684375)"/>
      <use xlink:href="#DejaVuSans-66" transform="translate(538.232422 0.684375)"/>
      <use xlink:href="#DejaVuSans-6f" transform="translate(573.4375 0.684375)"/>
      <use xlink:href="#DejaVuSans-72" transform="translate(634.619141 0.684375)"/>
      <use xlink:href="#DejaVuSans-20" transform="translate(675.732422 0.684375)"/>
      <use xlink:href="#DejaVuSans-3e" transform="translate(707.519531 0.684375)"/>
      <use xlink:href="#DejaVuSans-32" transform="translate(791.308594 0.684375)"/>
      <use xlink:href="#DejaVuSans-30" transform="translate(854.931641 0.684375)"/>
      <use xlink:href="#DejaVuSans-30" transform="translate(918.554688 0.684375)"/>
      <use xlink:href="#DejaVuSans-20" transform="translate(982.177734 0.684375)"/>
      <use xlink:href="#DejaVuSans-4d" transform="translate(1013.964844 0.684375)"/>
      <use xlink:href="#DejaVuSans-67" transform="translate(1100.244141 0.684375)"/>
      <use xlink:href="#DejaVuSans-43" transform="translate(1163.720703 0.684375)"/>
      <use xlink:href="#DejaVuSans-20" transform="translate(1233.544922 0.684375)"/>
      <use xlink:href="#DejaVuSans-68" transform="translate(1265.332031 0.684375)"/>
      <use xlink:href="#DejaVuSans-61" transform="translate(1328.710938 0.684375)"/>
      <use xlink:href="#DejaVuSans-2212" transform="translate(1390.947266 38.965625) scale(0.7)"/>
      <use xlink:href="#DejaVuSans-31" transform="translate(1449.599609 38.965625) scale(0.7)"/>
     </g>
    </g>
   </g>
   <g id="line2d_23">
    <path d="M 44.448041 130.180186 
L 51.04051 132.103468 
L 57.632979 137.392491 
L 64.225447 143.164467 
L 70.817916 142.777071 
L 77.410385 142.127605 
L 84.002853 143.779928 
L 90.595322 143.349091 
L 97.187791 140.642957 
L 103.780259 139.176318 
L 110.372728 139.065003 
L 116.965197 140.713691 
L 123.557665 137.054487 
L 130.150134 137.839391 
L 136.742602 136.78628 
L 143.335071 135.568258 
L 149.92754 134.290844 
L 156.520008 132.803311 
L 163.112477 136.530886 
L 169.704946 136.24804 
L 176.297414 135.308537 
L 182.889883 135.272851 
L 189.482352 133.603672 
L 196.07482 130.810704 
L 202.667289 126.277295 
L 209.259758 125.841386 
L 215.852226 125.306205 
L 222.444695 126.279231 
" clip-path="url(#p1ab29ef6ee)" style="fill: none; stroke-dasharray: 5.55,2.4; stroke-dashoffset: 0; stroke: #228b22; stroke-width: 1.5"/>
   </g>
  </g>
 </g>
 <defs>
  <clipPath id="p1ab29ef6ee">
   <rect x="35.548209" y="3.00024" width="195.796319" height="150.303573"/>
  </clipPath>
 </defs>
</svg>
