<?xml version="1.0" encoding="utf-8" standalone="no"?>
<!DOCTYPE svg PUBLIC "-//W3C//DTD SVG 1.1//EN"
  "http://www.w3.org/Graphics/SVG/1.1/DTD/svg11.dtd">
<svg xmlns:xlink="http://www.w3.org/1999/xlink" width="460.8pt" height="345.6pt" viewBox="0 0 460.8 345.6" xmlns="http://www.w3.org/2000/svg" version="1.1">
 <metadata>
  <rdf:RDF xmlns:dc="http://purl.org/dc/elements/1.1/" xmlns:cc="http://creativecommons.org/ns#" xmlns:rdf="http://www.w3.org/1999/02/22-rdf-syntax-ns#">
   <cc:Work>
    <dc:type rdf:resource="http://purl.org/dc/dcmitype/StillImage"/>
    <dc:date>2024-06-30T15:12:31.460581</dc:date>
    <dc:format>image/svg+xml</dc:format>
    <dc:creator>
     <cc:Agent>
      <dc:title>Matplotlib v3.9.0, https://matplotlib.org/</dc:title>
     </cc:Agent>
    </dc:creator>
   </cc:Work>
  </rdf:RDF>
 </metadata>
 <defs>
  <style type="text/css">*{stroke-linejoin: round; stroke-linecap: butt}</style>
 </defs>
 <g id="figure_1">
  <g id="patch_1">
   <path d="M 0 345.6 
L 460.8 345.6 
L 460.8 0 
L 0 0 
z
" style="fill: #ffffff"/>
  </g>
  <g id="axes_1">
   <g id="patch_2">
    <path d="M 103.104 307.584 
L 369.216 307.584 
L 369.216 41.472 
L 103.104 41.472 
z
" style="fill: #ffffff"/>
   </g>
   <g id="PathCollection_1">
    <defs>
     <path id="m16b83491b1" d="M 0 3 
C 0.795609 3 1.55874 2.683901 2.12132 2.12132 
C 2.683901 1.55874 3 0.795609 3 0 
C 3 -0.795609 2.683901 -1.55874 2.12132 -2.12132 
C 1.55874 -2.683901 0.795609 -3 0 -3 
C -0.795609 -3 -1.55874 -2.683901 -2.12132 -2.12132 
C -2.683901 -1.55874 -3 -0.795609 -3 0 
C -3 0.795609 -2.683901 1.55874 -2.12132 2.12132 
C -1.55874 2.683901 -0.795609 3 0 3 
z
" style="stroke: #1f77b4; stroke-opacity: 0.8"/>
    </defs>
    <g clip-path="url(#p310d71e0bb)">
     <use xlink:href="#m16b83491b1" x="183.152074" y="215.108781" style="fill: #1f77b4; fill-opacity: 0.8; stroke: #1f77b4; stroke-opacity: 0.8"/>
     <use xlink:href="#m16b83491b1" x="208.077508" y="196.341731" style="fill: #1f77b4; fill-opacity: 0.8; stroke: #1f77b4; stroke-opacity: 0.8"/>
     <use xlink:href="#m16b83491b1" x="286.565801" y="183.08437" style="fill: #1f77b4; fill-opacity: 0.8; stroke: #1f77b4; stroke-opacity: 0.8"/>
     <use xlink:href="#m16b83491b1" x="286.767491" y="181.628417" style="fill: #1f77b4; fill-opacity: 0.8; stroke: #1f77b4; stroke-opacity: 0.8"/>
     <use xlink:href="#m16b83491b1" x="305.25749" y="185.275775" style="fill: #1f77b4; fill-opacity: 0.8; stroke: #1f77b4; stroke-opacity: 0.8"/>
     <use xlink:href="#m16b83491b1" x="334.172601" y="173.427775" style="fill: #1f77b4; fill-opacity: 0.8; stroke: #1f77b4; stroke-opacity: 0.8"/>
     <use xlink:href="#m16b83491b1" x="163.017208" y="233.037364" style="fill: #1f77b4; fill-opacity: 0.8; stroke: #1f77b4; stroke-opacity: 0.8"/>
     <use xlink:href="#m16b83491b1" x="228.222071" y="190.492846" style="fill: #1f77b4; fill-opacity: 0.8; stroke: #1f77b4; stroke-opacity: 0.8"/>
     <use xlink:href="#m16b83491b1" x="195.384085" y="199.639517" style="fill: #1f77b4; fill-opacity: 0.8; stroke: #1f77b4; stroke-opacity: 0.8"/>
    </g>
   </g>
   <g id="PolyCollection_1">
    <path d="M 163.017208 202.448053 
L 163.017208 227.433614 
L 164.74605 226.826309 
L 166.474892 226.217917 
L 168.203735 225.568576 
L 169.932577 224.984622 
L 171.661419 224.388948 
L 173.390262 223.6696 
L 175.119104 223.122889 
L 176.847946 222.562499 
L 178.576789 221.954304 
L 180.305631 221.345667 
L 182.034473 220.738402 
L 183.763316 220.131137 
L 185.492158 219.523381 
L 187.221 218.911345 
L 188.949843 218.286282 
L 190.678685 217.692637 
L 192.407528 217.10128 
L 194.13637 216.521499 
L 195.865212 215.97012 
L 197.594055 215.418427 
L 199.322897 214.864015 
L 201.051739 214.263764 
L 202.780582 213.701718 
L 204.509424 213.139673 
L 206.238266 212.577627 
L 207.967109 212.014855 
L 209.695951 211.451197 
L 211.424793 210.877651 
L 213.153636 210.326339 
L 214.882478 209.732608 
L 216.61132 209.124449 
L 218.340163 208.529846 
L 220.069005 208.017375 
L 221.797848 207.485281 
L 223.52669 206.902742 
L 225.255532 206.326498 
L 226.984375 205.781463 
L 228.713217 205.236428 
L 230.442059 204.691393 
L 232.170902 204.146748 
L 233.899744 203.612293 
L 235.628586 203.109568 
L 237.357429 202.594707 
L 239.086271 202.035969 
L 240.815113 201.458339 
L 242.543956 200.881672 
L 244.272798 200.33696 
L 246.001641 199.799802 
L 247.730483 199.269778 
L 249.459325 198.739754 
L 251.188168 198.209731 
L 252.91701 197.679707 
L 254.645852 197.142265 
L 256.374695 196.582469 
L 258.103537 195.989092 
L 259.832379 195.434208 
L 261.561222 194.889496 
L 263.290064 194.34538 
L 265.018906 193.812036 
L 266.747749 193.255384 
L 268.476591 192.710985 
L 270.205433 192.166272 
L 271.934276 191.621559 
L 273.663118 191.076847 
L 275.391961 190.541045 
L 277.120803 190.000348 
L 278.849645 189.442709 
L 280.578488 188.897997 
L 282.30733 188.354062 
L 284.036172 187.877405 
L 285.765015 187.393583 
L 287.493857 186.897321 
L 289.222699 186.387224 
L 290.951542 185.89541 
L 292.680384 185.384041 
L 294.409226 184.878102 
L 296.138069 184.399891 
L 297.866911 183.923875 
L 299.595753 183.589917 
L 301.324596 183.16896 
L 303.053438 182.808899 
L 304.782281 182.415078 
L 306.511123 181.999411 
L 308.239965 181.550919 
L 309.968808 181.301475 
L 311.69765 181.010003 
L 313.426492 180.632065 
L 315.155335 180.248862 
L 316.884177 179.945726 
L 318.613019 179.645225 
L 320.341862 179.403016 
L 322.070704 179.125061 
L 323.799546 178.855321 
L 325.528389 178.608885 
L 327.257231 178.362449 
L 328.986073 178.113997 
L 330.714916 177.81142 
L 332.443758 177.592502 
L 334.172601 177.3217 
L 334.172601 156.434453 
L 334.172601 156.434453 
L 332.443758 157.064958 
L 330.714916 157.701961 
L 328.986073 158.400203 
L 327.257231 159.099818 
L 325.528389 159.799434 
L 323.799546 160.49905 
L 322.070704 161.198665 
L 320.341862 161.898281 
L 318.613019 162.597897 
L 316.884177 163.297513 
L 315.155335 163.996935 
L 313.426492 164.703063 
L 311.69765 165.409368 
L 309.968808 166.115584 
L 308.239965 166.821801 
L 306.511123 167.528017 
L 304.782281 168.234234 
L 303.053438 168.940451 
L 301.324596 169.646667 
L 299.595753 170.352046 
L 297.866911 171.057413 
L 296.138069 171.728468 
L 294.409226 172.390355 
L 292.680384 173.088707 
L 290.951542 173.787059 
L 289.222699 174.456045 
L 287.493857 175.117349 
L 285.765015 175.778652 
L 284.036172 176.439956 
L 282.30733 177.101259 
L 280.578488 177.762563 
L 278.849645 178.423867 
L 277.120803 179.08517 
L 275.391961 179.632711 
L 273.663118 180.25048 
L 271.934276 180.861857 
L 270.205433 181.417617 
L 268.476591 181.973714 
L 266.747749 182.532377 
L 265.018906 183.091039 
L 263.290064 183.649702 
L 261.561222 184.246478 
L 259.832379 184.880239 
L 258.103537 185.511084 
L 256.374695 186.140675 
L 254.645852 186.773968 
L 252.91701 187.204523 
L 251.188168 187.648453 
L 249.459325 188.0634 
L 247.730483 188.480548 
L 246.001641 188.851586 
L 244.272798 189.147413 
L 242.543956 189.456011 
L 240.815113 189.905764 
L 239.086271 190.310307 
L 237.357429 190.689483 
L 235.628586 190.992764 
L 233.899744 191.311278 
L 232.170902 191.599793 
L 230.442059 191.894262 
L 228.713217 192.140062 
L 226.984375 192.379989 
L 225.255532 192.619917 
L 223.52669 192.861095 
L 221.797848 193.176818 
L 220.069005 193.447257 
L 218.340163 193.768351 
L 216.61132 194.112372 
L 214.882478 194.465154 
L 213.153636 194.751147 
L 211.424793 195.036482 
L 209.695951 195.310419 
L 207.967109 195.56776 
L 206.238266 195.8705 
L 204.509424 196.130936 
L 202.780582 196.375209 
L 201.051739 196.637028 
L 199.322897 196.900858 
L 197.594055 197.164688 
L 195.865212 197.429033 
L 194.13637 197.685665 
L 192.407528 197.958464 
L 190.678685 198.222278 
L 188.949843 198.486093 
L 187.221 198.749929 
L 185.492158 199.014588 
L 183.763316 199.279247 
L 182.034473 199.543906 
L 180.305631 199.808566 
L 178.576789 200.073225 
L 176.847946 200.33796 
L 175.119104 200.610709 
L 173.390262 200.897113 
L 171.661419 201.183634 
L 169.932577 201.455051 
L 168.203735 201.700267 
L 166.474892 201.934507 
L 164.74605 202.18834 
L 163.017208 202.448053 
z
" clip-path="url(#p310d71e0bb)" style="fill: #1f77b4; fill-opacity: 0.15"/>
   </g>
   <g id="matplotlib.axis_1">
    <g id="xtick_1">
     <g id="line2d_1">
      <defs>
       <path id="m3e59ba0de5" d="M 0 0 
L 0 3.5 
" style="stroke: #000000; stroke-width: 0.8"/>
      </defs>
      <g>
       <use xlink:href="#m3e59ba0de5" x="125.28" y="307.584" style="stroke: #000000; stroke-width: 0.8"/>
      </g>
     </g>
     <g id="text_1">
      <!-- −0.4 -->
      <g transform="translate(113.138594 322.182437) scale(0.1 -0.1)">
       <defs>
        <path id="DejaVuSans-2212" d="M 678 2272 
L 4684 2272 
L 4684 1741 
L 678 1741 
L 678 2272 
z
" transform="scale(0.015625)"/>
        <path id="DejaVuSans-30" d="M 2034 4250 
Q 1547 4250 1301 3770 
Q 1056 3291 1056 2328 
Q 1056 1369 1301 889 
Q 1547 409 2034 409 
Q 2525 409 2770 889 
Q 3016 1369 3016 2328 
Q 3016 3291 2770 3770 
Q 2525 4250 2034 4250 
z
M 2034 4750 
Q 2819 4750 3233 4129 
Q 3647 3509 3647 2328 
Q 3647 1150 3233 529 
Q 2819 -91 2034 -91 
Q 1250 -91 836 529 
Q 422 1150 422 2328 
Q 422 3509 836 4129 
Q 1250 4750 2034 4750 
z
" transform="scale(0.015625)"/>
        <path id="DejaVuSans-2e" d="M 684 794 
L 1344 794 
L 1344 0 
L 684 0 
L 684 794 
z
" transform="scale(0.015625)"/>
        <path id="DejaVuSans-34" d="M 2419 4116 
L 825 1625 
L 2419 1625 
L 2419 4116 
z
M 2253 4666 
L 3047 4666 
L 3047 1625 
L 3713 1625 
L 3713 1100 
L 3047 1100 
L 3047 0 
L 2419 0 
L 2419 1100 
L 313 1100 
L 313 1709 
L 2253 4666 
z
" transform="scale(0.015625)"/>
       </defs>
       <use xlink:href="#DejaVuSans-2212"/>
       <use xlink:href="#DejaVuSans-30" x="83.789062"/>
       <use xlink:href="#DejaVuSans-2e" x="147.412109"/>
       <use xlink:href="#DejaVuSans-34" x="179.199219"/>
      </g>
     </g>
    </g>
    <g id="xtick_2">
     <g id="line2d_2">
      <g>
       <use xlink:href="#m3e59ba0de5" x="169.632" y="307.584" style="stroke: #000000; stroke-width: 0.8"/>
      </g>
     </g>
     <g id="text_2">
      <!-- −0.2 -->
      <g transform="translate(157.490594 322.182437) scale(0.1 -0.1)">
       <defs>
        <path id="DejaVuSans-32" d="M 1228 531 
L 3431 531 
L 3431 0 
L 469 0 
L 469 531 
Q 828 903 1448 1529 
Q 2069 2156 2228 2338 
Q 2531 2678 2651 2914 
Q 2772 3150 2772 3378 
Q 2772 3750 2511 3984 
Q 2250 4219 1831 4219 
Q 1534 4219 1204 4116 
Q 875 4013 500 3803 
L 500 4441 
Q 881 4594 1212 4672 
Q 1544 4750 1819 4750 
Q 2544 4750 2975 4387 
Q 3406 4025 3406 3419 
Q 3406 3131 3298 2873 
Q 3191 2616 2906 2266 
Q 2828 2175 2409 1742 
Q 1991 1309 1228 531 
z
" transform="scale(0.015625)"/>
       </defs>
       <use xlink:href="#DejaVuSans-2212"/>
       <use xlink:href="#DejaVuSans-30" x="83.789062"/>
       <use xlink:href="#DejaVuSans-2e" x="147.412109"/>
       <use xlink:href="#DejaVuSans-32" x="179.199219"/>
      </g>
     </g>
    </g>
    <g id="xtick_3">
     <g id="line2d_3">
      <g>
       <use xlink:href="#m3e59ba0de5" x="213.984" y="307.584" style="stroke: #000000; stroke-width: 0.8"/>
      </g>
     </g>
     <g id="text_3">
      <!-- 0.0 -->
      <g transform="translate(206.032438 322.182437) scale(0.1 -0.1)">
       <use xlink:href="#DejaVuSans-30"/>
       <use xlink:href="#DejaVuSans-2e" x="63.623047"/>
       <use xlink:href="#DejaVuSans-30" x="95.410156"/>
      </g>
     </g>
    </g>
    <g id="xtick_4">
     <g id="line2d_4">
      <g>
       <use xlink:href="#m3e59ba0de5" x="258.336" y="307.584" style="stroke: #000000; stroke-width: 0.8"/>
      </g>
     </g>
     <g id="text_4">
      <!-- 0.2 -->
      <g transform="translate(250.384438 322.182437) scale(0.1 -0.1)">
       <use xlink:href="#DejaVuSans-30"/>
       <use xlink:href="#DejaVuSans-2e" x="63.623047"/>
       <use xlink:href="#DejaVuSans-32" x="95.410156"/>
      </g>
     </g>
    </g>
    <g id="xtick_5">
     <g id="line2d_5">
      <g>
       <use xlink:href="#m3e59ba0de5" x="302.688" y="307.584" style="stroke: #000000; stroke-width: 0.8"/>
      </g>
     </g>
     <g id="text_5">
      <!-- 0.4 -->
      <g transform="translate(294.736437 322.182437) scale(0.1 -0.1)">
       <use xlink:href="#DejaVuSans-30"/>
       <use xlink:href="#DejaVuSans-2e" x="63.623047"/>
       <use xlink:href="#DejaVuSans-34" x="95.410156"/>
      </g>
     </g>
    </g>
    <g id="xtick_6">
     <g id="line2d_6">
      <g>
       <use xlink:href="#m3e59ba0de5" x="347.04" y="307.584" style="stroke: #000000; stroke-width: 0.8"/>
      </g>
     </g>
     <g id="text_6">
      <!-- 0.6 -->
      <g transform="translate(339.088438 322.182437) scale(0.1 -0.1)">
       <defs>
        <path id="DejaVuSans-36" d="M 2113 2584 
Q 1688 2584 1439 2293 
Q 1191 2003 1191 1497 
Q 1191 994 1439 701 
Q 1688 409 2113 409 
Q 2538 409 2786 701 
Q 3034 994 3034 1497 
Q 3034 2003 2786 2293 
Q 2538 2584 2113 2584 
z
M 3366 4563 
L 3366 3988 
Q 3128 4100 2886 4159 
Q 2644 4219 2406 4219 
Q 1781 4219 1451 3797 
Q 1122 3375 1075 2522 
Q 1259 2794 1537 2939 
Q 1816 3084 2150 3084 
Q 2853 3084 3261 2657 
Q 3669 2231 3669 1497 
Q 3669 778 3244 343 
Q 2819 -91 2113 -91 
Q 1303 -91 875 529 
Q 447 1150 447 2328 
Q 447 3434 972 4092 
Q 1497 4750 2381 4750 
Q 2619 4750 2861 4703 
Q 3103 4656 3366 4563 
z
" transform="scale(0.015625)"/>
       </defs>
       <use xlink:href="#DejaVuSans-30"/>
       <use xlink:href="#DejaVuSans-2e" x="63.623047"/>
       <use xlink:href="#DejaVuSans-36" x="95.410156"/>
      </g>
     </g>
    </g>
    <g id="text_7">
     <!-- annual change in total carbon stocks [GtC yr$^{-1}$] -->
     <g transform="translate(116.86 337.262125) scale(0.1 -0.1)">
      <defs>
       <path id="DejaVuSans-61" d="M 2194 1759 
Q 1497 1759 1228 1600 
Q 959 1441 959 1056 
Q 959 750 1161 570 
Q 1363 391 1709 391 
Q 2188 391 2477 730 
Q 2766 1069 2766 1631 
L 2766 1759 
L 2194 1759 
z
M 3341 1997 
L 3341 0 
L 2766 0 
L 2766 531 
Q 2569 213 2275 61 
Q 1981 -91 1556 -91 
Q 1019 -91 701 211 
Q 384 513 384 1019 
Q 384 1609 779 1909 
Q 1175 2209 1959 2209 
L 2766 2209 
L 2766 2266 
Q 2766 2663 2505 2880 
Q 2244 3097 1772 3097 
Q 1472 3097 1187 3025 
Q 903 2953 641 2809 
L 641 3341 
Q 956 3463 1253 3523 
Q 1550 3584 1831 3584 
Q 2591 3584 2966 3190 
Q 3341 2797 3341 1997 
z
" transform="scale(0.015625)"/>
       <path id="DejaVuSans-6e" d="M 3513 2113 
L 3513 0 
L 2938 0 
L 2938 2094 
Q 2938 2591 2744 2837 
Q 2550 3084 2163 3084 
Q 1697 3084 1428 2787 
Q 1159 2491 1159 1978 
L 1159 0 
L 581 0 
L 581 3500 
L 1159 3500 
L 1159 2956 
Q 1366 3272 1645 3428 
Q 1925 3584 2291 3584 
Q 2894 3584 3203 3211 
Q 3513 2838 3513 2113 
z
" transform="scale(0.015625)"/>
       <path id="DejaVuSans-75" d="M 544 1381 
L 544 3500 
L 1119 3500 
L 1119 1403 
Q 1119 906 1312 657 
Q 1506 409 1894 409 
Q 2359 409 2629 706 
Q 2900 1003 2900 1516 
L 2900 3500 
L 3475 3500 
L 3475 0 
L 2900 0 
L 2900 538 
Q 2691 219 2414 64 
Q 2138 -91 1772 -91 
Q 1169 -91 856 284 
Q 544 659 544 1381 
z
M 1991 3584 
L 1991 3584 
z
" transform="scale(0.015625)"/>
       <path id="DejaVuSans-6c" d="M 603 4863 
L 1178 4863 
L 1178 0 
L 603 0 
L 603 4863 
z
" transform="scale(0.015625)"/>
       <path id="DejaVuSans-20" transform="scale(0.015625)"/>
       <path id="DejaVuSans-63" d="M 3122 3366 
L 3122 2828 
Q 2878 2963 2633 3030 
Q 2388 3097 2138 3097 
Q 1578 3097 1268 2742 
Q 959 2388 959 1747 
Q 959 1106 1268 751 
Q 1578 397 2138 397 
Q 2388 397 2633 464 
Q 2878 531 3122 666 
L 3122 134 
Q 2881 22 2623 -34 
Q 2366 -91 2075 -91 
Q 1284 -91 818 406 
Q 353 903 353 1747 
Q 353 2603 823 3093 
Q 1294 3584 2113 3584 
Q 2378 3584 2631 3529 
Q 2884 3475 3122 3366 
z
" transform="scale(0.015625)"/>
       <path id="DejaVuSans-68" d="M 3513 2113 
L 3513 0 
L 2938 0 
L 2938 2094 
Q 2938 2591 2744 2837 
Q 2550 3084 2163 3084 
Q 1697 3084 1428 2787 
Q 1159 2491 1159 1978 
L 1159 0 
L 581 0 
L 581 4863 
L 1159 4863 
L 1159 2956 
Q 1366 3272 1645 3428 
Q 1925 3584 2291 3584 
Q 2894 3584 3203 3211 
Q 3513 2838 3513 2113 
z
" transform="scale(0.015625)"/>
       <path id="DejaVuSans-67" d="M 2906 1791 
Q 2906 2416 2648 2759 
Q 2391 3103 1925 3103 
Q 1463 3103 1205 2759 
Q 947 2416 947 1791 
Q 947 1169 1205 825 
Q 1463 481 1925 481 
Q 2391 481 2648 825 
Q 2906 1169 2906 1791 
z
M 3481 434 
Q 3481 -459 3084 -895 
Q 2688 -1331 1869 -1331 
Q 1566 -1331 1297 -1286 
Q 1028 -1241 775 -1147 
L 775 -588 
Q 1028 -725 1275 -790 
Q 1522 -856 1778 -856 
Q 2344 -856 2625 -561 
Q 2906 -266 2906 331 
L 2906 616 
Q 2728 306 2450 153 
Q 2172 0 1784 0 
Q 1141 0 747 490 
Q 353 981 353 1791 
Q 353 2603 747 3093 
Q 1141 3584 1784 3584 
Q 2172 3584 2450 3431 
Q 2728 3278 2906 2969 
L 2906 3500 
L 3481 3500 
L 3481 434 
z
" transform="scale(0.015625)"/>
       <path id="DejaVuSans-65" d="M 3597 1894 
L 3597 1613 
L 953 1613 
Q 991 1019 1311 708 
Q 1631 397 2203 397 
Q 2534 397 2845 478 
Q 3156 559 3463 722 
L 3463 178 
Q 3153 47 2828 -22 
Q 2503 -91 2169 -91 
Q 1331 -91 842 396 
Q 353 884 353 1716 
Q 353 2575 817 3079 
Q 1281 3584 2069 3584 
Q 2775 3584 3186 3129 
Q 3597 2675 3597 1894 
z
M 3022 2063 
Q 3016 2534 2758 2815 
Q 2500 3097 2075 3097 
Q 1594 3097 1305 2825 
Q 1016 2553 972 2059 
L 3022 2063 
z
" transform="scale(0.015625)"/>
       <path id="DejaVuSans-69" d="M 603 3500 
L 1178 3500 
L 1178 0 
L 603 0 
L 603 3500 
z
M 603 4863 
L 1178 4863 
L 1178 4134 
L 603 4134 
L 603 4863 
z
" transform="scale(0.015625)"/>
       <path id="DejaVuSans-74" d="M 1172 4494 
L 1172 3500 
L 2356 3500 
L 2356 3053 
L 1172 3053 
L 1172 1153 
Q 1172 725 1289 603 
Q 1406 481 1766 481 
L 2356 481 
L 2356 0 
L 1766 0 
Q 1100 0 847 248 
Q 594 497 594 1153 
L 594 3053 
L 172 3053 
L 172 3500 
L 594 3500 
L 594 4494 
L 1172 4494 
z
" transform="scale(0.015625)"/>
       <path id="DejaVuSans-6f" d="M 1959 3097 
Q 1497 3097 1228 2736 
Q 959 2375 959 1747 
Q 959 1119 1226 758 
Q 1494 397 1959 397 
Q 2419 397 2687 759 
Q 2956 1122 2956 1747 
Q 2956 2369 2687 2733 
Q 2419 3097 1959 3097 
z
M 1959 3584 
Q 2709 3584 3137 3096 
Q 3566 2609 3566 1747 
Q 3566 888 3137 398 
Q 2709 -91 1959 -91 
Q 1206 -91 779 398 
Q 353 888 353 1747 
Q 353 2609 779 3096 
Q 1206 3584 1959 3584 
z
" transform="scale(0.015625)"/>
       <path id="DejaVuSans-72" d="M 2631 2963 
Q 2534 3019 2420 3045 
Q 2306 3072 2169 3072 
Q 1681 3072 1420 2755 
Q 1159 2438 1159 1844 
L 1159 0 
L 581 0 
L 581 3500 
L 1159 3500 
L 1159 2956 
Q 1341 3275 1631 3429 
Q 1922 3584 2338 3584 
Q 2397 3584 2469 3576 
Q 2541 3569 2628 3553 
L 2631 2963 
z
" transform="scale(0.015625)"/>
       <path id="DejaVuSans-62" d="M 3116 1747 
Q 3116 2381 2855 2742 
Q 2594 3103 2138 3103 
Q 1681 3103 1420 2742 
Q 1159 2381 1159 1747 
Q 1159 1113 1420 752 
Q 1681 391 2138 391 
Q 2594 391 2855 752 
Q 3116 1113 3116 1747 
z
M 1159 2969 
Q 1341 3281 1617 3432 
Q 1894 3584 2278 3584 
Q 2916 3584 3314 3078 
Q 3713 2572 3713 1747 
Q 3713 922 3314 415 
Q 2916 -91 2278 -91 
Q 1894 -91 1617 61 
Q 1341 213 1159 525 
L 1159 0 
L 581 0 
L 581 4863 
L 1159 4863 
L 1159 2969 
z
" transform="scale(0.015625)"/>
       <path id="DejaVuSans-73" d="M 2834 3397 
L 2834 2853 
Q 2591 2978 2328 3040 
Q 2066 3103 1784 3103 
Q 1356 3103 1142 2972 
Q 928 2841 928 2578 
Q 928 2378 1081 2264 
Q 1234 2150 1697 2047 
L 1894 2003 
Q 2506 1872 2764 1633 
Q 3022 1394 3022 966 
Q 3022 478 2636 193 
Q 2250 -91 1575 -91 
Q 1294 -91 989 -36 
Q 684 19 347 128 
L 347 722 
Q 666 556 975 473 
Q 1284 391 1588 391 
Q 1994 391 2212 530 
Q 2431 669 2431 922 
Q 2431 1156 2273 1281 
Q 2116 1406 1581 1522 
L 1381 1569 
Q 847 1681 609 1914 
Q 372 2147 372 2553 
Q 372 3047 722 3315 
Q 1072 3584 1716 3584 
Q 2034 3584 2315 3537 
Q 2597 3491 2834 3397 
z
" transform="scale(0.015625)"/>
       <path id="DejaVuSans-6b" d="M 581 4863 
L 1159 4863 
L 1159 1991 
L 2875 3500 
L 3609 3500 
L 1753 1863 
L 3688 0 
L 2938 0 
L 1159 1709 
L 1159 0 
L 581 0 
L 581 4863 
z
" transform="scale(0.015625)"/>
       <path id="DejaVuSans-5b" d="M 550 4863 
L 1875 4863 
L 1875 4416 
L 1125 4416 
L 1125 -397 
L 1875 -397 
L 1875 -844 
L 550 -844 
L 550 4863 
z
" transform="scale(0.015625)"/>
       <path id="DejaVuSans-47" d="M 3809 666 
L 3809 1919 
L 2778 1919 
L 2778 2438 
L 4434 2438 
L 4434 434 
Q 4069 175 3628 42 
Q 3188 -91 2688 -91 
Q 1594 -91 976 548 
Q 359 1188 359 2328 
Q 359 3472 976 4111 
Q 1594 4750 2688 4750 
Q 3144 4750 3555 4637 
Q 3966 4525 4313 4306 
L 4313 3634 
Q 3963 3931 3569 4081 
Q 3175 4231 2741 4231 
Q 1884 4231 1454 3753 
Q 1025 3275 1025 2328 
Q 1025 1384 1454 906 
Q 1884 428 2741 428 
Q 3075 428 3337 486 
Q 3600 544 3809 666 
z
" transform="scale(0.015625)"/>
       <path id="DejaVuSans-43" d="M 4122 4306 
L 4122 3641 
Q 3803 3938 3442 4084 
Q 3081 4231 2675 4231 
Q 1875 4231 1450 3742 
Q 1025 3253 1025 2328 
Q 1025 1406 1450 917 
Q 1875 428 2675 428 
Q 3081 428 3442 575 
Q 3803 722 4122 1019 
L 4122 359 
Q 3791 134 3420 21 
Q 3050 -91 2638 -91 
Q 1578 -91 968 557 
Q 359 1206 359 2328 
Q 359 3453 968 4101 
Q 1578 4750 2638 4750 
Q 3056 4750 3426 4639 
Q 3797 4528 4122 4306 
z
" transform="scale(0.015625)"/>
       <path id="DejaVuSans-79" d="M 2059 -325 
Q 1816 -950 1584 -1140 
Q 1353 -1331 966 -1331 
L 506 -1331 
L 506 -850 
L 844 -850 
Q 1081 -850 1212 -737 
Q 1344 -625 1503 -206 
L 1606 56 
L 191 3500 
L 800 3500 
L 1894 763 
L 2988 3500 
L 3597 3500 
L 2059 -325 
z
" transform="scale(0.015625)"/>
       <path id="DejaVuSans-31" d="M 794 531 
L 1825 531 
L 1825 4091 
L 703 3866 
L 703 4441 
L 1819 4666 
L 2450 4666 
L 2450 531 
L 3481 531 
L 3481 0 
L 794 0 
L 794 531 
z
" transform="scale(0.015625)"/>
       <path id="DejaVuSans-5d" d="M 1947 4863 
L 1947 -844 
L 622 -844 
L 622 -397 
L 1369 -397 
L 1369 4416 
L 622 4416 
L 622 4863 
L 1947 4863 
z
" transform="scale(0.015625)"/>
      </defs>
      <use xlink:href="#DejaVuSans-61" transform="translate(0 0.684375)"/>
      <use xlink:href="#DejaVuSans-6e" transform="translate(61.279297 0.684375)"/>
      <use xlink:href="#DejaVuSans-6e" transform="translate(124.658203 0.684375)"/>
      <use xlink:href="#DejaVuSans-75" transform="translate(188.037109 0.684375)"/>
      <use xlink:href="#DejaVuSans-61" transform="translate(251.416016 0.684375)"/>
      <use xlink:href="#DejaVuSans-6c" transform="translate(312.695312 0.684375)"/>
      <use xlink:href="#DejaVuSans-20" transform="translate(340.478516 0.684375)"/>
      <use xlink:href="#DejaVuSans-63" transform="translate(372.265625 0.684375)"/>
      <use xlink:href="#DejaVuSans-68" transform="translate(427.246094 0.684375)"/>
      <use xlink:href="#DejaVuSans-61" transform="translate(490.625 0.684375)"/>
      <use xlink:href="#DejaVuSans-6e" transform="translate(551.904297 0.684375)"/>
      <use xlink:href="#DejaVuSans-67" transform="translate(615.283203 0.684375)"/>
      <use xlink:href="#DejaVuSans-65" transform="translate(678.759766 0.684375)"/>
      <use xlink:href="#DejaVuSans-20" transform="translate(740.283203 0.684375)"/>
      <use xlink:href="#DejaVuSans-69" transform="translate(772.070312 0.684375)"/>
      <use xlink:href="#DejaVuSans-6e" transform="translate(799.853516 0.684375)"/>
      <use xlink:href="#DejaVuSans-20" transform="translate(863.232422 0.684375)"/>
      <use xlink:href="#DejaVuSans-74" transform="translate(895.019531 0.684375)"/>
      <use xlink:href="#DejaVuSans-6f" transform="translate(934.228516 0.684375)"/>
      <use xlink:href="#DejaVuSans-74" transform="translate(995.410156 0.684375)"/>
      <use xlink:href="#DejaVuSans-61" transform="translate(1034.619141 0.684375)"/>
      <use xlink:href="#DejaVuSans-6c" transform="translate(1095.898438 0.684375)"/>
      <use xlink:href="#DejaVuSans-20" transform="translate(1123.681641 0.684375)"/>
      <use xlink:href="#DejaVuSans-63" transform="translate(1155.46875 0.684375)"/>
      <use xlink:href="#DejaVuSans-61" transform="translate(1210.449219 0.684375)"/>
      <use xlink:href="#DejaVuSans-72" transform="translate(1271.728516 0.684375)"/>
      <use xlink:href="#DejaVuSans-62" transform="translate(1312.841797 0.684375)"/>
      <use xlink:href="#DejaVuSans-6f" transform="translate(1376.318359 0.684375)"/>
      <use xlink:href="#DejaVuSans-6e" transform="translate(1437.5 0.684375)"/>
      <use xlink:href="#DejaVuSans-20" transform="translate(1500.878906 0.684375)"/>
      <use xlink:href="#DejaVuSans-73" transform="translate(1532.666016 0.684375)"/>
      <use xlink:href="#DejaVuSans-74" transform="translate(1584.765625 0.684375)"/>
      <use xlink:href="#DejaVuSans-6f" transform="translate(1623.974609 0.684375)"/>
      <use xlink:href="#DejaVuSans-63" transform="translate(1685.15625 0.684375)"/>
      <use xlink:href="#DejaVuSans-6b" transform="translate(1740.136719 0.684375)"/>
      <use xlink:href="#DejaVuSans-73" transform="translate(1798.046875 0.684375)"/>
      <use xlink:href="#DejaVuSans-20" transform="translate(1850.146484 0.684375)"/>
      <use xlink:href="#DejaVuSans-5b" transform="translate(1881.933594 0.684375)"/>
      <use xlink:href="#DejaVuSans-47" transform="translate(1920.947266 0.684375)"/>
      <use xlink:href="#DejaVuSans-74" transform="translate(1998.4375 0.684375)"/>
      <use xlink:href="#DejaVuSans-43" transform="translate(2037.646484 0.684375)"/>
      <use xlink:href="#DejaVuSans-20" transform="translate(2107.470703 0.684375)"/>
      <use xlink:href="#DejaVuSans-79" transform="translate(2139.257812 0.684375)"/>
      <use xlink:href="#DejaVuSans-72" transform="translate(2198.4375 0.684375)"/>
      <use xlink:href="#DejaVuSans-2212" transform="translate(2240.507812 38.965625) scale(0.7)"/>
      <use xlink:href="#DejaVuSans-31" transform="translate(2299.160156 38.965625) scale(0.7)"/>
      <use xlink:href="#DejaVuSans-5d" transform="translate(2346.430664 0.684375)"/>
     </g>
    </g>
   </g>
   <g id="matplotlib.axis_2">
    <g id="ytick_1">
     <g id="line2d_7">
      <defs>
       <path id="mae8f10841e" d="M 0 0 
L -3.5 0 
" style="stroke: #000000; stroke-width: 0.8"/>
      </defs>
      <g>
       <use xlink:href="#mae8f10841e" x="103.104" y="285.408" style="stroke: #000000; stroke-width: 0.8"/>
      </g>
     </g>
     <g id="text_8">
      <!-- −0.4 -->
      <g transform="translate(71.821188 289.207219) scale(0.1 -0.1)">
       <use xlink:href="#DejaVuSans-2212"/>
       <use xlink:href="#DejaVuSans-30" x="83.789062"/>
       <use xlink:href="#DejaVuSans-2e" x="147.412109"/>
       <use xlink:href="#DejaVuSans-34" x="179.199219"/>
      </g>
     </g>
    </g>
    <g id="ytick_2">
     <g id="line2d_8">
      <g>
       <use xlink:href="#mae8f10841e" x="103.104" y="241.056" style="stroke: #000000; stroke-width: 0.8"/>
      </g>
     </g>
     <g id="text_9">
      <!-- −0.2 -->
      <g transform="translate(71.821188 244.855219) scale(0.1 -0.1)">
       <use xlink:href="#DejaVuSans-2212"/>
       <use xlink:href="#DejaVuSans-30" x="83.789062"/>
       <use xlink:href="#DejaVuSans-2e" x="147.412109"/>
       <use xlink:href="#DejaVuSans-32" x="179.199219"/>
      </g>
     </g>
    </g>
    <g id="ytick_3">
     <g id="line2d_9">
      <g>
       <use xlink:href="#mae8f10841e" x="103.104" y="196.704" style="stroke: #000000; stroke-width: 0.8"/>
      </g>
     </g>
     <g id="text_10">
      <!-- 0.0 -->
      <g transform="translate(80.200875 200.503219) scale(0.1 -0.1)">
       <use xlink:href="#DejaVuSans-30"/>
       <use xlink:href="#DejaVuSans-2e" x="63.623047"/>
       <use xlink:href="#DejaVuSans-30" x="95.410156"/>
      </g>
     </g>
    </g>
    <g id="ytick_4">
     <g id="line2d_10">
      <g>
       <use xlink:href="#mae8f10841e" x="103.104" y="152.352" style="stroke: #000000; stroke-width: 0.8"/>
      </g>
     </g>
     <g id="text_11">
      <!-- 0.2 -->
      <g transform="translate(80.200875 156.151219) scale(0.1 -0.1)">
       <use xlink:href="#DejaVuSans-30"/>
       <use xlink:href="#DejaVuSans-2e" x="63.623047"/>
       <use xlink:href="#DejaVuSans-32" x="95.410156"/>
      </g>
     </g>
    </g>
    <g id="ytick_5">
     <g id="line2d_11">
      <g>
       <use xlink:href="#mae8f10841e" x="103.104" y="108" style="stroke: #000000; stroke-width: 0.8"/>
      </g>
     </g>
     <g id="text_12">
      <!-- 0.4 -->
      <g transform="translate(80.200875 111.799219) scale(0.1 -0.1)">
       <use xlink:href="#DejaVuSans-30"/>
       <use xlink:href="#DejaVuSans-2e" x="63.623047"/>
       <use xlink:href="#DejaVuSans-34" x="95.410156"/>
      </g>
     </g>
    </g>
    <g id="ytick_6">
     <g id="line2d_12">
      <g>
       <use xlink:href="#mae8f10841e" x="103.104" y="63.648" style="stroke: #000000; stroke-width: 0.8"/>
      </g>
     </g>
     <g id="text_13">
      <!-- 0.6 -->
      <g transform="translate(80.200875 67.447219) scale(0.1 -0.1)">
       <use xlink:href="#DejaVuSans-30"/>
       <use xlink:href="#DejaVuSans-2e" x="63.623047"/>
       <use xlink:href="#DejaVuSans-36" x="95.410156"/>
      </g>
     </g>
    </g>
    <g id="text_14">
     <!-- annual change in total live biomass stocks [GtC yr$^{-1}$] -->
     <g transform="translate(65.721188 307.728) rotate(-90) scale(0.1 -0.1)">
      <defs>
       <path id="DejaVuSans-76" d="M 191 3500 
L 800 3500 
L 1894 563 
L 2988 3500 
L 3597 3500 
L 2284 0 
L 1503 0 
L 191 3500 
z
" transform="scale(0.015625)"/>
       <path id="DejaVuSans-6d" d="M 3328 2828 
Q 3544 3216 3844 3400 
Q 4144 3584 4550 3584 
Q 5097 3584 5394 3201 
Q 5691 2819 5691 2113 
L 5691 0 
L 5113 0 
L 5113 2094 
Q 5113 2597 4934 2840 
Q 4756 3084 4391 3084 
Q 3944 3084 3684 2787 
Q 3425 2491 3425 1978 
L 3425 0 
L 2847 0 
L 2847 2094 
Q 2847 2600 2669 2842 
Q 2491 3084 2119 3084 
Q 1678 3084 1418 2786 
Q 1159 2488 1159 1978 
L 1159 0 
L 581 0 
L 581 3500 
L 1159 3500 
L 1159 2956 
Q 1356 3278 1631 3431 
Q 1906 3584 2284 3584 
Q 2666 3584 2933 3390 
Q 3200 3197 3328 2828 
z
" transform="scale(0.015625)"/>
      </defs>
      <use xlink:href="#DejaVuSans-61" transform="translate(0 0.684375)"/>
      <use xlink:href="#DejaVuSans-6e" transform="translate(61.279297 0.684375)"/>
      <use xlink:href="#DejaVuSans-6e" transform="translate(124.658203 0.684375)"/>
      <use xlink:href="#DejaVuSans-75" transform="translate(188.037109 0.684375)"/>
      <use xlink:href="#DejaVuSans-61" transform="translate(251.416016 0.684375)"/>
      <use xlink:href="#DejaVuSans-6c" transform="translate(312.695312 0.684375)"/>
      <use xlink:href="#DejaVuSans-20" transform="translate(340.478516 0.684375)"/>
      <use xlink:href="#DejaVuSans-63" transform="translate(372.265625 0.684375)"/>
      <use xlink:href="#DejaVuSans-68" transform="translate(427.246094 0.684375)"/>
      <use xlink:href="#DejaVuSans-61" transform="translate(490.625 0.684375)"/>
      <use xlink:href="#DejaVuSans-6e" transform="translate(551.904297 0.684375)"/>
      <use xlink:href="#DejaVuSans-67" transform="translate(615.283203 0.684375)"/>
      <use xlink:href="#DejaVuSans-65" transform="translate(678.759766 0.684375)"/>
      <use xlink:href="#DejaVuSans-20" transform="translate(740.283203 0.684375)"/>
      <use xlink:href="#DejaVuSans-69" transform="translate(772.070312 0.684375)"/>
      <use xlink:href="#DejaVuSans-6e" transform="translate(799.853516 0.684375)"/>
      <use xlink:href="#DejaVuSans-20" transform="translate(863.232422 0.684375)"/>
      <use xlink:href="#DejaVuSans-74" transform="translate(895.019531 0.684375)"/>
      <use xlink:href="#DejaVuSans-6f" transform="translate(934.228516 0.684375)"/>
      <use xlink:href="#DejaVuSans-74" transform="translate(995.410156 0.684375)"/>
      <use xlink:href="#DejaVuSans-61" transform="translate(1034.619141 0.684375)"/>
      <use xlink:href="#DejaVuSans-6c" transform="translate(1095.898438 0.684375)"/>
      <use xlink:href="#DejaVuSans-20" transform="translate(1123.681641 0.684375)"/>
      <use xlink:href="#DejaVuSans-6c" transform="translate(1155.46875 0.684375)"/>
      <use xlink:href="#DejaVuSans-69" transform="translate(1183.251953 0.684375)"/>
      <use xlink:href="#DejaVuSans-76" transform="translate(1211.035156 0.684375)"/>
      <use xlink:href="#DejaVuSans-65" transform="translate(1270.214844 0.684375)"/>
      <use xlink:href="#DejaVuSans-20" transform="translate(1331.738281 0.684375)"/>
      <use xlink:href="#DejaVuSans-62" transform="translate(1363.525391 0.684375)"/>
      <use xlink:href="#DejaVuSans-69" transform="translate(1427.001953 0.684375)"/>
      <use xlink:href="#DejaVuSans-6f" transform="translate(1454.785156 0.684375)"/>
      <use xlink:href="#DejaVuSans-6d" transform="translate(1515.966797 0.684375)"/>
      <use xlink:href="#DejaVuSans-61" transform="translate(1613.378906 0.684375)"/>
      <use xlink:href="#DejaVuSans-73" transform="translate(1674.658203 0.684375)"/>
      <use xlink:href="#DejaVuSans-73" transform="translate(1726.757812 0.684375)"/>
      <use xlink:href="#DejaVuSans-20" transform="translate(1778.857422 0.684375)"/>
      <use xlink:href="#DejaVuSans-73" transform="translate(1810.644531 0.684375)"/>
      <use xlink:href="#DejaVuSans-74" transform="translate(1862.744141 0.684375)"/>
      <use xlink:href="#DejaVuSans-6f" transform="translate(1901.953125 0.684375)"/>
      <use xlink:href="#DejaVuSans-63" transform="translate(1963.134766 0.684375)"/>
      <use xlink:href="#DejaVuSans-6b" transform="translate(2018.115234 0.684375)"/>
      <use xlink:href="#DejaVuSans-73" transform="translate(2076.025391 0.684375)"/>
      <use xlink:href="#DejaVuSans-20" transform="translate(2128.125 0.684375)"/>
      <use xlink:href="#DejaVuSans-5b" transform="translate(2159.912109 0.684375)"/>
      <use xlink:href="#DejaVuSans-47" transform="translate(2198.925781 0.684375)"/>
      <use xlink:href="#DejaVuSans-74" transform="translate(2276.416016 0.684375)"/>
      <use xlink:href="#DejaVuSans-43" transform="translate(2315.625 0.684375)"/>
      <use xlink:href="#DejaVuSans-20" transform="translate(2385.449219 0.684375)"/>
      <use xlink:href="#DejaVuSans-79" transform="translate(2417.236328 0.684375)"/>
      <use xlink:href="#DejaVuSans-72" transform="translate(2476.416016 0.684375)"/>
      <use xlink:href="#DejaVuSans-2212" transform="translate(2518.486328 38.965625) scale(0.7)"/>
      <use xlink:href="#DejaVuSans-31" transform="translate(2577.138672 38.965625) scale(0.7)"/>
      <use xlink:href="#DejaVuSans-5d" transform="translate(2624.40918 0.684375)"/>
     </g>
    </g>
   </g>
   <g id="line2d_13">
    <path d="M 163.017208 217.338689 
L 164.74605 216.865504 
L 166.474892 216.39232 
L 168.203735 215.919135 
L 169.932577 215.44595 
L 171.661419 214.972765 
L 173.390262 214.499581 
L 175.119104 214.026396 
L 176.847946 213.553211 
L 178.576789 213.080027 
L 180.305631 212.606842 
L 182.034473 212.133657 
L 183.763316 211.660473 
L 185.492158 211.187288 
L 187.221 210.714103 
L 188.949843 210.240919 
L 190.678685 209.767734 
L 192.407528 209.294549 
L 194.13637 208.821365 
L 195.865212 208.34818 
L 197.594055 207.874995 
L 199.322897 207.401811 
L 201.051739 206.928626 
L 202.780582 206.455441 
L 204.509424 205.982256 
L 206.238266 205.509072 
L 207.967109 205.035887 
L 209.695951 204.562702 
L 211.424793 204.089518 
L 213.153636 203.616333 
L 214.882478 203.143148 
L 216.61132 202.669964 
L 218.340163 202.196779 
L 220.069005 201.723594 
L 221.797848 201.25041 
L 223.52669 200.777225 
L 225.255532 200.30404 
L 226.984375 199.830856 
L 228.713217 199.357671 
L 230.442059 198.884486 
L 232.170902 198.411301 
L 233.899744 197.938117 
L 235.628586 197.464932 
L 237.357429 196.991747 
L 239.086271 196.518563 
L 240.815113 196.045378 
L 242.543956 195.572193 
L 244.272798 195.099009 
L 246.001641 194.625824 
L 247.730483 194.152639 
L 249.459325 193.679455 
L 251.188168 193.20627 
L 252.91701 192.733085 
L 254.645852 192.259901 
L 256.374695 191.786716 
L 258.103537 191.313531 
L 259.832379 190.840346 
L 261.561222 190.367162 
L 263.290064 189.893977 
L 265.018906 189.420792 
L 266.747749 188.947608 
L 268.476591 188.474423 
L 270.205433 188.001238 
L 271.934276 187.528054 
L 273.663118 187.054869 
L 275.391961 186.581684 
L 277.120803 186.1085 
L 278.849645 185.635315 
L 280.578488 185.16213 
L 282.30733 184.688946 
L 284.036172 184.215761 
L 285.765015 183.742576 
L 287.493857 183.269392 
L 289.222699 182.796207 
L 290.951542 182.323022 
L 292.680384 181.849837 
L 294.409226 181.376653 
L 296.138069 180.903468 
L 297.866911 180.430283 
L 299.595753 179.957099 
L 301.324596 179.483914 
L 303.053438 179.010729 
L 304.782281 178.537545 
L 306.511123 178.06436 
L 308.239965 177.591175 
L 309.968808 177.117991 
L 311.69765 176.644806 
L 313.426492 176.171621 
L 315.155335 175.698437 
L 316.884177 175.225252 
L 318.613019 174.752067 
L 320.341862 174.278882 
L 322.070704 173.805698 
L 323.799546 173.332513 
L 325.528389 172.859328 
L 327.257231 172.386144 
L 328.986073 171.912959 
L 330.714916 171.439774 
L 332.443758 170.96659 
L 334.172601 170.493405 
" clip-path="url(#p310d71e0bb)" style="fill: none; stroke-dasharray: 8.325,3.6; stroke-dashoffset: 0; stroke: #1f77b4; stroke-width: 2.25"/>
   </g>
   <g id="LineCollection_1">
    <path d="M 131.070885 215.108781 
L 235.233263 215.108781 
" clip-path="url(#p310d71e0bb)" style="fill: none; stroke: #e60049; stroke-width: 1.5"/>
   </g>
   <g id="LineCollection_2">
    <path d="M 183.152074 242.927642 
L 183.152074 187.28992 
" clip-path="url(#p310d71e0bb)" style="fill: none; stroke: #e60049; stroke-width: 1.5"/>
   </g>
   <g id="line2d_14">
    <defs>
     <path id="mf23f60e0f9" d="M 0 2 
L 0 -2 
" style="stroke: #e60049"/>
    </defs>
    <g clip-path="url(#p310d71e0bb)">
     <use xlink:href="#mf23f60e0f9" x="131.070885" y="215.108781" style="fill: #e60049; stroke: #e60049"/>
    </g>
   </g>
   <g id="line2d_15">
    <g clip-path="url(#p310d71e0bb)">
     <use xlink:href="#mf23f60e0f9" x="235.233263" y="215.108781" style="fill: #e60049; stroke: #e60049"/>
    </g>
   </g>
   <g id="line2d_16">
    <defs>
     <path id="ma1c623b31d" d="M 2 0 
L -2 -0 
" style="stroke: #e60049"/>
    </defs>
    <g clip-path="url(#p310d71e0bb)">
     <use xlink:href="#ma1c623b31d" x="183.152074" y="242.927642" style="fill: #e60049; stroke: #e60049"/>
    </g>
   </g>
   <g id="line2d_17">
    <g clip-path="url(#p310d71e0bb)">
     <use xlink:href="#ma1c623b31d" x="183.152074" y="187.28992" style="fill: #e60049; stroke: #e60049"/>
    </g>
   </g>
   <g id="LineCollection_3">
    <path d="M 183.852271 196.341731 
L 232.302745 196.341731 
" clip-path="url(#p310d71e0bb)" style="fill: none; stroke: #0bb4ff; stroke-width: 1.5"/>
   </g>
   <g id="LineCollection_4">
    <path d="M 208.077508 215.17524 
L 208.077508 177.508222 
" clip-path="url(#p310d71e0bb)" style="fill: none; stroke: #0bb4ff; stroke-width: 1.5"/>
   </g>
   <g id="line2d_18">
    <defs>
     <path id="m0d099243ab" d="M 0 2 
L 0 -2 
" style="stroke: #0bb4ff"/>
    </defs>
    <g clip-path="url(#p310d71e0bb)">
     <use xlink:href="#m0d099243ab" x="183.852271" y="196.341731" style="fill: #0bb4ff; stroke: #0bb4ff"/>
    </g>
   </g>
   <g id="line2d_19">
    <g clip-path="url(#p310d71e0bb)">
     <use xlink:href="#m0d099243ab" x="232.302745" y="196.341731" style="fill: #0bb4ff; stroke: #0bb4ff"/>
    </g>
   </g>
   <g id="line2d_20">
    <defs>
     <path id="mcfff0a6f2b" d="M 2 0 
L -2 -0 
" style="stroke: #0bb4ff"/>
    </defs>
    <g clip-path="url(#p310d71e0bb)">
     <use xlink:href="#mcfff0a6f2b" x="208.077508" y="215.17524" style="fill: #0bb4ff; stroke: #0bb4ff"/>
    </g>
   </g>
   <g id="line2d_21">
    <g clip-path="url(#p310d71e0bb)">
     <use xlink:href="#mcfff0a6f2b" x="208.077508" y="177.508222" style="fill: #0bb4ff; stroke: #0bb4ff"/>
    </g>
   </g>
   <g id="LineCollection_5">
    <path d="M 256.770191 183.08437 
L 316.361412 183.08437 
" clip-path="url(#p310d71e0bb)" style="fill: none; stroke: #50e991; stroke-width: 1.5"/>
   </g>
   <g id="LineCollection_6">
    <path d="M 286.565801 195.965599 
L 286.565801 170.203141 
" clip-path="url(#p310d71e0bb)" style="fill: none; stroke: #50e991; stroke-width: 1.5"/>
   </g>
   <g id="line2d_22">
    <defs>
     <path id="mc7e3e802bf" d="M 0 2 
L 0 -2 
" style="stroke: #50e991"/>
    </defs>
    <g clip-path="url(#p310d71e0bb)">
     <use xlink:href="#mc7e3e802bf" x="256.770191" y="183.08437" style="fill: #50e991; stroke: #50e991"/>
    </g>
   </g>
   <g id="line2d_23">
    <g clip-path="url(#p310d71e0bb)">
     <use xlink:href="#mc7e3e802bf" x="316.361412" y="183.08437" style="fill: #50e991; stroke: #50e991"/>
    </g>
   </g>
   <g id="line2d_24">
    <defs>
     <path id="m496af80a91" d="M 2 0 
L -2 -0 
" style="stroke: #50e991"/>
    </defs>
    <g clip-path="url(#p310d71e0bb)">
     <use xlink:href="#m496af80a91" x="286.565801" y="195.965599" style="fill: #50e991; stroke: #50e991"/>
    </g>
   </g>
   <g id="line2d_25">
    <g clip-path="url(#p310d71e0bb)">
     <use xlink:href="#m496af80a91" x="286.565801" y="170.203141" style="fill: #50e991; stroke: #50e991"/>
    </g>
   </g>
   <g id="LineCollection_7">
    <path d="M 260.259471 181.628417 
L 313.27551 181.628417 
" clip-path="url(#p310d71e0bb)" style="fill: none; stroke: #e6d800; stroke-width: 1.5"/>
   </g>
   <g id="LineCollection_8">
    <path d="M 286.767491 191.264296 
L 286.767491 171.992538 
" clip-path="url(#p310d71e0bb)" style="fill: none; stroke: #e6d800; stroke-width: 1.5"/>
   </g>
   <g id="line2d_26">
    <defs>
     <path id="mb07a82d2b0" d="M 0 2 
L 0 -2 
" style="stroke: #e6d800"/>
    </defs>
    <g clip-path="url(#p310d71e0bb)">
     <use xlink:href="#mb07a82d2b0" x="260.259471" y="181.628417" style="fill: #e6d800; stroke: #e6d800"/>
    </g>
   </g>
   <g id="line2d_27">
    <g clip-path="url(#p310d71e0bb)">
     <use xlink:href="#mb07a82d2b0" x="313.27551" y="181.628417" style="fill: #e6d800; stroke: #e6d800"/>
    </g>
   </g>
   <g id="line2d_28">
    <defs>
     <path id="m730140af07" d="M 2 0 
L -2 -0 
" style="stroke: #e6d800"/>
    </defs>
    <g clip-path="url(#p310d71e0bb)">
     <use xlink:href="#m730140af07" x="286.767491" y="191.264296" style="fill: #e6d800; stroke: #e6d800"/>
    </g>
   </g>
   <g id="line2d_29">
    <g clip-path="url(#p310d71e0bb)">
     <use xlink:href="#m730140af07" x="286.767491" y="171.992538" style="fill: #e6d800; stroke: #e6d800"/>
    </g>
   </g>
   <g id="LineCollection_9">
    <path d="M 268.404844 185.275775 
L 342.110136 185.275775 
" clip-path="url(#p310d71e0bb)" style="fill: none; stroke: #9b19f5; stroke-width: 1.5"/>
   </g>
   <g id="LineCollection_10">
    <path d="M 305.25749 209.28722 
L 305.25749 161.264331 
" clip-path="url(#p310d71e0bb)" style="fill: none; stroke: #9b19f5; stroke-width: 1.5"/>
   </g>
   <g id="line2d_30">
    <defs>
     <path id="m56fd5a7e5f" d="M 0 2 
L 0 -2 
" style="stroke: #9b19f5"/>
    </defs>
    <g clip-path="url(#p310d71e0bb)">
     <use xlink:href="#m56fd5a7e5f" x="268.404844" y="185.275775" style="fill: #9b19f5; stroke: #9b19f5"/>
    </g>
   </g>
   <g id="line2d_31">
    <g clip-path="url(#p310d71e0bb)">
     <use xlink:href="#m56fd5a7e5f" x="342.110136" y="185.275775" style="fill: #9b19f5; stroke: #9b19f5"/>
    </g>
   </g>
   <g id="line2d_32">
    <defs>
     <path id="m0cdc5b1cfe" d="M 2 0 
L -2 -0 
" style="stroke: #9b19f5"/>
    </defs>
    <g clip-path="url(#p310d71e0bb)">
     <use xlink:href="#m0cdc5b1cfe" x="305.25749" y="209.28722" style="fill: #9b19f5; stroke: #9b19f5"/>
    </g>
   </g>
   <g id="line2d_33">
    <g clip-path="url(#p310d71e0bb)">
     <use xlink:href="#m0cdc5b1cfe" x="305.25749" y="161.264331" style="fill: #9b19f5; stroke: #9b19f5"/>
    </g>
   </g>
   <g id="LineCollection_11">
    <path d="M 305.16671 173.427775 
L 363.178491 173.427775 
" clip-path="url(#p310d71e0bb)" style="fill: none; stroke: #ffa300; stroke-width: 1.5"/>
   </g>
   <g id="LineCollection_12">
    <path d="M 334.172601 191.078983 
L 334.172601 155.776567 
" clip-path="url(#p310d71e0bb)" style="fill: none; stroke: #ffa300; stroke-width: 1.5"/>
   </g>
   <g id="line2d_34">
    <defs>
     <path id="m9535439e78" d="M 0 2 
L 0 -2 
" style="stroke: #ffa300"/>
    </defs>
    <g clip-path="url(#p310d71e0bb)">
     <use xlink:href="#m9535439e78" x="305.16671" y="173.427775" style="fill: #ffa300; stroke: #ffa300"/>
    </g>
   </g>
   <g id="line2d_35">
    <g clip-path="url(#p310d71e0bb)">
     <use xlink:href="#m9535439e78" x="363.178491" y="173.427775" style="fill: #ffa300; stroke: #ffa300"/>
    </g>
   </g>
   <g id="line2d_36">
    <defs>
     <path id="m4dcdd85ff4" d="M 2 0 
L -2 -0 
" style="stroke: #ffa300"/>
    </defs>
    <g clip-path="url(#p310d71e0bb)">
     <use xlink:href="#m4dcdd85ff4" x="334.172601" y="191.078983" style="fill: #ffa300; stroke: #ffa300"/>
    </g>
   </g>
   <g id="line2d_37">
    <g clip-path="url(#p310d71e0bb)">
     <use xlink:href="#m4dcdd85ff4" x="334.172601" y="155.776567" style="fill: #ffa300; stroke: #ffa300"/>
    </g>
   </g>
   <g id="LineCollection_13">
    <path d="M 114.087774 233.037364 
L 211.946641 233.037364 
" clip-path="url(#p310d71e0bb)" style="fill: none; stroke: #dc0ab4; stroke-width: 1.5"/>
   </g>
   <g id="LineCollection_14">
    <path d="M 163.017208 260.161923 
L 163.017208 205.912805 
" clip-path="url(#p310d71e0bb)" style="fill: none; stroke: #dc0ab4; stroke-width: 1.5"/>
   </g>
   <g id="line2d_38">
    <defs>
     <path id="m6b0275cd59" d="M 0 2 
L 0 -2 
" style="stroke: #dc0ab4"/>
    </defs>
    <g clip-path="url(#p310d71e0bb)">
     <use xlink:href="#m6b0275cd59" x="114.087774" y="233.037364" style="fill: #dc0ab4; stroke: #dc0ab4"/>
    </g>
   </g>
   <g id="line2d_39">
    <g clip-path="url(#p310d71e0bb)">
     <use xlink:href="#m6b0275cd59" x="211.946641" y="233.037364" style="fill: #dc0ab4; stroke: #dc0ab4"/>
    </g>
   </g>
   <g id="line2d_40">
    <defs>
     <path id="mc997267aa9" d="M 2 0 
L -2 -0 
" style="stroke: #dc0ab4"/>
    </defs>
    <g clip-path="url(#p310d71e0bb)">
     <use xlink:href="#mc997267aa9" x="163.017208" y="260.161923" style="fill: #dc0ab4; stroke: #dc0ab4"/>
    </g>
   </g>
   <g id="line2d_41">
    <g clip-path="url(#p310d71e0bb)">
     <use xlink:href="#mc997267aa9" x="163.017208" y="205.912805" style="fill: #dc0ab4; stroke: #dc0ab4"/>
    </g>
   </g>
   <g id="LineCollection_15">
    <path d="M 201.278855 190.492846 
L 255.165287 190.492846 
" clip-path="url(#p310d71e0bb)" style="fill: none; stroke: #b3d4ff; stroke-width: 1.5"/>
   </g>
   <g id="LineCollection_16">
    <path d="M 228.222071 194.322705 
L 228.222071 186.662988 
" clip-path="url(#p310d71e0bb)" style="fill: none; stroke: #b3d4ff; stroke-width: 1.5"/>
   </g>
   <g id="line2d_42">
    <defs>
     <path id="mb991305375" d="M 0 2 
L 0 -2 
" style="stroke: #b3d4ff"/>
    </defs>
    <g clip-path="url(#p310d71e0bb)">
     <use xlink:href="#mb991305375" x="201.278855" y="190.492846" style="fill: #b3d4ff; stroke: #b3d4ff"/>
    </g>
   </g>
   <g id="line2d_43">
    <g clip-path="url(#p310d71e0bb)">
     <use xlink:href="#mb991305375" x="255.165287" y="190.492846" style="fill: #b3d4ff; stroke: #b3d4ff"/>
    </g>
   </g>
   <g id="line2d_44">
    <defs>
     <path id="m06ecaabc91" d="M 2 0 
L -2 -0 
" style="stroke: #b3d4ff"/>
    </defs>
    <g clip-path="url(#p310d71e0bb)">
     <use xlink:href="#m06ecaabc91" x="228.222071" y="194.322705" style="fill: #b3d4ff; stroke: #b3d4ff"/>
    </g>
   </g>
   <g id="line2d_45">
    <g clip-path="url(#p310d71e0bb)">
     <use xlink:href="#m06ecaabc91" x="228.222071" y="186.662988" style="fill: #b3d4ff; stroke: #b3d4ff"/>
    </g>
   </g>
   <g id="LineCollection_17">
    <path d="M 148.33779 199.639517 
L 242.430379 199.639517 
" clip-path="url(#p310d71e0bb)" style="fill: none; stroke: #00bfa0; stroke-width: 1.5"/>
   </g>
   <g id="LineCollection_18">
    <path d="M 195.384085 216.969446 
L 195.384085 182.309589 
" clip-path="url(#p310d71e0bb)" style="fill: none; stroke: #00bfa0; stroke-width: 1.5"/>
   </g>
   <g id="line2d_46">
    <defs>
     <path id="mf479cfd107" d="M 0 2 
L 0 -2 
" style="stroke: #00bfa0"/>
    </defs>
    <g clip-path="url(#p310d71e0bb)">
     <use xlink:href="#mf479cfd107" x="148.33779" y="199.639517" style="fill: #00bfa0; stroke: #00bfa0"/>
    </g>
   </g>
   <g id="line2d_47">
    <g clip-path="url(#p310d71e0bb)">
     <use xlink:href="#mf479cfd107" x="242.430379" y="199.639517" style="fill: #00bfa0; stroke: #00bfa0"/>
    </g>
   </g>
   <g id="line2d_48">
    <defs>
     <path id="m21cadc5045" d="M 2 0 
L -2 -0 
" style="stroke: #00bfa0"/>
    </defs>
    <g clip-path="url(#p310d71e0bb)">
     <use xlink:href="#m21cadc5045" x="195.384085" y="216.969446" style="fill: #00bfa0; stroke: #00bfa0"/>
    </g>
   </g>
   <g id="line2d_49">
    <g clip-path="url(#p310d71e0bb)">
     <use xlink:href="#m21cadc5045" x="195.384085" y="182.309589" style="fill: #00bfa0; stroke: #00bfa0"/>
    </g>
   </g>
   <g id="line2d_50">
    <path d="M 64.088 346.6 
L 391.392 19.296 
" clip-path="url(#p310d71e0bb)" style="fill: none; stroke-dasharray: 5.55,2.4; stroke-dashoffset: 0; stroke: #808080; stroke-width: 1.5"/>
   </g>
   <g id="line2d_51">
    <path d="M 103.104 196.704 
L 369.216 196.704 
" clip-path="url(#p310d71e0bb)" style="fill: none; stroke-dasharray: 1.85,0.8; stroke-dashoffset: 0; stroke: #808080; stroke-width: 0.5"/>
   </g>
   <g id="line2d_52">
    <path d="M 213.984 307.584 
L 213.984 41.472 
" clip-path="url(#p310d71e0bb)" style="fill: none; stroke-dasharray: 1.85,0.8; stroke-dashoffset: 0; stroke: #808080; stroke-width: 0.5"/>
   </g>
   <g id="line2d_53">
    <defs>
     <path id="m1326baffff" d="M 0 3 
C 0.795609 3 1.55874 2.683901 2.12132 2.12132 
C 2.683901 1.55874 3 0.795609 3 0 
C 3 -0.795609 2.683901 -1.55874 2.12132 -2.12132 
C 1.55874 -2.683901 0.795609 -3 0 -3 
C -0.795609 -3 -1.55874 -2.683901 -2.12132 -2.12132 
C -2.683901 -1.55874 -3 -0.795609 -3 0 
C -3 0.795609 -2.683901 1.55874 -2.12132 2.12132 
C -1.55874 2.683901 -0.795609 3 0 3 
z
" style="stroke: #e60049"/>
    </defs>
    <g clip-path="url(#p310d71e0bb)">
     <use xlink:href="#m1326baffff" x="183.152074" y="215.108781" style="fill: #e60049; stroke: #e60049"/>
    </g>
   </g>
   <g id="line2d_54">
    <defs>
     <path id="m7bc5c19ac9" d="M 0 3 
C 0.795609 3 1.55874 2.683901 2.12132 2.12132 
C 2.683901 1.55874 3 0.795609 3 0 
C 3 -0.795609 2.683901 -1.55874 2.12132 -2.12132 
C 1.55874 -2.683901 0.795609 -3 0 -3 
C -0.795609 -3 -1.55874 -2.683901 -2.12132 -2.12132 
C -2.683901 -1.55874 -3 -0.795609 -3 0 
C -3 0.795609 -2.683901 1.55874 -2.12132 2.12132 
C -1.55874 2.683901 -0.795609 3 0 3 
z
" style="stroke: #0bb4ff"/>
    </defs>
    <g clip-path="url(#p310d71e0bb)">
     <use xlink:href="#m7bc5c19ac9" x="208.077508" y="196.341731" style="fill: #0bb4ff; stroke: #0bb4ff"/>
    </g>
   </g>
   <g id="line2d_55">
    <defs>
     <path id="mca6b6db4e5" d="M 0 3 
C 0.795609 3 1.55874 2.683901 2.12132 2.12132 
C 2.683901 1.55874 3 0.795609 3 0 
C 3 -0.795609 2.683901 -1.55874 2.12132 -2.12132 
C 1.55874 -2.683901 0.795609 -3 0 -3 
C -0.795609 -3 -1.55874 -2.683901 -2.12132 -2.12132 
C -2.683901 -1.55874 -3 -0.795609 -3 0 
C -3 0.795609 -2.683901 1.55874 -2.12132 2.12132 
C -1.55874 2.683901 -0.795609 3 0 3 
z
" style="stroke: #50e991"/>
    </defs>
    <g clip-path="url(#p310d71e0bb)">
     <use xlink:href="#mca6b6db4e5" x="286.565801" y="183.08437" style="fill: #50e991; stroke: #50e991"/>
    </g>
   </g>
   <g id="line2d_56">
    <defs>
     <path id="maae21c4763" d="M 0 3 
C 0.795609 3 1.55874 2.683901 2.12132 2.12132 
C 2.683901 1.55874 3 0.795609 3 0 
C 3 -0.795609 2.683901 -1.55874 2.12132 -2.12132 
C 1.55874 -2.683901 0.795609 -3 0 -3 
C -0.795609 -3 -1.55874 -2.683901 -2.12132 -2.12132 
C -2.683901 -1.55874 -3 -0.795609 -3 0 
C -3 0.795609 -2.683901 1.55874 -2.12132 2.12132 
C -1.55874 2.683901 -0.795609 3 0 3 
z
" style="stroke: #e6d800"/>
    </defs>
    <g clip-path="url(#p310d71e0bb)">
     <use xlink:href="#maae21c4763" x="286.767491" y="181.628417" style="fill: #e6d800; stroke: #e6d800"/>
    </g>
   </g>
   <g id="line2d_57">
    <defs>
     <path id="m26b746df37" d="M 0 3 
C 0.795609 3 1.55874 2.683901 2.12132 2.12132 
C 2.683901 1.55874 3 0.795609 3 0 
C 3 -0.795609 2.683901 -1.55874 2.12132 -2.12132 
C 1.55874 -2.683901 0.795609 -3 0 -3 
C -0.795609 -3 -1.55874 -2.683901 -2.12132 -2.12132 
C -2.683901 -1.55874 -3 -0.795609 -3 0 
C -3 0.795609 -2.683901 1.55874 -2.12132 2.12132 
C -1.55874 2.683901 -0.795609 3 0 3 
z
" style="stroke: #9b19f5"/>
    </defs>
    <g clip-path="url(#p310d71e0bb)">
     <use xlink:href="#m26b746df37" x="305.25749" y="185.275775" style="fill: #9b19f5; stroke: #9b19f5"/>
    </g>
   </g>
   <g id="line2d_58">
    <defs>
     <path id="mbbc0795954" d="M 0 3 
C 0.795609 3 1.55874 2.683901 2.12132 2.12132 
C 2.683901 1.55874 3 0.795609 3 0 
C 3 -0.795609 2.683901 -1.55874 2.12132 -2.12132 
C 1.55874 -2.683901 0.795609 -3 0 -3 
C -0.795609 -3 -1.55874 -2.683901 -2.12132 -2.12132 
C -2.683901 -1.55874 -3 -0.795609 -3 0 
C -3 0.795609 -2.683901 1.55874 -2.12132 2.12132 
C -1.55874 2.683901 -0.795609 3 0 3 
z
" style="stroke: #ffa300"/>
    </defs>
    <g clip-path="url(#p310d71e0bb)">
     <use xlink:href="#mbbc0795954" x="334.172601" y="173.427775" style="fill: #ffa300; stroke: #ffa300"/>
    </g>
   </g>
   <g id="line2d_59">
    <defs>
     <path id="m7f0fbb0d48" d="M 0 3 
C 0.795609 3 1.55874 2.683901 2.12132 2.12132 
C 2.683901 1.55874 3 0.795609 3 0 
C 3 -0.795609 2.683901 -1.55874 2.12132 -2.12132 
C 1.55874 -2.683901 0.795609 -3 0 -3 
C -0.795609 -3 -1.55874 -2.683901 -2.12132 -2.12132 
C -2.683901 -1.55874 -3 -0.795609 -3 0 
C -3 0.795609 -2.683901 1.55874 -2.12132 2.12132 
C -1.55874 2.683901 -0.795609 3 0 3 
z
" style="stroke: #dc0ab4"/>
    </defs>
    <g clip-path="url(#p310d71e0bb)">
     <use xlink:href="#m7f0fbb0d48" x="163.017208" y="233.037364" style="fill: #dc0ab4; stroke: #dc0ab4"/>
    </g>
   </g>
   <g id="line2d_60">
    <defs>
     <path id="m94b19701eb" d="M 0 3 
C 0.795609 3 1.55874 2.683901 2.12132 2.12132 
C 2.683901 1.55874 3 0.795609 3 0 
C 3 -0.795609 2.683901 -1.55874 2.12132 -2.12132 
C 1.55874 -2.683901 0.795609 -3 0 -3 
C -0.795609 -3 -1.55874 -2.683901 -2.12132 -2.12132 
C -2.683901 -1.55874 -3 -0.795609 -3 0 
C -3 0.795609 -2.683901 1.55874 -2.12132 2.12132 
C -1.55874 2.683901 -0.795609 3 0 3 
z
" style="stroke: #b3d4ff"/>
    </defs>
    <g clip-path="url(#p310d71e0bb)">
     <use xlink:href="#m94b19701eb" x="228.222071" y="190.492846" style="fill: #b3d4ff; stroke: #b3d4ff"/>
    </g>
   </g>
   <g id="line2d_61">
    <defs>
     <path id="mb6332a5a6f" d="M 0 3 
C 0.795609 3 1.55874 2.683901 2.12132 2.12132 
C 2.683901 1.55874 3 0.795609 3 0 
C 3 -0.795609 2.683901 -1.55874 2.12132 -2.12132 
C 1.55874 -2.683901 0.795609 -3 0 -3 
C -0.795609 -3 -1.55874 -2.683901 -2.12132 -2.12132 
C -2.683901 -1.55874 -3 -0.795609 -3 0 
C -3 0.795609 -2.683901 1.55874 -2.12132 2.12132 
C -1.55874 2.683901 -0.795609 3 0 3 
z
" style="stroke: #00bfa0"/>
    </defs>
    <g clip-path="url(#p310d71e0bb)">
     <use xlink:href="#mb6332a5a6f" x="195.384085" y="199.639517" style="fill: #00bfa0; stroke: #00bfa0"/>
    </g>
   </g>
   <g id="patch_3">
    <path d="M 103.104 307.584 
L 103.104 41.472 
" style="fill: none; stroke: #000000; stroke-width: 0.8; stroke-linejoin: miter; stroke-linecap: square"/>
   </g>
   <g id="patch_4">
    <path d="M 369.216 307.584 
L 369.216 41.472 
" style="fill: none; stroke: #000000; stroke-width: 0.8; stroke-linejoin: miter; stroke-linecap: square"/>
   </g>
   <g id="patch_5">
    <path d="M 103.104 307.584 
L 369.216 307.584 
" style="fill: none; stroke: #000000; stroke-width: 0.8; stroke-linejoin: miter; stroke-linecap: square"/>
   </g>
   <g id="patch_6">
    <path d="M 103.104 41.472 
L 369.216 41.472 
" style="fill: none; stroke: #000000; stroke-width: 0.8; stroke-linejoin: miter; stroke-linecap: square"/>
   </g>
   <g id="text_15">
    <!-- ∆biomass = 0.27(±0.05)$\times$∆C $-$ 0.03 -->
    <g transform="translate(114.192 63.538187) scale(0.1 -0.1)">
     <defs>
      <path id="DejaVuSans-2206" d="M 2138 3944 
L 831 556 
L 3444 556 
L 2138 3944 
z
M 1791 4603 
L 2491 4603 
L 4300 0 
L -19 0 
L 1791 4603 
z
" transform="scale(0.015625)"/>
      <path id="DejaVuSans-3d" d="M 678 2906 
L 4684 2906 
L 4684 2381 
L 678 2381 
L 678 2906 
z
M 678 1631 
L 4684 1631 
L 4684 1100 
L 678 1100 
L 678 1631 
z
" transform="scale(0.015625)"/>
      <path id="DejaVuSans-37" d="M 525 4666 
L 3525 4666 
L 3525 4397 
L 1831 0 
L 1172 0 
L 2766 4134 
L 525 4134 
L 525 4666 
z
" transform="scale(0.015625)"/>
      <path id="DejaVuSans-28" d="M 1984 4856 
Q 1566 4138 1362 3434 
Q 1159 2731 1159 2009 
Q 1159 1288 1364 580 
Q 1569 -128 1984 -844 
L 1484 -844 
Q 1016 -109 783 600 
Q 550 1309 550 2009 
Q 550 2706 781 3412 
Q 1013 4119 1484 4856 
L 1984 4856 
z
" transform="scale(0.015625)"/>
      <path id="DejaVuSans-b1" d="M 2944 4013 
L 2944 2803 
L 4684 2803 
L 4684 2272 
L 2944 2272 
L 2944 1063 
L 2419 1063 
L 2419 2272 
L 678 2272 
L 678 2803 
L 2419 2803 
L 2419 4013 
L 2944 4013 
z
M 678 531 
L 4684 531 
L 4684 0 
L 678 0 
L 678 531 
z
" transform="scale(0.015625)"/>
      <path id="DejaVuSans-35" d="M 691 4666 
L 3169 4666 
L 3169 4134 
L 1269 4134 
L 1269 2991 
Q 1406 3038 1543 3061 
Q 1681 3084 1819 3084 
Q 2600 3084 3056 2656 
Q 3513 2228 3513 1497 
Q 3513 744 3044 326 
Q 2575 -91 1722 -91 
Q 1428 -91 1123 -41 
Q 819 9 494 109 
L 494 744 
Q 775 591 1075 516 
Q 1375 441 1709 441 
Q 2250 441 2565 725 
Q 2881 1009 2881 1497 
Q 2881 1984 2565 2268 
Q 2250 2553 1709 2553 
Q 1456 2553 1204 2497 
Q 953 2441 691 2322 
L 691 4666 
z
" transform="scale(0.015625)"/>
      <path id="DejaVuSans-29" d="M 513 4856 
L 1013 4856 
Q 1481 4119 1714 3412 
Q 1947 2706 1947 2009 
Q 1947 1309 1714 600 
Q 1481 -109 1013 -844 
L 513 -844 
Q 928 -128 1133 580 
Q 1338 1288 1338 2009 
Q 1338 2731 1133 3434 
Q 928 4138 513 4856 
z
" transform="scale(0.015625)"/>
      <path id="DejaVuSans-d7" d="M 4488 3438 
L 3059 2003 
L 4488 575 
L 4116 197 
L 2681 1631 
L 1247 197 
L 878 575 
L 2303 2003 
L 878 3438 
L 1247 3816 
L 2681 2381 
L 4116 3816 
L 4488 3438 
z
" transform="scale(0.015625)"/>
      <path id="DejaVuSans-33" d="M 2597 2516 
Q 3050 2419 3304 2112 
Q 3559 1806 3559 1356 
Q 3559 666 3084 287 
Q 2609 -91 1734 -91 
Q 1441 -91 1130 -33 
Q 819 25 488 141 
L 488 750 
Q 750 597 1062 519 
Q 1375 441 1716 441 
Q 2309 441 2620 675 
Q 2931 909 2931 1356 
Q 2931 1769 2642 2001 
Q 2353 2234 1838 2234 
L 1294 2234 
L 1294 2753 
L 1863 2753 
Q 2328 2753 2575 2939 
Q 2822 3125 2822 3475 
Q 2822 3834 2567 4026 
Q 2313 4219 1838 4219 
Q 1578 4219 1281 4162 
Q 984 4106 628 3988 
L 628 4550 
Q 988 4650 1302 4700 
Q 1616 4750 1894 4750 
Q 2613 4750 3031 4423 
Q 3450 4097 3450 3541 
Q 3450 3153 3228 2886 
Q 3006 2619 2597 2516 
z
" transform="scale(0.015625)"/>
     </defs>
     <use xlink:href="#DejaVuSans-2206" transform="translate(0 0.015625)"/>
     <use xlink:href="#DejaVuSans-62" transform="translate(66.894531 0.015625)"/>
     <use xlink:href="#DejaVuSans-69" transform="translate(130.371094 0.015625)"/>
     <use xlink:href="#DejaVuSans-6f" transform="translate(158.154297 0.015625)"/>
     <use xlink:href="#DejaVuSans-6d" transform="translate(219.335938 0.015625)"/>
     <use xlink:href="#DejaVuSans-61" transform="translate(316.748047 0.015625)"/>
     <use xlink:href="#DejaVuSans-73" transform="translate(378.027344 0.015625)"/>
     <use xlink:href="#DejaVuSans-73" transform="translate(430.126953 0.015625)"/>
     <use xlink:href="#DejaVuSans-20" transform="translate(482.226562 0.015625)"/>
     <use xlink:href="#DejaVuSans-3d" transform="translate(514.013672 0.015625)"/>
     <use xlink:href="#DejaVuSans-20" transform="translate(597.802734 0.015625)"/>
     <use xlink:href="#DejaVuSans-30" transform="translate(629.589844 0.015625)"/>
     <use xlink:href="#DejaVuSans-2e" transform="translate(693.212891 0.015625)"/>
     <use xlink:href="#DejaVuSans-32" transform="translate(719.5 0.015625)"/>
     <use xlink:href="#DejaVuSans-37" transform="translate(783.123047 0.015625)"/>
     <use xlink:href="#DejaVuSans-28" transform="translate(846.746094 0.015625)"/>
     <use xlink:href="#DejaVuSans-b1" transform="translate(885.759766 0.015625)"/>
     <use xlink:href="#DejaVuSans-30" transform="translate(969.548828 0.015625)"/>
     <use xlink:href="#DejaVuSans-2e" transform="translate(1033.171875 0.015625)"/>
     <use xlink:href="#DejaVuSans-30" transform="translate(1064.958984 0.015625)"/>
     <use xlink:href="#DejaVuSans-35" transform="translate(1128.582031 0.015625)"/>
     <use xlink:href="#DejaVuSans-29" transform="translate(1192.205078 0.015625)"/>
     <use xlink:href="#DejaVuSans-d7" transform="translate(1231.21875 0.015625)"/>
     <use xlink:href="#DejaVuSans-2206" transform="translate(1315.007812 0.015625)"/>
     <use xlink:href="#DejaVuSans-43" transform="translate(1381.902344 0.015625)"/>
     <use xlink:href="#DejaVuSans-20" transform="translate(1451.726562 0.015625)"/>
     <use xlink:href="#DejaVuSans-2212" transform="translate(1483.513672 0.015625)"/>
     <use xlink:href="#DejaVuSans-20" transform="translate(1567.302734 0.015625)"/>
     <use xlink:href="#DejaVuSans-30" transform="translate(1599.089844 0.015625)"/>
     <use xlink:href="#DejaVuSans-2e" transform="translate(1662.712891 0.015625)"/>
     <use xlink:href="#DejaVuSans-30" transform="translate(1694.5 0.015625)"/>
     <use xlink:href="#DejaVuSans-33" transform="translate(1758.123047 0.015625)"/>
    </g>
    <!-- $R^2$=0.8 -->
    <g transform="translate(114.192 74.736) scale(0.1 -0.1)">
     <defs>
      <path id="DejaVuSans-Oblique-52" d="M 1613 4147 
L 1294 2491 
L 2106 2491 
Q 2584 2491 2879 2755 
Q 3175 3019 3175 3444 
Q 3175 3784 2976 3965 
Q 2778 4147 2406 4147 
L 1613 4147 
z
M 2772 2241 
Q 2972 2194 3105 2009 
Q 3238 1825 3413 1275 
L 3809 0 
L 3144 0 
L 2778 1197 
Q 2638 1659 2453 1815 
Q 2269 1972 1888 1972 
L 1191 1972 
L 806 0 
L 172 0 
L 1081 4666 
L 2503 4666 
Q 3150 4666 3495 4373 
Q 3841 4081 3841 3531 
Q 3841 3044 3547 2687 
Q 3253 2331 2772 2241 
z
" transform="scale(0.015625)"/>
      <path id="DejaVuSans-38" d="M 2034 2216 
Q 1584 2216 1326 1975 
Q 1069 1734 1069 1313 
Q 1069 891 1326 650 
Q 1584 409 2034 409 
Q 2484 409 2743 651 
Q 3003 894 3003 1313 
Q 3003 1734 2745 1975 
Q 2488 2216 2034 2216 
z
M 1403 2484 
Q 997 2584 770 2862 
Q 544 3141 544 3541 
Q 544 4100 942 4425 
Q 1341 4750 2034 4750 
Q 2731 4750 3128 4425 
Q 3525 4100 3525 3541 
Q 3525 3141 3298 2862 
Q 3072 2584 2669 2484 
Q 3125 2378 3379 2068 
Q 3634 1759 3634 1313 
Q 3634 634 3220 271 
Q 2806 -91 2034 -91 
Q 1263 -91 848 271 
Q 434 634 434 1313 
Q 434 1759 690 2068 
Q 947 2378 1403 2484 
z
M 1172 3481 
Q 1172 3119 1398 2916 
Q 1625 2713 2034 2713 
Q 2441 2713 2670 2916 
Q 2900 3119 2900 3481 
Q 2900 3844 2670 4047 
Q 2441 4250 2034 4250 
Q 1625 4250 1398 4047 
Q 1172 3844 1172 3481 
z
" transform="scale(0.015625)"/>
     </defs>
     <use xlink:href="#DejaVuSans-Oblique-52" transform="translate(0 0.765625)"/>
     <use xlink:href="#DejaVuSans-32" transform="translate(76.499193 39.046875) scale(0.7)"/>
     <use xlink:href="#DejaVuSans-3d" transform="translate(123.769701 0.765625)"/>
     <use xlink:href="#DejaVuSans-30" transform="translate(207.558763 0.765625)"/>
     <use xlink:href="#DejaVuSans-2e" transform="translate(271.18181 0.765625)"/>
     <use xlink:href="#DejaVuSans-38" transform="translate(300.343919 0.765625)"/>
    </g>
   </g>
   <g id="legend_1">
    <g id="patch_7">
     <path d="M 384.5216 176.575125 
L 491.129413 176.575125 
Q 493.129413 176.575125 493.129413 174.575125 
L 493.129413 43.472 
Q 493.129413 41.472 491.129413 41.472 
L 384.5216 41.472 
Q 382.5216 41.472 382.5216 43.472 
L 382.5216 174.575125 
Q 382.5216 176.575125 384.5216 176.575125 
z
" style="fill: #ffffff; opacity: 0.8; stroke: #cccccc; stroke-linejoin: miter"/>
    </g>
    <g id="LineCollection_19">
     <path d="M 391.5216 49.570438 
L 401.5216 49.570438 
" style="fill: none; stroke: #e60049; stroke-width: 1.5"/>
    </g>
    <g id="LineCollection_20">
     <path d="M 396.5216 54.570438 
L 396.5216 44.570438 
" style="fill: none; stroke: #e60049; stroke-width: 1.5"/>
    </g>
    <g id="line2d_62">
     <g>
      <use xlink:href="#mf23f60e0f9" x="391.5216" y="49.570438" style="fill: #e60049; stroke: #e60049"/>
     </g>
    </g>
    <g id="line2d_63">
     <g>
      <use xlink:href="#mf23f60e0f9" x="401.5216" y="49.570438" style="fill: #e60049; stroke: #e60049"/>
     </g>
    </g>
    <g id="line2d_64">
     <g>
      <use xlink:href="#ma1c623b31d" x="396.5216" y="54.570438" style="fill: #e60049; stroke: #e60049"/>
     </g>
    </g>
    <g id="line2d_65">
     <g>
      <use xlink:href="#ma1c623b31d" x="396.5216" y="44.570438" style="fill: #e60049; stroke: #e60049"/>
     </g>
    </g>
    <g id="line2d_66"/>
    <g id="line2d_67">
     <g>
      <use xlink:href="#m1326baffff" x="396.5216" y="49.570438" style="fill: #e60049; stroke: #e60049"/>
     </g>
    </g>
    <g id="text_16">
     <!-- Africa -->
     <g transform="translate(414.5216 53.070438) scale(0.1 -0.1)">
      <defs>
       <path id="DejaVuSans-41" d="M 2188 4044 
L 1331 1722 
L 3047 1722 
L 2188 4044 
z
M 1831 4666 
L 2547 4666 
L 4325 0 
L 3669 0 
L 3244 1197 
L 1141 1197 
L 716 0 
L 50 0 
L 1831 4666 
z
" transform="scale(0.015625)"/>
       <path id="DejaVuSans-66" d="M 2375 4863 
L 2375 4384 
L 1825 4384 
Q 1516 4384 1395 4259 
Q 1275 4134 1275 3809 
L 1275 3500 
L 2222 3500 
L 2222 3053 
L 1275 3053 
L 1275 0 
L 697 0 
L 697 3053 
L 147 3053 
L 147 3500 
L 697 3500 
L 697 3744 
Q 697 4328 969 4595 
Q 1241 4863 1831 4863 
L 2375 4863 
z
" transform="scale(0.015625)"/>
      </defs>
      <use xlink:href="#DejaVuSans-41"/>
      <use xlink:href="#DejaVuSans-66" x="64.783203"/>
      <use xlink:href="#DejaVuSans-72" x="99.988281"/>
      <use xlink:href="#DejaVuSans-69" x="141.101562"/>
      <use xlink:href="#DejaVuSans-63" x="168.884766"/>
      <use xlink:href="#DejaVuSans-61" x="223.865234"/>
     </g>
    </g>
    <g id="LineCollection_21">
     <path d="M 391.5216 64.248563 
L 401.5216 64.248563 
" style="fill: none; stroke: #0bb4ff; stroke-width: 1.5"/>
    </g>
    <g id="LineCollection_22">
     <path d="M 396.5216 69.248563 
L 396.5216 59.248563 
" style="fill: none; stroke: #0bb4ff; stroke-width: 1.5"/>
    </g>
    <g id="line2d_68">
     <g>
      <use xlink:href="#m0d099243ab" x="391.5216" y="64.248563" style="fill: #0bb4ff; stroke: #0bb4ff"/>
     </g>
    </g>
    <g id="line2d_69">
     <g>
      <use xlink:href="#m0d099243ab" x="401.5216" y="64.248563" style="fill: #0bb4ff; stroke: #0bb4ff"/>
     </g>
    </g>
    <g id="line2d_70">
     <g>
      <use xlink:href="#mcfff0a6f2b" x="396.5216" y="69.248563" style="fill: #0bb4ff; stroke: #0bb4ff"/>
     </g>
    </g>
    <g id="line2d_71">
     <g>
      <use xlink:href="#mcfff0a6f2b" x="396.5216" y="59.248563" style="fill: #0bb4ff; stroke: #0bb4ff"/>
     </g>
    </g>
    <g id="line2d_72"/>
    <g id="line2d_73">
     <g>
      <use xlink:href="#m7bc5c19ac9" x="396.5216" y="64.248563" style="fill: #0bb4ff; stroke: #0bb4ff"/>
     </g>
    </g>
    <g id="text_17">
     <!-- Australia -->
     <g transform="translate(414.5216 67.748563) scale(0.1 -0.1)">
      <use xlink:href="#DejaVuSans-41"/>
      <use xlink:href="#DejaVuSans-75" x="68.408203"/>
      <use xlink:href="#DejaVuSans-73" x="131.787109"/>
      <use xlink:href="#DejaVuSans-74" x="183.886719"/>
      <use xlink:href="#DejaVuSans-72" x="223.095703"/>
      <use xlink:href="#DejaVuSans-61" x="264.208984"/>
      <use xlink:href="#DejaVuSans-6c" x="325.488281"/>
      <use xlink:href="#DejaVuSans-69" x="353.271484"/>
      <use xlink:href="#DejaVuSans-61" x="381.054688"/>
     </g>
    </g>
    <g id="LineCollection_23">
     <path d="M 391.5216 78.926688 
L 401.5216 78.926688 
" style="fill: none; stroke: #50e991; stroke-width: 1.5"/>
    </g>
    <g id="LineCollection_24">
     <path d="M 396.5216 83.926688 
L 396.5216 73.926688 
" style="fill: none; stroke: #50e991; stroke-width: 1.5"/>
    </g>
    <g id="line2d_74">
     <g>
      <use xlink:href="#mc7e3e802bf" x="391.5216" y="78.926688" style="fill: #50e991; stroke: #50e991"/>
     </g>
    </g>
    <g id="line2d_75">
     <g>
      <use xlink:href="#mc7e3e802bf" x="401.5216" y="78.926688" style="fill: #50e991; stroke: #50e991"/>
     </g>
    </g>
    <g id="line2d_76">
     <g>
      <use xlink:href="#m496af80a91" x="396.5216" y="83.926688" style="fill: #50e991; stroke: #50e991"/>
     </g>
    </g>
    <g id="line2d_77">
     <g>
      <use xlink:href="#m496af80a91" x="396.5216" y="73.926688" style="fill: #50e991; stroke: #50e991"/>
     </g>
    </g>
    <g id="line2d_78"/>
    <g id="line2d_79">
     <g>
      <use xlink:href="#mca6b6db4e5" x="396.5216" y="78.926688" style="fill: #50e991; stroke: #50e991"/>
     </g>
    </g>
    <g id="text_18">
     <!-- East Asia -->
     <g transform="translate(414.5216 82.426688) scale(0.1 -0.1)">
      <defs>
       <path id="DejaVuSans-45" d="M 628 4666 
L 3578 4666 
L 3578 4134 
L 1259 4134 
L 1259 2753 
L 3481 2753 
L 3481 2222 
L 1259 2222 
L 1259 531 
L 3634 531 
L 3634 0 
L 628 0 
L 628 4666 
z
" transform="scale(0.015625)"/>
      </defs>
      <use xlink:href="#DejaVuSans-45"/>
      <use xlink:href="#DejaVuSans-61" x="63.183594"/>
      <use xlink:href="#DejaVuSans-73" x="124.462891"/>
      <use xlink:href="#DejaVuSans-74" x="176.5625"/>
      <use xlink:href="#DejaVuSans-20" x="215.771484"/>
      <use xlink:href="#DejaVuSans-41" x="247.558594"/>
      <use xlink:href="#DejaVuSans-73" x="315.966797"/>
      <use xlink:href="#DejaVuSans-69" x="368.066406"/>
      <use xlink:href="#DejaVuSans-61" x="395.849609"/>
     </g>
    </g>
    <g id="LineCollection_25">
     <path d="M 391.5216 93.604813 
L 401.5216 93.604813 
" style="fill: none; stroke: #e6d800; stroke-width: 1.5"/>
    </g>
    <g id="LineCollection_26">
     <path d="M 396.5216 98.604813 
L 396.5216 88.604813 
" style="fill: none; stroke: #e6d800; stroke-width: 1.5"/>
    </g>
    <g id="line2d_80">
     <g>
      <use xlink:href="#mb07a82d2b0" x="391.5216" y="93.604813" style="fill: #e6d800; stroke: #e6d800"/>
     </g>
    </g>
    <g id="line2d_81">
     <g>
      <use xlink:href="#mb07a82d2b0" x="401.5216" y="93.604813" style="fill: #e6d800; stroke: #e6d800"/>
     </g>
    </g>
    <g id="line2d_82">
     <g>
      <use xlink:href="#m730140af07" x="396.5216" y="98.604813" style="fill: #e6d800; stroke: #e6d800"/>
     </g>
    </g>
    <g id="line2d_83">
     <g>
      <use xlink:href="#m730140af07" x="396.5216" y="88.604813" style="fill: #e6d800; stroke: #e6d800"/>
     </g>
    </g>
    <g id="line2d_84"/>
    <g id="line2d_85">
     <g>
      <use xlink:href="#maae21c4763" x="396.5216" y="93.604813" style="fill: #e6d800; stroke: #e6d800"/>
     </g>
    </g>
    <g id="text_19">
     <!-- Europe -->
     <g transform="translate(414.5216 97.104813) scale(0.1 -0.1)">
      <defs>
       <path id="DejaVuSans-70" d="M 1159 525 
L 1159 -1331 
L 581 -1331 
L 581 3500 
L 1159 3500 
L 1159 2969 
Q 1341 3281 1617 3432 
Q 1894 3584 2278 3584 
Q 2916 3584 3314 3078 
Q 3713 2572 3713 1747 
Q 3713 922 3314 415 
Q 2916 -91 2278 -91 
Q 1894 -91 1617 61 
Q 1341 213 1159 525 
z
M 3116 1747 
Q 3116 2381 2855 2742 
Q 2594 3103 2138 3103 
Q 1681 3103 1420 2742 
Q 1159 2381 1159 1747 
Q 1159 1113 1420 752 
Q 1681 391 2138 391 
Q 2594 391 2855 752 
Q 3116 1113 3116 1747 
z
" transform="scale(0.015625)"/>
      </defs>
      <use xlink:href="#DejaVuSans-45"/>
      <use xlink:href="#DejaVuSans-75" x="63.183594"/>
      <use xlink:href="#DejaVuSans-72" x="126.5625"/>
      <use xlink:href="#DejaVuSans-6f" x="165.425781"/>
      <use xlink:href="#DejaVuSans-70" x="226.607422"/>
      <use xlink:href="#DejaVuSans-65" x="290.083984"/>
     </g>
    </g>
    <g id="LineCollection_27">
     <path d="M 391.5216 108.282938 
L 401.5216 108.282938 
" style="fill: none; stroke: #9b19f5; stroke-width: 1.5"/>
    </g>
    <g id="LineCollection_28">
     <path d="M 396.5216 113.282938 
L 396.5216 103.282938 
" style="fill: none; stroke: #9b19f5; stroke-width: 1.5"/>
    </g>
    <g id="line2d_86">
     <g>
      <use xlink:href="#m56fd5a7e5f" x="391.5216" y="108.282938" style="fill: #9b19f5; stroke: #9b19f5"/>
     </g>
    </g>
    <g id="line2d_87">
     <g>
      <use xlink:href="#m56fd5a7e5f" x="401.5216" y="108.282938" style="fill: #9b19f5; stroke: #9b19f5"/>
     </g>
    </g>
    <g id="line2d_88">
     <g>
      <use xlink:href="#m0cdc5b1cfe" x="396.5216" y="113.282938" style="fill: #9b19f5; stroke: #9b19f5"/>
     </g>
    </g>
    <g id="line2d_89">
     <g>
      <use xlink:href="#m0cdc5b1cfe" x="396.5216" y="103.282938" style="fill: #9b19f5; stroke: #9b19f5"/>
     </g>
    </g>
    <g id="line2d_90"/>
    <g id="line2d_91">
     <g>
      <use xlink:href="#m26b746df37" x="396.5216" y="108.282938" style="fill: #9b19f5; stroke: #9b19f5"/>
     </g>
    </g>
    <g id="text_20">
     <!-- North America -->
     <g transform="translate(414.5216 111.782938) scale(0.1 -0.1)">
      <defs>
       <path id="DejaVuSans-4e" d="M 628 4666 
L 1478 4666 
L 3547 763 
L 3547 4666 
L 4159 4666 
L 4159 0 
L 3309 0 
L 1241 3903 
L 1241 0 
L 628 0 
L 628 4666 
z
" transform="scale(0.015625)"/>
      </defs>
      <use xlink:href="#DejaVuSans-4e"/>
      <use xlink:href="#DejaVuSans-6f" x="74.804688"/>
      <use xlink:href="#DejaVuSans-72" x="135.986328"/>
      <use xlink:href="#DejaVuSans-74" x="177.099609"/>
      <use xlink:href="#DejaVuSans-68" x="216.308594"/>
      <use xlink:href="#DejaVuSans-20" x="279.6875"/>
      <use xlink:href="#DejaVuSans-41" x="311.474609"/>
      <use xlink:href="#DejaVuSans-6d" x="379.882812"/>
      <use xlink:href="#DejaVuSans-65" x="477.294922"/>
      <use xlink:href="#DejaVuSans-72" x="538.818359"/>
      <use xlink:href="#DejaVuSans-69" x="579.931641"/>
      <use xlink:href="#DejaVuSans-63" x="607.714844"/>
      <use xlink:href="#DejaVuSans-61" x="662.695312"/>
     </g>
    </g>
    <g id="LineCollection_29">
     <path d="M 391.5216 122.961063 
L 401.5216 122.961063 
" style="fill: none; stroke: #ffa300; stroke-width: 1.5"/>
    </g>
    <g id="LineCollection_30">
     <path d="M 396.5216 127.961063 
L 396.5216 117.961063 
" style="fill: none; stroke: #ffa300; stroke-width: 1.5"/>
    </g>
    <g id="line2d_92">
     <g>
      <use xlink:href="#m9535439e78" x="391.5216" y="122.961063" style="fill: #ffa300; stroke: #ffa300"/>
     </g>
    </g>
    <g id="line2d_93">
     <g>
      <use xlink:href="#m9535439e78" x="401.5216" y="122.961063" style="fill: #ffa300; stroke: #ffa300"/>
     </g>
    </g>
    <g id="line2d_94">
     <g>
      <use xlink:href="#m4dcdd85ff4" x="396.5216" y="127.961063" style="fill: #ffa300; stroke: #ffa300"/>
     </g>
    </g>
    <g id="line2d_95">
     <g>
      <use xlink:href="#m4dcdd85ff4" x="396.5216" y="117.961063" style="fill: #ffa300; stroke: #ffa300"/>
     </g>
    </g>
    <g id="line2d_96"/>
    <g id="line2d_97">
     <g>
      <use xlink:href="#mbbc0795954" x="396.5216" y="122.961063" style="fill: #ffa300; stroke: #ffa300"/>
     </g>
    </g>
    <g id="text_21">
     <!-- Russia -->
     <g transform="translate(414.5216 126.461063) scale(0.1 -0.1)">
      <defs>
       <path id="DejaVuSans-52" d="M 2841 2188 
Q 3044 2119 3236 1894 
Q 3428 1669 3622 1275 
L 4263 0 
L 3584 0 
L 2988 1197 
Q 2756 1666 2539 1819 
Q 2322 1972 1947 1972 
L 1259 1972 
L 1259 0 
L 628 0 
L 628 4666 
L 2053 4666 
Q 2853 4666 3247 4331 
Q 3641 3997 3641 3322 
Q 3641 2881 3436 2590 
Q 3231 2300 2841 2188 
z
M 1259 4147 
L 1259 2491 
L 2053 2491 
Q 2509 2491 2742 2702 
Q 2975 2913 2975 3322 
Q 2975 3731 2742 3939 
Q 2509 4147 2053 4147 
L 1259 4147 
z
" transform="scale(0.015625)"/>
      </defs>
      <use xlink:href="#DejaVuSans-52"/>
      <use xlink:href="#DejaVuSans-75" x="64.982422"/>
      <use xlink:href="#DejaVuSans-73" x="128.361328"/>
      <use xlink:href="#DejaVuSans-73" x="180.460938"/>
      <use xlink:href="#DejaVuSans-69" x="232.560547"/>
      <use xlink:href="#DejaVuSans-61" x="260.34375"/>
     </g>
    </g>
    <g id="LineCollection_31">
     <path d="M 391.5216 137.639188 
L 401.5216 137.639188 
" style="fill: none; stroke: #dc0ab4; stroke-width: 1.5"/>
    </g>
    <g id="LineCollection_32">
     <path d="M 396.5216 142.639188 
L 396.5216 132.639188 
" style="fill: none; stroke: #dc0ab4; stroke-width: 1.5"/>
    </g>
    <g id="line2d_98">
     <g>
      <use xlink:href="#m6b0275cd59" x="391.5216" y="137.639188" style="fill: #dc0ab4; stroke: #dc0ab4"/>
     </g>
    </g>
    <g id="line2d_99">
     <g>
      <use xlink:href="#m6b0275cd59" x="401.5216" y="137.639188" style="fill: #dc0ab4; stroke: #dc0ab4"/>
     </g>
    </g>
    <g id="line2d_100">
     <g>
      <use xlink:href="#mc997267aa9" x="396.5216" y="142.639188" style="fill: #dc0ab4; stroke: #dc0ab4"/>
     </g>
    </g>
    <g id="line2d_101">
     <g>
      <use xlink:href="#mc997267aa9" x="396.5216" y="132.639188" style="fill: #dc0ab4; stroke: #dc0ab4"/>
     </g>
    </g>
    <g id="line2d_102"/>
    <g id="line2d_103">
     <g>
      <use xlink:href="#m7f0fbb0d48" x="396.5216" y="137.639188" style="fill: #dc0ab4; stroke: #dc0ab4"/>
     </g>
    </g>
    <g id="text_22">
     <!-- South America -->
     <g transform="translate(414.5216 141.139188) scale(0.1 -0.1)">
      <defs>
       <path id="DejaVuSans-53" d="M 3425 4513 
L 3425 3897 
Q 3066 4069 2747 4153 
Q 2428 4238 2131 4238 
Q 1616 4238 1336 4038 
Q 1056 3838 1056 3469 
Q 1056 3159 1242 3001 
Q 1428 2844 1947 2747 
L 2328 2669 
Q 3034 2534 3370 2195 
Q 3706 1856 3706 1288 
Q 3706 609 3251 259 
Q 2797 -91 1919 -91 
Q 1588 -91 1214 -16 
Q 841 59 441 206 
L 441 856 
Q 825 641 1194 531 
Q 1563 422 1919 422 
Q 2459 422 2753 634 
Q 3047 847 3047 1241 
Q 3047 1584 2836 1778 
Q 2625 1972 2144 2069 
L 1759 2144 
Q 1053 2284 737 2584 
Q 422 2884 422 3419 
Q 422 4038 858 4394 
Q 1294 4750 2059 4750 
Q 2388 4750 2728 4690 
Q 3069 4631 3425 4513 
z
" transform="scale(0.015625)"/>
      </defs>
      <use xlink:href="#DejaVuSans-53"/>
      <use xlink:href="#DejaVuSans-6f" x="63.476562"/>
      <use xlink:href="#DejaVuSans-75" x="124.658203"/>
      <use xlink:href="#DejaVuSans-74" x="188.037109"/>
      <use xlink:href="#DejaVuSans-68" x="227.246094"/>
      <use xlink:href="#DejaVuSans-20" x="290.625"/>
      <use xlink:href="#DejaVuSans-41" x="322.412109"/>
      <use xlink:href="#DejaVuSans-6d" x="390.820312"/>
      <use xlink:href="#DejaVuSans-65" x="488.232422"/>
      <use xlink:href="#DejaVuSans-72" x="549.755859"/>
      <use xlink:href="#DejaVuSans-69" x="590.869141"/>
      <use xlink:href="#DejaVuSans-63" x="618.652344"/>
      <use xlink:href="#DejaVuSans-61" x="673.632812"/>
     </g>
    </g>
    <g id="LineCollection_33">
     <path d="M 391.5216 152.317313 
L 401.5216 152.317313 
" style="fill: none; stroke: #b3d4ff; stroke-width: 1.5"/>
    </g>
    <g id="LineCollection_34">
     <path d="M 396.5216 157.317313 
L 396.5216 147.317313 
" style="fill: none; stroke: #b3d4ff; stroke-width: 1.5"/>
    </g>
    <g id="line2d_104">
     <g>
      <use xlink:href="#mb991305375" x="391.5216" y="152.317313" style="fill: #b3d4ff; stroke: #b3d4ff"/>
     </g>
    </g>
    <g id="line2d_105">
     <g>
      <use xlink:href="#mb991305375" x="401.5216" y="152.317313" style="fill: #b3d4ff; stroke: #b3d4ff"/>
     </g>
    </g>
    <g id="line2d_106">
     <g>
      <use xlink:href="#m06ecaabc91" x="396.5216" y="157.317313" style="fill: #b3d4ff; stroke: #b3d4ff"/>
     </g>
    </g>
    <g id="line2d_107">
     <g>
      <use xlink:href="#m06ecaabc91" x="396.5216" y="147.317313" style="fill: #b3d4ff; stroke: #b3d4ff"/>
     </g>
    </g>
    <g id="line2d_108"/>
    <g id="line2d_109">
     <g>
      <use xlink:href="#m94b19701eb" x="396.5216" y="152.317313" style="fill: #b3d4ff; stroke: #b3d4ff"/>
     </g>
    </g>
    <g id="text_23">
     <!-- South Asia -->
     <g transform="translate(414.5216 155.817313) scale(0.1 -0.1)">
      <use xlink:href="#DejaVuSans-53"/>
      <use xlink:href="#DejaVuSans-6f" x="63.476562"/>
      <use xlink:href="#DejaVuSans-75" x="124.658203"/>
      <use xlink:href="#DejaVuSans-74" x="188.037109"/>
      <use xlink:href="#DejaVuSans-68" x="227.246094"/>
      <use xlink:href="#DejaVuSans-20" x="290.625"/>
      <use xlink:href="#DejaVuSans-41" x="322.412109"/>
      <use xlink:href="#DejaVuSans-73" x="390.820312"/>
      <use xlink:href="#DejaVuSans-69" x="442.919922"/>
      <use xlink:href="#DejaVuSans-61" x="470.703125"/>
     </g>
    </g>
    <g id="LineCollection_35">
     <path d="M 391.5216 166.995438 
L 401.5216 166.995438 
" style="fill: none; stroke: #00bfa0; stroke-width: 1.5"/>
    </g>
    <g id="LineCollection_36">
     <path d="M 396.5216 171.995438 
L 396.5216 161.995438 
" style="fill: none; stroke: #00bfa0; stroke-width: 1.5"/>
    </g>
    <g id="line2d_110">
     <g>
      <use xlink:href="#mf479cfd107" x="391.5216" y="166.995438" style="fill: #00bfa0; stroke: #00bfa0"/>
     </g>
    </g>
    <g id="line2d_111">
     <g>
      <use xlink:href="#mf479cfd107" x="401.5216" y="166.995438" style="fill: #00bfa0; stroke: #00bfa0"/>
     </g>
    </g>
    <g id="line2d_112">
     <g>
      <use xlink:href="#m21cadc5045" x="396.5216" y="171.995438" style="fill: #00bfa0; stroke: #00bfa0"/>
     </g>
    </g>
    <g id="line2d_113">
     <g>
      <use xlink:href="#m21cadc5045" x="396.5216" y="161.995438" style="fill: #00bfa0; stroke: #00bfa0"/>
     </g>
    </g>
    <g id="line2d_114"/>
    <g id="line2d_115">
     <g>
      <use xlink:href="#mb6332a5a6f" x="396.5216" y="166.995438" style="fill: #00bfa0; stroke: #00bfa0"/>
     </g>
    </g>
    <g id="text_24">
     <!-- Southeast Asia -->
     <g transform="translate(414.5216 170.495438) scale(0.1 -0.1)">
      <use xlink:href="#DejaVuSans-53"/>
      <use xlink:href="#DejaVuSans-6f" x="63.476562"/>
      <use xlink:href="#DejaVuSans-75" x="124.658203"/>
      <use xlink:href="#DejaVuSans-74" x="188.037109"/>
      <use xlink:href="#DejaVuSans-68" x="227.246094"/>
      <use xlink:href="#DejaVuSans-65" x="290.625"/>
      <use xlink:href="#DejaVuSans-61" x="352.148438"/>
      <use xlink:href="#DejaVuSans-73" x="413.427734"/>
      <use xlink:href="#DejaVuSans-74" x="465.527344"/>
      <use xlink:href="#DejaVuSans-20" x="504.736328"/>
      <use xlink:href="#DejaVuSans-41" x="536.523438"/>
      <use xlink:href="#DejaVuSans-73" x="604.931641"/>
      <use xlink:href="#DejaVuSans-69" x="657.03125"/>
      <use xlink:href="#DejaVuSans-61" x="684.814453"/>
     </g>
    </g>
   </g>
  </g>
 </g>
 <defs>
  <clipPath id="p310d71e0bb">
   <rect x="103.104" y="41.472" width="266.112" height="266.112"/>
  </clipPath>
 </defs>
</svg>
