<?xml version="1.0" encoding="utf-8" standalone="no"?>
<!DOCTYPE svg PUBLIC "-//W3C//DTD SVG 1.1//EN"
  "http://www.w3.org/Graphics/SVG/1.1/DTD/svg11.dtd">
<svg xmlns:xlink="http://www.w3.org/1999/xlink" width="170.07874pt" height="170.07874pt" viewBox="0 0 170.07874 170.07874" xmlns="http://www.w3.org/2000/svg" version="1.1">
 <metadata>
  <rdf:RDF xmlns:dc="http://purl.org/dc/elements/1.1/" xmlns:cc="http://creativecommons.org/ns#" xmlns:rdf="http://www.w3.org/1999/02/22-rdf-syntax-ns#">
   <cc:Work>
    <dc:type rdf:resource="http://purl.org/dc/dcmitype/StillImage"/>
    <dc:date>2024-06-28T21:48:13.586590</dc:date>
    <dc:format>image/svg+xml</dc:format>
    <dc:creator>
     <cc:Agent>
      <dc:title>Matplotlib v3.9.0, https://matplotlib.org/</dc:title>
     </cc:Agent>
    </dc:creator>
   </cc:Work>
  </rdf:RDF>
 </metadata>
 <defs>
  <style type="text/css">*{stroke-linejoin: round; stroke-linecap: butt}</style>
 </defs>
 <g id="figure_1">
  <g id="patch_1">
   <path d="M 0 170.07874 
L 170.07874 170.07874 
L 170.07874 0 
L 0 0 
z
" style="fill: #ffffff"/>
  </g>
  <g id="axes_1">
   <g id="patch_2">
    <path d="M 21.259843 151.370079 
L 153.070866 151.370079 
L 153.070866 20.409449 
L 21.259843 20.409449 
z
" style="fill: #ffffff"/>
   </g>
   <g id="matplotlib.axis_1">
    <g id="xtick_1">
     <g id="line2d_1">
      <defs>
       <path id="mb4fc9a64f1" d="M 0 0 
L 0 3.5 
" style="stroke: #000000; stroke-width: 0.8"/>
      </defs>
      <g>
       <use xlink:href="#mb4fc9a64f1" x="42.072109" y="151.370079" style="stroke: #000000; stroke-width: 0.8"/>
      </g>
     </g>
     <g id="text_1">
      <!-- 1995 -->
      <g transform="translate(33.164609 163.688985) scale(0.07 -0.07)">
       <defs>
        <path id="DejaVuSans-31" d="M 794 531 
L 1825 531 
L 1825 4091 
L 703 3866 
L 703 4441 
L 1819 4666 
L 2450 4666 
L 2450 531 
L 3481 531 
L 3481 0 
L 794 0 
L 794 531 
z
" transform="scale(0.015625)"/>
        <path id="DejaVuSans-39" d="M 703 97 
L 703 672 
Q 941 559 1184 500 
Q 1428 441 1663 441 
Q 2288 441 2617 861 
Q 2947 1281 2994 2138 
Q 2813 1869 2534 1725 
Q 2256 1581 1919 1581 
Q 1219 1581 811 2004 
Q 403 2428 403 3163 
Q 403 3881 828 4315 
Q 1253 4750 1959 4750 
Q 2769 4750 3195 4129 
Q 3622 3509 3622 2328 
Q 3622 1225 3098 567 
Q 2575 -91 1691 -91 
Q 1453 -91 1209 -44 
Q 966 3 703 97 
z
M 1959 2075 
Q 2384 2075 2632 2365 
Q 2881 2656 2881 3163 
Q 2881 3666 2632 3958 
Q 2384 4250 1959 4250 
Q 1534 4250 1286 3958 
Q 1038 3666 1038 3163 
Q 1038 2656 1286 2365 
Q 1534 2075 1959 2075 
z
" transform="scale(0.015625)"/>
        <path id="DejaVuSans-35" d="M 691 4666 
L 3169 4666 
L 3169 4134 
L 1269 4134 
L 1269 2991 
Q 1406 3038 1543 3061 
Q 1681 3084 1819 3084 
Q 2600 3084 3056 2656 
Q 3513 2228 3513 1497 
Q 3513 744 3044 326 
Q 2575 -91 1722 -91 
Q 1428 -91 1123 -41 
Q 819 9 494 109 
L 494 744 
Q 775 591 1075 516 
Q 1375 441 1709 441 
Q 2250 441 2565 725 
Q 2881 1009 2881 1497 
Q 2881 1984 2565 2268 
Q 2250 2553 1709 2553 
Q 1456 2553 1204 2497 
Q 953 2441 691 2322 
L 691 4666 
z
" transform="scale(0.015625)"/>
       </defs>
       <use xlink:href="#DejaVuSans-31"/>
       <use xlink:href="#DejaVuSans-39" x="63.623047"/>
       <use xlink:href="#DejaVuSans-39" x="127.246094"/>
       <use xlink:href="#DejaVuSans-35" x="190.869141"/>
      </g>
     </g>
    </g>
    <g id="xtick_2">
     <g id="line2d_2">
      <g>
       <use xlink:href="#mb4fc9a64f1" x="76.759221" y="151.370079" style="stroke: #000000; stroke-width: 0.8"/>
      </g>
     </g>
     <g id="text_2">
      <!-- 2000 -->
      <g transform="translate(67.851721 163.688985) scale(0.07 -0.07)">
       <defs>
        <path id="DejaVuSans-32" d="M 1228 531 
L 3431 531 
L 3431 0 
L 469 0 
L 469 531 
Q 828 903 1448 1529 
Q 2069 2156 2228 2338 
Q 2531 2678 2651 2914 
Q 2772 3150 2772 3378 
Q 2772 3750 2511 3984 
Q 2250 4219 1831 4219 
Q 1534 4219 1204 4116 
Q 875 4013 500 3803 
L 500 4441 
Q 881 4594 1212 4672 
Q 1544 4750 1819 4750 
Q 2544 4750 2975 4387 
Q 3406 4025 3406 3419 
Q 3406 3131 3298 2873 
Q 3191 2616 2906 2266 
Q 2828 2175 2409 1742 
Q 1991 1309 1228 531 
z
" transform="scale(0.015625)"/>
        <path id="DejaVuSans-30" d="M 2034 4250 
Q 1547 4250 1301 3770 
Q 1056 3291 1056 2328 
Q 1056 1369 1301 889 
Q 1547 409 2034 409 
Q 2525 409 2770 889 
Q 3016 1369 3016 2328 
Q 3016 3291 2770 3770 
Q 2525 4250 2034 4250 
z
M 2034 4750 
Q 2819 4750 3233 4129 
Q 3647 3509 3647 2328 
Q 3647 1150 3233 529 
Q 2819 -91 2034 -91 
Q 1250 -91 836 529 
Q 422 1150 422 2328 
Q 422 3509 836 4129 
Q 1250 4750 2034 4750 
z
" transform="scale(0.015625)"/>
       </defs>
       <use xlink:href="#DejaVuSans-32"/>
       <use xlink:href="#DejaVuSans-30" x="63.623047"/>
       <use xlink:href="#DejaVuSans-30" x="127.246094"/>
       <use xlink:href="#DejaVuSans-30" x="190.869141"/>
      </g>
     </g>
    </g>
    <g id="xtick_3">
     <g id="line2d_3">
      <g>
       <use xlink:href="#mb4fc9a64f1" x="111.446332" y="151.370079" style="stroke: #000000; stroke-width: 0.8"/>
      </g>
     </g>
     <g id="text_3">
      <!-- 2005 -->
      <g transform="translate(102.538832 163.688985) scale(0.07 -0.07)">
       <use xlink:href="#DejaVuSans-32"/>
       <use xlink:href="#DejaVuSans-30" x="63.623047"/>
       <use xlink:href="#DejaVuSans-30" x="127.246094"/>
       <use xlink:href="#DejaVuSans-35" x="190.869141"/>
      </g>
     </g>
    </g>
    <g id="xtick_4">
     <g id="line2d_4">
      <g>
       <use xlink:href="#mb4fc9a64f1" x="146.133444" y="151.370079" style="stroke: #000000; stroke-width: 0.8"/>
      </g>
     </g>
     <g id="text_4">
      <!-- 2010 -->
      <g transform="translate(137.225944 163.688985) scale(0.07 -0.07)">
       <use xlink:href="#DejaVuSans-32"/>
       <use xlink:href="#DejaVuSans-30" x="63.623047"/>
       <use xlink:href="#DejaVuSans-31" x="127.246094"/>
       <use xlink:href="#DejaVuSans-30" x="190.869141"/>
      </g>
     </g>
    </g>
    <g id="text_5">
     <!-- starting year -->
     <g transform="translate(64.680589 174.463672) scale(0.07 -0.07)">
      <defs>
       <path id="DejaVuSans-73" d="M 2834 3397 
L 2834 2853 
Q 2591 2978 2328 3040 
Q 2066 3103 1784 3103 
Q 1356 3103 1142 2972 
Q 928 2841 928 2578 
Q 928 2378 1081 2264 
Q 1234 2150 1697 2047 
L 1894 2003 
Q 2506 1872 2764 1633 
Q 3022 1394 3022 966 
Q 3022 478 2636 193 
Q 2250 -91 1575 -91 
Q 1294 -91 989 -36 
Q 684 19 347 128 
L 347 722 
Q 666 556 975 473 
Q 1284 391 1588 391 
Q 1994 391 2212 530 
Q 2431 669 2431 922 
Q 2431 1156 2273 1281 
Q 2116 1406 1581 1522 
L 1381 1569 
Q 847 1681 609 1914 
Q 372 2147 372 2553 
Q 372 3047 722 3315 
Q 1072 3584 1716 3584 
Q 2034 3584 2315 3537 
Q 2597 3491 2834 3397 
z
" transform="scale(0.015625)"/>
       <path id="DejaVuSans-74" d="M 1172 4494 
L 1172 3500 
L 2356 3500 
L 2356 3053 
L 1172 3053 
L 1172 1153 
Q 1172 725 1289 603 
Q 1406 481 1766 481 
L 2356 481 
L 2356 0 
L 1766 0 
Q 1100 0 847 248 
Q 594 497 594 1153 
L 594 3053 
L 172 3053 
L 172 3500 
L 594 3500 
L 594 4494 
L 1172 4494 
z
" transform="scale(0.015625)"/>
       <path id="DejaVuSans-61" d="M 2194 1759 
Q 1497 1759 1228 1600 
Q 959 1441 959 1056 
Q 959 750 1161 570 
Q 1363 391 1709 391 
Q 2188 391 2477 730 
Q 2766 1069 2766 1631 
L 2766 1759 
L 2194 1759 
z
M 3341 1997 
L 3341 0 
L 2766 0 
L 2766 531 
Q 2569 213 2275 61 
Q 1981 -91 1556 -91 
Q 1019 -91 701 211 
Q 384 513 384 1019 
Q 384 1609 779 1909 
Q 1175 2209 1959 2209 
L 2766 2209 
L 2766 2266 
Q 2766 2663 2505 2880 
Q 2244 3097 1772 3097 
Q 1472 3097 1187 3025 
Q 903 2953 641 2809 
L 641 3341 
Q 956 3463 1253 3523 
Q 1550 3584 1831 3584 
Q 2591 3584 2966 3190 
Q 3341 2797 3341 1997 
z
" transform="scale(0.015625)"/>
       <path id="DejaVuSans-72" d="M 2631 2963 
Q 2534 3019 2420 3045 
Q 2306 3072 2169 3072 
Q 1681 3072 1420 2755 
Q 1159 2438 1159 1844 
L 1159 0 
L 581 0 
L 581 3500 
L 1159 3500 
L 1159 2956 
Q 1341 3275 1631 3429 
Q 1922 3584 2338 3584 
Q 2397 3584 2469 3576 
Q 2541 3569 2628 3553 
L 2631 2963 
z
" transform="scale(0.015625)"/>
       <path id="DejaVuSans-69" d="M 603 3500 
L 1178 3500 
L 1178 0 
L 603 0 
L 603 3500 
z
M 603 4863 
L 1178 4863 
L 1178 4134 
L 603 4134 
L 603 4863 
z
" transform="scale(0.015625)"/>
       <path id="DejaVuSans-6e" d="M 3513 2113 
L 3513 0 
L 2938 0 
L 2938 2094 
Q 2938 2591 2744 2837 
Q 2550 3084 2163 3084 
Q 1697 3084 1428 2787 
Q 1159 2491 1159 1978 
L 1159 0 
L 581 0 
L 581 3500 
L 1159 3500 
L 1159 2956 
Q 1366 3272 1645 3428 
Q 1925 3584 2291 3584 
Q 2894 3584 3203 3211 
Q 3513 2838 3513 2113 
z
" transform="scale(0.015625)"/>
       <path id="DejaVuSans-67" d="M 2906 1791 
Q 2906 2416 2648 2759 
Q 2391 3103 1925 3103 
Q 1463 3103 1205 2759 
Q 947 2416 947 1791 
Q 947 1169 1205 825 
Q 1463 481 1925 481 
Q 2391 481 2648 825 
Q 2906 1169 2906 1791 
z
M 3481 434 
Q 3481 -459 3084 -895 
Q 2688 -1331 1869 -1331 
Q 1566 -1331 1297 -1286 
Q 1028 -1241 775 -1147 
L 775 -588 
Q 1028 -725 1275 -790 
Q 1522 -856 1778 -856 
Q 2344 -856 2625 -561 
Q 2906 -266 2906 331 
L 2906 616 
Q 2728 306 2450 153 
Q 2172 0 1784 0 
Q 1141 0 747 490 
Q 353 981 353 1791 
Q 353 2603 747 3093 
Q 1141 3584 1784 3584 
Q 2172 3584 2450 3431 
Q 2728 3278 2906 2969 
L 2906 3500 
L 3481 3500 
L 3481 434 
z
" transform="scale(0.015625)"/>
       <path id="DejaVuSans-20" transform="scale(0.015625)"/>
       <path id="DejaVuSans-79" d="M 2059 -325 
Q 1816 -950 1584 -1140 
Q 1353 -1331 966 -1331 
L 506 -1331 
L 506 -850 
L 844 -850 
Q 1081 -850 1212 -737 
Q 1344 -625 1503 -206 
L 1606 56 
L 191 3500 
L 800 3500 
L 1894 763 
L 2988 3500 
L 3597 3500 
L 2059 -325 
z
" transform="scale(0.015625)"/>
       <path id="DejaVuSans-65" d="M 3597 1894 
L 3597 1613 
L 953 1613 
Q 991 1019 1311 708 
Q 1631 397 2203 397 
Q 2534 397 2845 478 
Q 3156 559 3463 722 
L 3463 178 
Q 3153 47 2828 -22 
Q 2503 -91 2169 -91 
Q 1331 -91 842 396 
Q 353 884 353 1716 
Q 353 2575 817 3079 
Q 1281 3584 2069 3584 
Q 2775 3584 3186 3129 
Q 3597 2675 3597 1894 
z
M 3022 2063 
Q 3016 2534 2758 2815 
Q 2500 3097 2075 3097 
Q 1594 3097 1305 2825 
Q 1016 2553 972 2059 
L 3022 2063 
z
" transform="scale(0.015625)"/>
      </defs>
      <use xlink:href="#DejaVuSans-73"/>
      <use xlink:href="#DejaVuSans-74" x="52.099609"/>
      <use xlink:href="#DejaVuSans-61" x="91.308594"/>
      <use xlink:href="#DejaVuSans-72" x="152.587891"/>
      <use xlink:href="#DejaVuSans-74" x="193.701172"/>
      <use xlink:href="#DejaVuSans-69" x="232.910156"/>
      <use xlink:href="#DejaVuSans-6e" x="260.693359"/>
      <use xlink:href="#DejaVuSans-67" x="324.072266"/>
      <use xlink:href="#DejaVuSans-20" x="387.548828"/>
      <use xlink:href="#DejaVuSans-79" x="419.335938"/>
      <use xlink:href="#DejaVuSans-65" x="478.515625"/>
      <use xlink:href="#DejaVuSans-61" x="540.039062"/>
      <use xlink:href="#DejaVuSans-72" x="601.318359"/>
     </g>
    </g>
   </g>
   <g id="matplotlib.axis_2">
    <g id="ytick_1">
     <g id="line2d_5">
      <defs>
       <path id="m6491f2de41" d="M 0 0 
L -3.5 0 
" style="stroke: #000000; stroke-width: 0.8"/>
      </defs>
      <g>
       <use xlink:href="#m6491f2de41" x="21.259843" y="136.689572" style="stroke: #000000; stroke-width: 0.8"/>
      </g>
     </g>
     <g id="text_6">
      <!-- 0.0 -->
      <g transform="translate(3.127655 139.349025) scale(0.07 -0.07)">
       <defs>
        <path id="DejaVuSans-2e" d="M 684 794 
L 1344 794 
L 1344 0 
L 684 0 
L 684 794 
z
" transform="scale(0.015625)"/>
       </defs>
       <use xlink:href="#DejaVuSans-30"/>
       <use xlink:href="#DejaVuSans-2e" x="63.623047"/>
       <use xlink:href="#DejaVuSans-30" x="95.410156"/>
      </g>
     </g>
    </g>
    <g id="ytick_2">
     <g id="line2d_6">
      <g>
       <use xlink:href="#m6491f2de41" x="21.259843" y="112.98537" style="stroke: #000000; stroke-width: 0.8"/>
      </g>
     </g>
     <g id="text_7">
      <!-- 0.5 -->
      <g transform="translate(3.127655 115.644823) scale(0.07 -0.07)">
       <use xlink:href="#DejaVuSans-30"/>
       <use xlink:href="#DejaVuSans-2e" x="63.623047"/>
       <use xlink:href="#DejaVuSans-35" x="95.410156"/>
      </g>
     </g>
    </g>
    <g id="ytick_3">
     <g id="line2d_7">
      <g>
       <use xlink:href="#m6491f2de41" x="21.259843" y="89.281168" style="stroke: #000000; stroke-width: 0.8"/>
      </g>
     </g>
     <g id="text_8">
      <!-- 1.0 -->
      <g transform="translate(3.127655 91.940621) scale(0.07 -0.07)">
       <use xlink:href="#DejaVuSans-31"/>
       <use xlink:href="#DejaVuSans-2e" x="63.623047"/>
       <use xlink:href="#DejaVuSans-30" x="95.410156"/>
      </g>
     </g>
    </g>
    <g id="ytick_4">
     <g id="line2d_8">
      <g>
       <use xlink:href="#m6491f2de41" x="21.259843" y="65.576966" style="stroke: #000000; stroke-width: 0.8"/>
      </g>
     </g>
     <g id="text_9">
      <!-- 1.5 -->
      <g transform="translate(3.127655 68.236419) scale(0.07 -0.07)">
       <use xlink:href="#DejaVuSans-31"/>
       <use xlink:href="#DejaVuSans-2e" x="63.623047"/>
       <use xlink:href="#DejaVuSans-35" x="95.410156"/>
      </g>
     </g>
    </g>
    <g id="ytick_5">
     <g id="line2d_9">
      <g>
       <use xlink:href="#m6491f2de41" x="21.259843" y="41.872764" style="stroke: #000000; stroke-width: 0.8"/>
      </g>
     </g>
     <g id="text_10">
      <!-- 2.0 -->
      <g transform="translate(3.127655 44.532217) scale(0.07 -0.07)">
       <use xlink:href="#DejaVuSans-32"/>
       <use xlink:href="#DejaVuSans-2e" x="63.623047"/>
       <use xlink:href="#DejaVuSans-30" x="95.410156"/>
      </g>
     </g>
    </g>
    <g id="text_11">
     <!-- mean annual change in -->
     <g transform="translate(-11.358126 127.140545) rotate(-90) scale(0.07 -0.07)">
      <defs>
       <path id="DejaVuSans-6d" d="M 3328 2828 
Q 3544 3216 3844 3400 
Q 4144 3584 4550 3584 
Q 5097 3584 5394 3201 
Q 5691 2819 5691 2113 
L 5691 0 
L 5113 0 
L 5113 2094 
Q 5113 2597 4934 2840 
Q 4756 3084 4391 3084 
Q 3944 3084 3684 2787 
Q 3425 2491 3425 1978 
L 3425 0 
L 2847 0 
L 2847 2094 
Q 2847 2600 2669 2842 
Q 2491 3084 2119 3084 
Q 1678 3084 1418 2786 
Q 1159 2488 1159 1978 
L 1159 0 
L 581 0 
L 581 3500 
L 1159 3500 
L 1159 2956 
Q 1356 3278 1631 3431 
Q 1906 3584 2284 3584 
Q 2666 3584 2933 3390 
Q 3200 3197 3328 2828 
z
" transform="scale(0.015625)"/>
       <path id="DejaVuSans-75" d="M 544 1381 
L 544 3500 
L 1119 3500 
L 1119 1403 
Q 1119 906 1312 657 
Q 1506 409 1894 409 
Q 2359 409 2629 706 
Q 2900 1003 2900 1516 
L 2900 3500 
L 3475 3500 
L 3475 0 
L 2900 0 
L 2900 538 
Q 2691 219 2414 64 
Q 2138 -91 1772 -91 
Q 1169 -91 856 284 
Q 544 659 544 1381 
z
M 1991 3584 
L 1991 3584 
z
" transform="scale(0.015625)"/>
       <path id="DejaVuSans-6c" d="M 603 4863 
L 1178 4863 
L 1178 0 
L 603 0 
L 603 4863 
z
" transform="scale(0.015625)"/>
       <path id="DejaVuSans-63" d="M 3122 3366 
L 3122 2828 
Q 2878 2963 2633 3030 
Q 2388 3097 2138 3097 
Q 1578 3097 1268 2742 
Q 959 2388 959 1747 
Q 959 1106 1268 751 
Q 1578 397 2138 397 
Q 2388 397 2633 464 
Q 2878 531 3122 666 
L 3122 134 
Q 2881 22 2623 -34 
Q 2366 -91 2075 -91 
Q 1284 -91 818 406 
Q 353 903 353 1747 
Q 353 2603 823 3093 
Q 1294 3584 2113 3584 
Q 2378 3584 2631 3529 
Q 2884 3475 3122 3366 
z
" transform="scale(0.015625)"/>
       <path id="DejaVuSans-68" d="M 3513 2113 
L 3513 0 
L 2938 0 
L 2938 2094 
Q 2938 2591 2744 2837 
Q 2550 3084 2163 3084 
Q 1697 3084 1428 2787 
Q 1159 2491 1159 1978 
L 1159 0 
L 581 0 
L 581 4863 
L 1159 4863 
L 1159 2956 
Q 1366 3272 1645 3428 
Q 1925 3584 2291 3584 
Q 2894 3584 3203 3211 
Q 3513 2838 3513 2113 
z
" transform="scale(0.015625)"/>
      </defs>
      <use xlink:href="#DejaVuSans-6d"/>
      <use xlink:href="#DejaVuSans-65" x="97.412109"/>
      <use xlink:href="#DejaVuSans-61" x="158.935547"/>
      <use xlink:href="#DejaVuSans-6e" x="220.214844"/>
      <use xlink:href="#DejaVuSans-20" x="283.59375"/>
      <use xlink:href="#DejaVuSans-61" x="315.380859"/>
      <use xlink:href="#DejaVuSans-6e" x="376.660156"/>
      <use xlink:href="#DejaVuSans-6e" x="440.039062"/>
      <use xlink:href="#DejaVuSans-75" x="503.417969"/>
      <use xlink:href="#DejaVuSans-61" x="566.796875"/>
      <use xlink:href="#DejaVuSans-6c" x="628.076172"/>
      <use xlink:href="#DejaVuSans-20" x="655.859375"/>
      <use xlink:href="#DejaVuSans-63" x="687.646484"/>
      <use xlink:href="#DejaVuSans-68" x="742.626953"/>
      <use xlink:href="#DejaVuSans-61" x="806.005859"/>
      <use xlink:href="#DejaVuSans-6e" x="867.285156"/>
      <use xlink:href="#DejaVuSans-67" x="930.664062"/>
      <use xlink:href="#DejaVuSans-65" x="994.140625"/>
      <use xlink:href="#DejaVuSans-20" x="1055.664062"/>
      <use xlink:href="#DejaVuSans-69" x="1087.451172"/>
      <use xlink:href="#DejaVuSans-6e" x="1115.234375"/>
     </g>
     <!-- carbon stocks(GtC yr$^{-1}$) -->
     <g transform="translate(-2.342345 127.854764) rotate(-90) scale(0.07 -0.07)">
      <defs>
       <path id="DejaVuSans-62" d="M 3116 1747 
Q 3116 2381 2855 2742 
Q 2594 3103 2138 3103 
Q 1681 3103 1420 2742 
Q 1159 2381 1159 1747 
Q 1159 1113 1420 752 
Q 1681 391 2138 391 
Q 2594 391 2855 752 
Q 3116 1113 3116 1747 
z
M 1159 2969 
Q 1341 3281 1617 3432 
Q 1894 3584 2278 3584 
Q 2916 3584 3314 3078 
Q 3713 2572 3713 1747 
Q 3713 922 3314 415 
Q 2916 -91 2278 -91 
Q 1894 -91 1617 61 
Q 1341 213 1159 525 
L 1159 0 
L 581 0 
L 581 4863 
L 1159 4863 
L 1159 2969 
z
" transform="scale(0.015625)"/>
       <path id="DejaVuSans-6f" d="M 1959 3097 
Q 1497 3097 1228 2736 
Q 959 2375 959 1747 
Q 959 1119 1226 758 
Q 1494 397 1959 397 
Q 2419 397 2687 759 
Q 2956 1122 2956 1747 
Q 2956 2369 2687 2733 
Q 2419 3097 1959 3097 
z
M 1959 3584 
Q 2709 3584 3137 3096 
Q 3566 2609 3566 1747 
Q 3566 888 3137 398 
Q 2709 -91 1959 -91 
Q 1206 -91 779 398 
Q 353 888 353 1747 
Q 353 2609 779 3096 
Q 1206 3584 1959 3584 
z
" transform="scale(0.015625)"/>
       <path id="DejaVuSans-6b" d="M 581 4863 
L 1159 4863 
L 1159 1991 
L 2875 3500 
L 3609 3500 
L 1753 1863 
L 3688 0 
L 2938 0 
L 1159 1709 
L 1159 0 
L 581 0 
L 581 4863 
z
" transform="scale(0.015625)"/>
       <path id="DejaVuSans-28" d="M 1984 4856 
Q 1566 4138 1362 3434 
Q 1159 2731 1159 2009 
Q 1159 1288 1364 580 
Q 1569 -128 1984 -844 
L 1484 -844 
Q 1016 -109 783 600 
Q 550 1309 550 2009 
Q 550 2706 781 3412 
Q 1013 4119 1484 4856 
L 1984 4856 
z
" transform="scale(0.015625)"/>
       <path id="DejaVuSans-47" d="M 3809 666 
L 3809 1919 
L 2778 1919 
L 2778 2438 
L 4434 2438 
L 4434 434 
Q 4069 175 3628 42 
Q 3188 -91 2688 -91 
Q 1594 -91 976 548 
Q 359 1188 359 2328 
Q 359 3472 976 4111 
Q 1594 4750 2688 4750 
Q 3144 4750 3555 4637 
Q 3966 4525 4313 4306 
L 4313 3634 
Q 3963 3931 3569 4081 
Q 3175 4231 2741 4231 
Q 1884 4231 1454 3753 
Q 1025 3275 1025 2328 
Q 1025 1384 1454 906 
Q 1884 428 2741 428 
Q 3075 428 3337 486 
Q 3600 544 3809 666 
z
" transform="scale(0.015625)"/>
       <path id="DejaVuSans-43" d="M 4122 4306 
L 4122 3641 
Q 3803 3938 3442 4084 
Q 3081 4231 2675 4231 
Q 1875 4231 1450 3742 
Q 1025 3253 1025 2328 
Q 1025 1406 1450 917 
Q 1875 428 2675 428 
Q 3081 428 3442 575 
Q 3803 722 4122 1019 
L 4122 359 
Q 3791 134 3420 21 
Q 3050 -91 2638 -91 
Q 1578 -91 968 557 
Q 359 1206 359 2328 
Q 359 3453 968 4101 
Q 1578 4750 2638 4750 
Q 3056 4750 3426 4639 
Q 3797 4528 4122 4306 
z
" transform="scale(0.015625)"/>
       <path id="DejaVuSans-2212" d="M 678 2272 
L 4684 2272 
L 4684 1741 
L 678 1741 
L 678 2272 
z
" transform="scale(0.015625)"/>
       <path id="DejaVuSans-29" d="M 513 4856 
L 1013 4856 
Q 1481 4119 1714 3412 
Q 1947 2706 1947 2009 
Q 1947 1309 1714 600 
Q 1481 -109 1013 -844 
L 513 -844 
Q 928 -128 1133 580 
Q 1338 1288 1338 2009 
Q 1338 2731 1133 3434 
Q 928 4138 513 4856 
z
" transform="scale(0.015625)"/>
      </defs>
      <use xlink:href="#DejaVuSans-63" transform="translate(0 0.684375)"/>
      <use xlink:href="#DejaVuSans-61" transform="translate(54.980469 0.684375)"/>
      <use xlink:href="#DejaVuSans-72" transform="translate(116.259766 0.684375)"/>
      <use xlink:href="#DejaVuSans-62" transform="translate(157.373047 0.684375)"/>
      <use xlink:href="#DejaVuSans-6f" transform="translate(220.849609 0.684375)"/>
      <use xlink:href="#DejaVuSans-6e" transform="translate(282.03125 0.684375)"/>
      <use xlink:href="#DejaVuSans-20" transform="translate(345.410156 0.684375)"/>
      <use xlink:href="#DejaVuSans-73" transform="translate(377.197266 0.684375)"/>
      <use xlink:href="#DejaVuSans-74" transform="translate(429.296875 0.684375)"/>
      <use xlink:href="#DejaVuSans-6f" transform="translate(468.505859 0.684375)"/>
      <use xlink:href="#DejaVuSans-63" transform="translate(529.6875 0.684375)"/>
      <use xlink:href="#DejaVuSans-6b" transform="translate(584.667969 0.684375)"/>
      <use xlink:href="#DejaVuSans-73" transform="translate(642.578125 0.684375)"/>
      <use xlink:href="#DejaVuSans-28" transform="translate(694.677734 0.684375)"/>
      <use xlink:href="#DejaVuSans-47" transform="translate(733.691406 0.684375)"/>
      <use xlink:href="#DejaVuSans-74" transform="translate(811.181641 0.684375)"/>
      <use xlink:href="#DejaVuSans-43" transform="translate(850.390625 0.684375)"/>
      <use xlink:href="#DejaVuSans-20" transform="translate(920.214844 0.684375)"/>
      <use xlink:href="#DejaVuSans-79" transform="translate(952.001953 0.684375)"/>
      <use xlink:href="#DejaVuSans-72" transform="translate(1011.181641 0.684375)"/>
      <use xlink:href="#DejaVuSans-2212" transform="translate(1053.251953 38.965625) scale(0.7)"/>
      <use xlink:href="#DejaVuSans-31" transform="translate(1111.904297 38.965625) scale(0.7)"/>
      <use xlink:href="#DejaVuSans-29" transform="translate(1159.174805 0.684375)"/>
     </g>
    </g>
   </g>
   <g id="LineCollection_1">
    <path d="M 28.197265 145.417323 
L 28.197265 122.037526 
" clip-path="url(#pa108bcfe22)" style="fill: none; stroke: #228b22; stroke-width: 2"/>
    <path d="M 35.134687 143.818148 
L 35.134687 120.375659 
" clip-path="url(#pa108bcfe22)" style="fill: none; stroke: #228b22; stroke-width: 2"/>
    <path d="M 42.072109 138.459945 
L 42.072109 116.691541 
" clip-path="url(#pa108bcfe22)" style="fill: none; stroke: #228b22; stroke-width: 2"/>
    <path d="M 49.009532 132.309435 
L 49.009532 112.221071 
" clip-path="url(#pa108bcfe22)" style="fill: none; stroke: #228b22; stroke-width: 2"/>
    <path d="M 55.946954 131.611676 
L 55.946954 112.35519 
" clip-path="url(#pa108bcfe22)" style="fill: none; stroke: #228b22; stroke-width: 2"/>
    <path d="M 62.884376 132.112721 
L 62.884376 111.727719 
" clip-path="url(#pa108bcfe22)" style="fill: none; stroke: #228b22; stroke-width: 2"/>
    <path d="M 69.821799 130.214719 
L 69.821799 108.992813 
" clip-path="url(#pa108bcfe22)" style="fill: none; stroke: #228b22; stroke-width: 2"/>
    <path d="M 76.759221 129.776398 
L 76.759221 108.605863 
" clip-path="url(#pa108bcfe22)" style="fill: none; stroke: #228b22; stroke-width: 2"/>
    <path d="M 83.696643 132.093287 
L 83.696643 110.287197 
" clip-path="url(#pa108bcfe22)" style="fill: none; stroke: #228b22; stroke-width: 2"/>
    <path d="M 90.634065 132.357783 
L 90.634065 111.641583 
" clip-path="url(#pa108bcfe22)" style="fill: none; stroke: #228b22; stroke-width: 2"/>
    <path d="M 97.571488 132.808628 
L 97.571488 109.731009 
" clip-path="url(#pa108bcfe22)" style="fill: none; stroke: #228b22; stroke-width: 2"/>
    <path d="M 104.50891 130.952128 
L 104.50891 105.434834 
" clip-path="url(#pa108bcfe22)" style="fill: none; stroke: #228b22; stroke-width: 2"/>
    <path d="M 111.446332 135.063563 
L 111.446332 108.860125 
" clip-path="url(#pa108bcfe22)" style="fill: none; stroke: #228b22; stroke-width: 2"/>
    <path d="M 118.383755 132.388833 
L 118.383755 107.132005 
" clip-path="url(#pa108bcfe22)" style="fill: none; stroke: #228b22; stroke-width: 2"/>
    <path d="M 125.321177 134.224676 
L 125.321177 106.013378 
" clip-path="url(#pa108bcfe22)" style="fill: none; stroke: #228b22; stroke-width: 2"/>
    <path d="M 132.258599 136.47746 
L 132.258599 105.160846 
" clip-path="url(#pa108bcfe22)" style="fill: none; stroke: #228b22; stroke-width: 2"/>
    <path d="M 139.196022 139.178794 
L 139.196022 104.335751 
" clip-path="url(#pa108bcfe22)" style="fill: none; stroke: #228b22; stroke-width: 2"/>
    <path d="M 146.133444 140.927391 
L 146.133444 105.70022 
" clip-path="url(#pa108bcfe22)" style="fill: none; stroke: #228b22; stroke-width: 2"/>
   </g>
   <g id="line2d_10">
    <defs>
     <path id="md1c341b2f7" d="M 1.7 0 
L -1.7 -0 
" style="stroke: #228b22"/>
    </defs>
    <g clip-path="url(#pa108bcfe22)">
     <use xlink:href="#md1c341b2f7" x="28.197265" y="145.417323" style="fill: #228b22; stroke: #228b22"/>
     <use xlink:href="#md1c341b2f7" x="35.134687" y="143.818148" style="fill: #228b22; stroke: #228b22"/>
     <use xlink:href="#md1c341b2f7" x="42.072109" y="138.459945" style="fill: #228b22; stroke: #228b22"/>
     <use xlink:href="#md1c341b2f7" x="49.009532" y="132.309435" style="fill: #228b22; stroke: #228b22"/>
     <use xlink:href="#md1c341b2f7" x="55.946954" y="131.611676" style="fill: #228b22; stroke: #228b22"/>
     <use xlink:href="#md1c341b2f7" x="62.884376" y="132.112721" style="fill: #228b22; stroke: #228b22"/>
     <use xlink:href="#md1c341b2f7" x="69.821799" y="130.214719" style="fill: #228b22; stroke: #228b22"/>
     <use xlink:href="#md1c341b2f7" x="76.759221" y="129.776398" style="fill: #228b22; stroke: #228b22"/>
     <use xlink:href="#md1c341b2f7" x="83.696643" y="132.093287" style="fill: #228b22; stroke: #228b22"/>
     <use xlink:href="#md1c341b2f7" x="90.634065" y="132.357783" style="fill: #228b22; stroke: #228b22"/>
     <use xlink:href="#md1c341b2f7" x="97.571488" y="132.808628" style="fill: #228b22; stroke: #228b22"/>
     <use xlink:href="#md1c341b2f7" x="104.50891" y="130.952128" style="fill: #228b22; stroke: #228b22"/>
     <use xlink:href="#md1c341b2f7" x="111.446332" y="135.063563" style="fill: #228b22; stroke: #228b22"/>
     <use xlink:href="#md1c341b2f7" x="118.383755" y="132.388833" style="fill: #228b22; stroke: #228b22"/>
     <use xlink:href="#md1c341b2f7" x="125.321177" y="134.224676" style="fill: #228b22; stroke: #228b22"/>
     <use xlink:href="#md1c341b2f7" x="132.258599" y="136.47746" style="fill: #228b22; stroke: #228b22"/>
     <use xlink:href="#md1c341b2f7" x="139.196022" y="139.178794" style="fill: #228b22; stroke: #228b22"/>
     <use xlink:href="#md1c341b2f7" x="146.133444" y="140.927391" style="fill: #228b22; stroke: #228b22"/>
    </g>
   </g>
   <g id="line2d_11">
    <g clip-path="url(#pa108bcfe22)">
     <use xlink:href="#md1c341b2f7" x="28.197265" y="122.037526" style="fill: #228b22; stroke: #228b22"/>
     <use xlink:href="#md1c341b2f7" x="35.134687" y="120.375659" style="fill: #228b22; stroke: #228b22"/>
     <use xlink:href="#md1c341b2f7" x="42.072109" y="116.691541" style="fill: #228b22; stroke: #228b22"/>
     <use xlink:href="#md1c341b2f7" x="49.009532" y="112.221071" style="fill: #228b22; stroke: #228b22"/>
     <use xlink:href="#md1c341b2f7" x="55.946954" y="112.35519" style="fill: #228b22; stroke: #228b22"/>
     <use xlink:href="#md1c341b2f7" x="62.884376" y="111.727719" style="fill: #228b22; stroke: #228b22"/>
     <use xlink:href="#md1c341b2f7" x="69.821799" y="108.992813" style="fill: #228b22; stroke: #228b22"/>
     <use xlink:href="#md1c341b2f7" x="76.759221" y="108.605863" style="fill: #228b22; stroke: #228b22"/>
     <use xlink:href="#md1c341b2f7" x="83.696643" y="110.287197" style="fill: #228b22; stroke: #228b22"/>
     <use xlink:href="#md1c341b2f7" x="90.634065" y="111.641583" style="fill: #228b22; stroke: #228b22"/>
     <use xlink:href="#md1c341b2f7" x="97.571488" y="109.731009" style="fill: #228b22; stroke: #228b22"/>
     <use xlink:href="#md1c341b2f7" x="104.50891" y="105.434834" style="fill: #228b22; stroke: #228b22"/>
     <use xlink:href="#md1c341b2f7" x="111.446332" y="108.860125" style="fill: #228b22; stroke: #228b22"/>
     <use xlink:href="#md1c341b2f7" x="118.383755" y="107.132005" style="fill: #228b22; stroke: #228b22"/>
     <use xlink:href="#md1c341b2f7" x="125.321177" y="106.013378" style="fill: #228b22; stroke: #228b22"/>
     <use xlink:href="#md1c341b2f7" x="132.258599" y="105.160846" style="fill: #228b22; stroke: #228b22"/>
     <use xlink:href="#md1c341b2f7" x="139.196022" y="104.335751" style="fill: #228b22; stroke: #228b22"/>
     <use xlink:href="#md1c341b2f7" x="146.133444" y="105.70022" style="fill: #228b22; stroke: #228b22"/>
    </g>
   </g>
   <g id="LineCollection_2">
    <path d="M 28.197265 100.950168 
L 28.197265 51.245516 
" clip-path="url(#pa108bcfe22)" style="fill: none; stroke: #000000; stroke-width: 2"/>
    <path d="M 35.134687 101.047241 
L 35.134687 51.044249 
" clip-path="url(#pa108bcfe22)" style="fill: none; stroke: #000000; stroke-width: 2"/>
    <path d="M 42.072109 99.927726 
L 42.072109 49.621365 
" clip-path="url(#pa108bcfe22)" style="fill: none; stroke: #000000; stroke-width: 2"/>
    <path d="M 49.009532 97.532143 
L 49.009532 46.927389 
" clip-path="url(#pa108bcfe22)" style="fill: none; stroke: #000000; stroke-width: 2"/>
    <path d="M 55.946954 99.497432 
L 55.946954 48.572904 
" clip-path="url(#pa108bcfe22)" style="fill: none; stroke: #000000; stroke-width: 2"/>
    <path d="M 62.884376 97.142623 
L 62.884376 45.86334 
" clip-path="url(#pa108bcfe22)" style="fill: none; stroke: #000000; stroke-width: 2"/>
    <path d="M 69.821799 90.248532 
L 69.821799 38.603692 
" clip-path="url(#pa108bcfe22)" style="fill: none; stroke: #000000; stroke-width: 2"/>
    <path d="M 76.759221 91.147287 
L 76.759221 39.133607 
" clip-path="url(#pa108bcfe22)" style="fill: none; stroke: #000000; stroke-width: 2"/>
    <path d="M 83.696643 93.158169 
L 83.696643 40.743202 
" clip-path="url(#pa108bcfe22)" style="fill: none; stroke: #000000; stroke-width: 2"/>
    <path d="M 90.634065 92.456797 
L 90.634065 39.627105 
" clip-path="url(#pa108bcfe22)" style="fill: none; stroke: #000000; stroke-width: 2"/>
    <path d="M 97.571488 87.796256 
L 97.571488 34.590845 
" clip-path="url(#pa108bcfe22)" style="fill: none; stroke: #000000; stroke-width: 2"/>
    <path d="M 104.50891 83.82502 
L 104.50891 30.261125 
" clip-path="url(#pa108bcfe22)" style="fill: none; stroke: #000000; stroke-width: 2"/>
    <path d="M 111.446332 85.132112 
L 111.446332 31.231152 
" clip-path="url(#pa108bcfe22)" style="fill: none; stroke: #000000; stroke-width: 2"/>
    <path d="M 118.383755 80.802371 
L 118.383755 26.594709 
" clip-path="url(#pa108bcfe22)" style="fill: none; stroke: #000000; stroke-width: 2"/>
    <path d="M 125.321177 81.766336 
L 125.321177 27.279657 
" clip-path="url(#pa108bcfe22)" style="fill: none; stroke: #000000; stroke-width: 2"/>
    <path d="M 132.258599 81.126967 
L 132.258599 26.362205 
" clip-path="url(#pa108bcfe22)" style="fill: none; stroke: #000000; stroke-width: 2"/>
    <path d="M 139.196022 84.125182 
L 139.196022 28.966504 
" clip-path="url(#pa108bcfe22)" style="fill: none; stroke: #000000; stroke-width: 2"/>
    <path d="M 146.133444 88.043272 
L 146.133444 32.617918 
" clip-path="url(#pa108bcfe22)" style="fill: none; stroke: #000000; stroke-width: 2"/>
   </g>
   <g id="line2d_12">
    <defs>
     <path id="mb86adccea5" d="M 1.7 0 
L -1.7 -0 
" style="stroke: #000000"/>
    </defs>
    <g clip-path="url(#pa108bcfe22)">
     <use xlink:href="#mb86adccea5" x="28.197265" y="100.950168" style="stroke: #000000"/>
     <use xlink:href="#mb86adccea5" x="35.134687" y="101.047241" style="stroke: #000000"/>
     <use xlink:href="#mb86adccea5" x="42.072109" y="99.927726" style="stroke: #000000"/>
     <use xlink:href="#mb86adccea5" x="49.009532" y="97.532143" style="stroke: #000000"/>
     <use xlink:href="#mb86adccea5" x="55.946954" y="99.497432" style="stroke: #000000"/>
     <use xlink:href="#mb86adccea5" x="62.884376" y="97.142623" style="stroke: #000000"/>
     <use xlink:href="#mb86adccea5" x="69.821799" y="90.248532" style="stroke: #000000"/>
     <use xlink:href="#mb86adccea5" x="76.759221" y="91.147287" style="stroke: #000000"/>
     <use xlink:href="#mb86adccea5" x="83.696643" y="93.158169" style="stroke: #000000"/>
     <use xlink:href="#mb86adccea5" x="90.634065" y="92.456797" style="stroke: #000000"/>
     <use xlink:href="#mb86adccea5" x="97.571488" y="87.796256" style="stroke: #000000"/>
     <use xlink:href="#mb86adccea5" x="104.50891" y="83.82502" style="stroke: #000000"/>
     <use xlink:href="#mb86adccea5" x="111.446332" y="85.132112" style="stroke: #000000"/>
     <use xlink:href="#mb86adccea5" x="118.383755" y="80.802371" style="stroke: #000000"/>
     <use xlink:href="#mb86adccea5" x="125.321177" y="81.766336" style="stroke: #000000"/>
     <use xlink:href="#mb86adccea5" x="132.258599" y="81.126967" style="stroke: #000000"/>
     <use xlink:href="#mb86adccea5" x="139.196022" y="84.125182" style="stroke: #000000"/>
     <use xlink:href="#mb86adccea5" x="146.133444" y="88.043272" style="stroke: #000000"/>
    </g>
   </g>
   <g id="line2d_13">
    <g clip-path="url(#pa108bcfe22)">
     <use xlink:href="#mb86adccea5" x="28.197265" y="51.245516" style="stroke: #000000"/>
     <use xlink:href="#mb86adccea5" x="35.134687" y="51.044249" style="stroke: #000000"/>
     <use xlink:href="#mb86adccea5" x="42.072109" y="49.621365" style="stroke: #000000"/>
     <use xlink:href="#mb86adccea5" x="49.009532" y="46.927389" style="stroke: #000000"/>
     <use xlink:href="#mb86adccea5" x="55.946954" y="48.572904" style="stroke: #000000"/>
     <use xlink:href="#mb86adccea5" x="62.884376" y="45.86334" style="stroke: #000000"/>
     <use xlink:href="#mb86adccea5" x="69.821799" y="38.603692" style="stroke: #000000"/>
     <use xlink:href="#mb86adccea5" x="76.759221" y="39.133607" style="stroke: #000000"/>
     <use xlink:href="#mb86adccea5" x="83.696643" y="40.743202" style="stroke: #000000"/>
     <use xlink:href="#mb86adccea5" x="90.634065" y="39.627105" style="stroke: #000000"/>
     <use xlink:href="#mb86adccea5" x="97.571488" y="34.590845" style="stroke: #000000"/>
     <use xlink:href="#mb86adccea5" x="104.50891" y="30.261125" style="stroke: #000000"/>
     <use xlink:href="#mb86adccea5" x="111.446332" y="31.231152" style="stroke: #000000"/>
     <use xlink:href="#mb86adccea5" x="118.383755" y="26.594709" style="stroke: #000000"/>
     <use xlink:href="#mb86adccea5" x="125.321177" y="27.279657" style="stroke: #000000"/>
     <use xlink:href="#mb86adccea5" x="132.258599" y="26.362205" style="stroke: #000000"/>
     <use xlink:href="#mb86adccea5" x="139.196022" y="28.966504" style="stroke: #000000"/>
     <use xlink:href="#mb86adccea5" x="146.133444" y="32.617918" style="stroke: #000000"/>
    </g>
   </g>
   <g id="line2d_14">
    <path d="M 21.259843 136.689572 
L 153.070866 136.689572 
" clip-path="url(#pa108bcfe22)" style="fill: none; stroke: #000000; stroke-width: 0.5; stroke-linecap: square"/>
   </g>
   <g id="line2d_15">
    <defs>
     <path id="mc4037be529" d="M 0 3 
C 0.795609 3 1.55874 2.683901 2.12132 2.12132 
C 2.683901 1.55874 3 0.795609 3 0 
C 3 -0.795609 2.683901 -1.55874 2.12132 -2.12132 
C 1.55874 -2.683901 0.795609 -3 0 -3 
C -0.795609 -3 -1.55874 -2.683901 -2.12132 -2.12132 
C -2.683901 -1.55874 -3 -0.795609 -3 0 
C -3 0.795609 -2.683901 1.55874 -2.12132 2.12132 
C -1.55874 2.683901 -0.795609 3 0 3 
z
" style="stroke: #228b22"/>
    </defs>
    <g clip-path="url(#pa108bcfe22)">
     <use xlink:href="#mc4037be529" x="28.197265" y="133.727425" style="fill: #228b22; stroke: #228b22"/>
     <use xlink:href="#mc4037be529" x="35.134687" y="132.096903" style="fill: #228b22; stroke: #228b22"/>
     <use xlink:href="#mc4037be529" x="42.072109" y="127.575743" style="fill: #228b22; stroke: #228b22"/>
     <use xlink:href="#mc4037be529" x="49.009532" y="122.265253" style="fill: #228b22; stroke: #228b22"/>
     <use xlink:href="#mc4037be529" x="55.946954" y="121.983433" style="fill: #228b22; stroke: #228b22"/>
     <use xlink:href="#mc4037be529" x="62.884376" y="121.92022" style="fill: #228b22; stroke: #228b22"/>
     <use xlink:href="#mc4037be529" x="69.821799" y="119.603766" style="fill: #228b22; stroke: #228b22"/>
     <use xlink:href="#mc4037be529" x="76.759221" y="119.191131" style="fill: #228b22; stroke: #228b22"/>
     <use xlink:href="#mc4037be529" x="83.696643" y="121.190242" style="fill: #228b22; stroke: #228b22"/>
     <use xlink:href="#mc4037be529" x="90.634065" y="121.999683" style="fill: #228b22; stroke: #228b22"/>
     <use xlink:href="#mc4037be529" x="97.571488" y="121.269818" style="fill: #228b22; stroke: #228b22"/>
     <use xlink:href="#mc4037be529" x="104.50891" y="118.193481" style="fill: #228b22; stroke: #228b22"/>
     <use xlink:href="#mc4037be529" x="111.446332" y="121.961844" style="fill: #228b22; stroke: #228b22"/>
     <use xlink:href="#mc4037be529" x="118.383755" y="119.760419" style="fill: #228b22; stroke: #228b22"/>
     <use xlink:href="#mc4037be529" x="125.321177" y="120.119027" style="fill: #228b22; stroke: #228b22"/>
     <use xlink:href="#mc4037be529" x="132.258599" y="120.819153" style="fill: #228b22; stroke: #228b22"/>
     <use xlink:href="#mc4037be529" x="139.196022" y="121.757273" style="fill: #228b22; stroke: #228b22"/>
     <use xlink:href="#mc4037be529" x="146.133444" y="123.313806" style="fill: #228b22; stroke: #228b22"/>
    </g>
   </g>
   <g id="line2d_16">
    <defs>
     <path id="medcd1100f7" d="M 0 3 
C 0.795609 3 1.55874 2.683901 2.12132 2.12132 
C 2.683901 1.55874 3 0.795609 3 0 
C 3 -0.795609 2.683901 -1.55874 2.12132 -2.12132 
C 1.55874 -2.683901 0.795609 -3 0 -3 
C -0.795609 -3 -1.55874 -2.683901 -2.12132 -2.12132 
C -2.683901 -1.55874 -3 -0.795609 -3 0 
C -3 0.795609 -2.683901 1.55874 -2.12132 2.12132 
C -1.55874 2.683901 -0.795609 3 0 3 
z
" style="stroke: #000000"/>
    </defs>
    <g clip-path="url(#pa108bcfe22)">
     <use xlink:href="#medcd1100f7" x="28.197265" y="76.097842" style="stroke: #000000"/>
     <use xlink:href="#medcd1100f7" x="35.134687" y="76.045745" style="stroke: #000000"/>
     <use xlink:href="#medcd1100f7" x="42.072109" y="74.774546" style="stroke: #000000"/>
     <use xlink:href="#medcd1100f7" x="49.009532" y="72.229766" style="stroke: #000000"/>
     <use xlink:href="#medcd1100f7" x="55.946954" y="74.035168" style="stroke: #000000"/>
     <use xlink:href="#medcd1100f7" x="62.884376" y="71.502981" style="stroke: #000000"/>
     <use xlink:href="#medcd1100f7" x="69.821799" y="64.426112" style="stroke: #000000"/>
     <use xlink:href="#medcd1100f7" x="76.759221" y="65.140447" style="stroke: #000000"/>
     <use xlink:href="#medcd1100f7" x="83.696643" y="66.950685" style="stroke: #000000"/>
     <use xlink:href="#medcd1100f7" x="90.634065" y="66.041951" style="stroke: #000000"/>
     <use xlink:href="#medcd1100f7" x="97.571488" y="61.19355" style="stroke: #000000"/>
     <use xlink:href="#medcd1100f7" x="104.50891" y="57.043072" style="stroke: #000000"/>
     <use xlink:href="#medcd1100f7" x="111.446332" y="58.181632" style="stroke: #000000"/>
     <use xlink:href="#medcd1100f7" x="118.383755" y="53.69854" style="stroke: #000000"/>
     <use xlink:href="#medcd1100f7" x="125.321177" y="54.522996" style="stroke: #000000"/>
     <use xlink:href="#medcd1100f7" x="132.258599" y="53.744586" style="stroke: #000000"/>
     <use xlink:href="#medcd1100f7" x="139.196022" y="56.545843" style="stroke: #000000"/>
     <use xlink:href="#medcd1100f7" x="146.133444" y="60.330595" style="stroke: #000000"/>
    </g>
   </g>
   <g id="patch_3">
    <path d="M 21.259843 151.370079 
L 21.259843 20.409449 
" style="fill: none; stroke: #000000; stroke-width: 0.8; stroke-linejoin: miter; stroke-linecap: square"/>
   </g>
   <g id="patch_4">
    <path d="M 21.259843 151.370079 
L 153.070866 151.370079 
" style="fill: none; stroke: #000000; stroke-width: 0.8; stroke-linejoin: miter; stroke-linecap: square"/>
   </g>
  </g>
 </g>
 <defs>
  <clipPath id="pa108bcfe22">
   <rect x="21.259843" y="20.409449" width="131.811024" height="130.96063"/>
  </clipPath>
 </defs>
</svg>
