<?xml version="1.0" encoding="utf-8" standalone="no"?>
<!DOCTYPE svg PUBLIC "-//W3C//DTD SVG 1.1//EN"
  "http://www.w3.org/Graphics/SVG/1.1/DTD/svg11.dtd">
<svg xmlns:xlink="http://www.w3.org/1999/xlink" width="504.566929pt" height="170.07874pt" viewBox="0 0 504.566929 170.07874" xmlns="http://www.w3.org/2000/svg" version="1.1">
 <metadata>
  <rdf:RDF xmlns:dc="http://purl.org/dc/elements/1.1/" xmlns:cc="http://creativecommons.org/ns#" xmlns:rdf="http://www.w3.org/1999/02/22-rdf-syntax-ns#">
   <cc:Work>
    <dc:type rdf:resource="http://purl.org/dc/dcmitype/StillImage"/>
    <dc:date>2025-03-05T11:25:15.536537</dc:date>
    <dc:format>image/svg+xml</dc:format>
    <dc:creator>
     <cc:Agent>
      <dc:title>Matplotlib v3.9.0, https://matplotlib.org/</dc:title>
     </cc:Agent>
    </dc:creator>
   </cc:Work>
  </rdf:RDF>
 </metadata>
 <defs>
  <style type="text/css">*{stroke-linejoin: round; stroke-linecap: butt}</style>
 </defs>
 <g id="figure_1">
  <g id="patch_1">
   <path d="M 0 170.07874 
L 504.566929 170.07874 
L 504.566929 0 
L 0 0 
z
" style="fill: #ffffff"/>
  </g>
  <g id="axes_1">
   <g id="patch_2">
    <path d="M 35.548209 153.303813 
L 236.785262 153.303813 
L 236.785262 24.952923 
L 35.548209 24.952923 
z
" style="fill: #ffffff"/>
   </g>
   <g id="line2d_1">
    <path d="M 35.548209 130.315594 
L 236.785262 130.315594 
" clip-path="url(#p9c1cb1f625)" style="fill: none; stroke-dasharray: 5.55,2.4; stroke-dashoffset: 0; stroke: #808080; stroke-width: 1.5"/>
   </g>
   <g id="PolyCollection_1">
    <defs>
     <path id="m4c9e7a925d" d="M 44.695348 -39.763147 
L 44.695348 -39.763147 
L 52.317963 -36.94284 
L 59.940579 -36.660921 
L 67.563194 -35.643732 
L 75.18581 -34.987186 
L 82.808426 -35.841783 
L 90.431041 -36.623004 
L 98.053657 -35.904249 
L 105.676273 -34.06009 
L 113.298888 -36.012695 
L 120.921504 -35.657877 
L 128.54412 -36.602631 
L 136.166735 -36.396086 
L 143.789351 -37.193416 
L 151.411966 -39.180078 
L 159.034582 -37.636525 
L 166.657198 -37.387183 
L 174.279813 -37.98094 
L 181.902429 -37.853015 
L 189.525045 -38.844758 
L 197.14766 -40.850498 
L 204.770276 -43.498622 
L 212.392892 -43.398693 
L 220.015507 -43.244918 
L 227.638123 -42.356472 
L 227.638123 -61.742858 
L 227.638123 -61.742858 
L 220.015507 -62.156993 
L 212.392892 -61.435559 
L 204.770276 -60.882668 
L 197.14766 -57.041841 
L 189.525045 -55.041238 
L 181.902429 -53.800412 
L 174.279813 -53.641552 
L 166.657198 -53.044261 
L 159.034582 -52.510344 
L 151.411966 -55.996515 
L 143.789351 -55.518707 
L 136.166735 -54.273861 
L 128.54412 -52.056197 
L 120.921504 -51.275474 
L 113.298888 -52.179126 
L 105.676273 -47.993765 
L 98.053657 -48.842135 
L 90.431041 -47.859115 
L 82.808426 -46.203621 
L 75.18581 -42.927523 
L 67.563194 -41.890973 
L 59.940579 -43.944913 
L 52.317963 -42.889129 
L 44.695348 -39.763147 
z
"/>
    </defs>
    <g clip-path="url(#p9c1cb1f625)">
     <use xlink:href="#m4c9e7a925d" x="0" y="170.07874" style="fill: #228b22; fill-opacity: 0.2"/>
    </g>
   </g>
   <g id="PolyCollection_2">
    <defs>
     <path id="mdc50f5e397" d="M 44.695348 -39.763147 
L 44.695348 -39.763147 
L 52.317963 -43.075672 
L 59.940579 -42.516924 
L 67.563194 -38.276796 
L 75.18581 -40.889371 
L 82.808426 -44.271056 
L 90.431041 -45.523193 
L 98.053657 -44.131153 
L 105.676273 -43.556944 
L 113.298888 -46.505352 
L 120.921504 -46.162602 
L 128.54412 -48.950318 
L 136.166735 -50.876141 
L 143.789351 -54.444254 
L 151.411966 -58.191829 
L 159.034582 -59.495775 
L 166.657198 -64.281003 
L 174.279813 -66.216606 
L 181.902429 -68.061288 
L 189.525045 -71.414313 
L 197.14766 -70.937304 
L 204.770276 -70.672823 
L 212.392892 -73.798149 
L 220.015507 -76.119101 
L 227.638123 -78.029622 
L 227.638123 -126.522279 
L 227.638123 -126.522279 
L 220.015507 -122.334471 
L 212.392892 -117.748997 
L 204.770276 -112.390355 
L 197.14766 -110.445613 
L 189.525045 -108.715387 
L 181.902429 -103.157443 
L 174.279813 -99.119697 
L 166.657198 -95.00554 
L 159.034582 -88.06404 
L 151.411966 -84.649604 
L 143.789351 -78.861567 
L 136.166735 -73.236119 
L 128.54412 -69.276445 
L 120.921504 -64.490954 
L 113.298888 -62.875779 
L 105.676273 -58.007243 
L 98.053657 -56.698546 
L 90.431041 -56.258133 
L 82.808426 -53.196163 
L 75.18581 -48.015878 
L 67.563194 -43.633793 
L 59.940579 -46.135977 
L 52.317963 -45.015856 
L 44.695348 -39.763147 
z
"/>
    </defs>
    <g clip-path="url(#p9c1cb1f625)">
     <use xlink:href="#mdc50f5e397" x="0" y="170.07874" style="fill-opacity: 0.2"/>
    </g>
   </g>
   <g id="matplotlib.axis_1">
    <g id="xtick_1">
     <g id="line2d_2">
      <defs>
       <path id="mfc121bbc87" d="M 0 0 
L 0 3.5 
" style="stroke: #000000; stroke-width: 0.8"/>
      </defs>
      <g>
       <use xlink:href="#mfc121bbc87" x="44.695348" y="153.303813" style="stroke: #000000; stroke-width: 0.8"/>
      </g>
     </g>
     <g id="text_1">
      <!-- 1995 -->
      <g transform="translate(35.787848 165.622719) scale(0.07 -0.07)">
       <defs>
        <path id="DejaVuSans-31" d="M 794 531 
L 1825 531 
L 1825 4091 
L 703 3866 
L 703 4441 
L 1819 4666 
L 2450 4666 
L 2450 531 
L 3481 531 
L 3481 0 
L 794 0 
L 794 531 
z
" transform="scale(0.015625)"/>
        <path id="DejaVuSans-39" d="M 703 97 
L 703 672 
Q 941 559 1184 500 
Q 1428 441 1663 441 
Q 2288 441 2617 861 
Q 2947 1281 2994 2138 
Q 2813 1869 2534 1725 
Q 2256 1581 1919 1581 
Q 1219 1581 811 2004 
Q 403 2428 403 3163 
Q 403 3881 828 4315 
Q 1253 4750 1959 4750 
Q 2769 4750 3195 4129 
Q 3622 3509 3622 2328 
Q 3622 1225 3098 567 
Q 2575 -91 1691 -91 
Q 1453 -91 1209 -44 
Q 966 3 703 97 
z
M 1959 2075 
Q 2384 2075 2632 2365 
Q 2881 2656 2881 3163 
Q 2881 3666 2632 3958 
Q 2384 4250 1959 4250 
Q 1534 4250 1286 3958 
Q 1038 3666 1038 3163 
Q 1038 2656 1286 2365 
Q 1534 2075 1959 2075 
z
" transform="scale(0.015625)"/>
        <path id="DejaVuSans-35" d="M 691 4666 
L 3169 4666 
L 3169 4134 
L 1269 4134 
L 1269 2991 
Q 1406 3038 1543 3061 
Q 1681 3084 1819 3084 
Q 2600 3084 3056 2656 
Q 3513 2228 3513 1497 
Q 3513 744 3044 326 
Q 2575 -91 1722 -91 
Q 1428 -91 1123 -41 
Q 819 9 494 109 
L 494 744 
Q 775 591 1075 516 
Q 1375 441 1709 441 
Q 2250 441 2565 725 
Q 2881 1009 2881 1497 
Q 2881 1984 2565 2268 
Q 2250 2553 1709 2553 
Q 1456 2553 1204 2497 
Q 953 2441 691 2322 
L 691 4666 
z
" transform="scale(0.015625)"/>
       </defs>
       <use xlink:href="#DejaVuSans-31"/>
       <use xlink:href="#DejaVuSans-39" x="63.623047"/>
       <use xlink:href="#DejaVuSans-39" x="127.246094"/>
       <use xlink:href="#DejaVuSans-35" x="190.869141"/>
      </g>
     </g>
    </g>
    <g id="xtick_2">
     <g id="line2d_3">
      <g>
       <use xlink:href="#mfc121bbc87" x="82.808426" y="153.303813" style="stroke: #000000; stroke-width: 0.8"/>
      </g>
     </g>
     <g id="text_2">
      <!-- 2000 -->
      <g transform="translate(73.900926 165.622719) scale(0.07 -0.07)">
       <defs>
        <path id="DejaVuSans-32" d="M 1228 531 
L 3431 531 
L 3431 0 
L 469 0 
L 469 531 
Q 828 903 1448 1529 
Q 2069 2156 2228 2338 
Q 2531 2678 2651 2914 
Q 2772 3150 2772 3378 
Q 2772 3750 2511 3984 
Q 2250 4219 1831 4219 
Q 1534 4219 1204 4116 
Q 875 4013 500 3803 
L 500 4441 
Q 881 4594 1212 4672 
Q 1544 4750 1819 4750 
Q 2544 4750 2975 4387 
Q 3406 4025 3406 3419 
Q 3406 3131 3298 2873 
Q 3191 2616 2906 2266 
Q 2828 2175 2409 1742 
Q 1991 1309 1228 531 
z
" transform="scale(0.015625)"/>
        <path id="DejaVuSans-30" d="M 2034 4250 
Q 1547 4250 1301 3770 
Q 1056 3291 1056 2328 
Q 1056 1369 1301 889 
Q 1547 409 2034 409 
Q 2525 409 2770 889 
Q 3016 1369 3016 2328 
Q 3016 3291 2770 3770 
Q 2525 4250 2034 4250 
z
M 2034 4750 
Q 2819 4750 3233 4129 
Q 3647 3509 3647 2328 
Q 3647 1150 3233 529 
Q 2819 -91 2034 -91 
Q 1250 -91 836 529 
Q 422 1150 422 2328 
Q 422 3509 836 4129 
Q 1250 4750 2034 4750 
z
" transform="scale(0.015625)"/>
       </defs>
       <use xlink:href="#DejaVuSans-32"/>
       <use xlink:href="#DejaVuSans-30" x="63.623047"/>
       <use xlink:href="#DejaVuSans-30" x="127.246094"/>
       <use xlink:href="#DejaVuSans-30" x="190.869141"/>
      </g>
     </g>
    </g>
    <g id="xtick_3">
     <g id="line2d_4">
      <g>
       <use xlink:href="#mfc121bbc87" x="120.921504" y="153.303813" style="stroke: #000000; stroke-width: 0.8"/>
      </g>
     </g>
     <g id="text_3">
      <!-- 2005 -->
      <g transform="translate(112.014004 165.622719) scale(0.07 -0.07)">
       <use xlink:href="#DejaVuSans-32"/>
       <use xlink:href="#DejaVuSans-30" x="63.623047"/>
       <use xlink:href="#DejaVuSans-30" x="127.246094"/>
       <use xlink:href="#DejaVuSans-35" x="190.869141"/>
      </g>
     </g>
    </g>
    <g id="xtick_4">
     <g id="line2d_5">
      <g>
       <use xlink:href="#mfc121bbc87" x="159.034582" y="153.303813" style="stroke: #000000; stroke-width: 0.8"/>
      </g>
     </g>
     <g id="text_4">
      <!-- 2010 -->
      <g transform="translate(150.127082 165.622719) scale(0.07 -0.07)">
       <use xlink:href="#DejaVuSans-32"/>
       <use xlink:href="#DejaVuSans-30" x="63.623047"/>
       <use xlink:href="#DejaVuSans-31" x="127.246094"/>
       <use xlink:href="#DejaVuSans-30" x="190.869141"/>
      </g>
     </g>
    </g>
    <g id="xtick_5">
     <g id="line2d_6">
      <g>
       <use xlink:href="#mfc121bbc87" x="197.14766" y="153.303813" style="stroke: #000000; stroke-width: 0.8"/>
      </g>
     </g>
     <g id="text_5">
      <!-- 2015 -->
      <g transform="translate(188.24016 165.622719) scale(0.07 -0.07)">
       <use xlink:href="#DejaVuSans-32"/>
       <use xlink:href="#DejaVuSans-30" x="63.623047"/>
       <use xlink:href="#DejaVuSans-31" x="127.246094"/>
       <use xlink:href="#DejaVuSans-35" x="190.869141"/>
      </g>
     </g>
    </g>
    <g id="xtick_6">
     <g id="line2d_7">
      <g>
       <use xlink:href="#mfc121bbc87" x="235.260739" y="153.303813" style="stroke: #000000; stroke-width: 0.8"/>
      </g>
     </g>
     <g id="text_6">
      <!-- 2020 -->
      <g transform="translate(226.353239 165.622719) scale(0.07 -0.07)">
       <use xlink:href="#DejaVuSans-32"/>
       <use xlink:href="#DejaVuSans-30" x="63.623047"/>
       <use xlink:href="#DejaVuSans-32" x="127.246094"/>
       <use xlink:href="#DejaVuSans-30" x="190.869141"/>
      </g>
     </g>
    </g>
   </g>
   <g id="matplotlib.axis_2">
    <g id="ytick_1">
     <g id="line2d_8">
      <defs>
       <path id="m40d5d339bf" d="M 0 0 
L -3.5 0 
" style="stroke: #000000; stroke-width: 0.8"/>
      </defs>
      <g>
       <use xlink:href="#m40d5d339bf" x="35.548209" y="149.472443" style="stroke: #000000; stroke-width: 0.8"/>
      </g>
     </g>
     <g id="text_7">
      <!-- −10 -->
      <g transform="translate(13.774928 152.131896) scale(0.07 -0.07)">
       <defs>
        <path id="DejaVuSans-2212" d="M 678 2272 
L 4684 2272 
L 4684 1741 
L 678 1741 
L 678 2272 
z
" transform="scale(0.015625)"/>
       </defs>
       <use xlink:href="#DejaVuSans-2212"/>
       <use xlink:href="#DejaVuSans-31" x="83.789062"/>
       <use xlink:href="#DejaVuSans-30" x="147.412109"/>
      </g>
     </g>
    </g>
    <g id="ytick_2">
     <g id="line2d_9">
      <g>
       <use xlink:href="#m40d5d339bf" x="35.548209" y="130.315594" style="stroke: #000000; stroke-width: 0.8"/>
      </g>
     </g>
     <g id="text_8">
      <!-- 0 -->
      <g transform="translate(24.094459 132.975047) scale(0.07 -0.07)">
       <use xlink:href="#DejaVuSans-30"/>
      </g>
     </g>
    </g>
    <g id="ytick_3">
     <g id="line2d_10">
      <g>
       <use xlink:href="#m40d5d339bf" x="35.548209" y="111.158744" style="stroke: #000000; stroke-width: 0.8"/>
      </g>
     </g>
     <g id="text_9">
      <!-- 10 -->
      <g transform="translate(19.640709 113.818198) scale(0.07 -0.07)">
       <use xlink:href="#DejaVuSans-31"/>
       <use xlink:href="#DejaVuSans-30" x="63.623047"/>
      </g>
     </g>
    </g>
    <g id="ytick_4">
     <g id="line2d_11">
      <g>
       <use xlink:href="#m40d5d339bf" x="35.548209" y="92.001895" style="stroke: #000000; stroke-width: 0.8"/>
      </g>
     </g>
     <g id="text_10">
      <!-- 20 -->
      <g transform="translate(19.640709 94.661348) scale(0.07 -0.07)">
       <use xlink:href="#DejaVuSans-32"/>
       <use xlink:href="#DejaVuSans-30" x="63.623047"/>
      </g>
     </g>
    </g>
    <g id="ytick_5">
     <g id="line2d_12">
      <g>
       <use xlink:href="#m40d5d339bf" x="35.548209" y="72.845046" style="stroke: #000000; stroke-width: 0.8"/>
      </g>
     </g>
     <g id="text_11">
      <!-- 30 -->
      <g transform="translate(19.640709 75.504499) scale(0.07 -0.07)">
       <defs>
        <path id="DejaVuSans-33" d="M 2597 2516 
Q 3050 2419 3304 2112 
Q 3559 1806 3559 1356 
Q 3559 666 3084 287 
Q 2609 -91 1734 -91 
Q 1441 -91 1130 -33 
Q 819 25 488 141 
L 488 750 
Q 750 597 1062 519 
Q 1375 441 1716 441 
Q 2309 441 2620 675 
Q 2931 909 2931 1356 
Q 2931 1769 2642 2001 
Q 2353 2234 1838 2234 
L 1294 2234 
L 1294 2753 
L 1863 2753 
Q 2328 2753 2575 2939 
Q 2822 3125 2822 3475 
Q 2822 3834 2567 4026 
Q 2313 4219 1838 4219 
Q 1578 4219 1281 4162 
Q 984 4106 628 3988 
L 628 4550 
Q 988 4650 1302 4700 
Q 1616 4750 1894 4750 
Q 2613 4750 3031 4423 
Q 3450 4097 3450 3541 
Q 3450 3153 3228 2886 
Q 3006 2619 2597 2516 
z
" transform="scale(0.015625)"/>
       </defs>
       <use xlink:href="#DejaVuSans-33"/>
       <use xlink:href="#DejaVuSans-30" x="63.623047"/>
      </g>
     </g>
    </g>
    <g id="ytick_6">
     <g id="line2d_13">
      <g>
       <use xlink:href="#m40d5d339bf" x="35.548209" y="53.688197" style="stroke: #000000; stroke-width: 0.8"/>
      </g>
     </g>
     <g id="text_12">
      <!-- 40 -->
      <g transform="translate(19.640709 56.34765) scale(0.07 -0.07)">
       <defs>
        <path id="DejaVuSans-34" d="M 2419 4116 
L 825 1625 
L 2419 1625 
L 2419 4116 
z
M 2253 4666 
L 3047 4666 
L 3047 1625 
L 3713 1625 
L 3713 1100 
L 3047 1100 
L 3047 0 
L 2419 0 
L 2419 1100 
L 313 1100 
L 313 1709 
L 2253 4666 
z
" transform="scale(0.015625)"/>
       </defs>
       <use xlink:href="#DejaVuSans-34"/>
       <use xlink:href="#DejaVuSans-30" x="63.623047"/>
      </g>
     </g>
    </g>
    <g id="ytick_7">
     <g id="line2d_14">
      <g>
       <use xlink:href="#m40d5d339bf" x="35.548209" y="34.531348" style="stroke: #000000; stroke-width: 0.8"/>
      </g>
     </g>
     <g id="text_13">
      <!-- 50 -->
      <g transform="translate(19.640709 37.190801) scale(0.07 -0.07)">
       <use xlink:href="#DejaVuSans-35"/>
       <use xlink:href="#DejaVuSans-30" x="63.623047"/>
      </g>
     </g>
    </g>
    <g id="text_14">
     <!-- cumulative change in carbon stocks (GtC) -->
     <g transform="translate(8.319146 162.67868) rotate(-90) scale(0.07 -0.07)">
      <defs>
       <path id="DejaVuSans-63" d="M 3122 3366 
L 3122 2828 
Q 2878 2963 2633 3030 
Q 2388 3097 2138 3097 
Q 1578 3097 1268 2742 
Q 959 2388 959 1747 
Q 959 1106 1268 751 
Q 1578 397 2138 397 
Q 2388 397 2633 464 
Q 2878 531 3122 666 
L 3122 134 
Q 2881 22 2623 -34 
Q 2366 -91 2075 -91 
Q 1284 -91 818 406 
Q 353 903 353 1747 
Q 353 2603 823 3093 
Q 1294 3584 2113 3584 
Q 2378 3584 2631 3529 
Q 2884 3475 3122 3366 
z
" transform="scale(0.015625)"/>
       <path id="DejaVuSans-75" d="M 544 1381 
L 544 3500 
L 1119 3500 
L 1119 1403 
Q 1119 906 1312 657 
Q 1506 409 1894 409 
Q 2359 409 2629 706 
Q 2900 1003 2900 1516 
L 2900 3500 
L 3475 3500 
L 3475 0 
L 2900 0 
L 2900 538 
Q 2691 219 2414 64 
Q 2138 -91 1772 -91 
Q 1169 -91 856 284 
Q 544 659 544 1381 
z
M 1991 3584 
L 1991 3584 
z
" transform="scale(0.015625)"/>
       <path id="DejaVuSans-6d" d="M 3328 2828 
Q 3544 3216 3844 3400 
Q 4144 3584 4550 3584 
Q 5097 3584 5394 3201 
Q 5691 2819 5691 2113 
L 5691 0 
L 5113 0 
L 5113 2094 
Q 5113 2597 4934 2840 
Q 4756 3084 4391 3084 
Q 3944 3084 3684 2787 
Q 3425 2491 3425 1978 
L 3425 0 
L 2847 0 
L 2847 2094 
Q 2847 2600 2669 2842 
Q 2491 3084 2119 3084 
Q 1678 3084 1418 2786 
Q 1159 2488 1159 1978 
L 1159 0 
L 581 0 
L 581 3500 
L 1159 3500 
L 1159 2956 
Q 1356 3278 1631 3431 
Q 1906 3584 2284 3584 
Q 2666 3584 2933 3390 
Q 3200 3197 3328 2828 
z
" transform="scale(0.015625)"/>
       <path id="DejaVuSans-6c" d="M 603 4863 
L 1178 4863 
L 1178 0 
L 603 0 
L 603 4863 
z
" transform="scale(0.015625)"/>
       <path id="DejaVuSans-61" d="M 2194 1759 
Q 1497 1759 1228 1600 
Q 959 1441 959 1056 
Q 959 750 1161 570 
Q 1363 391 1709 391 
Q 2188 391 2477 730 
Q 2766 1069 2766 1631 
L 2766 1759 
L 2194 1759 
z
M 3341 1997 
L 3341 0 
L 2766 0 
L 2766 531 
Q 2569 213 2275 61 
Q 1981 -91 1556 -91 
Q 1019 -91 701 211 
Q 384 513 384 1019 
Q 384 1609 779 1909 
Q 1175 2209 1959 2209 
L 2766 2209 
L 2766 2266 
Q 2766 2663 2505 2880 
Q 2244 3097 1772 3097 
Q 1472 3097 1187 3025 
Q 903 2953 641 2809 
L 641 3341 
Q 956 3463 1253 3523 
Q 1550 3584 1831 3584 
Q 2591 3584 2966 3190 
Q 3341 2797 3341 1997 
z
" transform="scale(0.015625)"/>
       <path id="DejaVuSans-74" d="M 1172 4494 
L 1172 3500 
L 2356 3500 
L 2356 3053 
L 1172 3053 
L 1172 1153 
Q 1172 725 1289 603 
Q 1406 481 1766 481 
L 2356 481 
L 2356 0 
L 1766 0 
Q 1100 0 847 248 
Q 594 497 594 1153 
L 594 3053 
L 172 3053 
L 172 3500 
L 594 3500 
L 594 4494 
L 1172 4494 
z
" transform="scale(0.015625)"/>
       <path id="DejaVuSans-69" d="M 603 3500 
L 1178 3500 
L 1178 0 
L 603 0 
L 603 3500 
z
M 603 4863 
L 1178 4863 
L 1178 4134 
L 603 4134 
L 603 4863 
z
" transform="scale(0.015625)"/>
       <path id="DejaVuSans-76" d="M 191 3500 
L 800 3500 
L 1894 563 
L 2988 3500 
L 3597 3500 
L 2284 0 
L 1503 0 
L 191 3500 
z
" transform="scale(0.015625)"/>
       <path id="DejaVuSans-65" d="M 3597 1894 
L 3597 1613 
L 953 1613 
Q 991 1019 1311 708 
Q 1631 397 2203 397 
Q 2534 397 2845 478 
Q 3156 559 3463 722 
L 3463 178 
Q 3153 47 2828 -22 
Q 2503 -91 2169 -91 
Q 1331 -91 842 396 
Q 353 884 353 1716 
Q 353 2575 817 3079 
Q 1281 3584 2069 3584 
Q 2775 3584 3186 3129 
Q 3597 2675 3597 1894 
z
M 3022 2063 
Q 3016 2534 2758 2815 
Q 2500 3097 2075 3097 
Q 1594 3097 1305 2825 
Q 1016 2553 972 2059 
L 3022 2063 
z
" transform="scale(0.015625)"/>
       <path id="DejaVuSans-20" transform="scale(0.015625)"/>
       <path id="DejaVuSans-68" d="M 3513 2113 
L 3513 0 
L 2938 0 
L 2938 2094 
Q 2938 2591 2744 2837 
Q 2550 3084 2163 3084 
Q 1697 3084 1428 2787 
Q 1159 2491 1159 1978 
L 1159 0 
L 581 0 
L 581 4863 
L 1159 4863 
L 1159 2956 
Q 1366 3272 1645 3428 
Q 1925 3584 2291 3584 
Q 2894 3584 3203 3211 
Q 3513 2838 3513 2113 
z
" transform="scale(0.015625)"/>
       <path id="DejaVuSans-6e" d="M 3513 2113 
L 3513 0 
L 2938 0 
L 2938 2094 
Q 2938 2591 2744 2837 
Q 2550 3084 2163 3084 
Q 1697 3084 1428 2787 
Q 1159 2491 1159 1978 
L 1159 0 
L 581 0 
L 581 3500 
L 1159 3500 
L 1159 2956 
Q 1366 3272 1645 3428 
Q 1925 3584 2291 3584 
Q 2894 3584 3203 3211 
Q 3513 2838 3513 2113 
z
" transform="scale(0.015625)"/>
       <path id="DejaVuSans-67" d="M 2906 1791 
Q 2906 2416 2648 2759 
Q 2391 3103 1925 3103 
Q 1463 3103 1205 2759 
Q 947 2416 947 1791 
Q 947 1169 1205 825 
Q 1463 481 1925 481 
Q 2391 481 2648 825 
Q 2906 1169 2906 1791 
z
M 3481 434 
Q 3481 -459 3084 -895 
Q 2688 -1331 1869 -1331 
Q 1566 -1331 1297 -1286 
Q 1028 -1241 775 -1147 
L 775 -588 
Q 1028 -725 1275 -790 
Q 1522 -856 1778 -856 
Q 2344 -856 2625 -561 
Q 2906 -266 2906 331 
L 2906 616 
Q 2728 306 2450 153 
Q 2172 0 1784 0 
Q 1141 0 747 490 
Q 353 981 353 1791 
Q 353 2603 747 3093 
Q 1141 3584 1784 3584 
Q 2172 3584 2450 3431 
Q 2728 3278 2906 2969 
L 2906 3500 
L 3481 3500 
L 3481 434 
z
" transform="scale(0.015625)"/>
       <path id="DejaVuSans-72" d="M 2631 2963 
Q 2534 3019 2420 3045 
Q 2306 3072 2169 3072 
Q 1681 3072 1420 2755 
Q 1159 2438 1159 1844 
L 1159 0 
L 581 0 
L 581 3500 
L 1159 3500 
L 1159 2956 
Q 1341 3275 1631 3429 
Q 1922 3584 2338 3584 
Q 2397 3584 2469 3576 
Q 2541 3569 2628 3553 
L 2631 2963 
z
" transform="scale(0.015625)"/>
       <path id="DejaVuSans-62" d="M 3116 1747 
Q 3116 2381 2855 2742 
Q 2594 3103 2138 3103 
Q 1681 3103 1420 2742 
Q 1159 2381 1159 1747 
Q 1159 1113 1420 752 
Q 1681 391 2138 391 
Q 2594 391 2855 752 
Q 3116 1113 3116 1747 
z
M 1159 2969 
Q 1341 3281 1617 3432 
Q 1894 3584 2278 3584 
Q 2916 3584 3314 3078 
Q 3713 2572 3713 1747 
Q 3713 922 3314 415 
Q 2916 -91 2278 -91 
Q 1894 -91 1617 61 
Q 1341 213 1159 525 
L 1159 0 
L 581 0 
L 581 4863 
L 1159 4863 
L 1159 2969 
z
" transform="scale(0.015625)"/>
       <path id="DejaVuSans-6f" d="M 1959 3097 
Q 1497 3097 1228 2736 
Q 959 2375 959 1747 
Q 959 1119 1226 758 
Q 1494 397 1959 397 
Q 2419 397 2687 759 
Q 2956 1122 2956 1747 
Q 2956 2369 2687 2733 
Q 2419 3097 1959 3097 
z
M 1959 3584 
Q 2709 3584 3137 3096 
Q 3566 2609 3566 1747 
Q 3566 888 3137 398 
Q 2709 -91 1959 -91 
Q 1206 -91 779 398 
Q 353 888 353 1747 
Q 353 2609 779 3096 
Q 1206 3584 1959 3584 
z
" transform="scale(0.015625)"/>
       <path id="DejaVuSans-73" d="M 2834 3397 
L 2834 2853 
Q 2591 2978 2328 3040 
Q 2066 3103 1784 3103 
Q 1356 3103 1142 2972 
Q 928 2841 928 2578 
Q 928 2378 1081 2264 
Q 1234 2150 1697 2047 
L 1894 2003 
Q 2506 1872 2764 1633 
Q 3022 1394 3022 966 
Q 3022 478 2636 193 
Q 2250 -91 1575 -91 
Q 1294 -91 989 -36 
Q 684 19 347 128 
L 347 722 
Q 666 556 975 473 
Q 1284 391 1588 391 
Q 1994 391 2212 530 
Q 2431 669 2431 922 
Q 2431 1156 2273 1281 
Q 2116 1406 1581 1522 
L 1381 1569 
Q 847 1681 609 1914 
Q 372 2147 372 2553 
Q 372 3047 722 3315 
Q 1072 3584 1716 3584 
Q 2034 3584 2315 3537 
Q 2597 3491 2834 3397 
z
" transform="scale(0.015625)"/>
       <path id="DejaVuSans-6b" d="M 581 4863 
L 1159 4863 
L 1159 1991 
L 2875 3500 
L 3609 3500 
L 1753 1863 
L 3688 0 
L 2938 0 
L 1159 1709 
L 1159 0 
L 581 0 
L 581 4863 
z
" transform="scale(0.015625)"/>
       <path id="DejaVuSans-28" d="M 1984 4856 
Q 1566 4138 1362 3434 
Q 1159 2731 1159 2009 
Q 1159 1288 1364 580 
Q 1569 -128 1984 -844 
L 1484 -844 
Q 1016 -109 783 600 
Q 550 1309 550 2009 
Q 550 2706 781 3412 
Q 1013 4119 1484 4856 
L 1984 4856 
z
" transform="scale(0.015625)"/>
       <path id="DejaVuSans-47" d="M 3809 666 
L 3809 1919 
L 2778 1919 
L 2778 2438 
L 4434 2438 
L 4434 434 
Q 4069 175 3628 42 
Q 3188 -91 2688 -91 
Q 1594 -91 976 548 
Q 359 1188 359 2328 
Q 359 3472 976 4111 
Q 1594 4750 2688 4750 
Q 3144 4750 3555 4637 
Q 3966 4525 4313 4306 
L 4313 3634 
Q 3963 3931 3569 4081 
Q 3175 4231 2741 4231 
Q 1884 4231 1454 3753 
Q 1025 3275 1025 2328 
Q 1025 1384 1454 906 
Q 1884 428 2741 428 
Q 3075 428 3337 486 
Q 3600 544 3809 666 
z
" transform="scale(0.015625)"/>
       <path id="DejaVuSans-43" d="M 4122 4306 
L 4122 3641 
Q 3803 3938 3442 4084 
Q 3081 4231 2675 4231 
Q 1875 4231 1450 3742 
Q 1025 3253 1025 2328 
Q 1025 1406 1450 917 
Q 1875 428 2675 428 
Q 3081 428 3442 575 
Q 3803 722 4122 1019 
L 4122 359 
Q 3791 134 3420 21 
Q 3050 -91 2638 -91 
Q 1578 -91 968 557 
Q 359 1206 359 2328 
Q 359 3453 968 4101 
Q 1578 4750 2638 4750 
Q 3056 4750 3426 4639 
Q 3797 4528 4122 4306 
z
" transform="scale(0.015625)"/>
       <path id="DejaVuSans-29" d="M 513 4856 
L 1013 4856 
Q 1481 4119 1714 3412 
Q 1947 2706 1947 2009 
Q 1947 1309 1714 600 
Q 1481 -109 1013 -844 
L 513 -844 
Q 928 -128 1133 580 
Q 1338 1288 1338 2009 
Q 1338 2731 1133 3434 
Q 928 4138 513 4856 
z
" transform="scale(0.015625)"/>
      </defs>
      <use xlink:href="#DejaVuSans-63"/>
      <use xlink:href="#DejaVuSans-75" x="54.980469"/>
      <use xlink:href="#DejaVuSans-6d" x="118.359375"/>
      <use xlink:href="#DejaVuSans-75" x="215.771484"/>
      <use xlink:href="#DejaVuSans-6c" x="279.150391"/>
      <use xlink:href="#DejaVuSans-61" x="306.933594"/>
      <use xlink:href="#DejaVuSans-74" x="368.212891"/>
      <use xlink:href="#DejaVuSans-69" x="407.421875"/>
      <use xlink:href="#DejaVuSans-76" x="435.205078"/>
      <use xlink:href="#DejaVuSans-65" x="494.384766"/>
      <use xlink:href="#DejaVuSans-20" x="555.908203"/>
      <use xlink:href="#DejaVuSans-63" x="587.695312"/>
      <use xlink:href="#DejaVuSans-68" x="642.675781"/>
      <use xlink:href="#DejaVuSans-61" x="706.054688"/>
      <use xlink:href="#DejaVuSans-6e" x="767.333984"/>
      <use xlink:href="#DejaVuSans-67" x="830.712891"/>
      <use xlink:href="#DejaVuSans-65" x="894.189453"/>
      <use xlink:href="#DejaVuSans-20" x="955.712891"/>
      <use xlink:href="#DejaVuSans-69" x="987.5"/>
      <use xlink:href="#DejaVuSans-6e" x="1015.283203"/>
      <use xlink:href="#DejaVuSans-20" x="1078.662109"/>
      <use xlink:href="#DejaVuSans-63" x="1110.449219"/>
      <use xlink:href="#DejaVuSans-61" x="1165.429688"/>
      <use xlink:href="#DejaVuSans-72" x="1226.708984"/>
      <use xlink:href="#DejaVuSans-62" x="1267.822266"/>
      <use xlink:href="#DejaVuSans-6f" x="1331.298828"/>
      <use xlink:href="#DejaVuSans-6e" x="1392.480469"/>
      <use xlink:href="#DejaVuSans-20" x="1455.859375"/>
      <use xlink:href="#DejaVuSans-73" x="1487.646484"/>
      <use xlink:href="#DejaVuSans-74" x="1539.746094"/>
      <use xlink:href="#DejaVuSans-6f" x="1578.955078"/>
      <use xlink:href="#DejaVuSans-63" x="1640.136719"/>
      <use xlink:href="#DejaVuSans-6b" x="1695.117188"/>
      <use xlink:href="#DejaVuSans-73" x="1753.027344"/>
      <use xlink:href="#DejaVuSans-20" x="1805.126953"/>
      <use xlink:href="#DejaVuSans-28" x="1836.914062"/>
      <use xlink:href="#DejaVuSans-47" x="1875.927734"/>
      <use xlink:href="#DejaVuSans-74" x="1953.417969"/>
      <use xlink:href="#DejaVuSans-43" x="1992.626953"/>
      <use xlink:href="#DejaVuSans-29" x="2062.451172"/>
     </g>
    </g>
   </g>
   <g id="line2d_15">
    <path d="M 44.695348 130.315594 
L 52.317963 130.162756 
L 59.940579 129.775823 
L 67.563194 131.311388 
L 75.18581 131.121385 
L 82.808426 129.056038 
L 90.431041 127.837681 
L 98.053657 127.705548 
L 105.676273 129.051813 
L 113.298888 125.982829 
L 120.921504 126.612065 
L 128.54412 125.749326 
L 136.166735 124.743767 
L 143.789351 123.722678 
L 151.411966 122.490444 
L 159.034582 125.005306 
L 166.657198 124.863018 
L 174.279813 124.267494 
L 181.902429 124.252027 
L 189.525045 123.135742 
L 197.14766 121.132571 
L 204.770276 117.888095 
L 212.392892 117.661614 
L 220.015507 117.377785 
L 227.638123 118.029075 
" clip-path="url(#p9c1cb1f625)" style="fill: none; stroke: #228b22; stroke-width: 1.5; stroke-linecap: square"/>
   </g>
   <g id="line2d_16">
    <path d="M 44.695348 130.315594 
L 52.317963 126.032976 
L 59.940579 125.75229 
L 67.563194 129.123446 
L 75.18581 125.626115 
L 82.808426 121.345131 
L 90.431041 119.188077 
L 98.053657 119.663891 
L 105.676273 119.296646 
L 113.298888 115.388174 
L 120.921504 114.751962 
L 128.54412 110.965359 
L 136.166735 108.02261 
L 143.789351 103.425829 
L 151.411966 98.658024 
L 159.034582 96.298833 
L 166.657198 90.435469 
L 174.279813 87.410588 
L 181.902429 84.469375 
L 189.525045 80.01389 
L 197.14766 79.387281 
L 204.770276 78.547151 
L 212.392892 74.305167 
L 220.015507 70.851954 
L 227.638123 67.80279 
" clip-path="url(#p9c1cb1f625)" style="fill: none; stroke: #000000; stroke-width: 1.5; stroke-linecap: square"/>
   </g>
   <g id="patch_3">
    <path d="M 35.548209 153.303813 
L 35.548209 24.952923 
" style="fill: none; stroke: #000000; stroke-width: 0.8; stroke-linejoin: miter; stroke-linecap: square"/>
   </g>
   <g id="patch_4">
    <path d="M 35.548209 153.303813 
L 236.785262 153.303813 
" style="fill: none; stroke: #000000; stroke-width: 0.8; stroke-linejoin: miter; stroke-linecap: square"/>
   </g>
   <g id="text_15">
    <!-- change in land -->
    <g transform="translate(156.048913 36.271303) scale(0.07 -0.07)">
     <defs>
      <path id="DejaVuSans-64" d="M 2906 2969 
L 2906 4863 
L 3481 4863 
L 3481 0 
L 2906 0 
L 2906 525 
Q 2725 213 2448 61 
Q 2172 -91 1784 -91 
Q 1150 -91 751 415 
Q 353 922 353 1747 
Q 353 2572 751 3078 
Q 1150 3584 1784 3584 
Q 2172 3584 2448 3432 
Q 2725 3281 2906 2969 
z
M 947 1747 
Q 947 1113 1208 752 
Q 1469 391 1925 391 
Q 2381 391 2643 752 
Q 2906 1113 2906 1747 
Q 2906 2381 2643 2742 
Q 2381 3103 1925 3103 
Q 1469 3103 1208 2742 
Q 947 2381 947 1747 
z
" transform="scale(0.015625)"/>
     </defs>
     <use xlink:href="#DejaVuSans-63"/>
     <use xlink:href="#DejaVuSans-68" x="54.980469"/>
     <use xlink:href="#DejaVuSans-61" x="118.359375"/>
     <use xlink:href="#DejaVuSans-6e" x="179.638672"/>
     <use xlink:href="#DejaVuSans-67" x="243.017578"/>
     <use xlink:href="#DejaVuSans-65" x="306.494141"/>
     <use xlink:href="#DejaVuSans-20" x="368.017578"/>
     <use xlink:href="#DejaVuSans-69" x="399.804688"/>
     <use xlink:href="#DejaVuSans-6e" x="427.587891"/>
     <use xlink:href="#DejaVuSans-20" x="490.966797"/>
     <use xlink:href="#DejaVuSans-6c" x="522.753906"/>
     <use xlink:href="#DejaVuSans-61" x="550.537109"/>
     <use xlink:href="#DejaVuSans-6e" x="611.816406"/>
     <use xlink:href="#DejaVuSans-64" x="675.195312"/>
    </g>
    <!-- carbon stocks -->
    <g transform="translate(157.588913 44.109772) scale(0.07 -0.07)">
     <use xlink:href="#DejaVuSans-63"/>
     <use xlink:href="#DejaVuSans-61" x="54.980469"/>
     <use xlink:href="#DejaVuSans-72" x="116.259766"/>
     <use xlink:href="#DejaVuSans-62" x="157.373047"/>
     <use xlink:href="#DejaVuSans-6f" x="220.849609"/>
     <use xlink:href="#DejaVuSans-6e" x="282.03125"/>
     <use xlink:href="#DejaVuSans-20" x="345.410156"/>
     <use xlink:href="#DejaVuSans-73" x="377.197266"/>
     <use xlink:href="#DejaVuSans-74" x="429.296875"/>
     <use xlink:href="#DejaVuSans-6f" x="468.505859"/>
     <use xlink:href="#DejaVuSans-63" x="529.6875"/>
     <use xlink:href="#DejaVuSans-6b" x="584.667969"/>
     <use xlink:href="#DejaVuSans-73" x="642.578125"/>
    </g>
   </g>
   <g id="text_16">
    <!-- change in -->
    <g style="fill: #228b22" transform="translate(187.58637 105.235961) scale(0.07 -0.07)">
     <use xlink:href="#DejaVuSans-63"/>
     <use xlink:href="#DejaVuSans-68" x="54.980469"/>
     <use xlink:href="#DejaVuSans-61" x="118.359375"/>
     <use xlink:href="#DejaVuSans-6e" x="179.638672"/>
     <use xlink:href="#DejaVuSans-67" x="243.017578"/>
     <use xlink:href="#DejaVuSans-65" x="306.494141"/>
     <use xlink:href="#DejaVuSans-20" x="368.017578"/>
     <use xlink:href="#DejaVuSans-69" x="399.804688"/>
     <use xlink:href="#DejaVuSans-6e" x="427.587891"/>
    </g>
    <!-- biomass stocks -->
    <g style="fill: #228b22" transform="translate(178.010042 113.074429) scale(0.07 -0.07)">
     <use xlink:href="#DejaVuSans-62"/>
     <use xlink:href="#DejaVuSans-69" x="63.476562"/>
     <use xlink:href="#DejaVuSans-6f" x="91.259766"/>
     <use xlink:href="#DejaVuSans-6d" x="152.441406"/>
     <use xlink:href="#DejaVuSans-61" x="249.853516"/>
     <use xlink:href="#DejaVuSans-73" x="311.132812"/>
     <use xlink:href="#DejaVuSans-73" x="363.232422"/>
     <use xlink:href="#DejaVuSans-20" x="415.332031"/>
     <use xlink:href="#DejaVuSans-73" x="447.119141"/>
     <use xlink:href="#DejaVuSans-74" x="499.21875"/>
     <use xlink:href="#DejaVuSans-6f" x="538.427734"/>
     <use xlink:href="#DejaVuSans-63" x="599.609375"/>
     <use xlink:href="#DejaVuSans-6b" x="654.589844"/>
     <use xlink:href="#DejaVuSans-73" x="712.5"/>
    </g>
   </g>
   <g id="text_17">
    <!-- A -->
    <g transform="translate(25.486356 12.117834) scale(0.12 -0.12)">
     <defs>
      <path id="DejaVuSans-41" d="M 2188 4044 
L 1331 1722 
L 3047 1722 
L 2188 4044 
z
M 1831 4666 
L 2547 4666 
L 4325 0 
L 3669 0 
L 3244 1197 
L 1141 1197 
L 716 0 
L 50 0 
L 1831 4666 
z
" transform="scale(0.015625)"/>
     </defs>
     <use xlink:href="#DejaVuSans-41"/>
    </g>
   </g>
   <g id="text_18">
    <!-- this study -->
    <g transform="translate(111.587829 18.952923) scale(0.1 -0.1)">
     <defs>
      <path id="DejaVuSans-79" d="M 2059 -325 
Q 1816 -950 1584 -1140 
Q 1353 -1331 966 -1331 
L 506 -1331 
L 506 -850 
L 844 -850 
Q 1081 -850 1212 -737 
Q 1344 -625 1503 -206 
L 1606 56 
L 191 3500 
L 800 3500 
L 1894 763 
L 2988 3500 
L 3597 3500 
L 2059 -325 
z
" transform="scale(0.015625)"/>
     </defs>
     <use xlink:href="#DejaVuSans-74"/>
     <use xlink:href="#DejaVuSans-68" x="39.208984"/>
     <use xlink:href="#DejaVuSans-69" x="102.587891"/>
     <use xlink:href="#DejaVuSans-73" x="130.371094"/>
     <use xlink:href="#DejaVuSans-20" x="182.470703"/>
     <use xlink:href="#DejaVuSans-73" x="214.257812"/>
     <use xlink:href="#DejaVuSans-74" x="266.357422"/>
     <use xlink:href="#DejaVuSans-75" x="305.566406"/>
     <use xlink:href="#DejaVuSans-64" x="368.945312"/>
     <use xlink:href="#DejaVuSans-79" x="432.421875"/>
    </g>
   </g>
  </g>
  <g id="axes_2">
   <g id="patch_5">
    <path d="M 282.716666 153.303813 
L 483.953719 153.303813 
L 483.953719 24.952923 
L 282.716666 24.952923 
z
" style="fill: #ffffff"/>
   </g>
   <g id="line2d_17">
    <path d="M 282.716666 130.315594 
L 483.953719 130.315594 
" clip-path="url(#p2e8f419d90)" style="fill: none; stroke-dasharray: 5.55,2.4; stroke-dashoffset: 0; stroke: #808080; stroke-width: 1.5"/>
   </g>
   <g id="PolyCollection_3">
    <defs>
     <path id="m424d3ce232" d="M 291.863805 -39.763147 
L 291.863805 -39.763147 
L 299.486421 -39.639285 
L 307.109036 -40.349495 
L 314.731652 -39.877727 
L 322.354268 -39.79347 
L 329.976883 -40.291813 
L 337.599499 -41.084524 
L 345.222115 -40.891908 
L 352.84473 -41.2831 
L 360.467346 -41.413811 
L 368.089962 -41.39956 
L 375.712577 -43.377449 
L 383.335193 -44.686724 
L 390.957808 -46.083037 
L 398.580424 -46.738046 
L 406.20304 -48.12645 
L 413.825655 -50.014074 
L 421.448271 -50.324714 
L 429.070887 -50.583681 
L 436.693502 -52.402649 
L 444.316118 -53.077238 
L 451.938734 -54.160042 
L 459.561349 -55.94172 
L 467.183965 -57.273553 
L 474.80658 -57.220515 
L 474.80658 -104.058788 
L 474.80658 -104.058788 
L 467.183965 -102.483248 
L 459.561349 -99.681111 
L 451.938734 -95.501948 
L 444.316118 -92.172068 
L 436.693502 -90.498572 
L 429.070887 -85.446555 
L 421.448271 -82.519372 
L 413.825655 -81.510302 
L 406.20304 -77.495378 
L 398.580424 -73.344234 
L 390.957808 -70.813738 
L 383.335193 -67.753315 
L 375.712577 -65.02713 
L 368.089962 -61.441428 
L 360.467346 -59.575429 
L 352.84473 -57.62519 
L 345.222115 -56.93582 
L 337.599499 -56.911485 
L 329.976883 -54.731401 
L 322.354268 -50.762251 
L 314.731652 -48.477321 
L 307.109036 -46.841506 
L 299.486421 -42.584991 
L 291.863805 -39.763147 
z
"/>
    </defs>
    <g clip-path="url(#p2e8f419d90)">
     <use xlink:href="#m424d3ce232" x="0" y="170.07874" style="fill: #a2b409; fill-opacity: 0.2"/>
    </g>
   </g>
   <g id="PolyCollection_4">
    <defs>
     <path id="m2a48778732" d="M 291.863805 -39.763147 
L 291.863805 -39.763147 
L 299.486421 -41.320381 
L 307.109036 -42.879771 
L 314.731652 -41.710328 
L 322.354268 -43.668723 
L 329.976883 -45.632264 
L 337.599499 -46.824877 
L 345.222115 -46.822045 
L 352.84473 -47.581688 
L 360.467346 -48.904323 
L 368.089962 -49.845556 
L 375.712577 -52.647568 
L 383.335193 -54.737307 
L 390.957808 -57.632866 
L 398.580424 -59.548942 
L 406.20304 -61.417672 
L 413.825655 -65.199825 
L 421.448271 -66.455994 
L 429.070887 -68.512029 
L 436.693502 -71.594349 
L 444.316118 -72.389636 
L 451.938734 -73.896534 
L 459.561349 -76.815348 
L 467.183965 -79.59114 
L 474.80658 -80.6887 
L 474.80658 -126.555905 
L 474.80658 -126.555905 
L 467.183965 -123.679036 
L 459.561349 -119.204664 
L 451.938734 -113.59708 
L 444.316118 -109.536861 
L 436.693502 -107.661917 
L 429.070887 -102.23642 
L 421.448271 -97.835748 
L 413.825655 -95.949058 
L 406.20304 -90.227586 
L 398.580424 -85.344673 
L 390.957808 -82.320941 
L 383.335193 -77.83917 
L 375.712577 -74.981322 
L 368.089962 -70.877085 
L 360.467346 -69.829898 
L 352.84473 -65.689095 
L 345.222115 -64.069776 
L 337.599499 -64.312296 
L 329.976883 -61.355128 
L 322.354268 -55.444558 
L 314.731652 -51.118812 
L 307.109036 -49.168633 
L 299.486421 -44.533438 
L 291.863805 -39.763147 
z
"/>
    </defs>
    <g clip-path="url(#p2e8f419d90)">
     <use xlink:href="#m2a48778732" x="0" y="170.07874" style="fill: #817667; fill-opacity: 0.2"/>
    </g>
   </g>
   <g id="matplotlib.axis_3">
    <g id="xtick_7">
     <g id="line2d_18">
      <g>
       <use xlink:href="#mfc121bbc87" x="291.863805" y="153.303813" style="stroke: #000000; stroke-width: 0.8"/>
      </g>
     </g>
     <g id="text_19">
      <!-- 1995 -->
      <g transform="translate(282.956305 165.622719) scale(0.07 -0.07)">
       <use xlink:href="#DejaVuSans-31"/>
       <use xlink:href="#DejaVuSans-39" x="63.623047"/>
       <use xlink:href="#DejaVuSans-39" x="127.246094"/>
       <use xlink:href="#DejaVuSans-35" x="190.869141"/>
      </g>
     </g>
    </g>
    <g id="xtick_8">
     <g id="line2d_19">
      <g>
       <use xlink:href="#mfc121bbc87" x="329.976883" y="153.303813" style="stroke: #000000; stroke-width: 0.8"/>
      </g>
     </g>
     <g id="text_20">
      <!-- 2000 -->
      <g transform="translate(321.069383 165.622719) scale(0.07 -0.07)">
       <use xlink:href="#DejaVuSans-32"/>
       <use xlink:href="#DejaVuSans-30" x="63.623047"/>
       <use xlink:href="#DejaVuSans-30" x="127.246094"/>
       <use xlink:href="#DejaVuSans-30" x="190.869141"/>
      </g>
     </g>
    </g>
    <g id="xtick_9">
     <g id="line2d_20">
      <g>
       <use xlink:href="#mfc121bbc87" x="368.089962" y="153.303813" style="stroke: #000000; stroke-width: 0.8"/>
      </g>
     </g>
     <g id="text_21">
      <!-- 2005 -->
      <g transform="translate(359.182462 165.622719) scale(0.07 -0.07)">
       <use xlink:href="#DejaVuSans-32"/>
       <use xlink:href="#DejaVuSans-30" x="63.623047"/>
       <use xlink:href="#DejaVuSans-30" x="127.246094"/>
       <use xlink:href="#DejaVuSans-35" x="190.869141"/>
      </g>
     </g>
    </g>
    <g id="xtick_10">
     <g id="line2d_21">
      <g>
       <use xlink:href="#mfc121bbc87" x="406.20304" y="153.303813" style="stroke: #000000; stroke-width: 0.8"/>
      </g>
     </g>
     <g id="text_22">
      <!-- 2010 -->
      <g transform="translate(397.29554 165.622719) scale(0.07 -0.07)">
       <use xlink:href="#DejaVuSans-32"/>
       <use xlink:href="#DejaVuSans-30" x="63.623047"/>
       <use xlink:href="#DejaVuSans-31" x="127.246094"/>
       <use xlink:href="#DejaVuSans-30" x="190.869141"/>
      </g>
     </g>
    </g>
    <g id="xtick_11">
     <g id="line2d_22">
      <g>
       <use xlink:href="#mfc121bbc87" x="444.316118" y="153.303813" style="stroke: #000000; stroke-width: 0.8"/>
      </g>
     </g>
     <g id="text_23">
      <!-- 2015 -->
      <g transform="translate(435.408618 165.622719) scale(0.07 -0.07)">
       <use xlink:href="#DejaVuSans-32"/>
       <use xlink:href="#DejaVuSans-30" x="63.623047"/>
       <use xlink:href="#DejaVuSans-31" x="127.246094"/>
       <use xlink:href="#DejaVuSans-35" x="190.869141"/>
      </g>
     </g>
    </g>
    <g id="xtick_12">
     <g id="line2d_23">
      <g>
       <use xlink:href="#mfc121bbc87" x="482.429196" y="153.303813" style="stroke: #000000; stroke-width: 0.8"/>
      </g>
     </g>
     <g id="text_24">
      <!-- 2020 -->
      <g transform="translate(473.521696 165.622719) scale(0.07 -0.07)">
       <use xlink:href="#DejaVuSans-32"/>
       <use xlink:href="#DejaVuSans-30" x="63.623047"/>
       <use xlink:href="#DejaVuSans-32" x="127.246094"/>
       <use xlink:href="#DejaVuSans-30" x="190.869141"/>
      </g>
     </g>
    </g>
   </g>
   <g id="matplotlib.axis_4">
    <g id="ytick_8">
     <g id="line2d_24">
      <g>
       <use xlink:href="#m40d5d339bf" x="282.716666" y="149.472443" style="stroke: #000000; stroke-width: 0.8"/>
      </g>
     </g>
     <g id="text_25">
      <!-- −10 -->
      <g transform="translate(260.943385 152.131896) scale(0.07 -0.07)">
       <use xlink:href="#DejaVuSans-2212"/>
       <use xlink:href="#DejaVuSans-31" x="83.789062"/>
       <use xlink:href="#DejaVuSans-30" x="147.412109"/>
      </g>
     </g>
    </g>
    <g id="ytick_9">
     <g id="line2d_25">
      <g>
       <use xlink:href="#m40d5d339bf" x="282.716666" y="130.315594" style="stroke: #000000; stroke-width: 0.8"/>
      </g>
     </g>
     <g id="text_26">
      <!-- 0 -->
      <g transform="translate(271.262916 132.975047) scale(0.07 -0.07)">
       <use xlink:href="#DejaVuSans-30"/>
      </g>
     </g>
    </g>
    <g id="ytick_10">
     <g id="line2d_26">
      <g>
       <use xlink:href="#m40d5d339bf" x="282.716666" y="111.158744" style="stroke: #000000; stroke-width: 0.8"/>
      </g>
     </g>
     <g id="text_27">
      <!-- 10 -->
      <g transform="translate(266.809166 113.818198) scale(0.07 -0.07)">
       <use xlink:href="#DejaVuSans-31"/>
       <use xlink:href="#DejaVuSans-30" x="63.623047"/>
      </g>
     </g>
    </g>
    <g id="ytick_11">
     <g id="line2d_27">
      <g>
       <use xlink:href="#m40d5d339bf" x="282.716666" y="92.001895" style="stroke: #000000; stroke-width: 0.8"/>
      </g>
     </g>
     <g id="text_28">
      <!-- 20 -->
      <g transform="translate(266.809166 94.661348) scale(0.07 -0.07)">
       <use xlink:href="#DejaVuSans-32"/>
       <use xlink:href="#DejaVuSans-30" x="63.623047"/>
      </g>
     </g>
    </g>
    <g id="ytick_12">
     <g id="line2d_28">
      <g>
       <use xlink:href="#m40d5d339bf" x="282.716666" y="72.845046" style="stroke: #000000; stroke-width: 0.8"/>
      </g>
     </g>
     <g id="text_29">
      <!-- 30 -->
      <g transform="translate(266.809166 75.504499) scale(0.07 -0.07)">
       <use xlink:href="#DejaVuSans-33"/>
       <use xlink:href="#DejaVuSans-30" x="63.623047"/>
      </g>
     </g>
    </g>
    <g id="ytick_13">
     <g id="line2d_29">
      <g>
       <use xlink:href="#m40d5d339bf" x="282.716666" y="53.688197" style="stroke: #000000; stroke-width: 0.8"/>
      </g>
     </g>
     <g id="text_30">
      <!-- 40 -->
      <g transform="translate(266.809166 56.34765) scale(0.07 -0.07)">
       <use xlink:href="#DejaVuSans-34"/>
       <use xlink:href="#DejaVuSans-30" x="63.623047"/>
      </g>
     </g>
    </g>
    <g id="ytick_14">
     <g id="line2d_30">
      <g>
       <use xlink:href="#m40d5d339bf" x="282.716666" y="34.531348" style="stroke: #000000; stroke-width: 0.8"/>
      </g>
     </g>
     <g id="text_31">
      <!-- 50 -->
      <g transform="translate(266.809166 37.190801) scale(0.07 -0.07)">
       <use xlink:href="#DejaVuSans-35"/>
       <use xlink:href="#DejaVuSans-30" x="63.623047"/>
      </g>
     </g>
    </g>
    <g id="text_32">
     <!-- cumulative change in carbon stocks (GtC) -->
     <g transform="translate(255.487604 162.67868) rotate(-90) scale(0.07 -0.07)">
      <use xlink:href="#DejaVuSans-63"/>
      <use xlink:href="#DejaVuSans-75" x="54.980469"/>
      <use xlink:href="#DejaVuSans-6d" x="118.359375"/>
      <use xlink:href="#DejaVuSans-75" x="215.771484"/>
      <use xlink:href="#DejaVuSans-6c" x="279.150391"/>
      <use xlink:href="#DejaVuSans-61" x="306.933594"/>
      <use xlink:href="#DejaVuSans-74" x="368.212891"/>
      <use xlink:href="#DejaVuSans-69" x="407.421875"/>
      <use xlink:href="#DejaVuSans-76" x="435.205078"/>
      <use xlink:href="#DejaVuSans-65" x="494.384766"/>
      <use xlink:href="#DejaVuSans-20" x="555.908203"/>
      <use xlink:href="#DejaVuSans-63" x="587.695312"/>
      <use xlink:href="#DejaVuSans-68" x="642.675781"/>
      <use xlink:href="#DejaVuSans-61" x="706.054688"/>
      <use xlink:href="#DejaVuSans-6e" x="767.333984"/>
      <use xlink:href="#DejaVuSans-67" x="830.712891"/>
      <use xlink:href="#DejaVuSans-65" x="894.189453"/>
      <use xlink:href="#DejaVuSans-20" x="955.712891"/>
      <use xlink:href="#DejaVuSans-69" x="987.5"/>
      <use xlink:href="#DejaVuSans-6e" x="1015.283203"/>
      <use xlink:href="#DejaVuSans-20" x="1078.662109"/>
      <use xlink:href="#DejaVuSans-63" x="1110.449219"/>
      <use xlink:href="#DejaVuSans-61" x="1165.429688"/>
      <use xlink:href="#DejaVuSans-72" x="1226.708984"/>
      <use xlink:href="#DejaVuSans-62" x="1267.822266"/>
      <use xlink:href="#DejaVuSans-6f" x="1331.298828"/>
      <use xlink:href="#DejaVuSans-6e" x="1392.480469"/>
      <use xlink:href="#DejaVuSans-20" x="1455.859375"/>
      <use xlink:href="#DejaVuSans-73" x="1487.646484"/>
      <use xlink:href="#DejaVuSans-74" x="1539.746094"/>
      <use xlink:href="#DejaVuSans-6f" x="1578.955078"/>
      <use xlink:href="#DejaVuSans-63" x="1640.136719"/>
      <use xlink:href="#DejaVuSans-6b" x="1695.117188"/>
      <use xlink:href="#DejaVuSans-73" x="1753.027344"/>
      <use xlink:href="#DejaVuSans-20" x="1805.126953"/>
      <use xlink:href="#DejaVuSans-28" x="1836.914062"/>
      <use xlink:href="#DejaVuSans-47" x="1875.927734"/>
      <use xlink:href="#DejaVuSans-74" x="1953.417969"/>
      <use xlink:href="#DejaVuSans-43" x="1992.626953"/>
      <use xlink:href="#DejaVuSans-29" x="2062.451172"/>
     </g>
    </g>
   </g>
   <g id="line2d_31">
    <path d="M 291.863805 130.315594 
L 299.486421 128.966602 
L 307.109036 126.483239 
L 314.731652 125.901216 
L 322.354268 124.80088 
L 329.976883 122.567133 
L 337.599499 121.080736 
L 345.222115 121.164876 
L 352.84473 120.624595 
L 360.467346 119.58412 
L 368.089962 118.658246 
L 375.712577 115.87645 
L 383.335193 113.858721 
L 390.957808 111.630353 
L 398.580424 110.0376 
L 406.20304 107.267826 
L 413.825655 104.316552 
L 421.448271 103.656697 
L 429.070887 102.063622 
L 436.693502 98.628129 
L 444.316118 97.454087 
L 451.938734 95.247745 
L 459.561349 92.267325 
L 467.183965 90.20034 
L 474.80658 89.439089 
" clip-path="url(#p2e8f419d90)" style="fill: none; stroke: #a2b409; stroke-width: 1.5; stroke-linecap: square"/>
   </g>
   <g id="line2d_32">
    <path d="M 291.863805 130.315594 
L 299.486421 127.151831 
L 307.109036 124.054538 
L 314.731652 123.66417 
L 322.354268 120.5221 
L 329.976883 116.585044 
L 337.599499 114.510153 
L 345.222115 114.63283 
L 352.84473 113.443349 
L 360.467346 110.71163 
L 368.089962 109.717419 
L 375.712577 106.264295 
L 383.335193 103.790502 
L 390.957808 100.101837 
L 398.580424 97.631932 
L 406.20304 94.256111 
L 413.825655 89.504299 
L 421.448271 87.932869 
L 429.070887 84.704516 
L 436.693502 80.450607 
L 444.316118 79.115492 
L 451.938734 76.331934 
L 459.561349 72.068734 
L 467.183965 68.443652 
L 474.80658 66.456438 
" clip-path="url(#p2e8f419d90)" style="fill: none; stroke: #817667; stroke-width: 1.5; stroke-linecap: square"/>
   </g>
   <g id="patch_6">
    <path d="M 282.716666 153.303813 
L 282.716666 24.952923 
" style="fill: none; stroke: #000000; stroke-width: 0.8; stroke-linejoin: miter; stroke-linecap: square"/>
   </g>
   <g id="patch_7">
    <path d="M 282.716666 153.303813 
L 483.953719 153.303813 
" style="fill: none; stroke: #000000; stroke-width: 0.8; stroke-linejoin: miter; stroke-linecap: square"/>
   </g>
   <g id="text_33">
    <!-- change in land -->
    <g style="fill: #817667" transform="translate(380.349524 45.849728) scale(0.07 -0.07)">
     <use xlink:href="#DejaVuSans-63"/>
     <use xlink:href="#DejaVuSans-68" x="54.980469"/>
     <use xlink:href="#DejaVuSans-61" x="118.359375"/>
     <use xlink:href="#DejaVuSans-6e" x="179.638672"/>
     <use xlink:href="#DejaVuSans-67" x="243.017578"/>
     <use xlink:href="#DejaVuSans-65" x="306.494141"/>
     <use xlink:href="#DejaVuSans-20" x="368.017578"/>
     <use xlink:href="#DejaVuSans-69" x="399.804688"/>
     <use xlink:href="#DejaVuSans-6e" x="427.587891"/>
     <use xlink:href="#DejaVuSans-20" x="490.966797"/>
     <use xlink:href="#DejaVuSans-6c" x="522.753906"/>
     <use xlink:href="#DejaVuSans-61" x="550.537109"/>
     <use xlink:href="#DejaVuSans-6e" x="611.816406"/>
     <use xlink:href="#DejaVuSans-64" x="675.195312"/>
    </g>
    <!-- carbon stocks -->
    <g style="fill: #817667" transform="translate(381.889524 53.688197) scale(0.07 -0.07)">
     <use xlink:href="#DejaVuSans-63"/>
     <use xlink:href="#DejaVuSans-61" x="54.980469"/>
     <use xlink:href="#DejaVuSans-72" x="116.259766"/>
     <use xlink:href="#DejaVuSans-62" x="157.373047"/>
     <use xlink:href="#DejaVuSans-6f" x="220.849609"/>
     <use xlink:href="#DejaVuSans-6e" x="282.03125"/>
     <use xlink:href="#DejaVuSans-20" x="345.410156"/>
     <use xlink:href="#DejaVuSans-73" x="377.197266"/>
     <use xlink:href="#DejaVuSans-74" x="429.296875"/>
     <use xlink:href="#DejaVuSans-6f" x="468.505859"/>
     <use xlink:href="#DejaVuSans-63" x="529.6875"/>
     <use xlink:href="#DejaVuSans-6b" x="584.667969"/>
     <use xlink:href="#DejaVuSans-73" x="642.578125"/>
    </g>
   </g>
   <g id="text_34">
    <!-- change in -->
    <g style="fill: #a2b409" transform="translate(457.622674 120.178303) scale(0.07 -0.07)">
     <use xlink:href="#DejaVuSans-63"/>
     <use xlink:href="#DejaVuSans-68" x="54.980469"/>
     <use xlink:href="#DejaVuSans-61" x="118.359375"/>
     <use xlink:href="#DejaVuSans-6e" x="179.638672"/>
     <use xlink:href="#DejaVuSans-67" x="243.017578"/>
     <use xlink:href="#DejaVuSans-65" x="306.494141"/>
     <use xlink:href="#DejaVuSans-20" x="368.017578"/>
     <use xlink:href="#DejaVuSans-69" x="399.804688"/>
     <use xlink:href="#DejaVuSans-6e" x="427.587891"/>
    </g>
    <!-- biomass stocks -->
    <g style="fill: #a2b409" transform="translate(448.046346 128.016772) scale(0.07 -0.07)">
     <use xlink:href="#DejaVuSans-62"/>
     <use xlink:href="#DejaVuSans-69" x="63.476562"/>
     <use xlink:href="#DejaVuSans-6f" x="91.259766"/>
     <use xlink:href="#DejaVuSans-6d" x="152.441406"/>
     <use xlink:href="#DejaVuSans-61" x="249.853516"/>
     <use xlink:href="#DejaVuSans-73" x="311.132812"/>
     <use xlink:href="#DejaVuSans-73" x="363.232422"/>
     <use xlink:href="#DejaVuSans-20" x="415.332031"/>
     <use xlink:href="#DejaVuSans-73" x="447.119141"/>
     <use xlink:href="#DejaVuSans-74" x="499.21875"/>
     <use xlink:href="#DejaVuSans-6f" x="538.427734"/>
     <use xlink:href="#DejaVuSans-63" x="599.609375"/>
     <use xlink:href="#DejaVuSans-6b" x="654.589844"/>
     <use xlink:href="#DejaVuSans-73" x="712.5"/>
    </g>
   </g>
   <g id="text_35">
    <!-- B -->
    <g transform="translate(272.654814 12.117834) scale(0.12 -0.12)">
     <defs>
      <path id="DejaVuSans-42" d="M 1259 2228 
L 1259 519 
L 2272 519 
Q 2781 519 3026 730 
Q 3272 941 3272 1375 
Q 3272 1813 3026 2020 
Q 2781 2228 2272 2228 
L 1259 2228 
z
M 1259 4147 
L 1259 2741 
L 2194 2741 
Q 2656 2741 2882 2914 
Q 3109 3088 3109 3444 
Q 3109 3797 2882 3972 
Q 2656 4147 2194 4147 
L 1259 4147 
z
M 628 4666 
L 2241 4666 
Q 2963 4666 3353 4366 
Q 3744 4066 3744 3513 
Q 3744 3084 3544 2831 
Q 3344 2578 2956 2516 
Q 3422 2416 3680 2098 
Q 3938 1781 3938 1306 
Q 3938 681 3513 340 
Q 3088 0 2303 0 
L 628 0 
L 628 4666 
z
" transform="scale(0.015625)"/>
     </defs>
     <use xlink:href="#DejaVuSans-42"/>
    </g>
   </g>
   <g id="text_36">
    <!-- global vegetation models -->
    <g transform="translate(319.844568 18.952923) scale(0.1 -0.1)">
     <use xlink:href="#DejaVuSans-67"/>
     <use xlink:href="#DejaVuSans-6c" x="63.476562"/>
     <use xlink:href="#DejaVuSans-6f" x="91.259766"/>
     <use xlink:href="#DejaVuSans-62" x="152.441406"/>
     <use xlink:href="#DejaVuSans-61" x="215.917969"/>
     <use xlink:href="#DejaVuSans-6c" x="277.197266"/>
     <use xlink:href="#DejaVuSans-20" x="304.980469"/>
     <use xlink:href="#DejaVuSans-76" x="336.767578"/>
     <use xlink:href="#DejaVuSans-65" x="395.947266"/>
     <use xlink:href="#DejaVuSans-67" x="457.470703"/>
     <use xlink:href="#DejaVuSans-65" x="520.947266"/>
     <use xlink:href="#DejaVuSans-74" x="582.470703"/>
     <use xlink:href="#DejaVuSans-61" x="621.679688"/>
     <use xlink:href="#DejaVuSans-74" x="682.958984"/>
     <use xlink:href="#DejaVuSans-69" x="722.167969"/>
     <use xlink:href="#DejaVuSans-6f" x="749.951172"/>
     <use xlink:href="#DejaVuSans-6e" x="811.132812"/>
     <use xlink:href="#DejaVuSans-20" x="874.511719"/>
     <use xlink:href="#DejaVuSans-6d" x="906.298828"/>
     <use xlink:href="#DejaVuSans-6f" x="1003.710938"/>
     <use xlink:href="#DejaVuSans-64" x="1064.892578"/>
     <use xlink:href="#DejaVuSans-65" x="1128.369141"/>
     <use xlink:href="#DejaVuSans-6c" x="1189.892578"/>
     <use xlink:href="#DejaVuSans-73" x="1217.675781"/>
    </g>
   </g>
  </g>
 </g>
 <defs>
  <clipPath id="p9c1cb1f625">
   <rect x="35.548209" y="24.952923" width="201.237053" height="128.35089"/>
  </clipPath>
  <clipPath id="p2e8f419d90">
   <rect x="282.716666" y="24.952923" width="201.237053" height="128.35089"/>
  </clipPath>
 </defs>
</svg>
