<?xml version="1.0" encoding="utf-8" standalone="no"?>
<!DOCTYPE svg PUBLIC "-//W3C//DTD SVG 1.1//EN"
  "http://www.w3.org/Graphics/SVG/1.1/DTD/svg11.dtd">
<svg xmlns:xlink="http://www.w3.org/1999/xlink" width="170.07874pt" height="170.07874pt" viewBox="0 0 170.07874 170.07874" xmlns="http://www.w3.org/2000/svg" version="1.1">
 <metadata>
  <rdf:RDF xmlns:dc="http://purl.org/dc/elements/1.1/" xmlns:cc="http://creativecommons.org/ns#" xmlns:rdf="http://www.w3.org/1999/02/22-rdf-syntax-ns#">
   <cc:Work>
    <dc:type rdf:resource="http://purl.org/dc/dcmitype/StillImage"/>
    <dc:date>2024-06-30T15:12:36.531359</dc:date>
    <dc:format>image/svg+xml</dc:format>
    <dc:creator>
     <cc:Agent>
      <dc:title>Matplotlib v3.9.0, https://matplotlib.org/</dc:title>
     </cc:Agent>
    </dc:creator>
   </cc:Work>
  </rdf:RDF>
 </metadata>
 <defs>
  <style type="text/css">*{stroke-linejoin: round; stroke-linecap: butt}</style>
 </defs>
 <g id="figure_1">
  <g id="patch_1">
   <path d="M 0 170.07874 
L 170.07874 170.07874 
L 170.07874 0 
L 0 0 
z
" style="fill: #ffffff"/>
  </g>
  <g id="axes_1">
   <g id="patch_2">
    <path d="M 21.259843 151.370079 
L 153.070866 151.370079 
L 153.070866 20.409449 
L 21.259843 20.409449 
z
" style="fill: #ffffff"/>
   </g>
   <g id="matplotlib.axis_1">
    <g id="xtick_1">
     <g id="line2d_1">
      <defs>
       <path id="m8383fa88a2" d="M 0 0 
L 0 3.5 
" style="stroke: #000000; stroke-width: 0.8"/>
      </defs>
      <g>
       <use xlink:href="#m8383fa88a2" x="42.072109" y="151.370079" style="stroke: #000000; stroke-width: 0.8"/>
      </g>
     </g>
     <g id="text_1">
      <!-- 1995 -->
      <g transform="translate(33.164609 163.688985) scale(0.07 -0.07)">
       <defs>
        <path id="DejaVuSans-31" d="M 794 531 
L 1825 531 
L 1825 4091 
L 703 3866 
L 703 4441 
L 1819 4666 
L 2450 4666 
L 2450 531 
L 3481 531 
L 3481 0 
L 794 0 
L 794 531 
z
" transform="scale(0.015625)"/>
        <path id="DejaVuSans-39" d="M 703 97 
L 703 672 
Q 941 559 1184 500 
Q 1428 441 1663 441 
Q 2288 441 2617 861 
Q 2947 1281 2994 2138 
Q 2813 1869 2534 1725 
Q 2256 1581 1919 1581 
Q 1219 1581 811 2004 
Q 403 2428 403 3163 
Q 403 3881 828 4315 
Q 1253 4750 1959 4750 
Q 2769 4750 3195 4129 
Q 3622 3509 3622 2328 
Q 3622 1225 3098 567 
Q 2575 -91 1691 -91 
Q 1453 -91 1209 -44 
Q 966 3 703 97 
z
M 1959 2075 
Q 2384 2075 2632 2365 
Q 2881 2656 2881 3163 
Q 2881 3666 2632 3958 
Q 2384 4250 1959 4250 
Q 1534 4250 1286 3958 
Q 1038 3666 1038 3163 
Q 1038 2656 1286 2365 
Q 1534 2075 1959 2075 
z
" transform="scale(0.015625)"/>
        <path id="DejaVuSans-35" d="M 691 4666 
L 3169 4666 
L 3169 4134 
L 1269 4134 
L 1269 2991 
Q 1406 3038 1543 3061 
Q 1681 3084 1819 3084 
Q 2600 3084 3056 2656 
Q 3513 2228 3513 1497 
Q 3513 744 3044 326 
Q 2575 -91 1722 -91 
Q 1428 -91 1123 -41 
Q 819 9 494 109 
L 494 744 
Q 775 591 1075 516 
Q 1375 441 1709 441 
Q 2250 441 2565 725 
Q 2881 1009 2881 1497 
Q 2881 1984 2565 2268 
Q 2250 2553 1709 2553 
Q 1456 2553 1204 2497 
Q 953 2441 691 2322 
L 691 4666 
z
" transform="scale(0.015625)"/>
       </defs>
       <use xlink:href="#DejaVuSans-31"/>
       <use xlink:href="#DejaVuSans-39" x="63.623047"/>
       <use xlink:href="#DejaVuSans-39" x="127.246094"/>
       <use xlink:href="#DejaVuSans-35" x="190.869141"/>
      </g>
     </g>
    </g>
    <g id="xtick_2">
     <g id="line2d_2">
      <g>
       <use xlink:href="#m8383fa88a2" x="76.759221" y="151.370079" style="stroke: #000000; stroke-width: 0.8"/>
      </g>
     </g>
     <g id="text_2">
      <!-- 2000 -->
      <g transform="translate(67.851721 163.688985) scale(0.07 -0.07)">
       <defs>
        <path id="DejaVuSans-32" d="M 1228 531 
L 3431 531 
L 3431 0 
L 469 0 
L 469 531 
Q 828 903 1448 1529 
Q 2069 2156 2228 2338 
Q 2531 2678 2651 2914 
Q 2772 3150 2772 3378 
Q 2772 3750 2511 3984 
Q 2250 4219 1831 4219 
Q 1534 4219 1204 4116 
Q 875 4013 500 3803 
L 500 4441 
Q 881 4594 1212 4672 
Q 1544 4750 1819 4750 
Q 2544 4750 2975 4387 
Q 3406 4025 3406 3419 
Q 3406 3131 3298 2873 
Q 3191 2616 2906 2266 
Q 2828 2175 2409 1742 
Q 1991 1309 1228 531 
z
" transform="scale(0.015625)"/>
        <path id="DejaVuSans-30" d="M 2034 4250 
Q 1547 4250 1301 3770 
Q 1056 3291 1056 2328 
Q 1056 1369 1301 889 
Q 1547 409 2034 409 
Q 2525 409 2770 889 
Q 3016 1369 3016 2328 
Q 3016 3291 2770 3770 
Q 2525 4250 2034 4250 
z
M 2034 4750 
Q 2819 4750 3233 4129 
Q 3647 3509 3647 2328 
Q 3647 1150 3233 529 
Q 2819 -91 2034 -91 
Q 1250 -91 836 529 
Q 422 1150 422 2328 
Q 422 3509 836 4129 
Q 1250 4750 2034 4750 
z
" transform="scale(0.015625)"/>
       </defs>
       <use xlink:href="#DejaVuSans-32"/>
       <use xlink:href="#DejaVuSans-30" x="63.623047"/>
       <use xlink:href="#DejaVuSans-30" x="127.246094"/>
       <use xlink:href="#DejaVuSans-30" x="190.869141"/>
      </g>
     </g>
    </g>
    <g id="xtick_3">
     <g id="line2d_3">
      <g>
       <use xlink:href="#m8383fa88a2" x="111.446332" y="151.370079" style="stroke: #000000; stroke-width: 0.8"/>
      </g>
     </g>
     <g id="text_3">
      <!-- 2005 -->
      <g transform="translate(102.538832 163.688985) scale(0.07 -0.07)">
       <use xlink:href="#DejaVuSans-32"/>
       <use xlink:href="#DejaVuSans-30" x="63.623047"/>
       <use xlink:href="#DejaVuSans-30" x="127.246094"/>
       <use xlink:href="#DejaVuSans-35" x="190.869141"/>
      </g>
     </g>
    </g>
    <g id="xtick_4">
     <g id="line2d_4">
      <g>
       <use xlink:href="#m8383fa88a2" x="146.133444" y="151.370079" style="stroke: #000000; stroke-width: 0.8"/>
      </g>
     </g>
     <g id="text_4">
      <!-- 2010 -->
      <g transform="translate(137.225944 163.688985) scale(0.07 -0.07)">
       <use xlink:href="#DejaVuSans-32"/>
       <use xlink:href="#DejaVuSans-30" x="63.623047"/>
       <use xlink:href="#DejaVuSans-31" x="127.246094"/>
       <use xlink:href="#DejaVuSans-30" x="190.869141"/>
      </g>
     </g>
    </g>
    <g id="text_5">
     <!-- starting year -->
     <g transform="translate(64.680589 174.463672) scale(0.07 -0.07)">
      <defs>
       <path id="DejaVuSans-73" d="M 2834 3397 
L 2834 2853 
Q 2591 2978 2328 3040 
Q 2066 3103 1784 3103 
Q 1356 3103 1142 2972 
Q 928 2841 928 2578 
Q 928 2378 1081 2264 
Q 1234 2150 1697 2047 
L 1894 2003 
Q 2506 1872 2764 1633 
Q 3022 1394 3022 966 
Q 3022 478 2636 193 
Q 2250 -91 1575 -91 
Q 1294 -91 989 -36 
Q 684 19 347 128 
L 347 722 
Q 666 556 975 473 
Q 1284 391 1588 391 
Q 1994 391 2212 530 
Q 2431 669 2431 922 
Q 2431 1156 2273 1281 
Q 2116 1406 1581 1522 
L 1381 1569 
Q 847 1681 609 1914 
Q 372 2147 372 2553 
Q 372 3047 722 3315 
Q 1072 3584 1716 3584 
Q 2034 3584 2315 3537 
Q 2597 3491 2834 3397 
z
" transform="scale(0.015625)"/>
       <path id="DejaVuSans-74" d="M 1172 4494 
L 1172 3500 
L 2356 3500 
L 2356 3053 
L 1172 3053 
L 1172 1153 
Q 1172 725 1289 603 
Q 1406 481 1766 481 
L 2356 481 
L 2356 0 
L 1766 0 
Q 1100 0 847 248 
Q 594 497 594 1153 
L 594 3053 
L 172 3053 
L 172 3500 
L 594 3500 
L 594 4494 
L 1172 4494 
z
" transform="scale(0.015625)"/>
       <path id="DejaVuSans-61" d="M 2194 1759 
Q 1497 1759 1228 1600 
Q 959 1441 959 1056 
Q 959 750 1161 570 
Q 1363 391 1709 391 
Q 2188 391 2477 730 
Q 2766 1069 2766 1631 
L 2766 1759 
L 2194 1759 
z
M 3341 1997 
L 3341 0 
L 2766 0 
L 2766 531 
Q 2569 213 2275 61 
Q 1981 -91 1556 -91 
Q 1019 -91 701 211 
Q 384 513 384 1019 
Q 384 1609 779 1909 
Q 1175 2209 1959 2209 
L 2766 2209 
L 2766 2266 
Q 2766 2663 2505 2880 
Q 2244 3097 1772 3097 
Q 1472 3097 1187 3025 
Q 903 2953 641 2809 
L 641 3341 
Q 956 3463 1253 3523 
Q 1550 3584 1831 3584 
Q 2591 3584 2966 3190 
Q 3341 2797 3341 1997 
z
" transform="scale(0.015625)"/>
       <path id="DejaVuSans-72" d="M 2631 2963 
Q 2534 3019 2420 3045 
Q 2306 3072 2169 3072 
Q 1681 3072 1420 2755 
Q 1159 2438 1159 1844 
L 1159 0 
L 581 0 
L 581 3500 
L 1159 3500 
L 1159 2956 
Q 1341 3275 1631 3429 
Q 1922 3584 2338 3584 
Q 2397 3584 2469 3576 
Q 2541 3569 2628 3553 
L 2631 2963 
z
" transform="scale(0.015625)"/>
       <path id="DejaVuSans-69" d="M 603 3500 
L 1178 3500 
L 1178 0 
L 603 0 
L 603 3500 
z
M 603 4863 
L 1178 4863 
L 1178 4134 
L 603 4134 
L 603 4863 
z
" transform="scale(0.015625)"/>
       <path id="DejaVuSans-6e" d="M 3513 2113 
L 3513 0 
L 2938 0 
L 2938 2094 
Q 2938 2591 2744 2837 
Q 2550 3084 2163 3084 
Q 1697 3084 1428 2787 
Q 1159 2491 1159 1978 
L 1159 0 
L 581 0 
L 581 3500 
L 1159 3500 
L 1159 2956 
Q 1366 3272 1645 3428 
Q 1925 3584 2291 3584 
Q 2894 3584 3203 3211 
Q 3513 2838 3513 2113 
z
" transform="scale(0.015625)"/>
       <path id="DejaVuSans-67" d="M 2906 1791 
Q 2906 2416 2648 2759 
Q 2391 3103 1925 3103 
Q 1463 3103 1205 2759 
Q 947 2416 947 1791 
Q 947 1169 1205 825 
Q 1463 481 1925 481 
Q 2391 481 2648 825 
Q 2906 1169 2906 1791 
z
M 3481 434 
Q 3481 -459 3084 -895 
Q 2688 -1331 1869 -1331 
Q 1566 -1331 1297 -1286 
Q 1028 -1241 775 -1147 
L 775 -588 
Q 1028 -725 1275 -790 
Q 1522 -856 1778 -856 
Q 2344 -856 2625 -561 
Q 2906 -266 2906 331 
L 2906 616 
Q 2728 306 2450 153 
Q 2172 0 1784 0 
Q 1141 0 747 490 
Q 353 981 353 1791 
Q 353 2603 747 3093 
Q 1141 3584 1784 3584 
Q 2172 3584 2450 3431 
Q 2728 3278 2906 2969 
L 2906 3500 
L 3481 3500 
L 3481 434 
z
" transform="scale(0.015625)"/>
       <path id="DejaVuSans-20" transform="scale(0.015625)"/>
       <path id="DejaVuSans-79" d="M 2059 -325 
Q 1816 -950 1584 -1140 
Q 1353 -1331 966 -1331 
L 506 -1331 
L 506 -850 
L 844 -850 
Q 1081 -850 1212 -737 
Q 1344 -625 1503 -206 
L 1606 56 
L 191 3500 
L 800 3500 
L 1894 763 
L 2988 3500 
L 3597 3500 
L 2059 -325 
z
" transform="scale(0.015625)"/>
       <path id="DejaVuSans-65" d="M 3597 1894 
L 3597 1613 
L 953 1613 
Q 991 1019 1311 708 
Q 1631 397 2203 397 
Q 2534 397 2845 478 
Q 3156 559 3463 722 
L 3463 178 
Q 3153 47 2828 -22 
Q 2503 -91 2169 -91 
Q 1331 -91 842 396 
Q 353 884 353 1716 
Q 353 2575 817 3079 
Q 1281 3584 2069 3584 
Q 2775 3584 3186 3129 
Q 3597 2675 3597 1894 
z
M 3022 2063 
Q 3016 2534 2758 2815 
Q 2500 3097 2075 3097 
Q 1594 3097 1305 2825 
Q 1016 2553 972 2059 
L 3022 2063 
z
" transform="scale(0.015625)"/>
      </defs>
      <use xlink:href="#DejaVuSans-73"/>
      <use xlink:href="#DejaVuSans-74" x="52.099609"/>
      <use xlink:href="#DejaVuSans-61" x="91.308594"/>
      <use xlink:href="#DejaVuSans-72" x="152.587891"/>
      <use xlink:href="#DejaVuSans-74" x="193.701172"/>
      <use xlink:href="#DejaVuSans-69" x="232.910156"/>
      <use xlink:href="#DejaVuSans-6e" x="260.693359"/>
      <use xlink:href="#DejaVuSans-67" x="324.072266"/>
      <use xlink:href="#DejaVuSans-20" x="387.548828"/>
      <use xlink:href="#DejaVuSans-79" x="419.335938"/>
      <use xlink:href="#DejaVuSans-65" x="478.515625"/>
      <use xlink:href="#DejaVuSans-61" x="540.039062"/>
      <use xlink:href="#DejaVuSans-72" x="601.318359"/>
     </g>
    </g>
   </g>
   <g id="matplotlib.axis_2">
    <g id="ytick_1">
     <g id="line2d_5">
      <defs>
       <path id="mfb653cb98f" d="M 0 0 
L -3.5 0 
" style="stroke: #000000; stroke-width: 0.8"/>
      </defs>
      <g>
       <use xlink:href="#mfb653cb98f" x="21.259843" y="129.543307" style="stroke: #000000; stroke-width: 0.8"/>
      </g>
     </g>
     <g id="text_6">
      <!-- 0.00 -->
      <g transform="translate(-1.326095 132.20276) scale(0.07 -0.07)">
       <defs>
        <path id="DejaVuSans-2e" d="M 684 794 
L 1344 794 
L 1344 0 
L 684 0 
L 684 794 
z
" transform="scale(0.015625)"/>
       </defs>
       <use xlink:href="#DejaVuSans-30"/>
       <use xlink:href="#DejaVuSans-2e" x="63.623047"/>
       <use xlink:href="#DejaVuSans-30" x="95.410156"/>
       <use xlink:href="#DejaVuSans-30" x="159.033203"/>
      </g>
     </g>
    </g>
    <g id="ytick_2">
     <g id="line2d_6">
      <g>
       <use xlink:href="#mfb653cb98f" x="21.259843" y="102.259843" style="stroke: #000000; stroke-width: 0.8"/>
      </g>
     </g>
     <g id="text_7">
      <!-- 0.25 -->
      <g transform="translate(-1.326095 104.919296) scale(0.07 -0.07)">
       <use xlink:href="#DejaVuSans-30"/>
       <use xlink:href="#DejaVuSans-2e" x="63.623047"/>
       <use xlink:href="#DejaVuSans-32" x="95.410156"/>
       <use xlink:href="#DejaVuSans-35" x="159.033203"/>
      </g>
     </g>
    </g>
    <g id="ytick_3">
     <g id="line2d_7">
      <g>
       <use xlink:href="#mfb653cb98f" x="21.259843" y="74.976378" style="stroke: #000000; stroke-width: 0.8"/>
      </g>
     </g>
     <g id="text_8">
      <!-- 0.50 -->
      <g transform="translate(-1.326095 77.635831) scale(0.07 -0.07)">
       <use xlink:href="#DejaVuSans-30"/>
       <use xlink:href="#DejaVuSans-2e" x="63.623047"/>
       <use xlink:href="#DejaVuSans-35" x="95.410156"/>
       <use xlink:href="#DejaVuSans-30" x="159.033203"/>
      </g>
     </g>
    </g>
    <g id="ytick_4">
     <g id="line2d_8">
      <g>
       <use xlink:href="#mfb653cb98f" x="21.259843" y="47.692913" style="stroke: #000000; stroke-width: 0.8"/>
      </g>
     </g>
     <g id="text_9">
      <!-- 0.75 -->
      <g transform="translate(-1.326095 50.352367) scale(0.07 -0.07)">
       <defs>
        <path id="DejaVuSans-37" d="M 525 4666 
L 3525 4666 
L 3525 4397 
L 1831 0 
L 1172 0 
L 2766 4134 
L 525 4134 
L 525 4666 
z
" transform="scale(0.015625)"/>
       </defs>
       <use xlink:href="#DejaVuSans-30"/>
       <use xlink:href="#DejaVuSans-2e" x="63.623047"/>
       <use xlink:href="#DejaVuSans-37" x="95.410156"/>
       <use xlink:href="#DejaVuSans-35" x="159.033203"/>
      </g>
     </g>
    </g>
    <g id="ytick_5">
     <g id="line2d_9">
      <g>
       <use xlink:href="#mfb653cb98f" x="21.259843" y="20.409449" style="stroke: #000000; stroke-width: 0.8"/>
      </g>
     </g>
     <g id="text_10">
      <!-- 1.00 -->
      <g transform="translate(-1.326095 23.068902) scale(0.07 -0.07)">
       <use xlink:href="#DejaVuSans-31"/>
       <use xlink:href="#DejaVuSans-2e" x="63.623047"/>
       <use xlink:href="#DejaVuSans-30" x="95.410156"/>
       <use xlink:href="#DejaVuSans-30" x="159.033203"/>
      </g>
     </g>
    </g>
    <g id="text_11">
     <!-- ratio between change -->
     <g transform="translate(-22.458814 124.200545) rotate(-90) scale(0.07 -0.07)">
      <defs>
       <path id="DejaVuSans-6f" d="M 1959 3097 
Q 1497 3097 1228 2736 
Q 959 2375 959 1747 
Q 959 1119 1226 758 
Q 1494 397 1959 397 
Q 2419 397 2687 759 
Q 2956 1122 2956 1747 
Q 2956 2369 2687 2733 
Q 2419 3097 1959 3097 
z
M 1959 3584 
Q 2709 3584 3137 3096 
Q 3566 2609 3566 1747 
Q 3566 888 3137 398 
Q 2709 -91 1959 -91 
Q 1206 -91 779 398 
Q 353 888 353 1747 
Q 353 2609 779 3096 
Q 1206 3584 1959 3584 
z
" transform="scale(0.015625)"/>
       <path id="DejaVuSans-62" d="M 3116 1747 
Q 3116 2381 2855 2742 
Q 2594 3103 2138 3103 
Q 1681 3103 1420 2742 
Q 1159 2381 1159 1747 
Q 1159 1113 1420 752 
Q 1681 391 2138 391 
Q 2594 391 2855 752 
Q 3116 1113 3116 1747 
z
M 1159 2969 
Q 1341 3281 1617 3432 
Q 1894 3584 2278 3584 
Q 2916 3584 3314 3078 
Q 3713 2572 3713 1747 
Q 3713 922 3314 415 
Q 2916 -91 2278 -91 
Q 1894 -91 1617 61 
Q 1341 213 1159 525 
L 1159 0 
L 581 0 
L 581 4863 
L 1159 4863 
L 1159 2969 
z
" transform="scale(0.015625)"/>
       <path id="DejaVuSans-77" d="M 269 3500 
L 844 3500 
L 1563 769 
L 2278 3500 
L 2956 3500 
L 3675 769 
L 4391 3500 
L 4966 3500 
L 4050 0 
L 3372 0 
L 2619 2869 
L 1863 0 
L 1184 0 
L 269 3500 
z
" transform="scale(0.015625)"/>
       <path id="DejaVuSans-63" d="M 3122 3366 
L 3122 2828 
Q 2878 2963 2633 3030 
Q 2388 3097 2138 3097 
Q 1578 3097 1268 2742 
Q 959 2388 959 1747 
Q 959 1106 1268 751 
Q 1578 397 2138 397 
Q 2388 397 2633 464 
Q 2878 531 3122 666 
L 3122 134 
Q 2881 22 2623 -34 
Q 2366 -91 2075 -91 
Q 1284 -91 818 406 
Q 353 903 353 1747 
Q 353 2603 823 3093 
Q 1294 3584 2113 3584 
Q 2378 3584 2631 3529 
Q 2884 3475 3122 3366 
z
" transform="scale(0.015625)"/>
       <path id="DejaVuSans-68" d="M 3513 2113 
L 3513 0 
L 2938 0 
L 2938 2094 
Q 2938 2591 2744 2837 
Q 2550 3084 2163 3084 
Q 1697 3084 1428 2787 
Q 1159 2491 1159 1978 
L 1159 0 
L 581 0 
L 581 4863 
L 1159 4863 
L 1159 2956 
Q 1366 3272 1645 3428 
Q 1925 3584 2291 3584 
Q 2894 3584 3203 3211 
Q 3513 2838 3513 2113 
z
" transform="scale(0.015625)"/>
      </defs>
      <use xlink:href="#DejaVuSans-72"/>
      <use xlink:href="#DejaVuSans-61" x="41.113281"/>
      <use xlink:href="#DejaVuSans-74" x="102.392578"/>
      <use xlink:href="#DejaVuSans-69" x="141.601562"/>
      <use xlink:href="#DejaVuSans-6f" x="169.384766"/>
      <use xlink:href="#DejaVuSans-20" x="230.566406"/>
      <use xlink:href="#DejaVuSans-62" x="262.353516"/>
      <use xlink:href="#DejaVuSans-65" x="325.830078"/>
      <use xlink:href="#DejaVuSans-74" x="387.353516"/>
      <use xlink:href="#DejaVuSans-77" x="426.5625"/>
      <use xlink:href="#DejaVuSans-65" x="508.349609"/>
      <use xlink:href="#DejaVuSans-65" x="569.873047"/>
      <use xlink:href="#DejaVuSans-6e" x="631.396484"/>
      <use xlink:href="#DejaVuSans-20" x="694.775391"/>
      <use xlink:href="#DejaVuSans-63" x="726.5625"/>
      <use xlink:href="#DejaVuSans-68" x="781.542969"/>
      <use xlink:href="#DejaVuSans-61" x="844.921875"/>
      <use xlink:href="#DejaVuSans-6e" x="906.201172"/>
      <use xlink:href="#DejaVuSans-67" x="969.580078"/>
      <use xlink:href="#DejaVuSans-65" x="1033.056641"/>
     </g>
     <!-- in living biomass and -->
     <g transform="translate(-14.620345 122.967342) rotate(-90) scale(0.07 -0.07)">
      <defs>
       <path id="DejaVuSans-6c" d="M 603 4863 
L 1178 4863 
L 1178 0 
L 603 0 
L 603 4863 
z
" transform="scale(0.015625)"/>
       <path id="DejaVuSans-76" d="M 191 3500 
L 800 3500 
L 1894 563 
L 2988 3500 
L 3597 3500 
L 2284 0 
L 1503 0 
L 191 3500 
z
" transform="scale(0.015625)"/>
       <path id="DejaVuSans-6d" d="M 3328 2828 
Q 3544 3216 3844 3400 
Q 4144 3584 4550 3584 
Q 5097 3584 5394 3201 
Q 5691 2819 5691 2113 
L 5691 0 
L 5113 0 
L 5113 2094 
Q 5113 2597 4934 2840 
Q 4756 3084 4391 3084 
Q 3944 3084 3684 2787 
Q 3425 2491 3425 1978 
L 3425 0 
L 2847 0 
L 2847 2094 
Q 2847 2600 2669 2842 
Q 2491 3084 2119 3084 
Q 1678 3084 1418 2786 
Q 1159 2488 1159 1978 
L 1159 0 
L 581 0 
L 581 3500 
L 1159 3500 
L 1159 2956 
Q 1356 3278 1631 3431 
Q 1906 3584 2284 3584 
Q 2666 3584 2933 3390 
Q 3200 3197 3328 2828 
z
" transform="scale(0.015625)"/>
       <path id="DejaVuSans-64" d="M 2906 2969 
L 2906 4863 
L 3481 4863 
L 3481 0 
L 2906 0 
L 2906 525 
Q 2725 213 2448 61 
Q 2172 -91 1784 -91 
Q 1150 -91 751 415 
Q 353 922 353 1747 
Q 353 2572 751 3078 
Q 1150 3584 1784 3584 
Q 2172 3584 2448 3432 
Q 2725 3281 2906 2969 
z
M 947 1747 
Q 947 1113 1208 752 
Q 1469 391 1925 391 
Q 2381 391 2643 752 
Q 2906 1113 2906 1747 
Q 2906 2381 2643 2742 
Q 2381 3103 1925 3103 
Q 1469 3103 1208 2742 
Q 947 2381 947 1747 
z
" transform="scale(0.015625)"/>
      </defs>
      <use xlink:href="#DejaVuSans-69"/>
      <use xlink:href="#DejaVuSans-6e" x="27.783203"/>
      <use xlink:href="#DejaVuSans-20" x="91.162109"/>
      <use xlink:href="#DejaVuSans-6c" x="122.949219"/>
      <use xlink:href="#DejaVuSans-69" x="150.732422"/>
      <use xlink:href="#DejaVuSans-76" x="178.515625"/>
      <use xlink:href="#DejaVuSans-69" x="237.695312"/>
      <use xlink:href="#DejaVuSans-6e" x="265.478516"/>
      <use xlink:href="#DejaVuSans-67" x="328.857422"/>
      <use xlink:href="#DejaVuSans-20" x="392.333984"/>
      <use xlink:href="#DejaVuSans-62" x="424.121094"/>
      <use xlink:href="#DejaVuSans-69" x="487.597656"/>
      <use xlink:href="#DejaVuSans-6f" x="515.380859"/>
      <use xlink:href="#DejaVuSans-6d" x="576.5625"/>
      <use xlink:href="#DejaVuSans-61" x="673.974609"/>
      <use xlink:href="#DejaVuSans-73" x="735.253906"/>
      <use xlink:href="#DejaVuSans-73" x="787.353516"/>
      <use xlink:href="#DejaVuSans-20" x="839.453125"/>
      <use xlink:href="#DejaVuSans-61" x="871.240234"/>
      <use xlink:href="#DejaVuSans-6e" x="932.519531"/>
      <use xlink:href="#DejaVuSans-64" x="995.898438"/>
     </g>
     <!-- total carbon stocks (-) -->
     <g transform="translate(-6.781876 124.424764) rotate(-90) scale(0.07 -0.07)">
      <defs>
       <path id="DejaVuSans-6b" d="M 581 4863 
L 1159 4863 
L 1159 1991 
L 2875 3500 
L 3609 3500 
L 1753 1863 
L 3688 0 
L 2938 0 
L 1159 1709 
L 1159 0 
L 581 0 
L 581 4863 
z
" transform="scale(0.015625)"/>
       <path id="DejaVuSans-28" d="M 1984 4856 
Q 1566 4138 1362 3434 
Q 1159 2731 1159 2009 
Q 1159 1288 1364 580 
Q 1569 -128 1984 -844 
L 1484 -844 
Q 1016 -109 783 600 
Q 550 1309 550 2009 
Q 550 2706 781 3412 
Q 1013 4119 1484 4856 
L 1984 4856 
z
" transform="scale(0.015625)"/>
       <path id="DejaVuSans-2d" d="M 313 2009 
L 1997 2009 
L 1997 1497 
L 313 1497 
L 313 2009 
z
" transform="scale(0.015625)"/>
       <path id="DejaVuSans-29" d="M 513 4856 
L 1013 4856 
Q 1481 4119 1714 3412 
Q 1947 2706 1947 2009 
Q 1947 1309 1714 600 
Q 1481 -109 1013 -844 
L 513 -844 
Q 928 -128 1133 580 
Q 1338 1288 1338 2009 
Q 1338 2731 1133 3434 
Q 928 4138 513 4856 
z
" transform="scale(0.015625)"/>
      </defs>
      <use xlink:href="#DejaVuSans-74"/>
      <use xlink:href="#DejaVuSans-6f" x="39.208984"/>
      <use xlink:href="#DejaVuSans-74" x="100.390625"/>
      <use xlink:href="#DejaVuSans-61" x="139.599609"/>
      <use xlink:href="#DejaVuSans-6c" x="200.878906"/>
      <use xlink:href="#DejaVuSans-20" x="228.662109"/>
      <use xlink:href="#DejaVuSans-63" x="260.449219"/>
      <use xlink:href="#DejaVuSans-61" x="315.429688"/>
      <use xlink:href="#DejaVuSans-72" x="376.708984"/>
      <use xlink:href="#DejaVuSans-62" x="417.822266"/>
      <use xlink:href="#DejaVuSans-6f" x="481.298828"/>
      <use xlink:href="#DejaVuSans-6e" x="542.480469"/>
      <use xlink:href="#DejaVuSans-20" x="605.859375"/>
      <use xlink:href="#DejaVuSans-73" x="637.646484"/>
      <use xlink:href="#DejaVuSans-74" x="689.746094"/>
      <use xlink:href="#DejaVuSans-6f" x="728.955078"/>
      <use xlink:href="#DejaVuSans-63" x="790.136719"/>
      <use xlink:href="#DejaVuSans-6b" x="845.117188"/>
      <use xlink:href="#DejaVuSans-73" x="903.027344"/>
      <use xlink:href="#DejaVuSans-20" x="955.126953"/>
      <use xlink:href="#DejaVuSans-28" x="986.914062"/>
      <use xlink:href="#DejaVuSans-2d" x="1025.927734"/>
      <use xlink:href="#DejaVuSans-29" x="1062.011719"/>
     </g>
    </g>
   </g>
   <g id="LineCollection_1">
    <path d="M 28.197265 145.808773 
L 28.197265 102.607391 
" clip-path="url(#p84f7adc1d6)" style="fill: none; stroke: #000000; stroke-width: 2"/>
    <path d="M 35.134687 142.194345 
L 35.134687 100.362454 
" clip-path="url(#p84f7adc1d6)" style="fill: none; stroke: #000000; stroke-width: 2"/>
    <path d="M 42.072109 133.805482 
L 42.072109 93.152348 
" clip-path="url(#p84f7adc1d6)" style="fill: none; stroke: #000000; stroke-width: 2"/>
    <path d="M 49.009532 124.488067 
L 49.009532 85.756281 
" clip-path="url(#p84f7adc1d6)" style="fill: none; stroke: #000000; stroke-width: 2"/>
    <path d="M 55.946954 123.64283 
L 55.946954 84.212345 
" clip-path="url(#p84f7adc1d6)" style="fill: none; stroke: #000000; stroke-width: 2"/>
    <path d="M 62.884376 123.808285 
L 62.884376 85.825327 
" clip-path="url(#p84f7adc1d6)" style="fill: none; stroke: #000000; stroke-width: 2"/>
    <path d="M 69.821799 121.989338 
L 69.821799 85.490562 
" clip-path="url(#p84f7adc1d6)" style="fill: none; stroke: #000000; stroke-width: 2"/>
    <path d="M 76.759221 122.057942 
L 76.759221 83.647939 
" clip-path="url(#p84f7adc1d6)" style="fill: none; stroke: #000000; stroke-width: 2"/>
    <path d="M 83.696643 124.517984 
L 83.696643 86.059062 
" clip-path="url(#p84f7adc1d6)" style="fill: none; stroke: #000000; stroke-width: 2"/>
    <path d="M 90.634065 126.112607 
L 90.634065 87.589202 
" clip-path="url(#p84f7adc1d6)" style="fill: none; stroke: #000000; stroke-width: 2"/>
    <path d="M 97.571488 125.432571 
L 97.571488 89.073755 
" clip-path="url(#p84f7adc1d6)" style="fill: none; stroke: #000000; stroke-width: 2"/>
    <path d="M 104.50891 123.154106 
L 104.50891 85.244788 
" clip-path="url(#p84f7adc1d6)" style="fill: none; stroke: #000000; stroke-width: 2"/>
    <path d="M 111.446332 128.872957 
L 111.446332 89.267641 
" clip-path="url(#p84f7adc1d6)" style="fill: none; stroke: #000000; stroke-width: 2"/>
    <path d="M 118.383755 126.020306 
L 118.383755 88.542371 
" clip-path="url(#p84f7adc1d6)" style="fill: none; stroke: #000000; stroke-width: 2"/>
    <path d="M 125.321177 127.03076 
L 125.321177 88.037773 
" clip-path="url(#p84f7adc1d6)" style="fill: none; stroke: #000000; stroke-width: 2"/>
    <path d="M 132.258599 131.05424 
L 132.258599 86.269752 
" clip-path="url(#p84f7adc1d6)" style="fill: none; stroke: #000000; stroke-width: 2"/>
    <path d="M 139.196022 134.656583 
L 139.196022 83.762609 
" clip-path="url(#p84f7adc1d6)" style="fill: none; stroke: #000000; stroke-width: 2"/>
    <path d="M 146.133444 135.845895 
L 146.133444 85.006866 
" clip-path="url(#p84f7adc1d6)" style="fill: none; stroke: #000000; stroke-width: 2"/>
   </g>
   <g id="line2d_10">
    <defs>
     <path id="ma7bba885a0" d="M 1.7 0 
L -1.7 -0 
" style="stroke: #000000"/>
    </defs>
    <g clip-path="url(#p84f7adc1d6)">
     <use xlink:href="#ma7bba885a0" x="28.197265" y="145.808773" style="stroke: #000000"/>
     <use xlink:href="#ma7bba885a0" x="35.134687" y="142.194345" style="stroke: #000000"/>
     <use xlink:href="#ma7bba885a0" x="42.072109" y="133.805482" style="stroke: #000000"/>
     <use xlink:href="#ma7bba885a0" x="49.009532" y="124.488067" style="stroke: #000000"/>
     <use xlink:href="#ma7bba885a0" x="55.946954" y="123.64283" style="stroke: #000000"/>
     <use xlink:href="#ma7bba885a0" x="62.884376" y="123.808285" style="stroke: #000000"/>
     <use xlink:href="#ma7bba885a0" x="69.821799" y="121.989338" style="stroke: #000000"/>
     <use xlink:href="#ma7bba885a0" x="76.759221" y="122.057942" style="stroke: #000000"/>
     <use xlink:href="#ma7bba885a0" x="83.696643" y="124.517984" style="stroke: #000000"/>
     <use xlink:href="#ma7bba885a0" x="90.634065" y="126.112607" style="stroke: #000000"/>
     <use xlink:href="#ma7bba885a0" x="97.571488" y="125.432571" style="stroke: #000000"/>
     <use xlink:href="#ma7bba885a0" x="104.50891" y="123.154106" style="stroke: #000000"/>
     <use xlink:href="#ma7bba885a0" x="111.446332" y="128.872957" style="stroke: #000000"/>
     <use xlink:href="#ma7bba885a0" x="118.383755" y="126.020306" style="stroke: #000000"/>
     <use xlink:href="#ma7bba885a0" x="125.321177" y="127.03076" style="stroke: #000000"/>
     <use xlink:href="#ma7bba885a0" x="132.258599" y="131.05424" style="stroke: #000000"/>
     <use xlink:href="#ma7bba885a0" x="139.196022" y="134.656583" style="stroke: #000000"/>
     <use xlink:href="#ma7bba885a0" x="146.133444" y="135.845895" style="stroke: #000000"/>
    </g>
   </g>
   <g id="line2d_11">
    <g clip-path="url(#p84f7adc1d6)">
     <use xlink:href="#ma7bba885a0" x="28.197265" y="102.607391" style="stroke: #000000"/>
     <use xlink:href="#ma7bba885a0" x="35.134687" y="100.362454" style="stroke: #000000"/>
     <use xlink:href="#ma7bba885a0" x="42.072109" y="93.152348" style="stroke: #000000"/>
     <use xlink:href="#ma7bba885a0" x="49.009532" y="85.756281" style="stroke: #000000"/>
     <use xlink:href="#ma7bba885a0" x="55.946954" y="84.212345" style="stroke: #000000"/>
     <use xlink:href="#ma7bba885a0" x="62.884376" y="85.825327" style="stroke: #000000"/>
     <use xlink:href="#ma7bba885a0" x="69.821799" y="85.490562" style="stroke: #000000"/>
     <use xlink:href="#ma7bba885a0" x="76.759221" y="83.647939" style="stroke: #000000"/>
     <use xlink:href="#ma7bba885a0" x="83.696643" y="86.059062" style="stroke: #000000"/>
     <use xlink:href="#ma7bba885a0" x="90.634065" y="87.589202" style="stroke: #000000"/>
     <use xlink:href="#ma7bba885a0" x="97.571488" y="89.073755" style="stroke: #000000"/>
     <use xlink:href="#ma7bba885a0" x="104.50891" y="85.244788" style="stroke: #000000"/>
     <use xlink:href="#ma7bba885a0" x="111.446332" y="89.267641" style="stroke: #000000"/>
     <use xlink:href="#ma7bba885a0" x="118.383755" y="88.542371" style="stroke: #000000"/>
     <use xlink:href="#ma7bba885a0" x="125.321177" y="88.037773" style="stroke: #000000"/>
     <use xlink:href="#ma7bba885a0" x="132.258599" y="86.269752" style="stroke: #000000"/>
     <use xlink:href="#ma7bba885a0" x="139.196022" y="83.762609" style="stroke: #000000"/>
     <use xlink:href="#ma7bba885a0" x="146.133444" y="85.006866" style="stroke: #000000"/>
    </g>
   </g>
   <g id="line2d_12">
    <path d="M 21.259843 129.543307 
L 153.070866 129.543307 
" clip-path="url(#p84f7adc1d6)" style="fill: none; stroke: #000000; stroke-width: 0.5; stroke-linecap: square"/>
   </g>
   <g id="line2d_13">
    <defs>
     <path id="m5f83da994f" d="M 0 3 
C 0.795609 3 1.55874 2.683901 2.12132 2.12132 
C 2.683901 1.55874 3 0.795609 3 0 
C 3 -0.795609 2.683901 -1.55874 2.12132 -2.12132 
C 1.55874 -2.683901 0.795609 -3 0 -3 
C -0.795609 -3 -1.55874 -2.683901 -2.12132 -2.12132 
C -2.683901 -1.55874 -3 -0.795609 -3 0 
C -3 0.795609 -2.683901 1.55874 -2.12132 2.12132 
C -1.55874 2.683901 -0.795609 3 0 3 
z
" style="stroke: #000000"/>
    </defs>
    <g clip-path="url(#p84f7adc1d6)">
     <use xlink:href="#m5f83da994f" x="28.197265" y="124.208082" style="stroke: #000000"/>
     <use xlink:href="#m5f83da994f" x="35.134687" y="121.2784" style="stroke: #000000"/>
     <use xlink:href="#m5f83da994f" x="42.072109" y="113.478915" style="stroke: #000000"/>
     <use xlink:href="#m5f83da994f" x="49.009532" y="105.122174" style="stroke: #000000"/>
     <use xlink:href="#m5f83da994f" x="55.946954" y="103.927587" style="stroke: #000000"/>
     <use xlink:href="#m5f83da994f" x="62.884376" y="104.816806" style="stroke: #000000"/>
     <use xlink:href="#m5f83da994f" x="69.821799" y="103.73995" style="stroke: #000000"/>
     <use xlink:href="#m5f83da994f" x="76.759221" y="102.85294" style="stroke: #000000"/>
     <use xlink:href="#m5f83da994f" x="83.696643" y="105.288523" style="stroke: #000000"/>
     <use xlink:href="#m5f83da994f" x="90.634065" y="106.850905" style="stroke: #000000"/>
     <use xlink:href="#m5f83da994f" x="97.571488" y="107.253163" style="stroke: #000000"/>
     <use xlink:href="#m5f83da994f" x="104.50891" y="104.199447" style="stroke: #000000"/>
     <use xlink:href="#m5f83da994f" x="111.446332" y="109.070299" style="stroke: #000000"/>
     <use xlink:href="#m5f83da994f" x="118.383755" y="107.281339" style="stroke: #000000"/>
     <use xlink:href="#m5f83da994f" x="125.321177" y="107.534266" style="stroke: #000000"/>
     <use xlink:href="#m5f83da994f" x="132.258599" y="108.661996" style="stroke: #000000"/>
     <use xlink:href="#m5f83da994f" x="139.196022" y="109.209596" style="stroke: #000000"/>
     <use xlink:href="#m5f83da994f" x="146.133444" y="110.426381" style="stroke: #000000"/>
    </g>
   </g>
   <g id="patch_3">
    <path d="M 21.259843 151.370079 
L 21.259843 20.409449 
" style="fill: none; stroke: #000000; stroke-width: 0.8; stroke-linejoin: miter; stroke-linecap: square"/>
   </g>
   <g id="patch_4">
    <path d="M 21.259843 151.370079 
L 153.070866 151.370079 
" style="fill: none; stroke: #000000; stroke-width: 0.8; stroke-linejoin: miter; stroke-linecap: square"/>
   </g>
  </g>
 </g>
 <defs>
  <clipPath id="p84f7adc1d6">
   <rect x="21.259843" y="20.409449" width="131.811024" height="130.96063"/>
  </clipPath>
 </defs>
</svg>
