<?xml version="1.0" encoding="utf-8" standalone="no"?>
<!DOCTYPE svg PUBLIC "-//W3C//DTD SVG 1.1//EN"
  "http://www.w3.org/Graphics/SVG/1.1/DTD/svg11.dtd">
<svg xmlns:xlink="http://www.w3.org/1999/xlink" width="460.8pt" height="345.6pt" viewBox="0 0 460.8 345.6" xmlns="http://www.w3.org/2000/svg" version="1.1">
 <metadata>
  <rdf:RDF xmlns:dc="http://purl.org/dc/elements/1.1/" xmlns:cc="http://creativecommons.org/ns#" xmlns:rdf="http://www.w3.org/1999/02/22-rdf-syntax-ns#">
   <cc:Work>
    <dc:type rdf:resource="http://purl.org/dc/dcmitype/StillImage"/>
    <dc:date>2025-03-05T11:25:21.122422</dc:date>
    <dc:format>image/svg+xml</dc:format>
    <dc:creator>
     <cc:Agent>
      <dc:title>Matplotlib v3.9.0, https://matplotlib.org/</dc:title>
     </cc:Agent>
    </dc:creator>
   </cc:Work>
  </rdf:RDF>
 </metadata>
 <defs>
  <style type="text/css">*{stroke-linejoin: round; stroke-linecap: butt}</style>
 </defs>
 <g id="figure_1">
  <g id="patch_1">
   <path d="M 0 345.6 
L 460.8 345.6 
L 460.8 0 
L 0 0 
z
" style="fill: #ffffff"/>
  </g>
  <g id="axes_1">
   <g id="patch_2">
    <path d="M 103.104 307.584 
L 369.216 307.584 
L 369.216 41.472 
L 103.104 41.472 
z
" style="fill: #ffffff"/>
   </g>
   <g id="PathCollection_1">
    <defs>
     <path id="m6c80eca469" d="M 0 3 
C 0.795609 3 1.55874 2.683901 2.12132 2.12132 
C 2.683901 1.55874 3 0.795609 3 0 
C 3 -0.795609 2.683901 -1.55874 2.12132 -2.12132 
C 1.55874 -2.683901 0.795609 -3 0 -3 
C -0.795609 -3 -1.55874 -2.683901 -2.12132 -2.12132 
C -2.683901 -1.55874 -3 -0.795609 -3 0 
C -3 0.795609 -2.683901 1.55874 -2.12132 2.12132 
C -1.55874 2.683901 -0.795609 3 0 3 
z
" style="stroke: #1f77b4; stroke-opacity: 0.8"/>
    </defs>
    <g clip-path="url(#pd0a7db23fb)">
     <use xlink:href="#m6c80eca469" x="183.152074" y="207.911908" style="fill: #1f77b4; fill-opacity: 0.8; stroke: #1f77b4; stroke-opacity: 0.8"/>
     <use xlink:href="#m6c80eca469" x="208.077508" y="196.89147" style="fill: #1f77b4; fill-opacity: 0.8; stroke: #1f77b4; stroke-opacity: 0.8"/>
     <use xlink:href="#m6c80eca469" x="286.565801" y="181.892726" style="fill: #1f77b4; fill-opacity: 0.8; stroke: #1f77b4; stroke-opacity: 0.8"/>
     <use xlink:href="#m6c80eca469" x="286.767491" y="179.700098" style="fill: #1f77b4; fill-opacity: 0.8; stroke: #1f77b4; stroke-opacity: 0.8"/>
     <use xlink:href="#m6c80eca469" x="305.25749" y="180.008529" style="fill: #1f77b4; fill-opacity: 0.8; stroke: #1f77b4; stroke-opacity: 0.8"/>
     <use xlink:href="#m6c80eca469" x="334.172601" y="170.950105" style="fill: #1f77b4; fill-opacity: 0.8; stroke: #1f77b4; stroke-opacity: 0.8"/>
     <use xlink:href="#m6c80eca469" x="163.017208" y="238.397638" style="fill: #1f77b4; fill-opacity: 0.8; stroke: #1f77b4; stroke-opacity: 0.8"/>
     <use xlink:href="#m6c80eca469" x="228.222071" y="189.524987" style="fill: #1f77b4; fill-opacity: 0.8; stroke: #1f77b4; stroke-opacity: 0.8"/>
     <use xlink:href="#m6c80eca469" x="195.384085" y="222.025101" style="fill: #1f77b4; fill-opacity: 0.8; stroke: #1f77b4; stroke-opacity: 0.8"/>
    </g>
   </g>
   <g id="PolyCollection_1">
    <path d="M 163.017208 206.580565 
L 163.017208 234.411466 
L 164.74605 233.712562 
L 166.474892 232.980703 
L 168.203735 232.297967 
L 169.932577 231.615231 
L 171.661419 230.932495 
L 173.390262 230.241942 
L 175.119104 229.547818 
L 176.847946 228.853694 
L 178.576789 228.143009 
L 180.305631 227.432758 
L 182.034473 226.771321 
L 183.763316 226.077197 
L 185.492158 225.383073 
L 187.221 224.627262 
L 188.949843 223.936871 
L 190.678685 223.232143 
L 192.407528 222.387425 
L 194.13637 221.701661 
L 195.865212 221.018989 
L 197.594055 220.252612 
L 199.322897 219.48437 
L 201.051739 218.804962 
L 202.780582 218.128316 
L 204.509424 217.454527 
L 206.238266 216.772922 
L 207.967109 216.08733 
L 209.695951 215.422165 
L 211.424793 214.762551 
L 213.153636 214.102116 
L 214.882478 213.441682 
L 216.61132 212.781248 
L 218.340163 212.120813 
L 220.069005 211.460379 
L 221.797848 210.756947 
L 223.52669 210.002069 
L 225.255532 209.323924 
L 226.984375 208.645779 
L 228.713217 207.967634 
L 230.442059 207.289489 
L 232.170902 206.630202 
L 233.899744 205.947599 
L 235.628586 205.255394 
L 237.357429 204.559801 
L 239.086271 203.872169 
L 240.815113 203.202922 
L 242.543956 202.533675 
L 244.272798 201.864428 
L 246.001641 201.140351 
L 247.730483 200.459905 
L 249.459325 199.790406 
L 251.188168 199.150817 
L 252.91701 198.478602 
L 254.645852 197.801263 
L 256.374695 197.133311 
L 258.103537 196.490139 
L 259.832379 195.78177 
L 261.561222 195.090437 
L 263.290064 194.451227 
L 265.018906 193.75912 
L 266.747749 193.066628 
L 268.476591 192.402043 
L 270.205433 191.757586 
L 271.934276 191.160052 
L 273.663118 190.524288 
L 275.391961 189.882685 
L 277.120803 189.183878 
L 278.849645 188.487219 
L 280.578488 187.871715 
L 282.30733 187.256323 
L 284.036172 186.574651 
L 285.765015 186.006879 
L 287.493857 185.369678 
L 289.222699 184.720336 
L 290.951542 184.130564 
L 292.680384 183.502904 
L 294.409226 182.844478 
L 296.138069 182.229472 
L 297.866911 181.62103 
L 299.595753 181.071975 
L 301.324596 180.477361 
L 303.053438 179.954726 
L 304.782281 179.358872 
L 306.511123 178.780456 
L 308.239965 178.202763 
L 309.968808 177.671607 
L 311.69765 177.243286 
L 313.426492 176.76962 
L 315.155335 176.386158 
L 316.884177 175.950998 
L 318.613019 175.553596 
L 320.341862 175.161219 
L 322.070704 174.76996 
L 323.799546 174.316371 
L 325.528389 173.898787 
L 327.257231 173.474128 
L 328.986073 173.130327 
L 330.714916 172.761433 
L 332.443758 172.421789 
L 334.172601 172.0656 
L 334.172601 153.451793 
L 334.172601 153.451793 
L 332.443758 154.169751 
L 330.714916 154.88771 
L 328.986073 155.605668 
L 327.257231 156.323626 
L 325.528389 157.091286 
L 323.799546 157.912411 
L 322.070704 158.639314 
L 320.341862 159.425355 
L 318.613019 160.211396 
L 316.884177 160.997437 
L 315.155335 161.783478 
L 313.426492 162.56952 
L 311.69765 163.355701 
L 309.968808 164.143683 
L 308.239965 164.931666 
L 306.511123 165.701603 
L 304.782281 166.397591 
L 303.053438 167.093579 
L 301.324596 167.789567 
L 299.595753 168.556333 
L 297.866911 169.327703 
L 296.138069 170.024647 
L 294.409226 170.72159 
L 292.680384 171.418534 
L 290.951542 172.116047 
L 289.222699 172.814453 
L 287.493857 173.512858 
L 285.765015 174.228288 
L 284.036172 174.980386 
L 282.30733 175.729919 
L 280.578488 176.480309 
L 278.849645 177.233885 
L 277.120803 177.987462 
L 275.391961 178.738291 
L 273.663118 179.499992 
L 271.934276 180.310303 
L 270.205433 180.994902 
L 268.476591 181.741275 
L 266.747749 182.496411 
L 265.018906 183.248532 
L 263.290064 183.934096 
L 261.561222 184.449953 
L 259.832379 185.030408 
L 258.103537 185.362917 
L 256.374695 186.034731 
L 254.645852 186.48366 
L 252.91701 187.17572 
L 251.188168 187.577464 
L 249.459325 188.121569 
L 247.730483 188.466792 
L 246.001641 188.8603 
L 244.272798 189.294419 
L 242.543956 189.655516 
L 240.815113 190.048492 
L 239.086271 190.414999 
L 237.357429 190.776006 
L 235.628586 191.13716 
L 233.899744 191.508987 
L 232.170902 191.87211 
L 230.442059 192.227714 
L 228.713217 192.587855 
L 226.984375 192.949728 
L 225.255532 193.311602 
L 223.52669 193.674074 
L 221.797848 194.037045 
L 220.069005 194.397861 
L 218.340163 194.75957 
L 216.61132 195.121279 
L 214.882478 195.482988 
L 213.153636 195.844975 
L 211.424793 196.452828 
L 209.695951 196.829885 
L 207.967109 197.20589 
L 206.238266 197.587834 
L 204.509424 198.044422 
L 202.780582 198.43974 
L 201.051739 198.812197 
L 199.322897 199.184654 
L 197.594055 199.546386 
L 195.865212 199.899863 
L 194.13637 200.248539 
L 192.407528 200.603082 
L 190.678685 200.979258 
L 188.949843 201.33782 
L 187.221 201.695703 
L 185.492158 202.053587 
L 183.763316 202.41147 
L 182.034473 202.769354 
L 180.305631 203.127237 
L 178.576789 203.485121 
L 176.847946 203.843004 
L 175.119104 204.200888 
L 173.390262 204.558771 
L 171.661419 204.90554 
L 169.932577 205.240545 
L 168.203735 205.57555 
L 166.474892 205.910555 
L 164.74605 206.24556 
L 163.017208 206.580565 
z
" clip-path="url(#pd0a7db23fb)" style="fill: #1f77b4; fill-opacity: 0.15"/>
   </g>
   <g id="matplotlib.axis_1">
    <g id="xtick_1">
     <g id="line2d_1">
      <defs>
       <path id="mdf6bc3c232" d="M 0 0 
L 0 3.5 
" style="stroke: #000000; stroke-width: 0.8"/>
      </defs>
      <g>
       <use xlink:href="#mdf6bc3c232" x="125.28" y="307.584" style="stroke: #000000; stroke-width: 0.8"/>
      </g>
     </g>
     <g id="text_1">
      <!-- −0.4 -->
      <g transform="translate(113.138594 322.182437) scale(0.1 -0.1)">
       <defs>
        <path id="DejaVuSans-2212" d="M 678 2272 
L 4684 2272 
L 4684 1741 
L 678 1741 
L 678 2272 
z
" transform="scale(0.015625)"/>
        <path id="DejaVuSans-30" d="M 2034 4250 
Q 1547 4250 1301 3770 
Q 1056 3291 1056 2328 
Q 1056 1369 1301 889 
Q 1547 409 2034 409 
Q 2525 409 2770 889 
Q 3016 1369 3016 2328 
Q 3016 3291 2770 3770 
Q 2525 4250 2034 4250 
z
M 2034 4750 
Q 2819 4750 3233 4129 
Q 3647 3509 3647 2328 
Q 3647 1150 3233 529 
Q 2819 -91 2034 -91 
Q 1250 -91 836 529 
Q 422 1150 422 2328 
Q 422 3509 836 4129 
Q 1250 4750 2034 4750 
z
" transform="scale(0.015625)"/>
        <path id="DejaVuSans-2e" d="M 684 794 
L 1344 794 
L 1344 0 
L 684 0 
L 684 794 
z
" transform="scale(0.015625)"/>
        <path id="DejaVuSans-34" d="M 2419 4116 
L 825 1625 
L 2419 1625 
L 2419 4116 
z
M 2253 4666 
L 3047 4666 
L 3047 1625 
L 3713 1625 
L 3713 1100 
L 3047 1100 
L 3047 0 
L 2419 0 
L 2419 1100 
L 313 1100 
L 313 1709 
L 2253 4666 
z
" transform="scale(0.015625)"/>
       </defs>
       <use xlink:href="#DejaVuSans-2212"/>
       <use xlink:href="#DejaVuSans-30" x="83.789062"/>
       <use xlink:href="#DejaVuSans-2e" x="147.412109"/>
       <use xlink:href="#DejaVuSans-34" x="179.199219"/>
      </g>
     </g>
    </g>
    <g id="xtick_2">
     <g id="line2d_2">
      <g>
       <use xlink:href="#mdf6bc3c232" x="169.632" y="307.584" style="stroke: #000000; stroke-width: 0.8"/>
      </g>
     </g>
     <g id="text_2">
      <!-- −0.2 -->
      <g transform="translate(157.490594 322.182437) scale(0.1 -0.1)">
       <defs>
        <path id="DejaVuSans-32" d="M 1228 531 
L 3431 531 
L 3431 0 
L 469 0 
L 469 531 
Q 828 903 1448 1529 
Q 2069 2156 2228 2338 
Q 2531 2678 2651 2914 
Q 2772 3150 2772 3378 
Q 2772 3750 2511 3984 
Q 2250 4219 1831 4219 
Q 1534 4219 1204 4116 
Q 875 4013 500 3803 
L 500 4441 
Q 881 4594 1212 4672 
Q 1544 4750 1819 4750 
Q 2544 4750 2975 4387 
Q 3406 4025 3406 3419 
Q 3406 3131 3298 2873 
Q 3191 2616 2906 2266 
Q 2828 2175 2409 1742 
Q 1991 1309 1228 531 
z
" transform="scale(0.015625)"/>
       </defs>
       <use xlink:href="#DejaVuSans-2212"/>
       <use xlink:href="#DejaVuSans-30" x="83.789062"/>
       <use xlink:href="#DejaVuSans-2e" x="147.412109"/>
       <use xlink:href="#DejaVuSans-32" x="179.199219"/>
      </g>
     </g>
    </g>
    <g id="xtick_3">
     <g id="line2d_3">
      <g>
       <use xlink:href="#mdf6bc3c232" x="213.984" y="307.584" style="stroke: #000000; stroke-width: 0.8"/>
      </g>
     </g>
     <g id="text_3">
      <!-- 0.0 -->
      <g transform="translate(206.032438 322.182437) scale(0.1 -0.1)">
       <use xlink:href="#DejaVuSans-30"/>
       <use xlink:href="#DejaVuSans-2e" x="63.623047"/>
       <use xlink:href="#DejaVuSans-30" x="95.410156"/>
      </g>
     </g>
    </g>
    <g id="xtick_4">
     <g id="line2d_4">
      <g>
       <use xlink:href="#mdf6bc3c232" x="258.336" y="307.584" style="stroke: #000000; stroke-width: 0.8"/>
      </g>
     </g>
     <g id="text_4">
      <!-- 0.2 -->
      <g transform="translate(250.384438 322.182437) scale(0.1 -0.1)">
       <use xlink:href="#DejaVuSans-30"/>
       <use xlink:href="#DejaVuSans-2e" x="63.623047"/>
       <use xlink:href="#DejaVuSans-32" x="95.410156"/>
      </g>
     </g>
    </g>
    <g id="xtick_5">
     <g id="line2d_5">
      <g>
       <use xlink:href="#mdf6bc3c232" x="302.688" y="307.584" style="stroke: #000000; stroke-width: 0.8"/>
      </g>
     </g>
     <g id="text_5">
      <!-- 0.4 -->
      <g transform="translate(294.736437 322.182437) scale(0.1 -0.1)">
       <use xlink:href="#DejaVuSans-30"/>
       <use xlink:href="#DejaVuSans-2e" x="63.623047"/>
       <use xlink:href="#DejaVuSans-34" x="95.410156"/>
      </g>
     </g>
    </g>
    <g id="xtick_6">
     <g id="line2d_6">
      <g>
       <use xlink:href="#mdf6bc3c232" x="347.04" y="307.584" style="stroke: #000000; stroke-width: 0.8"/>
      </g>
     </g>
     <g id="text_6">
      <!-- 0.6 -->
      <g transform="translate(339.088438 322.182437) scale(0.1 -0.1)">
       <defs>
        <path id="DejaVuSans-36" d="M 2113 2584 
Q 1688 2584 1439 2293 
Q 1191 2003 1191 1497 
Q 1191 994 1439 701 
Q 1688 409 2113 409 
Q 2538 409 2786 701 
Q 3034 994 3034 1497 
Q 3034 2003 2786 2293 
Q 2538 2584 2113 2584 
z
M 3366 4563 
L 3366 3988 
Q 3128 4100 2886 4159 
Q 2644 4219 2406 4219 
Q 1781 4219 1451 3797 
Q 1122 3375 1075 2522 
Q 1259 2794 1537 2939 
Q 1816 3084 2150 3084 
Q 2853 3084 3261 2657 
Q 3669 2231 3669 1497 
Q 3669 778 3244 343 
Q 2819 -91 2113 -91 
Q 1303 -91 875 529 
Q 447 1150 447 2328 
Q 447 3434 972 4092 
Q 1497 4750 2381 4750 
Q 2619 4750 2861 4703 
Q 3103 4656 3366 4563 
z
" transform="scale(0.015625)"/>
       </defs>
       <use xlink:href="#DejaVuSans-30"/>
       <use xlink:href="#DejaVuSans-2e" x="63.623047"/>
       <use xlink:href="#DejaVuSans-36" x="95.410156"/>
      </g>
     </g>
    </g>
    <g id="text_7">
     <!-- annual change in total carbon stocks [GtC yr$^{-1}$] -->
     <g transform="translate(116.86 337.262125) scale(0.1 -0.1)">
      <defs>
       <path id="DejaVuSans-61" d="M 2194 1759 
Q 1497 1759 1228 1600 
Q 959 1441 959 1056 
Q 959 750 1161 570 
Q 1363 391 1709 391 
Q 2188 391 2477 730 
Q 2766 1069 2766 1631 
L 2766 1759 
L 2194 1759 
z
M 3341 1997 
L 3341 0 
L 2766 0 
L 2766 531 
Q 2569 213 2275 61 
Q 1981 -91 1556 -91 
Q 1019 -91 701 211 
Q 384 513 384 1019 
Q 384 1609 779 1909 
Q 1175 2209 1959 2209 
L 2766 2209 
L 2766 2266 
Q 2766 2663 2505 2880 
Q 2244 3097 1772 3097 
Q 1472 3097 1187 3025 
Q 903 2953 641 2809 
L 641 3341 
Q 956 3463 1253 3523 
Q 1550 3584 1831 3584 
Q 2591 3584 2966 3190 
Q 3341 2797 3341 1997 
z
" transform="scale(0.015625)"/>
       <path id="DejaVuSans-6e" d="M 3513 2113 
L 3513 0 
L 2938 0 
L 2938 2094 
Q 2938 2591 2744 2837 
Q 2550 3084 2163 3084 
Q 1697 3084 1428 2787 
Q 1159 2491 1159 1978 
L 1159 0 
L 581 0 
L 581 3500 
L 1159 3500 
L 1159 2956 
Q 1366 3272 1645 3428 
Q 1925 3584 2291 3584 
Q 2894 3584 3203 3211 
Q 3513 2838 3513 2113 
z
" transform="scale(0.015625)"/>
       <path id="DejaVuSans-75" d="M 544 1381 
L 544 3500 
L 1119 3500 
L 1119 1403 
Q 1119 906 1312 657 
Q 1506 409 1894 409 
Q 2359 409 2629 706 
Q 2900 1003 2900 1516 
L 2900 3500 
L 3475 3500 
L 3475 0 
L 2900 0 
L 2900 538 
Q 2691 219 2414 64 
Q 2138 -91 1772 -91 
Q 1169 -91 856 284 
Q 544 659 544 1381 
z
M 1991 3584 
L 1991 3584 
z
" transform="scale(0.015625)"/>
       <path id="DejaVuSans-6c" d="M 603 4863 
L 1178 4863 
L 1178 0 
L 603 0 
L 603 4863 
z
" transform="scale(0.015625)"/>
       <path id="DejaVuSans-20" transform="scale(0.015625)"/>
       <path id="DejaVuSans-63" d="M 3122 3366 
L 3122 2828 
Q 2878 2963 2633 3030 
Q 2388 3097 2138 3097 
Q 1578 3097 1268 2742 
Q 959 2388 959 1747 
Q 959 1106 1268 751 
Q 1578 397 2138 397 
Q 2388 397 2633 464 
Q 2878 531 3122 666 
L 3122 134 
Q 2881 22 2623 -34 
Q 2366 -91 2075 -91 
Q 1284 -91 818 406 
Q 353 903 353 1747 
Q 353 2603 823 3093 
Q 1294 3584 2113 3584 
Q 2378 3584 2631 3529 
Q 2884 3475 3122 3366 
z
" transform="scale(0.015625)"/>
       <path id="DejaVuSans-68" d="M 3513 2113 
L 3513 0 
L 2938 0 
L 2938 2094 
Q 2938 2591 2744 2837 
Q 2550 3084 2163 3084 
Q 1697 3084 1428 2787 
Q 1159 2491 1159 1978 
L 1159 0 
L 581 0 
L 581 4863 
L 1159 4863 
L 1159 2956 
Q 1366 3272 1645 3428 
Q 1925 3584 2291 3584 
Q 2894 3584 3203 3211 
Q 3513 2838 3513 2113 
z
" transform="scale(0.015625)"/>
       <path id="DejaVuSans-67" d="M 2906 1791 
Q 2906 2416 2648 2759 
Q 2391 3103 1925 3103 
Q 1463 3103 1205 2759 
Q 947 2416 947 1791 
Q 947 1169 1205 825 
Q 1463 481 1925 481 
Q 2391 481 2648 825 
Q 2906 1169 2906 1791 
z
M 3481 434 
Q 3481 -459 3084 -895 
Q 2688 -1331 1869 -1331 
Q 1566 -1331 1297 -1286 
Q 1028 -1241 775 -1147 
L 775 -588 
Q 1028 -725 1275 -790 
Q 1522 -856 1778 -856 
Q 2344 -856 2625 -561 
Q 2906 -266 2906 331 
L 2906 616 
Q 2728 306 2450 153 
Q 2172 0 1784 0 
Q 1141 0 747 490 
Q 353 981 353 1791 
Q 353 2603 747 3093 
Q 1141 3584 1784 3584 
Q 2172 3584 2450 3431 
Q 2728 3278 2906 2969 
L 2906 3500 
L 3481 3500 
L 3481 434 
z
" transform="scale(0.015625)"/>
       <path id="DejaVuSans-65" d="M 3597 1894 
L 3597 1613 
L 953 1613 
Q 991 1019 1311 708 
Q 1631 397 2203 397 
Q 2534 397 2845 478 
Q 3156 559 3463 722 
L 3463 178 
Q 3153 47 2828 -22 
Q 2503 -91 2169 -91 
Q 1331 -91 842 396 
Q 353 884 353 1716 
Q 353 2575 817 3079 
Q 1281 3584 2069 3584 
Q 2775 3584 3186 3129 
Q 3597 2675 3597 1894 
z
M 3022 2063 
Q 3016 2534 2758 2815 
Q 2500 3097 2075 3097 
Q 1594 3097 1305 2825 
Q 1016 2553 972 2059 
L 3022 2063 
z
" transform="scale(0.015625)"/>
       <path id="DejaVuSans-69" d="M 603 3500 
L 1178 3500 
L 1178 0 
L 603 0 
L 603 3500 
z
M 603 4863 
L 1178 4863 
L 1178 4134 
L 603 4134 
L 603 4863 
z
" transform="scale(0.015625)"/>
       <path id="DejaVuSans-74" d="M 1172 4494 
L 1172 3500 
L 2356 3500 
L 2356 3053 
L 1172 3053 
L 1172 1153 
Q 1172 725 1289 603 
Q 1406 481 1766 481 
L 2356 481 
L 2356 0 
L 1766 0 
Q 1100 0 847 248 
Q 594 497 594 1153 
L 594 3053 
L 172 3053 
L 172 3500 
L 594 3500 
L 594 4494 
L 1172 4494 
z
" transform="scale(0.015625)"/>
       <path id="DejaVuSans-6f" d="M 1959 3097 
Q 1497 3097 1228 2736 
Q 959 2375 959 1747 
Q 959 1119 1226 758 
Q 1494 397 1959 397 
Q 2419 397 2687 759 
Q 2956 1122 2956 1747 
Q 2956 2369 2687 2733 
Q 2419 3097 1959 3097 
z
M 1959 3584 
Q 2709 3584 3137 3096 
Q 3566 2609 3566 1747 
Q 3566 888 3137 398 
Q 2709 -91 1959 -91 
Q 1206 -91 779 398 
Q 353 888 353 1747 
Q 353 2609 779 3096 
Q 1206 3584 1959 3584 
z
" transform="scale(0.015625)"/>
       <path id="DejaVuSans-72" d="M 2631 2963 
Q 2534 3019 2420 3045 
Q 2306 3072 2169 3072 
Q 1681 3072 1420 2755 
Q 1159 2438 1159 1844 
L 1159 0 
L 581 0 
L 581 3500 
L 1159 3500 
L 1159 2956 
Q 1341 3275 1631 3429 
Q 1922 3584 2338 3584 
Q 2397 3584 2469 3576 
Q 2541 3569 2628 3553 
L 2631 2963 
z
" transform="scale(0.015625)"/>
       <path id="DejaVuSans-62" d="M 3116 1747 
Q 3116 2381 2855 2742 
Q 2594 3103 2138 3103 
Q 1681 3103 1420 2742 
Q 1159 2381 1159 1747 
Q 1159 1113 1420 752 
Q 1681 391 2138 391 
Q 2594 391 2855 752 
Q 3116 1113 3116 1747 
z
M 1159 2969 
Q 1341 3281 1617 3432 
Q 1894 3584 2278 3584 
Q 2916 3584 3314 3078 
Q 3713 2572 3713 1747 
Q 3713 922 3314 415 
Q 2916 -91 2278 -91 
Q 1894 -91 1617 61 
Q 1341 213 1159 525 
L 1159 0 
L 581 0 
L 581 4863 
L 1159 4863 
L 1159 2969 
z
" transform="scale(0.015625)"/>
       <path id="DejaVuSans-73" d="M 2834 3397 
L 2834 2853 
Q 2591 2978 2328 3040 
Q 2066 3103 1784 3103 
Q 1356 3103 1142 2972 
Q 928 2841 928 2578 
Q 928 2378 1081 2264 
Q 1234 2150 1697 2047 
L 1894 2003 
Q 2506 1872 2764 1633 
Q 3022 1394 3022 966 
Q 3022 478 2636 193 
Q 2250 -91 1575 -91 
Q 1294 -91 989 -36 
Q 684 19 347 128 
L 347 722 
Q 666 556 975 473 
Q 1284 391 1588 391 
Q 1994 391 2212 530 
Q 2431 669 2431 922 
Q 2431 1156 2273 1281 
Q 2116 1406 1581 1522 
L 1381 1569 
Q 847 1681 609 1914 
Q 372 2147 372 2553 
Q 372 3047 722 3315 
Q 1072 3584 1716 3584 
Q 2034 3584 2315 3537 
Q 2597 3491 2834 3397 
z
" transform="scale(0.015625)"/>
       <path id="DejaVuSans-6b" d="M 581 4863 
L 1159 4863 
L 1159 1991 
L 2875 3500 
L 3609 3500 
L 1753 1863 
L 3688 0 
L 2938 0 
L 1159 1709 
L 1159 0 
L 581 0 
L 581 4863 
z
" transform="scale(0.015625)"/>
       <path id="DejaVuSans-5b" d="M 550 4863 
L 1875 4863 
L 1875 4416 
L 1125 4416 
L 1125 -397 
L 1875 -397 
L 1875 -844 
L 550 -844 
L 550 4863 
z
" transform="scale(0.015625)"/>
       <path id="DejaVuSans-47" d="M 3809 666 
L 3809 1919 
L 2778 1919 
L 2778 2438 
L 4434 2438 
L 4434 434 
Q 4069 175 3628 42 
Q 3188 -91 2688 -91 
Q 1594 -91 976 548 
Q 359 1188 359 2328 
Q 359 3472 976 4111 
Q 1594 4750 2688 4750 
Q 3144 4750 3555 4637 
Q 3966 4525 4313 4306 
L 4313 3634 
Q 3963 3931 3569 4081 
Q 3175 4231 2741 4231 
Q 1884 4231 1454 3753 
Q 1025 3275 1025 2328 
Q 1025 1384 1454 906 
Q 1884 428 2741 428 
Q 3075 428 3337 486 
Q 3600 544 3809 666 
z
" transform="scale(0.015625)"/>
       <path id="DejaVuSans-43" d="M 4122 4306 
L 4122 3641 
Q 3803 3938 3442 4084 
Q 3081 4231 2675 4231 
Q 1875 4231 1450 3742 
Q 1025 3253 1025 2328 
Q 1025 1406 1450 917 
Q 1875 428 2675 428 
Q 3081 428 3442 575 
Q 3803 722 4122 1019 
L 4122 359 
Q 3791 134 3420 21 
Q 3050 -91 2638 -91 
Q 1578 -91 968 557 
Q 359 1206 359 2328 
Q 359 3453 968 4101 
Q 1578 4750 2638 4750 
Q 3056 4750 3426 4639 
Q 3797 4528 4122 4306 
z
" transform="scale(0.015625)"/>
       <path id="DejaVuSans-79" d="M 2059 -325 
Q 1816 -950 1584 -1140 
Q 1353 -1331 966 -1331 
L 506 -1331 
L 506 -850 
L 844 -850 
Q 1081 -850 1212 -737 
Q 1344 -625 1503 -206 
L 1606 56 
L 191 3500 
L 800 3500 
L 1894 763 
L 2988 3500 
L 3597 3500 
L 2059 -325 
z
" transform="scale(0.015625)"/>
       <path id="DejaVuSans-31" d="M 794 531 
L 1825 531 
L 1825 4091 
L 703 3866 
L 703 4441 
L 1819 4666 
L 2450 4666 
L 2450 531 
L 3481 531 
L 3481 0 
L 794 0 
L 794 531 
z
" transform="scale(0.015625)"/>
       <path id="DejaVuSans-5d" d="M 1947 4863 
L 1947 -844 
L 622 -844 
L 622 -397 
L 1369 -397 
L 1369 4416 
L 622 4416 
L 622 4863 
L 1947 4863 
z
" transform="scale(0.015625)"/>
      </defs>
      <use xlink:href="#DejaVuSans-61" transform="translate(0 0.684375)"/>
      <use xlink:href="#DejaVuSans-6e" transform="translate(61.279297 0.684375)"/>
      <use xlink:href="#DejaVuSans-6e" transform="translate(124.658203 0.684375)"/>
      <use xlink:href="#DejaVuSans-75" transform="translate(188.037109 0.684375)"/>
      <use xlink:href="#DejaVuSans-61" transform="translate(251.416016 0.684375)"/>
      <use xlink:href="#DejaVuSans-6c" transform="translate(312.695312 0.684375)"/>
      <use xlink:href="#DejaVuSans-20" transform="translate(340.478516 0.684375)"/>
      <use xlink:href="#DejaVuSans-63" transform="translate(372.265625 0.684375)"/>
      <use xlink:href="#DejaVuSans-68" transform="translate(427.246094 0.684375)"/>
      <use xlink:href="#DejaVuSans-61" transform="translate(490.625 0.684375)"/>
      <use xlink:href="#DejaVuSans-6e" transform="translate(551.904297 0.684375)"/>
      <use xlink:href="#DejaVuSans-67" transform="translate(615.283203 0.684375)"/>
      <use xlink:href="#DejaVuSans-65" transform="translate(678.759766 0.684375)"/>
      <use xlink:href="#DejaVuSans-20" transform="translate(740.283203 0.684375)"/>
      <use xlink:href="#DejaVuSans-69" transform="translate(772.070312 0.684375)"/>
      <use xlink:href="#DejaVuSans-6e" transform="translate(799.853516 0.684375)"/>
      <use xlink:href="#DejaVuSans-20" transform="translate(863.232422 0.684375)"/>
      <use xlink:href="#DejaVuSans-74" transform="translate(895.019531 0.684375)"/>
      <use xlink:href="#DejaVuSans-6f" transform="translate(934.228516 0.684375)"/>
      <use xlink:href="#DejaVuSans-74" transform="translate(995.410156 0.684375)"/>
      <use xlink:href="#DejaVuSans-61" transform="translate(1034.619141 0.684375)"/>
      <use xlink:href="#DejaVuSans-6c" transform="translate(1095.898438 0.684375)"/>
      <use xlink:href="#DejaVuSans-20" transform="translate(1123.681641 0.684375)"/>
      <use xlink:href="#DejaVuSans-63" transform="translate(1155.46875 0.684375)"/>
      <use xlink:href="#DejaVuSans-61" transform="translate(1210.449219 0.684375)"/>
      <use xlink:href="#DejaVuSans-72" transform="translate(1271.728516 0.684375)"/>
      <use xlink:href="#DejaVuSans-62" transform="translate(1312.841797 0.684375)"/>
      <use xlink:href="#DejaVuSans-6f" transform="translate(1376.318359 0.684375)"/>
      <use xlink:href="#DejaVuSans-6e" transform="translate(1437.5 0.684375)"/>
      <use xlink:href="#DejaVuSans-20" transform="translate(1500.878906 0.684375)"/>
      <use xlink:href="#DejaVuSans-73" transform="translate(1532.666016 0.684375)"/>
      <use xlink:href="#DejaVuSans-74" transform="translate(1584.765625 0.684375)"/>
      <use xlink:href="#DejaVuSans-6f" transform="translate(1623.974609 0.684375)"/>
      <use xlink:href="#DejaVuSans-63" transform="translate(1685.15625 0.684375)"/>
      <use xlink:href="#DejaVuSans-6b" transform="translate(1740.136719 0.684375)"/>
      <use xlink:href="#DejaVuSans-73" transform="translate(1798.046875 0.684375)"/>
      <use xlink:href="#DejaVuSans-20" transform="translate(1850.146484 0.684375)"/>
      <use xlink:href="#DejaVuSans-5b" transform="translate(1881.933594 0.684375)"/>
      <use xlink:href="#DejaVuSans-47" transform="translate(1920.947266 0.684375)"/>
      <use xlink:href="#DejaVuSans-74" transform="translate(1998.4375 0.684375)"/>
      <use xlink:href="#DejaVuSans-43" transform="translate(2037.646484 0.684375)"/>
      <use xlink:href="#DejaVuSans-20" transform="translate(2107.470703 0.684375)"/>
      <use xlink:href="#DejaVuSans-79" transform="translate(2139.257812 0.684375)"/>
      <use xlink:href="#DejaVuSans-72" transform="translate(2198.4375 0.684375)"/>
      <use xlink:href="#DejaVuSans-2212" transform="translate(2240.507812 38.965625) scale(0.7)"/>
      <use xlink:href="#DejaVuSans-31" transform="translate(2299.160156 38.965625) scale(0.7)"/>
      <use xlink:href="#DejaVuSans-5d" transform="translate(2346.430664 0.684375)"/>
     </g>
    </g>
   </g>
   <g id="matplotlib.axis_2">
    <g id="ytick_1">
     <g id="line2d_7">
      <defs>
       <path id="mc17b8d4cc6" d="M 0 0 
L -3.5 0 
" style="stroke: #000000; stroke-width: 0.8"/>
      </defs>
      <g>
       <use xlink:href="#mc17b8d4cc6" x="103.104" y="285.408" style="stroke: #000000; stroke-width: 0.8"/>
      </g>
     </g>
     <g id="text_8">
      <!-- −0.4 -->
      <g transform="translate(71.821188 289.207219) scale(0.1 -0.1)">
       <use xlink:href="#DejaVuSans-2212"/>
       <use xlink:href="#DejaVuSans-30" x="83.789062"/>
       <use xlink:href="#DejaVuSans-2e" x="147.412109"/>
       <use xlink:href="#DejaVuSans-34" x="179.199219"/>
      </g>
     </g>
    </g>
    <g id="ytick_2">
     <g id="line2d_8">
      <g>
       <use xlink:href="#mc17b8d4cc6" x="103.104" y="241.056" style="stroke: #000000; stroke-width: 0.8"/>
      </g>
     </g>
     <g id="text_9">
      <!-- −0.2 -->
      <g transform="translate(71.821188 244.855219) scale(0.1 -0.1)">
       <use xlink:href="#DejaVuSans-2212"/>
       <use xlink:href="#DejaVuSans-30" x="83.789062"/>
       <use xlink:href="#DejaVuSans-2e" x="147.412109"/>
       <use xlink:href="#DejaVuSans-32" x="179.199219"/>
      </g>
     </g>
    </g>
    <g id="ytick_3">
     <g id="line2d_9">
      <g>
       <use xlink:href="#mc17b8d4cc6" x="103.104" y="196.704" style="stroke: #000000; stroke-width: 0.8"/>
      </g>
     </g>
     <g id="text_10">
      <!-- 0.0 -->
      <g transform="translate(80.200875 200.503219) scale(0.1 -0.1)">
       <use xlink:href="#DejaVuSans-30"/>
       <use xlink:href="#DejaVuSans-2e" x="63.623047"/>
       <use xlink:href="#DejaVuSans-30" x="95.410156"/>
      </g>
     </g>
    </g>
    <g id="ytick_4">
     <g id="line2d_10">
      <g>
       <use xlink:href="#mc17b8d4cc6" x="103.104" y="152.352" style="stroke: #000000; stroke-width: 0.8"/>
      </g>
     </g>
     <g id="text_11">
      <!-- 0.2 -->
      <g transform="translate(80.200875 156.151219) scale(0.1 -0.1)">
       <use xlink:href="#DejaVuSans-30"/>
       <use xlink:href="#DejaVuSans-2e" x="63.623047"/>
       <use xlink:href="#DejaVuSans-32" x="95.410156"/>
      </g>
     </g>
    </g>
    <g id="ytick_5">
     <g id="line2d_11">
      <g>
       <use xlink:href="#mc17b8d4cc6" x="103.104" y="108" style="stroke: #000000; stroke-width: 0.8"/>
      </g>
     </g>
     <g id="text_12">
      <!-- 0.4 -->
      <g transform="translate(80.200875 111.799219) scale(0.1 -0.1)">
       <use xlink:href="#DejaVuSans-30"/>
       <use xlink:href="#DejaVuSans-2e" x="63.623047"/>
       <use xlink:href="#DejaVuSans-34" x="95.410156"/>
      </g>
     </g>
    </g>
    <g id="ytick_6">
     <g id="line2d_12">
      <g>
       <use xlink:href="#mc17b8d4cc6" x="103.104" y="63.648" style="stroke: #000000; stroke-width: 0.8"/>
      </g>
     </g>
     <g id="text_13">
      <!-- 0.6 -->
      <g transform="translate(80.200875 67.447219) scale(0.1 -0.1)">
       <use xlink:href="#DejaVuSans-30"/>
       <use xlink:href="#DejaVuSans-2e" x="63.623047"/>
       <use xlink:href="#DejaVuSans-36" x="95.410156"/>
      </g>
     </g>
    </g>
    <g id="text_14">
     <!-- annual change in total live biomass stocks [GtC yr$^{-1}$] -->
     <g transform="translate(65.721188 307.728) rotate(-90) scale(0.1 -0.1)">
      <defs>
       <path id="DejaVuSans-76" d="M 191 3500 
L 800 3500 
L 1894 563 
L 2988 3500 
L 3597 3500 
L 2284 0 
L 1503 0 
L 191 3500 
z
" transform="scale(0.015625)"/>
       <path id="DejaVuSans-6d" d="M 3328 2828 
Q 3544 3216 3844 3400 
Q 4144 3584 4550 3584 
Q 5097 3584 5394 3201 
Q 5691 2819 5691 2113 
L 5691 0 
L 5113 0 
L 5113 2094 
Q 5113 2597 4934 2840 
Q 4756 3084 4391 3084 
Q 3944 3084 3684 2787 
Q 3425 2491 3425 1978 
L 3425 0 
L 2847 0 
L 2847 2094 
Q 2847 2600 2669 2842 
Q 2491 3084 2119 3084 
Q 1678 3084 1418 2786 
Q 1159 2488 1159 1978 
L 1159 0 
L 581 0 
L 581 3500 
L 1159 3500 
L 1159 2956 
Q 1356 3278 1631 3431 
Q 1906 3584 2284 3584 
Q 2666 3584 2933 3390 
Q 3200 3197 3328 2828 
z
" transform="scale(0.015625)"/>
      </defs>
      <use xlink:href="#DejaVuSans-61" transform="translate(0 0.684375)"/>
      <use xlink:href="#DejaVuSans-6e" transform="translate(61.279297 0.684375)"/>
      <use xlink:href="#DejaVuSans-6e" transform="translate(124.658203 0.684375)"/>
      <use xlink:href="#DejaVuSans-75" transform="translate(188.037109 0.684375)"/>
      <use xlink:href="#DejaVuSans-61" transform="translate(251.416016 0.684375)"/>
      <use xlink:href="#DejaVuSans-6c" transform="translate(312.695312 0.684375)"/>
      <use xlink:href="#DejaVuSans-20" transform="translate(340.478516 0.684375)"/>
      <use xlink:href="#DejaVuSans-63" transform="translate(372.265625 0.684375)"/>
      <use xlink:href="#DejaVuSans-68" transform="translate(427.246094 0.684375)"/>
      <use xlink:href="#DejaVuSans-61" transform="translate(490.625 0.684375)"/>
      <use xlink:href="#DejaVuSans-6e" transform="translate(551.904297 0.684375)"/>
      <use xlink:href="#DejaVuSans-67" transform="translate(615.283203 0.684375)"/>
      <use xlink:href="#DejaVuSans-65" transform="translate(678.759766 0.684375)"/>
      <use xlink:href="#DejaVuSans-20" transform="translate(740.283203 0.684375)"/>
      <use xlink:href="#DejaVuSans-69" transform="translate(772.070312 0.684375)"/>
      <use xlink:href="#DejaVuSans-6e" transform="translate(799.853516 0.684375)"/>
      <use xlink:href="#DejaVuSans-20" transform="translate(863.232422 0.684375)"/>
      <use xlink:href="#DejaVuSans-74" transform="translate(895.019531 0.684375)"/>
      <use xlink:href="#DejaVuSans-6f" transform="translate(934.228516 0.684375)"/>
      <use xlink:href="#DejaVuSans-74" transform="translate(995.410156 0.684375)"/>
      <use xlink:href="#DejaVuSans-61" transform="translate(1034.619141 0.684375)"/>
      <use xlink:href="#DejaVuSans-6c" transform="translate(1095.898438 0.684375)"/>
      <use xlink:href="#DejaVuSans-20" transform="translate(1123.681641 0.684375)"/>
      <use xlink:href="#DejaVuSans-6c" transform="translate(1155.46875 0.684375)"/>
      <use xlink:href="#DejaVuSans-69" transform="translate(1183.251953 0.684375)"/>
      <use xlink:href="#DejaVuSans-76" transform="translate(1211.035156 0.684375)"/>
      <use xlink:href="#DejaVuSans-65" transform="translate(1270.214844 0.684375)"/>
      <use xlink:href="#DejaVuSans-20" transform="translate(1331.738281 0.684375)"/>
      <use xlink:href="#DejaVuSans-62" transform="translate(1363.525391 0.684375)"/>
      <use xlink:href="#DejaVuSans-69" transform="translate(1427.001953 0.684375)"/>
      <use xlink:href="#DejaVuSans-6f" transform="translate(1454.785156 0.684375)"/>
      <use xlink:href="#DejaVuSans-6d" transform="translate(1515.966797 0.684375)"/>
      <use xlink:href="#DejaVuSans-61" transform="translate(1613.378906 0.684375)"/>
      <use xlink:href="#DejaVuSans-73" transform="translate(1674.658203 0.684375)"/>
      <use xlink:href="#DejaVuSans-73" transform="translate(1726.757812 0.684375)"/>
      <use xlink:href="#DejaVuSans-20" transform="translate(1778.857422 0.684375)"/>
      <use xlink:href="#DejaVuSans-73" transform="translate(1810.644531 0.684375)"/>
      <use xlink:href="#DejaVuSans-74" transform="translate(1862.744141 0.684375)"/>
      <use xlink:href="#DejaVuSans-6f" transform="translate(1901.953125 0.684375)"/>
      <use xlink:href="#DejaVuSans-63" transform="translate(1963.134766 0.684375)"/>
      <use xlink:href="#DejaVuSans-6b" transform="translate(2018.115234 0.684375)"/>
      <use xlink:href="#DejaVuSans-73" transform="translate(2076.025391 0.684375)"/>
      <use xlink:href="#DejaVuSans-20" transform="translate(2128.125 0.684375)"/>
      <use xlink:href="#DejaVuSans-5b" transform="translate(2159.912109 0.684375)"/>
      <use xlink:href="#DejaVuSans-47" transform="translate(2198.925781 0.684375)"/>
      <use xlink:href="#DejaVuSans-74" transform="translate(2276.416016 0.684375)"/>
      <use xlink:href="#DejaVuSans-43" transform="translate(2315.625 0.684375)"/>
      <use xlink:href="#DejaVuSans-20" transform="translate(2385.449219 0.684375)"/>
      <use xlink:href="#DejaVuSans-79" transform="translate(2417.236328 0.684375)"/>
      <use xlink:href="#DejaVuSans-72" transform="translate(2476.416016 0.684375)"/>
      <use xlink:href="#DejaVuSans-2212" transform="translate(2518.486328 38.965625) scale(0.7)"/>
      <use xlink:href="#DejaVuSans-31" transform="translate(2577.138672 38.965625) scale(0.7)"/>
      <use xlink:href="#DejaVuSans-5d" transform="translate(2624.40918 0.684375)"/>
     </g>
    </g>
   </g>
   <g id="line2d_13">
    <path d="M 163.017208 223.141452 
L 164.74605 222.56561 
L 166.474892 221.989767 
L 168.203735 221.413924 
L 169.932577 220.838081 
L 171.661419 220.262239 
L 173.390262 219.686396 
L 175.119104 219.110553 
L 176.847946 218.53471 
L 178.576789 217.958868 
L 180.305631 217.383025 
L 182.034473 216.807182 
L 183.763316 216.23134 
L 185.492158 215.655497 
L 187.221 215.079654 
L 188.949843 214.503811 
L 190.678685 213.927969 
L 192.407528 213.352126 
L 194.13637 212.776283 
L 195.865212 212.20044 
L 197.594055 211.624598 
L 199.322897 211.048755 
L 201.051739 210.472912 
L 202.780582 209.897069 
L 204.509424 209.321227 
L 206.238266 208.745384 
L 207.967109 208.169541 
L 209.695951 207.593699 
L 211.424793 207.017856 
L 213.153636 206.442013 
L 214.882478 205.86617 
L 216.61132 205.290328 
L 218.340163 204.714485 
L 220.069005 204.138642 
L 221.797848 203.562799 
L 223.52669 202.986957 
L 225.255532 202.411114 
L 226.984375 201.835271 
L 228.713217 201.259429 
L 230.442059 200.683586 
L 232.170902 200.107743 
L 233.899744 199.5319 
L 235.628586 198.956058 
L 237.357429 198.380215 
L 239.086271 197.804372 
L 240.815113 197.228529 
L 242.543956 196.652687 
L 244.272798 196.076844 
L 246.001641 195.501001 
L 247.730483 194.925159 
L 249.459325 194.349316 
L 251.188168 193.773473 
L 252.91701 193.19763 
L 254.645852 192.621788 
L 256.374695 192.045945 
L 258.103537 191.470102 
L 259.832379 190.894259 
L 261.561222 190.318417 
L 263.290064 189.742574 
L 265.018906 189.166731 
L 266.747749 188.590888 
L 268.476591 188.015046 
L 270.205433 187.439203 
L 271.934276 186.86336 
L 273.663118 186.287518 
L 275.391961 185.711675 
L 277.120803 185.135832 
L 278.849645 184.559989 
L 280.578488 183.984147 
L 282.30733 183.408304 
L 284.036172 182.832461 
L 285.765015 182.256618 
L 287.493857 181.680776 
L 289.222699 181.104933 
L 290.951542 180.52909 
L 292.680384 179.953248 
L 294.409226 179.377405 
L 296.138069 178.801562 
L 297.866911 178.225719 
L 299.595753 177.649877 
L 301.324596 177.074034 
L 303.053438 176.498191 
L 304.782281 175.922348 
L 306.511123 175.346506 
L 308.239965 174.770663 
L 309.968808 174.19482 
L 311.69765 173.618977 
L 313.426492 173.043135 
L 315.155335 172.467292 
L 316.884177 171.891449 
L 318.613019 171.315607 
L 320.341862 170.739764 
L 322.070704 170.163921 
L 323.799546 169.588078 
L 325.528389 169.012236 
L 327.257231 168.436393 
L 328.986073 167.86055 
L 330.714916 167.284707 
L 332.443758 166.708865 
L 334.172601 166.133022 
" clip-path="url(#pd0a7db23fb)" style="fill: none; stroke-dasharray: 8.325,3.6; stroke-dashoffset: 0; stroke: #1f77b4; stroke-width: 2.25"/>
   </g>
   <g id="LineCollection_1">
    <path d="M 131.070885 207.911908 
L 235.233263 207.911908 
" clip-path="url(#pd0a7db23fb)" style="fill: none; stroke: #e60049; stroke-width: 1.5"/>
   </g>
   <g id="LineCollection_2">
    <path d="M 183.152074 230.557096 
L 183.152074 185.26672 
" clip-path="url(#pd0a7db23fb)" style="fill: none; stroke: #e60049; stroke-width: 1.5"/>
   </g>
   <g id="line2d_14">
    <defs>
     <path id="m188c357c0a" d="M 0 2 
L 0 -2 
" style="stroke: #e60049"/>
    </defs>
    <g clip-path="url(#pd0a7db23fb)">
     <use xlink:href="#m188c357c0a" x="131.070885" y="207.911908" style="fill: #e60049; stroke: #e60049"/>
    </g>
   </g>
   <g id="line2d_15">
    <g clip-path="url(#pd0a7db23fb)">
     <use xlink:href="#m188c357c0a" x="235.233263" y="207.911908" style="fill: #e60049; stroke: #e60049"/>
    </g>
   </g>
   <g id="line2d_16">
    <defs>
     <path id="meee83b17b5" d="M 2 0 
L -2 -0 
" style="stroke: #e60049"/>
    </defs>
    <g clip-path="url(#pd0a7db23fb)">
     <use xlink:href="#meee83b17b5" x="183.152074" y="230.557096" style="fill: #e60049; stroke: #e60049"/>
    </g>
   </g>
   <g id="line2d_17">
    <g clip-path="url(#pd0a7db23fb)">
     <use xlink:href="#meee83b17b5" x="183.152074" y="185.26672" style="fill: #e60049; stroke: #e60049"/>
    </g>
   </g>
   <g id="LineCollection_3">
    <path d="M 183.852271 196.89147 
L 232.302745 196.89147 
" clip-path="url(#pd0a7db23fb)" style="fill: none; stroke: #0bb4ff; stroke-width: 1.5"/>
   </g>
   <g id="LineCollection_4">
    <path d="M 208.077508 214.861169 
L 208.077508 178.92177 
" clip-path="url(#pd0a7db23fb)" style="fill: none; stroke: #0bb4ff; stroke-width: 1.5"/>
   </g>
   <g id="line2d_18">
    <defs>
     <path id="m72e8490604" d="M 0 2 
L 0 -2 
" style="stroke: #0bb4ff"/>
    </defs>
    <g clip-path="url(#pd0a7db23fb)">
     <use xlink:href="#m72e8490604" x="183.852271" y="196.89147" style="fill: #0bb4ff; stroke: #0bb4ff"/>
    </g>
   </g>
   <g id="line2d_19">
    <g clip-path="url(#pd0a7db23fb)">
     <use xlink:href="#m72e8490604" x="232.302745" y="196.89147" style="fill: #0bb4ff; stroke: #0bb4ff"/>
    </g>
   </g>
   <g id="line2d_20">
    <defs>
     <path id="mb3f7158ae3" d="M 2 0 
L -2 -0 
" style="stroke: #0bb4ff"/>
    </defs>
    <g clip-path="url(#pd0a7db23fb)">
     <use xlink:href="#mb3f7158ae3" x="208.077508" y="214.861169" style="fill: #0bb4ff; stroke: #0bb4ff"/>
    </g>
   </g>
   <g id="line2d_21">
    <g clip-path="url(#pd0a7db23fb)">
     <use xlink:href="#mb3f7158ae3" x="208.077508" y="178.92177" style="fill: #0bb4ff; stroke: #0bb4ff"/>
    </g>
   </g>
   <g id="LineCollection_5">
    <path d="M 256.770191 181.892726 
L 316.361412 181.892726 
" clip-path="url(#pd0a7db23fb)" style="fill: none; stroke: #50e991; stroke-width: 1.5"/>
   </g>
   <g id="LineCollection_6">
    <path d="M 286.565801 194.939517 
L 286.565801 168.845934 
" clip-path="url(#pd0a7db23fb)" style="fill: none; stroke: #50e991; stroke-width: 1.5"/>
   </g>
   <g id="line2d_22">
    <defs>
     <path id="m3a57fa0278" d="M 0 2 
L 0 -2 
" style="stroke: #50e991"/>
    </defs>
    <g clip-path="url(#pd0a7db23fb)">
     <use xlink:href="#m3a57fa0278" x="256.770191" y="181.892726" style="fill: #50e991; stroke: #50e991"/>
    </g>
   </g>
   <g id="line2d_23">
    <g clip-path="url(#pd0a7db23fb)">
     <use xlink:href="#m3a57fa0278" x="316.361412" y="181.892726" style="fill: #50e991; stroke: #50e991"/>
    </g>
   </g>
   <g id="line2d_24">
    <defs>
     <path id="m76a7a4408b" d="M 2 0 
L -2 -0 
" style="stroke: #50e991"/>
    </defs>
    <g clip-path="url(#pd0a7db23fb)">
     <use xlink:href="#m76a7a4408b" x="286.565801" y="194.939517" style="fill: #50e991; stroke: #50e991"/>
    </g>
   </g>
   <g id="line2d_25">
    <g clip-path="url(#pd0a7db23fb)">
     <use xlink:href="#m76a7a4408b" x="286.565801" y="168.845934" style="fill: #50e991; stroke: #50e991"/>
    </g>
   </g>
   <g id="LineCollection_7">
    <path d="M 260.259471 179.700098 
L 313.27551 179.700098 
" clip-path="url(#pd0a7db23fb)" style="fill: none; stroke: #e6d800; stroke-width: 1.5"/>
   </g>
   <g id="LineCollection_8">
    <path d="M 286.767491 189.981779 
L 286.767491 169.418418 
" clip-path="url(#pd0a7db23fb)" style="fill: none; stroke: #e6d800; stroke-width: 1.5"/>
   </g>
   <g id="line2d_26">
    <defs>
     <path id="mc901d06641" d="M 0 2 
L 0 -2 
" style="stroke: #e6d800"/>
    </defs>
    <g clip-path="url(#pd0a7db23fb)">
     <use xlink:href="#mc901d06641" x="260.259471" y="179.700098" style="fill: #e6d800; stroke: #e6d800"/>
    </g>
   </g>
   <g id="line2d_27">
    <g clip-path="url(#pd0a7db23fb)">
     <use xlink:href="#mc901d06641" x="313.27551" y="179.700098" style="fill: #e6d800; stroke: #e6d800"/>
    </g>
   </g>
   <g id="line2d_28">
    <defs>
     <path id="me29668b7e0" d="M 2 0 
L -2 -0 
" style="stroke: #e6d800"/>
    </defs>
    <g clip-path="url(#pd0a7db23fb)">
     <use xlink:href="#me29668b7e0" x="286.767491" y="189.981779" style="fill: #e6d800; stroke: #e6d800"/>
    </g>
   </g>
   <g id="line2d_29">
    <g clip-path="url(#pd0a7db23fb)">
     <use xlink:href="#me29668b7e0" x="286.767491" y="169.418418" style="fill: #e6d800; stroke: #e6d800"/>
    </g>
   </g>
   <g id="LineCollection_9">
    <path d="M 268.404844 180.008529 
L 342.110136 180.008529 
" clip-path="url(#pd0a7db23fb)" style="fill: none; stroke: #9b19f5; stroke-width: 1.5"/>
   </g>
   <g id="LineCollection_10">
    <path d="M 305.25749 204.50738 
L 305.25749 155.509678 
" clip-path="url(#pd0a7db23fb)" style="fill: none; stroke: #9b19f5; stroke-width: 1.5"/>
   </g>
   <g id="line2d_30">
    <defs>
     <path id="m47e14b723d" d="M 0 2 
L 0 -2 
" style="stroke: #9b19f5"/>
    </defs>
    <g clip-path="url(#pd0a7db23fb)">
     <use xlink:href="#m47e14b723d" x="268.404844" y="180.008529" style="fill: #9b19f5; stroke: #9b19f5"/>
    </g>
   </g>
   <g id="line2d_31">
    <g clip-path="url(#pd0a7db23fb)">
     <use xlink:href="#m47e14b723d" x="342.110136" y="180.008529" style="fill: #9b19f5; stroke: #9b19f5"/>
    </g>
   </g>
   <g id="line2d_32">
    <defs>
     <path id="m3a70e4f3aa" d="M 2 0 
L -2 -0 
" style="stroke: #9b19f5"/>
    </defs>
    <g clip-path="url(#pd0a7db23fb)">
     <use xlink:href="#m3a70e4f3aa" x="305.25749" y="204.50738" style="fill: #9b19f5; stroke: #9b19f5"/>
    </g>
   </g>
   <g id="line2d_33">
    <g clip-path="url(#pd0a7db23fb)">
     <use xlink:href="#m3a70e4f3aa" x="305.25749" y="155.509678" style="fill: #9b19f5; stroke: #9b19f5"/>
    </g>
   </g>
   <g id="LineCollection_11">
    <path d="M 305.16671 170.950105 
L 363.178491 170.950105 
" clip-path="url(#pd0a7db23fb)" style="fill: none; stroke: #ffa300; stroke-width: 1.5"/>
   </g>
   <g id="LineCollection_12">
    <path d="M 334.172601 188.457055 
L 334.172601 153.443154 
" clip-path="url(#pd0a7db23fb)" style="fill: none; stroke: #ffa300; stroke-width: 1.5"/>
   </g>
   <g id="line2d_34">
    <defs>
     <path id="md085573b3d" d="M 0 2 
L 0 -2 
" style="stroke: #ffa300"/>
    </defs>
    <g clip-path="url(#pd0a7db23fb)">
     <use xlink:href="#md085573b3d" x="305.16671" y="170.950105" style="fill: #ffa300; stroke: #ffa300"/>
    </g>
   </g>
   <g id="line2d_35">
    <g clip-path="url(#pd0a7db23fb)">
     <use xlink:href="#md085573b3d" x="363.178491" y="170.950105" style="fill: #ffa300; stroke: #ffa300"/>
    </g>
   </g>
   <g id="line2d_36">
    <defs>
     <path id="mf59c3fbd45" d="M 2 0 
L -2 -0 
" style="stroke: #ffa300"/>
    </defs>
    <g clip-path="url(#pd0a7db23fb)">
     <use xlink:href="#mf59c3fbd45" x="334.172601" y="188.457055" style="fill: #ffa300; stroke: #ffa300"/>
    </g>
   </g>
   <g id="line2d_37">
    <g clip-path="url(#pd0a7db23fb)">
     <use xlink:href="#mf59c3fbd45" x="334.172601" y="153.443154" style="fill: #ffa300; stroke: #ffa300"/>
    </g>
   </g>
   <g id="LineCollection_13">
    <path d="M 114.087774 238.397638 
L 211.946641 238.397638 
" clip-path="url(#pd0a7db23fb)" style="fill: none; stroke: #dc0ab4; stroke-width: 1.5"/>
   </g>
   <g id="LineCollection_14">
    <path d="M 163.017208 266.374267 
L 163.017208 210.421008 
" clip-path="url(#pd0a7db23fb)" style="fill: none; stroke: #dc0ab4; stroke-width: 1.5"/>
   </g>
   <g id="line2d_38">
    <defs>
     <path id="m63f9ea6b53" d="M 0 2 
L 0 -2 
" style="stroke: #dc0ab4"/>
    </defs>
    <g clip-path="url(#pd0a7db23fb)">
     <use xlink:href="#m63f9ea6b53" x="114.087774" y="238.397638" style="fill: #dc0ab4; stroke: #dc0ab4"/>
    </g>
   </g>
   <g id="line2d_39">
    <g clip-path="url(#pd0a7db23fb)">
     <use xlink:href="#m63f9ea6b53" x="211.946641" y="238.397638" style="fill: #dc0ab4; stroke: #dc0ab4"/>
    </g>
   </g>
   <g id="line2d_40">
    <defs>
     <path id="m0fb65cb528" d="M 2 0 
L -2 -0 
" style="stroke: #dc0ab4"/>
    </defs>
    <g clip-path="url(#pd0a7db23fb)">
     <use xlink:href="#m0fb65cb528" x="163.017208" y="266.374267" style="fill: #dc0ab4; stroke: #dc0ab4"/>
    </g>
   </g>
   <g id="line2d_41">
    <g clip-path="url(#pd0a7db23fb)">
     <use xlink:href="#m0fb65cb528" x="163.017208" y="210.421008" style="fill: #dc0ab4; stroke: #dc0ab4"/>
    </g>
   </g>
   <g id="LineCollection_15">
    <path d="M 201.278855 189.524987 
L 255.165287 189.524987 
" clip-path="url(#pd0a7db23fb)" style="fill: none; stroke: #b3d4ff; stroke-width: 1.5"/>
   </g>
   <g id="LineCollection_16">
    <path d="M 228.222071 193.715395 
L 228.222071 185.33458 
" clip-path="url(#pd0a7db23fb)" style="fill: none; stroke: #b3d4ff; stroke-width: 1.5"/>
   </g>
   <g id="line2d_42">
    <defs>
     <path id="mdd2389a3c1" d="M 0 2 
L 0 -2 
" style="stroke: #b3d4ff"/>
    </defs>
    <g clip-path="url(#pd0a7db23fb)">
     <use xlink:href="#mdd2389a3c1" x="201.278855" y="189.524987" style="fill: #b3d4ff; stroke: #b3d4ff"/>
    </g>
   </g>
   <g id="line2d_43">
    <g clip-path="url(#pd0a7db23fb)">
     <use xlink:href="#mdd2389a3c1" x="255.165287" y="189.524987" style="fill: #b3d4ff; stroke: #b3d4ff"/>
    </g>
   </g>
   <g id="line2d_44">
    <defs>
     <path id="m193ae20cc8" d="M 2 0 
L -2 -0 
" style="stroke: #b3d4ff"/>
    </defs>
    <g clip-path="url(#pd0a7db23fb)">
     <use xlink:href="#m193ae20cc8" x="228.222071" y="193.715395" style="fill: #b3d4ff; stroke: #b3d4ff"/>
    </g>
   </g>
   <g id="line2d_45">
    <g clip-path="url(#pd0a7db23fb)">
     <use xlink:href="#m193ae20cc8" x="228.222071" y="185.33458" style="fill: #b3d4ff; stroke: #b3d4ff"/>
    </g>
   </g>
   <g id="LineCollection_17">
    <path d="M 148.33779 222.025101 
L 242.430379 222.025101 
" clip-path="url(#pd0a7db23fb)" style="fill: none; stroke: #00bfa0; stroke-width: 1.5"/>
   </g>
   <g id="LineCollection_18">
    <path d="M 195.384085 255.509646 
L 195.384085 188.540557 
" clip-path="url(#pd0a7db23fb)" style="fill: none; stroke: #00bfa0; stroke-width: 1.5"/>
   </g>
   <g id="line2d_46">
    <defs>
     <path id="m79b4571e6e" d="M 0 2 
L 0 -2 
" style="stroke: #00bfa0"/>
    </defs>
    <g clip-path="url(#pd0a7db23fb)">
     <use xlink:href="#m79b4571e6e" x="148.33779" y="222.025101" style="fill: #00bfa0; stroke: #00bfa0"/>
    </g>
   </g>
   <g id="line2d_47">
    <g clip-path="url(#pd0a7db23fb)">
     <use xlink:href="#m79b4571e6e" x="242.430379" y="222.025101" style="fill: #00bfa0; stroke: #00bfa0"/>
    </g>
   </g>
   <g id="line2d_48">
    <defs>
     <path id="m222bb9a3f7" d="M 2 0 
L -2 -0 
" style="stroke: #00bfa0"/>
    </defs>
    <g clip-path="url(#pd0a7db23fb)">
     <use xlink:href="#m222bb9a3f7" x="195.384085" y="255.509646" style="fill: #00bfa0; stroke: #00bfa0"/>
    </g>
   </g>
   <g id="line2d_49">
    <g clip-path="url(#pd0a7db23fb)">
     <use xlink:href="#m222bb9a3f7" x="195.384085" y="188.540557" style="fill: #00bfa0; stroke: #00bfa0"/>
    </g>
   </g>
   <g id="line2d_50">
    <path d="M 64.088 346.6 
L 391.392 19.296 
" clip-path="url(#pd0a7db23fb)" style="fill: none; stroke-dasharray: 5.55,2.4; stroke-dashoffset: 0; stroke: #808080; stroke-width: 1.5"/>
   </g>
   <g id="line2d_51">
    <path d="M 103.104 196.704 
L 369.216 196.704 
" clip-path="url(#pd0a7db23fb)" style="fill: none; stroke-dasharray: 1.85,0.8; stroke-dashoffset: 0; stroke: #808080; stroke-width: 0.5"/>
   </g>
   <g id="line2d_52">
    <path d="M 213.984 307.584 
L 213.984 41.472 
" clip-path="url(#pd0a7db23fb)" style="fill: none; stroke-dasharray: 1.85,0.8; stroke-dashoffset: 0; stroke: #808080; stroke-width: 0.5"/>
   </g>
   <g id="line2d_53">
    <defs>
     <path id="md0c4ea4ca7" d="M 0 3 
C 0.795609 3 1.55874 2.683901 2.12132 2.12132 
C 2.683901 1.55874 3 0.795609 3 0 
C 3 -0.795609 2.683901 -1.55874 2.12132 -2.12132 
C 1.55874 -2.683901 0.795609 -3 0 -3 
C -0.795609 -3 -1.55874 -2.683901 -2.12132 -2.12132 
C -2.683901 -1.55874 -3 -0.795609 -3 0 
C -3 0.795609 -2.683901 1.55874 -2.12132 2.12132 
C -1.55874 2.683901 -0.795609 3 0 3 
z
" style="stroke: #e60049"/>
    </defs>
    <g clip-path="url(#pd0a7db23fb)">
     <use xlink:href="#md0c4ea4ca7" x="183.152074" y="207.911908" style="fill: #e60049; stroke: #e60049"/>
    </g>
   </g>
   <g id="line2d_54">
    <defs>
     <path id="m32a487737c" d="M 0 3 
C 0.795609 3 1.55874 2.683901 2.12132 2.12132 
C 2.683901 1.55874 3 0.795609 3 0 
C 3 -0.795609 2.683901 -1.55874 2.12132 -2.12132 
C 1.55874 -2.683901 0.795609 -3 0 -3 
C -0.795609 -3 -1.55874 -2.683901 -2.12132 -2.12132 
C -2.683901 -1.55874 -3 -0.795609 -3 0 
C -3 0.795609 -2.683901 1.55874 -2.12132 2.12132 
C -1.55874 2.683901 -0.795609 3 0 3 
z
" style="stroke: #0bb4ff"/>
    </defs>
    <g clip-path="url(#pd0a7db23fb)">
     <use xlink:href="#m32a487737c" x="208.077508" y="196.89147" style="fill: #0bb4ff; stroke: #0bb4ff"/>
    </g>
   </g>
   <g id="line2d_55">
    <defs>
     <path id="md24fb4637f" d="M 0 3 
C 0.795609 3 1.55874 2.683901 2.12132 2.12132 
C 2.683901 1.55874 3 0.795609 3 0 
C 3 -0.795609 2.683901 -1.55874 2.12132 -2.12132 
C 1.55874 -2.683901 0.795609 -3 0 -3 
C -0.795609 -3 -1.55874 -2.683901 -2.12132 -2.12132 
C -2.683901 -1.55874 -3 -0.795609 -3 0 
C -3 0.795609 -2.683901 1.55874 -2.12132 2.12132 
C -1.55874 2.683901 -0.795609 3 0 3 
z
" style="stroke: #50e991"/>
    </defs>
    <g clip-path="url(#pd0a7db23fb)">
     <use xlink:href="#md24fb4637f" x="286.565801" y="181.892726" style="fill: #50e991; stroke: #50e991"/>
    </g>
   </g>
   <g id="line2d_56">
    <defs>
     <path id="m6c50b3dfdb" d="M 0 3 
C 0.795609 3 1.55874 2.683901 2.12132 2.12132 
C 2.683901 1.55874 3 0.795609 3 0 
C 3 -0.795609 2.683901 -1.55874 2.12132 -2.12132 
C 1.55874 -2.683901 0.795609 -3 0 -3 
C -0.795609 -3 -1.55874 -2.683901 -2.12132 -2.12132 
C -2.683901 -1.55874 -3 -0.795609 -3 0 
C -3 0.795609 -2.683901 1.55874 -2.12132 2.12132 
C -1.55874 2.683901 -0.795609 3 0 3 
z
" style="stroke: #e6d800"/>
    </defs>
    <g clip-path="url(#pd0a7db23fb)">
     <use xlink:href="#m6c50b3dfdb" x="286.767491" y="179.700098" style="fill: #e6d800; stroke: #e6d800"/>
    </g>
   </g>
   <g id="line2d_57">
    <defs>
     <path id="m952963e7ae" d="M 0 3 
C 0.795609 3 1.55874 2.683901 2.12132 2.12132 
C 2.683901 1.55874 3 0.795609 3 0 
C 3 -0.795609 2.683901 -1.55874 2.12132 -2.12132 
C 1.55874 -2.683901 0.795609 -3 0 -3 
C -0.795609 -3 -1.55874 -2.683901 -2.12132 -2.12132 
C -2.683901 -1.55874 -3 -0.795609 -3 0 
C -3 0.795609 -2.683901 1.55874 -2.12132 2.12132 
C -1.55874 2.683901 -0.795609 3 0 3 
z
" style="stroke: #9b19f5"/>
    </defs>
    <g clip-path="url(#pd0a7db23fb)">
     <use xlink:href="#m952963e7ae" x="305.25749" y="180.008529" style="fill: #9b19f5; stroke: #9b19f5"/>
    </g>
   </g>
   <g id="line2d_58">
    <defs>
     <path id="m5e272a960d" d="M 0 3 
C 0.795609 3 1.55874 2.683901 2.12132 2.12132 
C 2.683901 1.55874 3 0.795609 3 0 
C 3 -0.795609 2.683901 -1.55874 2.12132 -2.12132 
C 1.55874 -2.683901 0.795609 -3 0 -3 
C -0.795609 -3 -1.55874 -2.683901 -2.12132 -2.12132 
C -2.683901 -1.55874 -3 -0.795609 -3 0 
C -3 0.795609 -2.683901 1.55874 -2.12132 2.12132 
C -1.55874 2.683901 -0.795609 3 0 3 
z
" style="stroke: #ffa300"/>
    </defs>
    <g clip-path="url(#pd0a7db23fb)">
     <use xlink:href="#m5e272a960d" x="334.172601" y="170.950105" style="fill: #ffa300; stroke: #ffa300"/>
    </g>
   </g>
   <g id="line2d_59">
    <defs>
     <path id="mf3e186cc86" d="M 0 3 
C 0.795609 3 1.55874 2.683901 2.12132 2.12132 
C 2.683901 1.55874 3 0.795609 3 0 
C 3 -0.795609 2.683901 -1.55874 2.12132 -2.12132 
C 1.55874 -2.683901 0.795609 -3 0 -3 
C -0.795609 -3 -1.55874 -2.683901 -2.12132 -2.12132 
C -2.683901 -1.55874 -3 -0.795609 -3 0 
C -3 0.795609 -2.683901 1.55874 -2.12132 2.12132 
C -1.55874 2.683901 -0.795609 3 0 3 
z
" style="stroke: #dc0ab4"/>
    </defs>
    <g clip-path="url(#pd0a7db23fb)">
     <use xlink:href="#mf3e186cc86" x="163.017208" y="238.397638" style="fill: #dc0ab4; stroke: #dc0ab4"/>
    </g>
   </g>
   <g id="line2d_60">
    <defs>
     <path id="m57eaf6c4cc" d="M 0 3 
C 0.795609 3 1.55874 2.683901 2.12132 2.12132 
C 2.683901 1.55874 3 0.795609 3 0 
C 3 -0.795609 2.683901 -1.55874 2.12132 -2.12132 
C 1.55874 -2.683901 0.795609 -3 0 -3 
C -0.795609 -3 -1.55874 -2.683901 -2.12132 -2.12132 
C -2.683901 -1.55874 -3 -0.795609 -3 0 
C -3 0.795609 -2.683901 1.55874 -2.12132 2.12132 
C -1.55874 2.683901 -0.795609 3 0 3 
z
" style="stroke: #b3d4ff"/>
    </defs>
    <g clip-path="url(#pd0a7db23fb)">
     <use xlink:href="#m57eaf6c4cc" x="228.222071" y="189.524987" style="fill: #b3d4ff; stroke: #b3d4ff"/>
    </g>
   </g>
   <g id="line2d_61">
    <defs>
     <path id="m1f8495ba70" d="M 0 3 
C 0.795609 3 1.55874 2.683901 2.12132 2.12132 
C 2.683901 1.55874 3 0.795609 3 0 
C 3 -0.795609 2.683901 -1.55874 2.12132 -2.12132 
C 1.55874 -2.683901 0.795609 -3 0 -3 
C -0.795609 -3 -1.55874 -2.683901 -2.12132 -2.12132 
C -2.683901 -1.55874 -3 -0.795609 -3 0 
C -3 0.795609 -2.683901 1.55874 -2.12132 2.12132 
C -1.55874 2.683901 -0.795609 3 0 3 
z
" style="stroke: #00bfa0"/>
    </defs>
    <g clip-path="url(#pd0a7db23fb)">
     <use xlink:href="#m1f8495ba70" x="195.384085" y="222.025101" style="fill: #00bfa0; stroke: #00bfa0"/>
    </g>
   </g>
   <g id="patch_3">
    <path d="M 103.104 307.584 
L 103.104 41.472 
" style="fill: none; stroke: #000000; stroke-width: 0.8; stroke-linejoin: miter; stroke-linecap: square"/>
   </g>
   <g id="patch_4">
    <path d="M 369.216 307.584 
L 369.216 41.472 
" style="fill: none; stroke: #000000; stroke-width: 0.8; stroke-linejoin: miter; stroke-linecap: square"/>
   </g>
   <g id="patch_5">
    <path d="M 103.104 307.584 
L 369.216 307.584 
" style="fill: none; stroke: #000000; stroke-width: 0.8; stroke-linejoin: miter; stroke-linecap: square"/>
   </g>
   <g id="patch_6">
    <path d="M 103.104 41.472 
L 369.216 41.472 
" style="fill: none; stroke: #000000; stroke-width: 0.8; stroke-linejoin: miter; stroke-linecap: square"/>
   </g>
   <g id="text_15">
    <!-- ∆biomass = 0.33(±0.06)$\times$∆C $-$ 0.04 -->
    <g transform="translate(114.192 63.538187) scale(0.1 -0.1)">
     <defs>
      <path id="DejaVuSans-2206" d="M 2138 3944 
L 831 556 
L 3444 556 
L 2138 3944 
z
M 1791 4603 
L 2491 4603 
L 4300 0 
L -19 0 
L 1791 4603 
z
" transform="scale(0.015625)"/>
      <path id="DejaVuSans-3d" d="M 678 2906 
L 4684 2906 
L 4684 2381 
L 678 2381 
L 678 2906 
z
M 678 1631 
L 4684 1631 
L 4684 1100 
L 678 1100 
L 678 1631 
z
" transform="scale(0.015625)"/>
      <path id="DejaVuSans-33" d="M 2597 2516 
Q 3050 2419 3304 2112 
Q 3559 1806 3559 1356 
Q 3559 666 3084 287 
Q 2609 -91 1734 -91 
Q 1441 -91 1130 -33 
Q 819 25 488 141 
L 488 750 
Q 750 597 1062 519 
Q 1375 441 1716 441 
Q 2309 441 2620 675 
Q 2931 909 2931 1356 
Q 2931 1769 2642 2001 
Q 2353 2234 1838 2234 
L 1294 2234 
L 1294 2753 
L 1863 2753 
Q 2328 2753 2575 2939 
Q 2822 3125 2822 3475 
Q 2822 3834 2567 4026 
Q 2313 4219 1838 4219 
Q 1578 4219 1281 4162 
Q 984 4106 628 3988 
L 628 4550 
Q 988 4650 1302 4700 
Q 1616 4750 1894 4750 
Q 2613 4750 3031 4423 
Q 3450 4097 3450 3541 
Q 3450 3153 3228 2886 
Q 3006 2619 2597 2516 
z
" transform="scale(0.015625)"/>
      <path id="DejaVuSans-28" d="M 1984 4856 
Q 1566 4138 1362 3434 
Q 1159 2731 1159 2009 
Q 1159 1288 1364 580 
Q 1569 -128 1984 -844 
L 1484 -844 
Q 1016 -109 783 600 
Q 550 1309 550 2009 
Q 550 2706 781 3412 
Q 1013 4119 1484 4856 
L 1984 4856 
z
" transform="scale(0.015625)"/>
      <path id="DejaVuSans-b1" d="M 2944 4013 
L 2944 2803 
L 4684 2803 
L 4684 2272 
L 2944 2272 
L 2944 1063 
L 2419 1063 
L 2419 2272 
L 678 2272 
L 678 2803 
L 2419 2803 
L 2419 4013 
L 2944 4013 
z
M 678 531 
L 4684 531 
L 4684 0 
L 678 0 
L 678 531 
z
" transform="scale(0.015625)"/>
      <path id="DejaVuSans-29" d="M 513 4856 
L 1013 4856 
Q 1481 4119 1714 3412 
Q 1947 2706 1947 2009 
Q 1947 1309 1714 600 
Q 1481 -109 1013 -844 
L 513 -844 
Q 928 -128 1133 580 
Q 1338 1288 1338 2009 
Q 1338 2731 1133 3434 
Q 928 4138 513 4856 
z
" transform="scale(0.015625)"/>
      <path id="DejaVuSans-d7" d="M 4488 3438 
L 3059 2003 
L 4488 575 
L 4116 197 
L 2681 1631 
L 1247 197 
L 878 575 
L 2303 2003 
L 878 3438 
L 1247 3816 
L 2681 2381 
L 4116 3816 
L 4488 3438 
z
" transform="scale(0.015625)"/>
     </defs>
     <use xlink:href="#DejaVuSans-2206" transform="translate(0 0.015625)"/>
     <use xlink:href="#DejaVuSans-62" transform="translate(66.894531 0.015625)"/>
     <use xlink:href="#DejaVuSans-69" transform="translate(130.371094 0.015625)"/>
     <use xlink:href="#DejaVuSans-6f" transform="translate(158.154297 0.015625)"/>
     <use xlink:href="#DejaVuSans-6d" transform="translate(219.335938 0.015625)"/>
     <use xlink:href="#DejaVuSans-61" transform="translate(316.748047 0.015625)"/>
     <use xlink:href="#DejaVuSans-73" transform="translate(378.027344 0.015625)"/>
     <use xlink:href="#DejaVuSans-73" transform="translate(430.126953 0.015625)"/>
     <use xlink:href="#DejaVuSans-20" transform="translate(482.226562 0.015625)"/>
     <use xlink:href="#DejaVuSans-3d" transform="translate(514.013672 0.015625)"/>
     <use xlink:href="#DejaVuSans-20" transform="translate(597.802734 0.015625)"/>
     <use xlink:href="#DejaVuSans-30" transform="translate(629.589844 0.015625)"/>
     <use xlink:href="#DejaVuSans-2e" transform="translate(693.212891 0.015625)"/>
     <use xlink:href="#DejaVuSans-33" transform="translate(725 0.015625)"/>
     <use xlink:href="#DejaVuSans-33" transform="translate(788.623047 0.015625)"/>
     <use xlink:href="#DejaVuSans-28" transform="translate(852.246094 0.015625)"/>
     <use xlink:href="#DejaVuSans-b1" transform="translate(891.259766 0.015625)"/>
     <use xlink:href="#DejaVuSans-30" transform="translate(975.048828 0.015625)"/>
     <use xlink:href="#DejaVuSans-2e" transform="translate(1038.671875 0.015625)"/>
     <use xlink:href="#DejaVuSans-30" transform="translate(1070.458984 0.015625)"/>
     <use xlink:href="#DejaVuSans-36" transform="translate(1134.082031 0.015625)"/>
     <use xlink:href="#DejaVuSans-29" transform="translate(1197.705078 0.015625)"/>
     <use xlink:href="#DejaVuSans-d7" transform="translate(1236.71875 0.015625)"/>
     <use xlink:href="#DejaVuSans-2206" transform="translate(1320.507812 0.015625)"/>
     <use xlink:href="#DejaVuSans-43" transform="translate(1387.402344 0.015625)"/>
     <use xlink:href="#DejaVuSans-20" transform="translate(1457.226562 0.015625)"/>
     <use xlink:href="#DejaVuSans-2212" transform="translate(1489.013672 0.015625)"/>
     <use xlink:href="#DejaVuSans-20" transform="translate(1572.802734 0.015625)"/>
     <use xlink:href="#DejaVuSans-30" transform="translate(1604.589844 0.015625)"/>
     <use xlink:href="#DejaVuSans-2e" transform="translate(1668.212891 0.015625)"/>
     <use xlink:href="#DejaVuSans-30" transform="translate(1700 0.015625)"/>
     <use xlink:href="#DejaVuSans-34" transform="translate(1763.623047 0.015625)"/>
    </g>
    <!-- $R^2$=0.82 -->
    <g transform="translate(114.192 74.736) scale(0.1 -0.1)">
     <defs>
      <path id="DejaVuSans-Oblique-52" d="M 1613 4147 
L 1294 2491 
L 2106 2491 
Q 2584 2491 2879 2755 
Q 3175 3019 3175 3444 
Q 3175 3784 2976 3965 
Q 2778 4147 2406 4147 
L 1613 4147 
z
M 2772 2241 
Q 2972 2194 3105 2009 
Q 3238 1825 3413 1275 
L 3809 0 
L 3144 0 
L 2778 1197 
Q 2638 1659 2453 1815 
Q 2269 1972 1888 1972 
L 1191 1972 
L 806 0 
L 172 0 
L 1081 4666 
L 2503 4666 
Q 3150 4666 3495 4373 
Q 3841 4081 3841 3531 
Q 3841 3044 3547 2687 
Q 3253 2331 2772 2241 
z
" transform="scale(0.015625)"/>
      <path id="DejaVuSans-38" d="M 2034 2216 
Q 1584 2216 1326 1975 
Q 1069 1734 1069 1313 
Q 1069 891 1326 650 
Q 1584 409 2034 409 
Q 2484 409 2743 651 
Q 3003 894 3003 1313 
Q 3003 1734 2745 1975 
Q 2488 2216 2034 2216 
z
M 1403 2484 
Q 997 2584 770 2862 
Q 544 3141 544 3541 
Q 544 4100 942 4425 
Q 1341 4750 2034 4750 
Q 2731 4750 3128 4425 
Q 3525 4100 3525 3541 
Q 3525 3141 3298 2862 
Q 3072 2584 2669 2484 
Q 3125 2378 3379 2068 
Q 3634 1759 3634 1313 
Q 3634 634 3220 271 
Q 2806 -91 2034 -91 
Q 1263 -91 848 271 
Q 434 634 434 1313 
Q 434 1759 690 2068 
Q 947 2378 1403 2484 
z
M 1172 3481 
Q 1172 3119 1398 2916 
Q 1625 2713 2034 2713 
Q 2441 2713 2670 2916 
Q 2900 3119 2900 3481 
Q 2900 3844 2670 4047 
Q 2441 4250 2034 4250 
Q 1625 4250 1398 4047 
Q 1172 3844 1172 3481 
z
" transform="scale(0.015625)"/>
     </defs>
     <use xlink:href="#DejaVuSans-Oblique-52" transform="translate(0 0.765625)"/>
     <use xlink:href="#DejaVuSans-32" transform="translate(76.499193 39.046875) scale(0.7)"/>
     <use xlink:href="#DejaVuSans-3d" transform="translate(123.769701 0.765625)"/>
     <use xlink:href="#DejaVuSans-30" transform="translate(207.558763 0.765625)"/>
     <use xlink:href="#DejaVuSans-2e" transform="translate(271.18181 0.765625)"/>
     <use xlink:href="#DejaVuSans-38" transform="translate(300.343919 0.765625)"/>
     <use xlink:href="#DejaVuSans-32" transform="translate(363.966966 0.765625)"/>
    </g>
   </g>
   <g id="legend_1">
    <g id="patch_7">
     <path d="M 384.5216 176.575125 
L 491.129413 176.575125 
Q 493.129413 176.575125 493.129413 174.575125 
L 493.129413 43.472 
Q 493.129413 41.472 491.129413 41.472 
L 384.5216 41.472 
Q 382.5216 41.472 382.5216 43.472 
L 382.5216 174.575125 
Q 382.5216 176.575125 384.5216 176.575125 
z
" style="fill: #ffffff; opacity: 0.8; stroke: #cccccc; stroke-linejoin: miter"/>
    </g>
    <g id="LineCollection_19">
     <path d="M 391.5216 49.570438 
L 401.5216 49.570438 
" style="fill: none; stroke: #e60049; stroke-width: 1.5"/>
    </g>
    <g id="LineCollection_20">
     <path d="M 396.5216 54.570438 
L 396.5216 44.570438 
" style="fill: none; stroke: #e60049; stroke-width: 1.5"/>
    </g>
    <g id="line2d_62">
     <g>
      <use xlink:href="#m188c357c0a" x="391.5216" y="49.570438" style="fill: #e60049; stroke: #e60049"/>
     </g>
    </g>
    <g id="line2d_63">
     <g>
      <use xlink:href="#m188c357c0a" x="401.5216" y="49.570438" style="fill: #e60049; stroke: #e60049"/>
     </g>
    </g>
    <g id="line2d_64">
     <g>
      <use xlink:href="#meee83b17b5" x="396.5216" y="54.570438" style="fill: #e60049; stroke: #e60049"/>
     </g>
    </g>
    <g id="line2d_65">
     <g>
      <use xlink:href="#meee83b17b5" x="396.5216" y="44.570438" style="fill: #e60049; stroke: #e60049"/>
     </g>
    </g>
    <g id="line2d_66"/>
    <g id="line2d_67">
     <g>
      <use xlink:href="#md0c4ea4ca7" x="396.5216" y="49.570438" style="fill: #e60049; stroke: #e60049"/>
     </g>
    </g>
    <g id="text_16">
     <!-- Africa -->
     <g transform="translate(414.5216 53.070438) scale(0.1 -0.1)">
      <defs>
       <path id="DejaVuSans-41" d="M 2188 4044 
L 1331 1722 
L 3047 1722 
L 2188 4044 
z
M 1831 4666 
L 2547 4666 
L 4325 0 
L 3669 0 
L 3244 1197 
L 1141 1197 
L 716 0 
L 50 0 
L 1831 4666 
z
" transform="scale(0.015625)"/>
       <path id="DejaVuSans-66" d="M 2375 4863 
L 2375 4384 
L 1825 4384 
Q 1516 4384 1395 4259 
Q 1275 4134 1275 3809 
L 1275 3500 
L 2222 3500 
L 2222 3053 
L 1275 3053 
L 1275 0 
L 697 0 
L 697 3053 
L 147 3053 
L 147 3500 
L 697 3500 
L 697 3744 
Q 697 4328 969 4595 
Q 1241 4863 1831 4863 
L 2375 4863 
z
" transform="scale(0.015625)"/>
      </defs>
      <use xlink:href="#DejaVuSans-41"/>
      <use xlink:href="#DejaVuSans-66" x="64.783203"/>
      <use xlink:href="#DejaVuSans-72" x="99.988281"/>
      <use xlink:href="#DejaVuSans-69" x="141.101562"/>
      <use xlink:href="#DejaVuSans-63" x="168.884766"/>
      <use xlink:href="#DejaVuSans-61" x="223.865234"/>
     </g>
    </g>
    <g id="LineCollection_21">
     <path d="M 391.5216 64.248563 
L 401.5216 64.248563 
" style="fill: none; stroke: #0bb4ff; stroke-width: 1.5"/>
    </g>
    <g id="LineCollection_22">
     <path d="M 396.5216 69.248563 
L 396.5216 59.248563 
" style="fill: none; stroke: #0bb4ff; stroke-width: 1.5"/>
    </g>
    <g id="line2d_68">
     <g>
      <use xlink:href="#m72e8490604" x="391.5216" y="64.248563" style="fill: #0bb4ff; stroke: #0bb4ff"/>
     </g>
    </g>
    <g id="line2d_69">
     <g>
      <use xlink:href="#m72e8490604" x="401.5216" y="64.248563" style="fill: #0bb4ff; stroke: #0bb4ff"/>
     </g>
    </g>
    <g id="line2d_70">
     <g>
      <use xlink:href="#mb3f7158ae3" x="396.5216" y="69.248563" style="fill: #0bb4ff; stroke: #0bb4ff"/>
     </g>
    </g>
    <g id="line2d_71">
     <g>
      <use xlink:href="#mb3f7158ae3" x="396.5216" y="59.248563" style="fill: #0bb4ff; stroke: #0bb4ff"/>
     </g>
    </g>
    <g id="line2d_72"/>
    <g id="line2d_73">
     <g>
      <use xlink:href="#m32a487737c" x="396.5216" y="64.248563" style="fill: #0bb4ff; stroke: #0bb4ff"/>
     </g>
    </g>
    <g id="text_17">
     <!-- Australia -->
     <g transform="translate(414.5216 67.748563) scale(0.1 -0.1)">
      <use xlink:href="#DejaVuSans-41"/>
      <use xlink:href="#DejaVuSans-75" x="68.408203"/>
      <use xlink:href="#DejaVuSans-73" x="131.787109"/>
      <use xlink:href="#DejaVuSans-74" x="183.886719"/>
      <use xlink:href="#DejaVuSans-72" x="223.095703"/>
      <use xlink:href="#DejaVuSans-61" x="264.208984"/>
      <use xlink:href="#DejaVuSans-6c" x="325.488281"/>
      <use xlink:href="#DejaVuSans-69" x="353.271484"/>
      <use xlink:href="#DejaVuSans-61" x="381.054688"/>
     </g>
    </g>
    <g id="LineCollection_23">
     <path d="M 391.5216 78.926688 
L 401.5216 78.926688 
" style="fill: none; stroke: #50e991; stroke-width: 1.5"/>
    </g>
    <g id="LineCollection_24">
     <path d="M 396.5216 83.926688 
L 396.5216 73.926688 
" style="fill: none; stroke: #50e991; stroke-width: 1.5"/>
    </g>
    <g id="line2d_74">
     <g>
      <use xlink:href="#m3a57fa0278" x="391.5216" y="78.926688" style="fill: #50e991; stroke: #50e991"/>
     </g>
    </g>
    <g id="line2d_75">
     <g>
      <use xlink:href="#m3a57fa0278" x="401.5216" y="78.926688" style="fill: #50e991; stroke: #50e991"/>
     </g>
    </g>
    <g id="line2d_76">
     <g>
      <use xlink:href="#m76a7a4408b" x="396.5216" y="83.926688" style="fill: #50e991; stroke: #50e991"/>
     </g>
    </g>
    <g id="line2d_77">
     <g>
      <use xlink:href="#m76a7a4408b" x="396.5216" y="73.926688" style="fill: #50e991; stroke: #50e991"/>
     </g>
    </g>
    <g id="line2d_78"/>
    <g id="line2d_79">
     <g>
      <use xlink:href="#md24fb4637f" x="396.5216" y="78.926688" style="fill: #50e991; stroke: #50e991"/>
     </g>
    </g>
    <g id="text_18">
     <!-- East Asia -->
     <g transform="translate(414.5216 82.426688) scale(0.1 -0.1)">
      <defs>
       <path id="DejaVuSans-45" d="M 628 4666 
L 3578 4666 
L 3578 4134 
L 1259 4134 
L 1259 2753 
L 3481 2753 
L 3481 2222 
L 1259 2222 
L 1259 531 
L 3634 531 
L 3634 0 
L 628 0 
L 628 4666 
z
" transform="scale(0.015625)"/>
      </defs>
      <use xlink:href="#DejaVuSans-45"/>
      <use xlink:href="#DejaVuSans-61" x="63.183594"/>
      <use xlink:href="#DejaVuSans-73" x="124.462891"/>
      <use xlink:href="#DejaVuSans-74" x="176.5625"/>
      <use xlink:href="#DejaVuSans-20" x="215.771484"/>
      <use xlink:href="#DejaVuSans-41" x="247.558594"/>
      <use xlink:href="#DejaVuSans-73" x="315.966797"/>
      <use xlink:href="#DejaVuSans-69" x="368.066406"/>
      <use xlink:href="#DejaVuSans-61" x="395.849609"/>
     </g>
    </g>
    <g id="LineCollection_25">
     <path d="M 391.5216 93.604813 
L 401.5216 93.604813 
" style="fill: none; stroke: #e6d800; stroke-width: 1.5"/>
    </g>
    <g id="LineCollection_26">
     <path d="M 396.5216 98.604813 
L 396.5216 88.604813 
" style="fill: none; stroke: #e6d800; stroke-width: 1.5"/>
    </g>
    <g id="line2d_80">
     <g>
      <use xlink:href="#mc901d06641" x="391.5216" y="93.604813" style="fill: #e6d800; stroke: #e6d800"/>
     </g>
    </g>
    <g id="line2d_81">
     <g>
      <use xlink:href="#mc901d06641" x="401.5216" y="93.604813" style="fill: #e6d800; stroke: #e6d800"/>
     </g>
    </g>
    <g id="line2d_82">
     <g>
      <use xlink:href="#me29668b7e0" x="396.5216" y="98.604813" style="fill: #e6d800; stroke: #e6d800"/>
     </g>
    </g>
    <g id="line2d_83">
     <g>
      <use xlink:href="#me29668b7e0" x="396.5216" y="88.604813" style="fill: #e6d800; stroke: #e6d800"/>
     </g>
    </g>
    <g id="line2d_84"/>
    <g id="line2d_85">
     <g>
      <use xlink:href="#m6c50b3dfdb" x="396.5216" y="93.604813" style="fill: #e6d800; stroke: #e6d800"/>
     </g>
    </g>
    <g id="text_19">
     <!-- Europe -->
     <g transform="translate(414.5216 97.104813) scale(0.1 -0.1)">
      <defs>
       <path id="DejaVuSans-70" d="M 1159 525 
L 1159 -1331 
L 581 -1331 
L 581 3500 
L 1159 3500 
L 1159 2969 
Q 1341 3281 1617 3432 
Q 1894 3584 2278 3584 
Q 2916 3584 3314 3078 
Q 3713 2572 3713 1747 
Q 3713 922 3314 415 
Q 2916 -91 2278 -91 
Q 1894 -91 1617 61 
Q 1341 213 1159 525 
z
M 3116 1747 
Q 3116 2381 2855 2742 
Q 2594 3103 2138 3103 
Q 1681 3103 1420 2742 
Q 1159 2381 1159 1747 
Q 1159 1113 1420 752 
Q 1681 391 2138 391 
Q 2594 391 2855 752 
Q 3116 1113 3116 1747 
z
" transform="scale(0.015625)"/>
      </defs>
      <use xlink:href="#DejaVuSans-45"/>
      <use xlink:href="#DejaVuSans-75" x="63.183594"/>
      <use xlink:href="#DejaVuSans-72" x="126.5625"/>
      <use xlink:href="#DejaVuSans-6f" x="165.425781"/>
      <use xlink:href="#DejaVuSans-70" x="226.607422"/>
      <use xlink:href="#DejaVuSans-65" x="290.083984"/>
     </g>
    </g>
    <g id="LineCollection_27">
     <path d="M 391.5216 108.282938 
L 401.5216 108.282938 
" style="fill: none; stroke: #9b19f5; stroke-width: 1.5"/>
    </g>
    <g id="LineCollection_28">
     <path d="M 396.5216 113.282938 
L 396.5216 103.282938 
" style="fill: none; stroke: #9b19f5; stroke-width: 1.5"/>
    </g>
    <g id="line2d_86">
     <g>
      <use xlink:href="#m47e14b723d" x="391.5216" y="108.282938" style="fill: #9b19f5; stroke: #9b19f5"/>
     </g>
    </g>
    <g id="line2d_87">
     <g>
      <use xlink:href="#m47e14b723d" x="401.5216" y="108.282938" style="fill: #9b19f5; stroke: #9b19f5"/>
     </g>
    </g>
    <g id="line2d_88">
     <g>
      <use xlink:href="#m3a70e4f3aa" x="396.5216" y="113.282938" style="fill: #9b19f5; stroke: #9b19f5"/>
     </g>
    </g>
    <g id="line2d_89">
     <g>
      <use xlink:href="#m3a70e4f3aa" x="396.5216" y="103.282938" style="fill: #9b19f5; stroke: #9b19f5"/>
     </g>
    </g>
    <g id="line2d_90"/>
    <g id="line2d_91">
     <g>
      <use xlink:href="#m952963e7ae" x="396.5216" y="108.282938" style="fill: #9b19f5; stroke: #9b19f5"/>
     </g>
    </g>
    <g id="text_20">
     <!-- North America -->
     <g transform="translate(414.5216 111.782938) scale(0.1 -0.1)">
      <defs>
       <path id="DejaVuSans-4e" d="M 628 4666 
L 1478 4666 
L 3547 763 
L 3547 4666 
L 4159 4666 
L 4159 0 
L 3309 0 
L 1241 3903 
L 1241 0 
L 628 0 
L 628 4666 
z
" transform="scale(0.015625)"/>
      </defs>
      <use xlink:href="#DejaVuSans-4e"/>
      <use xlink:href="#DejaVuSans-6f" x="74.804688"/>
      <use xlink:href="#DejaVuSans-72" x="135.986328"/>
      <use xlink:href="#DejaVuSans-74" x="177.099609"/>
      <use xlink:href="#DejaVuSans-68" x="216.308594"/>
      <use xlink:href="#DejaVuSans-20" x="279.6875"/>
      <use xlink:href="#DejaVuSans-41" x="311.474609"/>
      <use xlink:href="#DejaVuSans-6d" x="379.882812"/>
      <use xlink:href="#DejaVuSans-65" x="477.294922"/>
      <use xlink:href="#DejaVuSans-72" x="538.818359"/>
      <use xlink:href="#DejaVuSans-69" x="579.931641"/>
      <use xlink:href="#DejaVuSans-63" x="607.714844"/>
      <use xlink:href="#DejaVuSans-61" x="662.695312"/>
     </g>
    </g>
    <g id="LineCollection_29">
     <path d="M 391.5216 122.961063 
L 401.5216 122.961063 
" style="fill: none; stroke: #ffa300; stroke-width: 1.5"/>
    </g>
    <g id="LineCollection_30">
     <path d="M 396.5216 127.961063 
L 396.5216 117.961063 
" style="fill: none; stroke: #ffa300; stroke-width: 1.5"/>
    </g>
    <g id="line2d_92">
     <g>
      <use xlink:href="#md085573b3d" x="391.5216" y="122.961063" style="fill: #ffa300; stroke: #ffa300"/>
     </g>
    </g>
    <g id="line2d_93">
     <g>
      <use xlink:href="#md085573b3d" x="401.5216" y="122.961063" style="fill: #ffa300; stroke: #ffa300"/>
     </g>
    </g>
    <g id="line2d_94">
     <g>
      <use xlink:href="#mf59c3fbd45" x="396.5216" y="127.961063" style="fill: #ffa300; stroke: #ffa300"/>
     </g>
    </g>
    <g id="line2d_95">
     <g>
      <use xlink:href="#mf59c3fbd45" x="396.5216" y="117.961063" style="fill: #ffa300; stroke: #ffa300"/>
     </g>
    </g>
    <g id="line2d_96"/>
    <g id="line2d_97">
     <g>
      <use xlink:href="#m5e272a960d" x="396.5216" y="122.961063" style="fill: #ffa300; stroke: #ffa300"/>
     </g>
    </g>
    <g id="text_21">
     <!-- Russia -->
     <g transform="translate(414.5216 126.461063) scale(0.1 -0.1)">
      <defs>
       <path id="DejaVuSans-52" d="M 2841 2188 
Q 3044 2119 3236 1894 
Q 3428 1669 3622 1275 
L 4263 0 
L 3584 0 
L 2988 1197 
Q 2756 1666 2539 1819 
Q 2322 1972 1947 1972 
L 1259 1972 
L 1259 0 
L 628 0 
L 628 4666 
L 2053 4666 
Q 2853 4666 3247 4331 
Q 3641 3997 3641 3322 
Q 3641 2881 3436 2590 
Q 3231 2300 2841 2188 
z
M 1259 4147 
L 1259 2491 
L 2053 2491 
Q 2509 2491 2742 2702 
Q 2975 2913 2975 3322 
Q 2975 3731 2742 3939 
Q 2509 4147 2053 4147 
L 1259 4147 
z
" transform="scale(0.015625)"/>
      </defs>
      <use xlink:href="#DejaVuSans-52"/>
      <use xlink:href="#DejaVuSans-75" x="64.982422"/>
      <use xlink:href="#DejaVuSans-73" x="128.361328"/>
      <use xlink:href="#DejaVuSans-73" x="180.460938"/>
      <use xlink:href="#DejaVuSans-69" x="232.560547"/>
      <use xlink:href="#DejaVuSans-61" x="260.34375"/>
     </g>
    </g>
    <g id="LineCollection_31">
     <path d="M 391.5216 137.639188 
L 401.5216 137.639188 
" style="fill: none; stroke: #dc0ab4; stroke-width: 1.5"/>
    </g>
    <g id="LineCollection_32">
     <path d="M 396.5216 142.639188 
L 396.5216 132.639188 
" style="fill: none; stroke: #dc0ab4; stroke-width: 1.5"/>
    </g>
    <g id="line2d_98">
     <g>
      <use xlink:href="#m63f9ea6b53" x="391.5216" y="137.639188" style="fill: #dc0ab4; stroke: #dc0ab4"/>
     </g>
    </g>
    <g id="line2d_99">
     <g>
      <use xlink:href="#m63f9ea6b53" x="401.5216" y="137.639188" style="fill: #dc0ab4; stroke: #dc0ab4"/>
     </g>
    </g>
    <g id="line2d_100">
     <g>
      <use xlink:href="#m0fb65cb528" x="396.5216" y="142.639188" style="fill: #dc0ab4; stroke: #dc0ab4"/>
     </g>
    </g>
    <g id="line2d_101">
     <g>
      <use xlink:href="#m0fb65cb528" x="396.5216" y="132.639188" style="fill: #dc0ab4; stroke: #dc0ab4"/>
     </g>
    </g>
    <g id="line2d_102"/>
    <g id="line2d_103">
     <g>
      <use xlink:href="#mf3e186cc86" x="396.5216" y="137.639188" style="fill: #dc0ab4; stroke: #dc0ab4"/>
     </g>
    </g>
    <g id="text_22">
     <!-- South America -->
     <g transform="translate(414.5216 141.139188) scale(0.1 -0.1)">
      <defs>
       <path id="DejaVuSans-53" d="M 3425 4513 
L 3425 3897 
Q 3066 4069 2747 4153 
Q 2428 4238 2131 4238 
Q 1616 4238 1336 4038 
Q 1056 3838 1056 3469 
Q 1056 3159 1242 3001 
Q 1428 2844 1947 2747 
L 2328 2669 
Q 3034 2534 3370 2195 
Q 3706 1856 3706 1288 
Q 3706 609 3251 259 
Q 2797 -91 1919 -91 
Q 1588 -91 1214 -16 
Q 841 59 441 206 
L 441 856 
Q 825 641 1194 531 
Q 1563 422 1919 422 
Q 2459 422 2753 634 
Q 3047 847 3047 1241 
Q 3047 1584 2836 1778 
Q 2625 1972 2144 2069 
L 1759 2144 
Q 1053 2284 737 2584 
Q 422 2884 422 3419 
Q 422 4038 858 4394 
Q 1294 4750 2059 4750 
Q 2388 4750 2728 4690 
Q 3069 4631 3425 4513 
z
" transform="scale(0.015625)"/>
      </defs>
      <use xlink:href="#DejaVuSans-53"/>
      <use xlink:href="#DejaVuSans-6f" x="63.476562"/>
      <use xlink:href="#DejaVuSans-75" x="124.658203"/>
      <use xlink:href="#DejaVuSans-74" x="188.037109"/>
      <use xlink:href="#DejaVuSans-68" x="227.246094"/>
      <use xlink:href="#DejaVuSans-20" x="290.625"/>
      <use xlink:href="#DejaVuSans-41" x="322.412109"/>
      <use xlink:href="#DejaVuSans-6d" x="390.820312"/>
      <use xlink:href="#DejaVuSans-65" x="488.232422"/>
      <use xlink:href="#DejaVuSans-72" x="549.755859"/>
      <use xlink:href="#DejaVuSans-69" x="590.869141"/>
      <use xlink:href="#DejaVuSans-63" x="618.652344"/>
      <use xlink:href="#DejaVuSans-61" x="673.632812"/>
     </g>
    </g>
    <g id="LineCollection_33">
     <path d="M 391.5216 152.317313 
L 401.5216 152.317313 
" style="fill: none; stroke: #b3d4ff; stroke-width: 1.5"/>
    </g>
    <g id="LineCollection_34">
     <path d="M 396.5216 157.317313 
L 396.5216 147.317313 
" style="fill: none; stroke: #b3d4ff; stroke-width: 1.5"/>
    </g>
    <g id="line2d_104">
     <g>
      <use xlink:href="#mdd2389a3c1" x="391.5216" y="152.317313" style="fill: #b3d4ff; stroke: #b3d4ff"/>
     </g>
    </g>
    <g id="line2d_105">
     <g>
      <use xlink:href="#mdd2389a3c1" x="401.5216" y="152.317313" style="fill: #b3d4ff; stroke: #b3d4ff"/>
     </g>
    </g>
    <g id="line2d_106">
     <g>
      <use xlink:href="#m193ae20cc8" x="396.5216" y="157.317313" style="fill: #b3d4ff; stroke: #b3d4ff"/>
     </g>
    </g>
    <g id="line2d_107">
     <g>
      <use xlink:href="#m193ae20cc8" x="396.5216" y="147.317313" style="fill: #b3d4ff; stroke: #b3d4ff"/>
     </g>
    </g>
    <g id="line2d_108"/>
    <g id="line2d_109">
     <g>
      <use xlink:href="#m57eaf6c4cc" x="396.5216" y="152.317313" style="fill: #b3d4ff; stroke: #b3d4ff"/>
     </g>
    </g>
    <g id="text_23">
     <!-- South Asia -->
     <g transform="translate(414.5216 155.817313) scale(0.1 -0.1)">
      <use xlink:href="#DejaVuSans-53"/>
      <use xlink:href="#DejaVuSans-6f" x="63.476562"/>
      <use xlink:href="#DejaVuSans-75" x="124.658203"/>
      <use xlink:href="#DejaVuSans-74" x="188.037109"/>
      <use xlink:href="#DejaVuSans-68" x="227.246094"/>
      <use xlink:href="#DejaVuSans-20" x="290.625"/>
      <use xlink:href="#DejaVuSans-41" x="322.412109"/>
      <use xlink:href="#DejaVuSans-73" x="390.820312"/>
      <use xlink:href="#DejaVuSans-69" x="442.919922"/>
      <use xlink:href="#DejaVuSans-61" x="470.703125"/>
     </g>
    </g>
    <g id="LineCollection_35">
     <path d="M 391.5216 166.995438 
L 401.5216 166.995438 
" style="fill: none; stroke: #00bfa0; stroke-width: 1.5"/>
    </g>
    <g id="LineCollection_36">
     <path d="M 396.5216 171.995438 
L 396.5216 161.995438 
" style="fill: none; stroke: #00bfa0; stroke-width: 1.5"/>
    </g>
    <g id="line2d_110">
     <g>
      <use xlink:href="#m79b4571e6e" x="391.5216" y="166.995438" style="fill: #00bfa0; stroke: #00bfa0"/>
     </g>
    </g>
    <g id="line2d_111">
     <g>
      <use xlink:href="#m79b4571e6e" x="401.5216" y="166.995438" style="fill: #00bfa0; stroke: #00bfa0"/>
     </g>
    </g>
    <g id="line2d_112">
     <g>
      <use xlink:href="#m222bb9a3f7" x="396.5216" y="171.995438" style="fill: #00bfa0; stroke: #00bfa0"/>
     </g>
    </g>
    <g id="line2d_113">
     <g>
      <use xlink:href="#m222bb9a3f7" x="396.5216" y="161.995438" style="fill: #00bfa0; stroke: #00bfa0"/>
     </g>
    </g>
    <g id="line2d_114"/>
    <g id="line2d_115">
     <g>
      <use xlink:href="#m1f8495ba70" x="396.5216" y="166.995438" style="fill: #00bfa0; stroke: #00bfa0"/>
     </g>
    </g>
    <g id="text_24">
     <!-- Southeast Asia -->
     <g transform="translate(414.5216 170.495438) scale(0.1 -0.1)">
      <use xlink:href="#DejaVuSans-53"/>
      <use xlink:href="#DejaVuSans-6f" x="63.476562"/>
      <use xlink:href="#DejaVuSans-75" x="124.658203"/>
      <use xlink:href="#DejaVuSans-74" x="188.037109"/>
      <use xlink:href="#DejaVuSans-68" x="227.246094"/>
      <use xlink:href="#DejaVuSans-65" x="290.625"/>
      <use xlink:href="#DejaVuSans-61" x="352.148438"/>
      <use xlink:href="#DejaVuSans-73" x="413.427734"/>
      <use xlink:href="#DejaVuSans-74" x="465.527344"/>
      <use xlink:href="#DejaVuSans-20" x="504.736328"/>
      <use xlink:href="#DejaVuSans-41" x="536.523438"/>
      <use xlink:href="#DejaVuSans-73" x="604.931641"/>
      <use xlink:href="#DejaVuSans-69" x="657.03125"/>
      <use xlink:href="#DejaVuSans-61" x="684.814453"/>
     </g>
    </g>
   </g>
  </g>
 </g>
 <defs>
  <clipPath id="pd0a7db23fb">
   <rect x="103.104" y="41.472" width="266.112" height="266.112"/>
  </clipPath>
 </defs>
</svg>
